<svg xmlns="http://www.w3.org/2000/svg" viewBox="0 0 270.14 308.8"><defs><style>.cls-1{fill:#91573a;}.cls-2{fill:#564138;}.cls-3{fill:#487699;}.cls-4{fill:#b56262;}.cls-5{fill:#484f46;}.cls-6{fill:#599947;}</style></defs><title>bookshelf</title><g id="Layer_2" data-name="Layer 2"><g id="Layer_6" data-name="Layer 6"><rect class="cls-1" width="270.14" height="308.8" rx="12" ry="12"/><rect class="cls-2" x="14.09" y="14.95" width="241.97" height="82.04" rx="12" ry="12"/><rect class="cls-2" x="14.09" y="113.09" width="241.97" height="82.04" rx="12" ry="12"/><rect class="cls-2" x="14.09" y="211.23" width="241.97" height="82.04" rx="12" ry="12"/><rect class="cls-3" x="20.22" y="19.46" width="22.75" height="76.79" rx="5.26" ry="5.26"/><rect class="cls-4" x="42.96" y="19.46" width="22.75" height="76.79" rx="5.26" ry="5.26"/><rect class="cls-5" x="69.35" y="19.46" width="22.75" height="76.79" rx="5.26" ry="5.26" transform="translate(-4.72 7.23) rotate(-4.98)"/><rect class="cls-6" x="98.37" y="20.2" width="22.75" height="76.79" rx="5.26" ry="5.26" transform="translate(-11.16 29.3) rotate(-14.48)"/><rect class="cls-3" x="156.45" y="46.48" width="22.75" height="76.79" rx="5.26" ry="5.26" transform="translate(82.95 252.7) rotate(-90)"/><rect class="cls-6" x="151.35" y="23.74" width="22.75" height="76.79" rx="5.26" ry="5.26" transform="translate(100.6 224.86) rotate(-90)"/><rect class="cls-4" x="228.4" y="118.34" width="22.75" height="76.79" rx="5.26" ry="5.26"/><rect class="cls-5" x="206.22" y="118.34" width="22.75" height="76.79" rx="5.26" ry="5.26"/><rect class="cls-3" x="183.47" y="118.34" width="22.75" height="76.79" rx="5.26" ry="5.26"/><rect class="cls-6" x="160.72" y="118.34" width="22.75" height="76.79" rx="5.26" ry="5.26"/><rect class="cls-6" x="110.96" y="145.36" width="22.75" height="76.79" rx="5.26" ry="5.26" transform="translate(-61.42 306.09) rotate(-90)"/><rect class="cls-5" x="110.96" y="122.98" width="22.75" height="76.79" rx="5.26" ry="5.26" transform="translate(-39.04 283.71) rotate(-90)"/><rect class="cls-6" x="37.9" y="122.61" width="22.75" height="76.79" rx="5.26" ry="5.26" transform="translate(-24.11 312.55) rotate(-137.15)"/><rect class="cls-6" x="47.24" y="243.5" width="22.75" height="76.79" rx="5.26" ry="5.26" transform="translate(-223.29 340.5) rotate(-90)"/><rect class="cls-4" x="47.24" y="220.75" width="22.75" height="76.79" rx="5.26" ry="5.26" transform="translate(-200.54 317.76) rotate(-90)"/><rect class="cls-5" x="47.24" y="198" width="22.75" height="76.79" rx="5.26" ry="5.26" transform="translate(-177.79 295.01) rotate(-90)"/><rect class="cls-6" x="164.69" y="216.48" width="22.75" height="76.79" rx="5.26" ry="5.26"/><rect class="cls-3" x="142.5" y="216.48" width="22.75" height="76.79" rx="5.26" ry="5.26"/><rect class="cls-5" x="119.75" y="216.48" width="22.75" height="76.79" rx="5.26" ry="5.26"/><rect class="cls-3" x="97" y="216.48" width="22.75" height="76.79" rx="5.26" ry="5.26"/><rect class="cls-5" x="220.17" y="216.48" width="22.75" height="76.79" rx="5.26" ry="5.26" transform="translate(-73.65 95.41) rotate(-20.16)"/></g></g></svg>