<svg xmlns="http://www.w3.org/2000/svg" viewBox="0 0 175.26 25"><defs><style>.cls-1{fill:#ff5224;opacity:0.41;}.cls-2{fill:#c6c4ac;}.cls-3{fill:#e5e3d3;}.cls-4{fill:#726e65;}.cls-5{fill:#ffd371;}</style></defs><title>candleSH</title><g id="Layer_4" data-name="Layer 4"><ellipse class="cls-1" cx="12.61" cy="6.44" rx="5.19" ry="5.49"/><rect class="cls-2" x="8.29" y="9.85" width="8.57" height="13.98" rx="1" ry="1"/><path class="cls-3" d="M16.58,8.92a.62.62,0,0,0-.18,0,.6.6,0,0,0-.18,0H9.63A1.89,1.89,0,0,0,7.8,10.85v.44s0,.06,0,.09,0,.06,0,.09V14A1.89,1.89,0,0,0,9.63,15.9h.22A1.89,1.89,0,0,0,11.69,14v-.76h0a.89.89,0,0,0,.87.86h.18a.87.87,0,0,0,.76-.46v.1a.76.76,0,1,0,1.52,0v-.49a.82.82,0,0,0,.54,0v1.44a.64.64,0,1,0,1.28,0v-1a.7.7,0,0,0,.38-.63V9.62A.68.68,0,0,0,16.58,8.92Z"/><rect class="cls-4" x="12.05" y="6.44" width="1.13" height="3.21" rx="0.56" ry="0.56"/><circle class="cls-5" cx="12.61" cy="6.44" r="0.75"/><ellipse class="cls-1" cx="37.65" cy="6.44" rx="4.62" ry="4.89"/><rect class="cls-2" x="33.33" y="9.85" width="8.57" height="13.98" rx="1" ry="1"/><path class="cls-3" d="M41.62,8.92a.62.62,0,0,0-.18,0,.6.6,0,0,0-.18,0H34.67a1.89,1.89,0,0,0-1.84,1.92v.44s0,.06,0,.09,0,.06,0,.09V14a1.89,1.89,0,0,0,1.84,1.92h.22A1.89,1.89,0,0,0,36.73,14v-.76h0a.89.89,0,0,0,.87.86h.18a.87.87,0,0,0,.76-.46v.1a.76.76,0,1,0,1.52,0v-.49a.82.82,0,0,0,.54,0v1.44a.64.64,0,1,0,1.28,0v-1a.7.7,0,0,0,.38-.63V9.62A.68.68,0,0,0,41.62,8.92Z"/><rect class="cls-4" x="37.09" y="6.44" width="1.13" height="3.21" rx="0.56" ry="0.56"/><circle class="cls-5" cx="37.65" cy="6.44" r="1.13"/><ellipse class="cls-1" cx="62.69" cy="6.44" rx="3.97" ry="4.21"/><rect class="cls-2" x="58.37" y="9.85" width="8.57" height="13.98" rx="1" ry="1"/><path class="cls-3" d="M66.66,8.92a.62.62,0,0,0-.18,0,.6.6,0,0,0-.18,0H59.72a1.89,1.89,0,0,0-1.84,1.92v.44s0,.06,0,.09,0,.06,0,.09V14a1.89,1.89,0,0,0,1.84,1.92h.22A1.89,1.89,0,0,0,61.77,14v-.76h0a.89.89,0,0,0,.87.86h.18a.87.87,0,0,0,.76-.46v.1a.76.76,0,1,0,1.52,0v-.49a.82.82,0,0,0,.54,0v1.44a.64.64,0,1,0,1.28,0v-1a.7.7,0,0,0,.38-.63V9.62A.68.68,0,0,0,66.66,8.92Z"/><rect class="cls-4" x="62.13" y="6.44" width="1.13" height="3.21" rx="0.56" ry="0.56"/><circle class="cls-5" cx="62.69" cy="6.44" r="1.61"/><ellipse class="cls-1" cx="87.73" cy="6.44" rx="3.41" ry="3.68"/><rect class="cls-2" x="83.41" y="9.85" width="8.57" height="13.98" rx="1" ry="1"/><path class="cls-3" d="M91.7,8.92a.62.62,0,0,0-.18,0,.6.6,0,0,0-.18,0H84.76a1.89,1.89,0,0,0-1.84,1.92v.44s0,.06,0,.09,0,.06,0,.09V14a1.89,1.89,0,0,0,1.84,1.92H85A1.89,1.89,0,0,0,86.81,14v-.76h0a.89.89,0,0,0,.87.86h.18a.87.87,0,0,0,.76-.46v.1a.76.76,0,1,0,1.52,0v-.49a.82.82,0,0,0,.54,0v1.44a.64.64,0,1,0,1.28,0v-1a.7.7,0,0,0,.38-.63V9.62A.68.68,0,0,0,91.7,8.92Z"/><rect class="cls-4" x="87.17" y="6.44" width="1.13" height="3.21" rx="0.56" ry="0.56"/><circle class="cls-5" cx="87.73" cy="6.44" r="2.23"/><ellipse class="cls-1" cx="112.77" cy="6.44" rx="3.97" ry="4.21"/><rect class="cls-2" x="108.45" y="9.85" width="8.57" height="13.98" rx="1" ry="1"/><path class="cls-3" d="M116.74,8.92a.62.62,0,0,0-.18,0,.6.6,0,0,0-.18,0H109.8A1.89,1.89,0,0,0,108,10.85v.44s0,.06,0,.09,0,.06,0,.09V14a1.89,1.89,0,0,0,1.84,1.92H110A1.89,1.89,0,0,0,111.85,14v-.76h0a.89.89,0,0,0,.87.86h.18a.87.87,0,0,0,.76-.46v.1a.76.76,0,1,0,1.52,0v-.49a.82.82,0,0,0,.54,0v1.44a.64.64,0,1,0,1.28,0v-1a.7.7,0,0,0,.38-.63V9.62A.68.68,0,0,0,116.74,8.92Z"/><rect class="cls-4" x="112.21" y="6.44" width="1.13" height="3.21" rx="0.56" ry="0.56"/><circle class="cls-5" cx="112.77" cy="6.44" r="1.61"/><ellipse class="cls-1" cx="137.81" cy="6.44" rx="4.62" ry="4.89"/><rect class="cls-2" x="133.5" y="9.85" width="8.57" height="13.98" rx="1" ry="1"/><path class="cls-3" d="M141.78,8.92a.62.62,0,0,0-.18,0,.6.6,0,0,0-.18,0h-6.59A1.89,1.89,0,0,0,133,10.85v.44s0,.06,0,.09,0,.06,0,.09V14a1.89,1.89,0,0,0,1.84,1.92h.22A1.89,1.89,0,0,0,136.89,14v-.76h0a.89.89,0,0,0,.87.86H138a.87.87,0,0,0,.76-.46v.1a.76.76,0,1,0,1.52,0v-.49a.82.82,0,0,0,.54,0v1.44a.64.64,0,1,0,1.28,0v-1a.7.7,0,0,0,.38-.63V9.62A.68.68,0,0,0,141.78,8.92Z"/><rect class="cls-4" x="137.25" y="6.44" width="1.13" height="3.21" rx="0.56" ry="0.56"/><circle class="cls-5" cx="137.81" cy="6.44" r="1.13"/><ellipse class="cls-1" cx="162.85" cy="6.44" rx="5.19" ry="5.49"/><rect class="cls-2" x="158.54" y="9.85" width="8.57" height="13.98" rx="1" ry="1"/><path class="cls-3" d="M166.82,8.92a.62.62,0,0,0-.18,0,.6.6,0,0,0-.18,0h-6.59A1.89,1.89,0,0,0,158,10.85v.44s0,.06,0,.09,0,.06,0,.09V14a1.89,1.89,0,0,0,1.84,1.92h.22A1.89,1.89,0,0,0,161.93,14v-.76h0a.89.89,0,0,0,.87.86H163a.87.87,0,0,0,.76-.46v.1a.76.76,0,1,0,1.52,0v-.49a.82.82,0,0,0,.54,0v1.44a.64.64,0,1,0,1.28,0v-1a.7.7,0,0,0,.38-.63V9.62A.68.68,0,0,0,166.82,8.92Z"/><rect class="cls-4" x="162.29" y="6.44" width="1.13" height="3.21" rx="0.56" ry="0.56"/><circle class="cls-5" cx="162.85" cy="6.44" r="0.75"/></g></svg>