<svg xmlns="http://www.w3.org/2000/svg" viewBox="0 0 271.1 285.29"><defs><style>.cls-1{fill:#685949;}.cls-2{fill:#594c3e;}.cls-3{fill:#9e9486;}.cls-4{fill:#b2a18b;}.cls-5{fill:#8e4444;}.cls-6{fill:#b24949;}.cls-7{fill:#a58268;}.cls-8{fill:#91573a;}</style></defs><title>chair</title><g id="Layer_2" data-name="Layer 2"><g id="Layer_4" data-name="Layer 4"><path class="cls-1" d="M67.35,284.91c3.62,0,6.58-1.82,6.58-4.05V210.18c0-2.23-3-4.05-6.58-4.05H54.91c-2.89,0-5.36,1.16-6.24,2.77a9.82,9.82,0,0,1,2.46-.31c3.5,0,6.37,1.76,6.37,3.92v6.23a5.28,5.28,0,0,1,1.84-.32c2,0,3.56,1,3.56,2.19v13.12c0,1.21-1.6,2.19-3.56,2.19a5.28,5.28,0,0,1-1.84-.32v8.21a5.28,5.28,0,0,1,1.84-.32c2,0,3.56,1,3.56,2.19v12.8a5.47,5.47,0,0,1,1.92-.34c2,0,3.69,1,3.69,2.27v20.71c0,1.25-1.66,2.27-3.69,2.27s-3.69-1-3.69-2.27v-4.54a5.46,5.46,0,0,1-3.63,0V281c0,1.75-1.9,3.25-4.49,3.75a10.35,10.35,0,0,0,1.9.18Zm1.17-35.58V229.92c0-.33.44-.6,1-.6s1,.27,1,.6v19.41c0,.33-.44.6-1,.6S68.52,249.66,68.52,249.33Z"/><path class="cls-2" d="M57.51,281v-4.4a5.46,5.46,0,0,0,3.63,0v4.54c0,1.25,1.66,2.27,3.69,2.27s3.69-1,3.69-2.27V260.44c0-1.25-1.66-2.27-3.69-2.27a5.47,5.47,0,0,0-1.92.34V245.7c0-1.21-1.6-2.19-3.56-2.19a5.28,5.28,0,0,0-1.84.32v-8.21a5.28,5.28,0,0,0,1.84.32c2,0,3.56-1,3.56-2.19V220.62c0-1.21-1.6-2.19-3.56-2.19a5.28,5.28,0,0,0-1.84.32v-6.23c0-2.16-2.87-3.92-6.37-3.92a9.82,9.82,0,0,0-2.46.31,2.66,2.66,0,0,0-.35,1.28v70.68c0,1.82,2,3.37,4.68,3.88C55.61,284.24,57.51,282.75,57.51,281Z"/><path class="cls-2" d="M68.52,229.92v19.41c0,.33.44.6,1,.6s1-.27,1-.6V229.92c0-.33-.44-.6-1-.6S68.52,229.6,68.52,229.92Z"/><rect class="cls-3" x="56.02" y="197.86" width="10.58" height="25.6" rx="5.29" ry="5.29" transform="translate(271.97 149.35) rotate(90)"/><rect class="cls-4" x="50.15" y="205.65" width="22.31" height="8.55" rx="4.28" ry="4.28"/><path class="cls-1" d="M32.08,284.91c3.62,0,6.58-1.82,6.58-4.05V210.18c0-2.23-3-4.05-6.58-4.05H19.64c-2.89,0-5.36,1.16-6.24,2.77a9.82,9.82,0,0,1,2.46-.31c3.5,0,6.37,1.76,6.37,3.92v6.23a5.28,5.28,0,0,1,1.84-.32c2,0,3.56,1,3.56,2.19v13.12c0,1.21-1.6,2.19-3.56,2.19a5.28,5.28,0,0,1-1.84-.32v8.21a5.28,5.28,0,0,1,1.84-.32c2,0,3.56,1,3.56,2.19v12.8a5.47,5.47,0,0,1,1.92-.34c2,0,3.69,1,3.69,2.27v20.71c0,1.25-1.66,2.27-3.69,2.27s-3.69-1-3.69-2.27v-4.54a5.46,5.46,0,0,1-3.63,0V281c0,1.75-1.9,3.25-4.49,3.75a10.35,10.35,0,0,0,1.9.18Zm1.17-35.58V229.92c0-.33.44-.6,1-.6s1,.27,1,.6v19.41c0,.33-.44.6-1,.6S33.25,249.66,33.25,249.33Z"/><path class="cls-2" d="M22.23,281v-4.4a5.46,5.46,0,0,0,3.63,0v4.54c0,1.25,1.66,2.27,3.69,2.27s3.69-1,3.69-2.27V260.44c0-1.25-1.66-2.27-3.69-2.27a5.47,5.47,0,0,0-1.92.34V245.7c0-1.21-1.6-2.19-3.56-2.19a5.28,5.28,0,0,0-1.84.32v-8.21a5.28,5.28,0,0,0,1.84.32c2,0,3.56-1,3.56-2.19V220.62c0-1.21-1.6-2.19-3.56-2.19a5.28,5.28,0,0,0-1.84.32v-6.23c0-2.16-2.87-3.92-6.37-3.92a9.82,9.82,0,0,0-2.46.31,2.66,2.66,0,0,0-.35,1.28v70.68c0,1.82,2,3.37,4.68,3.88C20.33,284.24,22.23,282.75,22.23,281Z"/><path class="cls-2" d="M33.25,229.92v19.41c0,.33.44.6,1,.6s1-.27,1-.6V229.92c0-.33-.44-.6-1-.6S33.25,229.6,33.25,229.92Z"/><rect class="cls-3" x="20.74" y="197.86" width="10.58" height="25.6" rx="5.29" ry="5.29" transform="translate(236.69 184.63) rotate(90)"/><rect class="cls-4" x="14.88" y="205.65" width="22.31" height="8.55" rx="4.28" ry="4.28"/><path class="cls-5" d="M224.85,159.75H31.58a12,12,0,0,1,12,12v25.92a12,12,0,0,1-12,12H9.67A12,12,0,0,1,0,204.73v3.49a12,12,0,0,0,12,12H224.85a12,12,0,0,0,12-12V171.75A12,12,0,0,0,224.85,159.75Z"/><path class="cls-6" d="M9.67,209.67H31.58a12,12,0,0,0,12-12V171.75a12,12,0,0,0-12-12H12a12,12,0,0,0-12,12v33A12,12,0,0,0,9.67,209.67Z"/><path class="cls-1" d="M248.49,285.29c3.62,0,6.58-1.82,6.58-4.05V210.56c0-2.23-3-4.05-6.58-4.05H236c-2.89,0-5.36,1.16-6.24,2.77a9.82,9.82,0,0,1,2.46-.31c3.5,0,6.37,1.76,6.37,3.92v6.23a5.28,5.28,0,0,1,1.84-.32c2,0,3.56,1,3.56,2.19v13.12c0,1.21-1.6,2.19-3.56,2.19a5.28,5.28,0,0,1-1.84-.32v8.21a5.28,5.28,0,0,1,1.84-.32c2,0,3.56,1,3.56,2.19v12.8a5.47,5.47,0,0,1,1.92-.34c2,0,3.69,1,3.69,2.27v20.71c0,1.25-1.66,2.27-3.69,2.27s-3.69-1-3.69-2.27V277a5.46,5.46,0,0,1-3.63,0v4.4c0,1.75-1.9,3.25-4.49,3.75a10.35,10.35,0,0,0,1.9.18Zm1.17-35.58V230.3c0-.33.44-.6,1-.6s1,.27,1,.6v19.41c0,.33-.44.6-1,.6S249.66,250,249.66,249.71Z"/><path class="cls-2" d="M238.64,281.37V277a5.46,5.46,0,0,0,3.63,0v4.54c0,1.25,1.66,2.27,3.69,2.27s3.69-1,3.69-2.27V260.82c0-1.25-1.66-2.27-3.69-2.27a5.47,5.47,0,0,0-1.92.34v-12.8c0-1.21-1.6-2.19-3.56-2.19a5.28,5.28,0,0,0-1.84.32V236a5.28,5.28,0,0,0,1.84.32c2,0,3.56-1,3.56-2.19V221c0-1.21-1.6-2.19-3.56-2.19a5.28,5.28,0,0,0-1.84.32v-6.23c0-2.16-2.87-3.92-6.37-3.92a9.82,9.82,0,0,0-2.46.31,2.66,2.66,0,0,0-.35,1.28v70.68c0,1.82,2,3.37,4.68,3.88C236.74,284.62,238.64,283.12,238.64,281.37Z"/><path class="cls-2" d="M249.66,230.3v19.41c0,.33.44.6,1,.6s1-.27,1-.6V230.3c0-.33-.44-.6-1-.6S249.66,230,249.66,230.3Z"/><rect class="cls-3" x="237.15" y="198.24" width="10.58" height="25.6" rx="5.29" ry="5.29" transform="translate(453.48 -31.4) rotate(90)"/><rect class="cls-4" x="231.28" y="206.03" width="22.31" height="8.55" rx="4.28" ry="4.28"/><path class="cls-1" d="M213.21,285.29c3.62,0,6.58-1.82,6.58-4.05V210.56c0-2.23-3-4.05-6.58-4.05H200.77c-2.89,0-5.36,1.16-6.24,2.77A9.82,9.82,0,0,1,197,209c3.5,0,6.37,1.76,6.37,3.92v6.23a5.28,5.28,0,0,1,1.84-.32c2,0,3.56,1,3.56,2.19v13.12c0,1.21-1.6,2.19-3.56,2.19a5.28,5.28,0,0,1-1.84-.32v8.21a5.28,5.28,0,0,1,1.84-.32c2,0,3.56,1,3.56,2.19v12.8a5.47,5.47,0,0,1,1.92-.34c2,0,3.69,1,3.69,2.27v20.71c0,1.25-1.66,2.27-3.69,2.27s-3.69-1-3.69-2.27V277a5.46,5.46,0,0,1-3.63,0v4.4c0,1.75-1.9,3.25-4.49,3.75a10.35,10.35,0,0,0,1.9.18Zm1.17-35.58V230.3c0-.33.44-.6,1-.6s1,.27,1,.6v19.41c0,.33-.44.6-1,.6S214.38,250,214.38,249.71Z"/><path class="cls-2" d="M203.37,281.37V277a5.46,5.46,0,0,0,3.63,0v4.54c0,1.25,1.66,2.27,3.69,2.27s3.69-1,3.69-2.27V260.82c0-1.25-1.66-2.27-3.69-2.27a5.47,5.47,0,0,0-1.92.34v-12.8c0-1.21-1.6-2.19-3.56-2.19a5.28,5.28,0,0,0-1.84.32V236a5.28,5.28,0,0,0,1.84.32c2,0,3.56-1,3.56-2.19V221c0-1.21-1.6-2.19-3.56-2.19a5.28,5.28,0,0,0-1.84.32v-6.23c0-2.16-2.87-3.92-6.37-3.92a9.82,9.82,0,0,0-2.46.31,2.66,2.66,0,0,0-.35,1.28v70.68c0,1.82,2,3.37,4.68,3.88C201.47,284.62,203.37,283.12,203.37,281.37Z"/><path class="cls-2" d="M214.38,230.3v19.41c0,.33.44.6,1,.6s1-.27,1-.6V230.3c0-.33-.44-.6-1-.6S214.38,230,214.38,230.3Z"/><rect class="cls-3" x="201.88" y="198.24" width="10.58" height="25.6" rx="5.29" ry="5.29" transform="translate(418.2 3.87) rotate(90)"/><rect class="cls-4" x="196.01" y="206.03" width="22.31" height="8.55" rx="4.28" ry="4.28"/><path class="cls-5" d="M234,17.61H73.62c-7.71,0-14.66,4-19.43,10.25,3.89,1.72,6.68,6.1,6.68,11.21V165.76c0,6.6-4.63,12-10.3,12H47.64v2.81c0,16.65,11.69,30.27,26,30.27H234c14.28,0,26-13.62,26-30.27V47.88C260,31.23,248.3,17.61,234,17.61Z"/><path class="cls-6" d="M60.86,165.76V39.08c0-5.11-2.79-9.5-6.68-11.21a33.11,33.11,0,0,0-6.54,20V177.76h2.92C56.23,177.76,60.86,172.36,60.86,165.76Z"/><rect class="cls-7" x="68.71" y="23.34" width="191.28" height="193.82" rx="12" ry="12"/><path class="cls-8" d="M271.1,34V13.68c0-6.6-4.45-12-9.9-12h-4.64c-5.44,0-9.9,5.4-9.9,12v6.49h-156V12c0-6.6-4.45-12-9.9-12H64c-5.44,0-9.9,5.4-9.9,12V32.35c0,6.6,4.45,12,9.9,12h2.25V184.08H64c-5.44,0-9.9,5.4-9.9,12v20.35c0,6.6,4.45,12,9.9,12H80.79A9.17,9.17,0,0,0,88,224.61H248.28c1.77,3.3,4.83,5.5,8.3,5.5h4.64c5.44,0,9.9-5.4,9.9-12V197.76c0-5.86-3.51-10.76-8.11-11.79V45.82C267.59,44.79,271.1,39.89,271.1,34ZM78.55,44.35h2.25c4.67,0,8.6-4,9.63-9.27h156.3c.39,5.39,3.75,9.78,8.07,10.75V186c-4.6,1-8.11,5.93-8.11,11.79v12h-156V196.08c0-6.6-4.45-12-9.9-12H78.55Z"/></g></g></svg>