<svg xmlns="http://www.w3.org/2000/svg" viewBox="0 0 74.96 124.99"><defs><style>.cls-1{fill:#332b3a;}.cls-2{fill:#757465;}.cls-3{fill:#a8a78a;}</style></defs><title>chimney</title><g id="Layer_2" data-name="Layer 2"><g id="Layer_4" data-name="Layer 4"><rect class="cls-1" x="5.56" y="28.65" width="59.76" height="95.57"/><path class="cls-2" d="M26.88,124.22H10.76A10.25,10.25,0,0,1,.51,114c1.43,2,3.35,3.75,5.66,3.91,5.37.36,25,0,25,0a11,11,0,0,0,5.92-3.63A10.24,10.24,0,0,1,26.88,124.22Z"/><path class="cls-3" d="M.51,109.91A10.25,10.25,0,0,1,10.76,99.67H26.88a10.25,10.25,0,0,1,10.25,10.24V114c0,.09,0,.18,0,.27a11,11,0,0,1-5.92,3.63s-19.68.36-25,0C3.85,117.74,1.93,116,.51,114h0Z"/><path class="cls-2" d="M61.42,125H45.29A10.25,10.25,0,0,1,35,114.75c1.43,2,3.35,3.75,5.66,3.91,5.37.36,25,0,25,0A11,11,0,0,0,71.66,115,10.24,10.24,0,0,1,61.42,125Z"/><path class="cls-3" d="M35,110.68a10.25,10.25,0,0,1,10.25-10.24H61.42a10.25,10.25,0,0,1,10.25,10.24v4.07c0,.09,0,.18,0,.27a11,11,0,0,1-5.92,3.63s-19.68.36-25,0c-2.31-.15-4.23-1.94-5.66-3.91h0Z"/><path class="cls-2" d="M34.43,100.1h-20c-7,0-12.72-4.58-12.72-10.24,1.77,2,4.15,3.75,7,3.91,6.66.36,31.07,0,31.07,0a14.76,14.76,0,0,0,7.34-3.63C47,95.67,41.34,100.1,34.43,100.1Z"/><path class="cls-3" d="M1.71,85.79c0-5.66,5.69-10.24,12.72-10.24h20c7,0,12.72,4.58,12.72,10.24v4.07c0,.09,0,.18,0,.27a14.76,14.76,0,0,1-7.34,3.63s-24.41.36-31.07,0c-2.87-.15-5.25-1.94-7-3.91h0Z"/><path class="cls-2" d="M63.5,101h-10c-3.51,0-6.36-4.58-6.36-10.24.89,2,2.08,3.75,3.51,3.91,3.33.36,15.54,0,15.54,0s2-.55,3.67-3.63C69.76,96.57,67,101,63.5,101Z"/><path class="cls-3" d="M47.13,86.7c0-5.66,2.85-10.24,6.36-10.24h10c3.51,0,6.36,4.58,6.36,10.24v4.07c0,.09,0,.18,0,.27-1.63,3.08-3.67,3.63-3.67,3.63S54,95,50.64,94.67c-1.44-.15-2.63-1.94-3.51-3.91h0Z"/><path class="cls-2" d="M44.86,76.43H60.31a10,10,0,0,0,9.82-10.24c-1.37,2-3.21,3.75-5.42,3.91-5.14.36-24,0-24,0A10.42,10.42,0,0,1,35,66.46,10,10,0,0,0,44.86,76.43Z"/><path class="cls-3" d="M70.12,62.12a10,10,0,0,0-9.82-10.24H44.86A10,10,0,0,0,35,62.12v4.07c0,.09,0,.18,0,.27a10.42,10.42,0,0,0,5.67,3.63s18.85.36,24,0c2.22-.15,4.05-1.94,5.42-3.91h0Z"/><path class="cls-2" d="M11.78,77.2H27.23A10,10,0,0,0,37,67c-1.37,2-3.21,3.75-5.42,3.91-5.14.36-24,0-24,0A10.42,10.42,0,0,1,2,67.23,10,10,0,0,0,11.78,77.2Z"/><path class="cls-3" d="M37,62.88a10,10,0,0,0-9.82-10.24H11.78A10,10,0,0,0,2,62.88V67c0,.09,0,.18,0,.27a10.42,10.42,0,0,0,5.67,3.63s18.85.36,24,0c2.22-.15,4.05-1.94,5.42-3.91h0Z"/><path class="cls-2" d="M37.63,52.3H56.79C63.52,52.3,69,47.72,69,42.06c-1.7,2-4,3.75-6.73,3.91-6.38.36-29.76,0-29.76,0a13.87,13.87,0,0,1-7-3.63C25.62,47.87,31,52.3,37.63,52.3Z"/><path class="cls-3" d="M69,38c0-5.66-5.45-10.24-12.18-10.24H37.63c-6.73,0-12.18,4.58-12.18,10.24v4.07c0,.09,0,.18,0,.27a13.87,13.87,0,0,0,7,3.63s23.39.36,29.76,0c2.75-.15,5-1.94,6.73-3.91h0Z"/><path class="cls-2" d="M9.79,53.21h9.58c3.36,0,6.09-4.58,6.09-10.24-.85,2-2,3.75-3.36,3.91-3.19.36-14.88,0-14.88,0s-2-.55-3.51-3.63C3.79,48.77,6.48,53.21,9.79,53.21Z"/><path class="cls-3" d="M25.46,38.9c0-5.66-2.73-10.24-6.09-10.24H9.79c-3.36,0-6.09,4.58-6.09,10.24V43c0,.09,0,.18,0,.27,1.56,3.08,3.51,3.63,3.51,3.63s11.69.36,14.88,0c1.37-.15,2.52-1.94,3.36-3.91h0Z"/><path class="cls-3" d="M48.49,8.32l.26,12.48C45,26.35,38.38,25.16,38.38,25.16s-25.22.05-30.66,0c-2.86,0-5.57-2.75-7.49-5.32L0,8.88A8.51,8.51,0,0,1,7.72.43,9.5,9.5,0,0,0,10.8.72L17.68.26,39.38,0A8.78,8.78,0,0,1,48.49,8.32Z"/><path class="cls-2" d="M12.88,31.84a12.76,12.76,0,0,0-3,.16H9.42A8.79,8.79,0,0,1,.31,23.69L.23,19.83c1.92,2.58,4.63,5.3,7.49,5.32,5.44.06,30.66,0,30.66,0S45,26.35,48.75,20.8l0,2.33A8.59,8.59,0,0,1,40,31.65l-25.37.3Z"/><path class="cls-3" d="M74.86,11.1l-1.6,12.35c-3.12,5.29-7.1,3.77-7.1,3.77S50.38,26,47,25.62c-1.79-.17-3.1-3-3.93-5.65l1.4-10.84c.55-4.28,3.17-7.65,6-8a3.77,3.77,0,0,0,1.89.45l4.37-.1,13.6.88C73.43,2.6,75.46,6.49,74.86,11.1Z"/><path class="cls-2" d="M49.27,32.5a5.18,5.18,0,0,0-1.9,0l-.29,0c-3.09-.2-5.12-4.1-4.52-8.7L43.06,20c.84,2.65,2.15,5.48,3.93,5.65,3.4.34,19.18,1.61,19.18,1.61s4,1.52,7.1-3.77L73,25.76c-.59,4.6-3.58,8.17-6.68,8l-15.91-1Z"/></g></g></svg>