<svg xmlns="http://www.w3.org/2000/svg" viewBox="0 0 118.8 169.7"><defs><style>.cls-1{fill:#56524a;}.cls-2{fill:#686256;}.cls-3{fill:#827964;}.cls-4{fill:#fff;}.cls-5{fill:#3f3f3f;}.cls-6{fill:#606060;}.cls-7{fill:#898989;}.cls-8{fill:#e0e0e0;}</style></defs><title>door2</title><g id="Layer_2" data-name="Layer 2"><g id="Layer_5" data-name="Layer 5"><path class="cls-1" d="M60.5,28.37c-.49,7.05.35,14.1-.19,21.16-.31,4-2.89,10.29.89,13.41a.73.73,0,0,0,1.14-.88c-1.81-3.29-1.3-8.47-1.46-12.12s-.2-7.45-.18-11.17a.72.72,0,0,0-1.45,0c0,5,.07,9.93.37,14.89.19,3,0,6.41,1.46,9.13l1.14-.88c-1.44-1.19-1.15-5.53-1-7.32.06-.71.19-1.43.27-2.14A83,83,0,0,0,62,43.65c0-5.1-.4-10.18,0-15.28.07-.93-1.38-.93-1.45,0Z"/><path class="cls-1" d="M62,47.92c-.54-6.71-1.56-13.58-.63-20.3.13-.91-1.27-1.3-1.4-.38-.95,6.86,0,13.82.58,20.68.07.92,1.52.93,1.45,0Z"/><path class="cls-1" d="M60,47.15q-.52,8.11-1.22,16.21h1.45A149.7,149.7,0,0,0,60.42,48L59,48.23a19.34,19.34,0,0,1,1.25,11.44c-.43,2.28-.93,4,0,6.2.37.85,1.62.12,1.25-.73-1.21-2.76.6-6.48.58-9.47a20.38,20.38,0,0,0-1.71-7.82c-.29-.69-1.45-.7-1.42.19a149.7,149.7,0,0,1-.15,15.32c-.07.93,1.37.92,1.45,0q.7-8.1,1.22-16.21c.06-.93-1.39-.93-1.45,0Z"/><polyline class="cls-2" points="65.37 24.56 66.04 68.93 61.4 69.56 61.12 61.32 61.7 25.66 65.37 24.56 65.37 24.56 65.37 29.55"/><polygon class="cls-3" points="68.5 26.61 80.5 30.93 83.42 67.83 69.65 76.83 59.55 50.93 63.58 24.56 68.5 26.61"/><path class="cls-3" d="M117.37,34.67V149.73a5.81,5.81,0,0,1-5.89,5.68h-7.24a6,6,0,0,1-4-1.51V87.84a3.75,3.75,0,0,0,3.8,3.67,4,4,0,0,0,1-.13v11.85a4.46,4.46,0,0,0,8.9,0V82.42a2.69,2.69,0,0,0,1.2-2.23V63.37a2.67,2.67,0,0,0-.83-1.92,2.89,2.89,0,0,0-2-.8,2.79,2.79,0,0,0-2.83,2.72v9.34a4.51,4.51,0,0,0-1.66.31V70.34a3.59,3.59,0,0,0-1.11-2.59,3.87,3.87,0,0,0-2.69-1.08,3.75,3.75,0,0,0-3.8,3.66V23.51a6,6,0,0,1,3.8-1.5V40.55a5,5,0,0,0,9.92,0V26.19A12.39,12.39,0,0,1,117.37,34.67Zm-6.77,115V126a2.59,2.59,0,0,0-.82-1.88,2.81,2.81,0,0,0-2-.79,2.73,2.73,0,0,0-2.77,2.67v23.67a2.77,2.77,0,0,0,5.53,0Z"/><path class="cls-2" d="M115.18,63.37V80.19a2.69,2.69,0,0,1-1.2,2.23V77a4.22,4.22,0,0,0-1.31-3,4.54,4.54,0,0,0-3.15-1.26V63.37a2.79,2.79,0,0,1,2.83-2.72,2.89,2.89,0,0,1,2,.8A2.67,2.67,0,0,1,115.18,63.37Z"/><path class="cls-2" d="M114,82.42v20.81a4.46,4.46,0,0,1-8.9,0V91.37a3.7,3.7,0,0,0,2.79-3.53V73a4.51,4.51,0,0,1,1.66-.31v7.48a2.79,2.79,0,0,0,2.83,2.73A2.86,2.86,0,0,0,114,82.42Z"/><path class="cls-2" d="M114,77v5.42a2.86,2.86,0,0,1-1.63.5,2.79,2.79,0,0,1-2.83-2.73V72.71A4.54,4.54,0,0,1,112.67,74,4.22,4.22,0,0,1,114,77Z"/><path class="cls-2" d="M114,26.19V40.55a5,5,0,0,1-9.92,0V22h.18A13.32,13.32,0,0,1,114,26.19Z"/><path class="cls-2" d="M110.61,126v23.67a2.77,2.77,0,0,1-5.53,0V126a2.73,2.73,0,0,1,2.77-2.67,2.81,2.81,0,0,1,2,.79A2.59,2.59,0,0,1,110.61,126Z"/><path class="cls-2" d="M107.86,73V87.84a3.7,3.7,0,0,1-2.79,3.53V77A4.31,4.31,0,0,1,107.86,73Z"/><path class="cls-2" d="M107.86,70.34V73a4.31,4.31,0,0,0-2.79,4V91.37a4,4,0,0,1-1,.13,3.75,3.75,0,0,1-3.8-3.67V70.34a3.75,3.75,0,0,1,3.8-3.66,3.87,3.87,0,0,1,2.69,1.08A3.59,3.59,0,0,1,107.86,70.34Z"/><path class="cls-1" d="M100.26,87.84v66.07a5.58,5.58,0,0,1-1.91-4.18v-122a5.58,5.58,0,0,1,1.91-4.18V87.84Z"/><path class="cls-3" d="M98.35,27.68v122a5.81,5.81,0,0,1-5.89,5.68H85.21a6,6,0,0,1-4.7-2.27V7.56a6,6,0,0,1,2.91-2V99.63a1.69,1.69,0,0,0,3.37,0V23.42a4.44,4.44,0,0,0,3.85.23V50.08a2.17,2.17,0,0,0,4.33,0V8.44a10.66,10.66,0,0,1,3.38,7.75ZM96.65,146.62v-10.9A5.81,5.81,0,0,0,90.76,130h-.25a5.81,5.81,0,0,0-5.89,5.68v10.9a5.81,5.81,0,0,0,5.89,5.68h.25A5.81,5.81,0,0,0,96.65,146.62ZM95,111.69v-8.36a2,2,0,0,0-.64-1.47,2.2,2.2,0,0,0-1.53-.62,2.14,2.14,0,0,0-2.17,2.09v8.36a2.17,2.17,0,0,0,4.33,0Z"/><path class="cls-2" d="M96.65,135.71v10.9a5.81,5.81,0,0,1-5.89,5.68h-.25a5.81,5.81,0,0,1-5.89-5.68v-10.9A5.81,5.81,0,0,1,90.51,130h.25A5.81,5.81,0,0,1,96.65,135.71Z"/><path class="cls-2" d="M95,103.34v8.36a2.17,2.17,0,0,1-4.33,0v-8.36a2.14,2.14,0,0,1,2.17-2.09,2.2,2.2,0,0,1,1.53.62A2,2,0,0,1,95,103.34Z"/><path class="cls-2" d="M95,8.44V50.08a2.17,2.17,0,0,1-4.33,0V23.65a4.2,4.2,0,0,0,2.65-3.85V7.12A11.25,11.25,0,0,1,95,8.44Z"/><path class="cls-2" d="M93.28,7.12V19.8a4.2,4.2,0,0,1-2.65,3.85V5.86A11.42,11.42,0,0,1,93.28,7.12Z"/><path class="cls-2" d="M90.64,5.86V23.65a4.44,4.44,0,0,1-3.85-.23V5.29h.27A11.48,11.48,0,0,1,90.64,5.86Z"/><path class="cls-2" d="M86.79,23.42V99.63a1.69,1.69,0,0,1-3.37,0V5.56a6.28,6.28,0,0,1,1.2-.24V19.8A4.17,4.17,0,0,0,86.79,23.42Z"/><path class="cls-2" d="M86.79,5.29V23.42a4.17,4.17,0,0,1-2.17-3.61V5.32l.59,0Z"/><path class="cls-1" d="M80.51,7.56V153.14a5.52,5.52,0,0,1-1.19-3.42V11A5.52,5.52,0,0,1,80.51,7.56Z"/><path class="cls-3" d="M75.91.54a2.91,2.91,0,0,1,.05.59V23.63a3.73,3.73,0,0,1-7.46,0V1.12A3.41,3.41,0,0,1,68.69,0h-2.5a5.72,5.72,0,0,0-.81.06V29.55c1.42.12,2.84.23,4.27.31C72.57,30,77.44,29.09,78,33a100.81,100.81,0,0,1,.62,14c0,3.06.51,6.59-.91,9.45-1.56,3.16-5.94,3.7-9.16,4-1,.08-2.09.14-3.14.19V79.88a1.71,1.71,0,0,1-3.42,0v73.8a6,6,0,0,0,4.23,1.74h7.24a5.81,5.81,0,0,0,5.89-5.68V5.68A5.69,5.69,0,0,0,75.91.54ZM72.23,148.42a2.59,2.59,0,0,1-5.18,0V94a2.55,2.55,0,0,1,2.59-2.5,2.61,2.61,0,0,1,1.83.73A2.43,2.43,0,0,1,72.23,94Zm-1.33-77.1A2.37,2.37,0,0,1,68.5,69V64.36A2.37,2.37,0,0,1,70.91,62a2.43,2.43,0,0,1,1.7.68,2.26,2.26,0,0,1,.71,1.64V69A2.37,2.37,0,0,1,70.91,71.32ZM77.17,92.9a1.93,1.93,0,0,1-3.85,0v-16A1.9,1.9,0,0,1,75.24,75a2,2,0,0,1,1.36.54,1.82,1.82,0,0,1,.56,1.31Z"/><path class="cls-2" d="M77.17,76.89v16a1.93,1.93,0,0,1-3.85,0v-16A1.9,1.9,0,0,1,75.24,75a2,2,0,0,1,1.36.54A1.82,1.82,0,0,1,77.17,76.89Z"/><path class="cls-2" d="M76,1.12V23.63a3.73,3.73,0,0,1-7.46,0V1.12A3.41,3.41,0,0,1,68.69,0h4.73a6,6,0,0,1,2.49.54A2.91,2.91,0,0,1,76,1.12Z"/><path class="cls-2" d="M73.32,64.36V69a2.41,2.41,0,0,1-4.81,0V64.36A2.37,2.37,0,0,1,70.91,62a2.43,2.43,0,0,1,1.7.68A2.26,2.26,0,0,1,73.32,64.36Z"/><path class="cls-2" d="M72.23,94v54.41a2.59,2.59,0,0,1-5.18,0V94a2.55,2.55,0,0,1,2.59-2.5,2.61,2.61,0,0,1,1.83.73A2.43,2.43,0,0,1,72.23,94Z"/><path class="cls-2" d="M62,60.7V79.88a1.71,1.71,0,0,0,3.42,0V60.58Q63.67,60.66,62,60.7Z"/><path class="cls-2" d="M65.37,29.55V.06A6,6,0,0,0,62,1.74v27.5Z"/><path class="cls-1" d="M60.29,60.72v89A5.56,5.56,0,0,0,62,153.67v-93Z"/><path class="cls-1" d="M62,29.24V1.74a5.56,5.56,0,0,0-1.66,3.95V29.09Z"/><path class="cls-3" d="M52,60.66H50.78V86.71a3.29,3.29,0,0,1-6.57,0V59.44a4.93,4.93,0,0,1-1.37-1.29c-2.15-3-1.34-7.43-.93-10.78.5-4.09.88-8.14,1.55-12.21L43,35a1.09,1.09,0,0,1-.23-1.74,11,11,0,0,0,.88-.78,11.75,11.75,0,0,1,.52-1.54V9.51a3.24,3.24,0,0,1,3.29-3.17,3.31,3.31,0,0,1,2.32.93,3.08,3.08,0,0,1,1,2.24V26.6h.06c3.05.12,5.91,1.35,8.75,2.44l.7.06V5.68A5.81,5.81,0,0,0,54.4,0H47.15a5.81,5.81,0,0,0-5.89,5.68v144a5.81,5.81,0,0,0,5.89,5.68H54.4a5.81,5.81,0,0,0,5.89-5.68v-89C57.51,60.74,54.73,60.7,52,60.66Zm5.19,84.56a5.81,5.81,0,0,1-5.89,5.68H50.1a5.81,5.81,0,0,1-5.89-5.68V130.6a5.81,5.81,0,0,1,5.89-5.68h1.2a5.81,5.81,0,0,1,5.89,5.68Zm0-33.18a1.81,1.81,0,0,1-3.61,0V79.44a1.78,1.78,0,0,1,1.81-1.74,1.81,1.81,0,0,1,1.27.51,1.69,1.69,0,0,1,.53,1.23Z"/><path class="cls-2" d="M57.2,130.6v14.62a5.81,5.81,0,0,1-5.89,5.68H50.1a5.81,5.81,0,0,1-5.89-5.68V130.6a5.81,5.81,0,0,1,5.89-5.68h1.2A5.81,5.81,0,0,1,57.2,130.6Z"/><path class="cls-2" d="M57.2,79.44V112a1.81,1.81,0,0,1-3.61,0V79.44a1.78,1.78,0,0,1,1.81-1.74,1.81,1.81,0,0,1,1.27.51A1.69,1.69,0,0,1,57.2,79.44Z"/><path class="cls-2" d="M44.21,59.44V86.71a3.29,3.29,0,0,0,6.57,0V60.65C48.54,60.64,46,60.6,44.21,59.44Z"/><path class="cls-2" d="M50.78,26.6V9.51a3.08,3.08,0,0,0-1-2.24,3.31,3.31,0,0,0-2.32-.93,3.24,3.24,0,0,0-3.29,3.17V30.93A6.54,6.54,0,0,1,50.78,26.6Z"/><path class="cls-1" d="M41.26,11V149.73a5.66,5.66,0,0,1-2.59,4.7V6.28A5.64,5.64,0,0,1,41.26,11Z"/><path class="cls-3" d="M38.67,146.62v7.82a6,6,0,0,1-3.31,1H28.13a5.81,5.81,0,0,1-5.89-5.68V16.19a11,11,0,0,1,8.5-10.55V54.26a3.13,3.13,0,0,0,6.26,0V5.51a5.92,5.92,0,0,1,1.68.76V68.76A2.26,2.26,0,0,0,38,67.13a2.43,2.43,0,0,0-1.7-.68,2.37,2.37,0,0,0-2.41,2.32v7.89a2.41,2.41,0,0,0,4.81,0v49.54a5.81,5.81,0,0,0-5.89-5.68h-1a5.81,5.81,0,0,0-5.89,5.68v20.42a5.81,5.81,0,0,0,5.89,5.68h1A5.81,5.81,0,0,0,38.67,146.62Zm-7.94-35.85v-19a1.82,1.82,0,0,0-.56-1.31,1.94,1.94,0,0,0-1.36-.54,1.9,1.9,0,0,0-1.93,1.86v19a1.92,1.92,0,0,0,3.85,0Z"/><path class="cls-2" d="M38.67,126.19v20.42a5.81,5.81,0,0,1-5.89,5.68h-1a5.81,5.81,0,0,1-5.89-5.68V126.19a5.81,5.81,0,0,1,5.89-5.68h1A5.81,5.81,0,0,1,38.67,126.19Z"/><path class="cls-2" d="M38.67,68.76v7.89a2.41,2.41,0,0,1-4.81,0V68.76a2.37,2.37,0,0,1,2.41-2.32,2.43,2.43,0,0,1,1.7.68A2.26,2.26,0,0,1,38.67,68.76Z"/><path class="cls-2" d="M37,5.51V54.26a3.13,3.13,0,0,1-6.26,0V5.63a11.57,11.57,0,0,1,2.8-.34h1.84A5.92,5.92,0,0,1,37,5.51Z"/><path class="cls-2" d="M30.73,91.74v19a1.92,1.92,0,0,1-3.85,0v-19a1.9,1.9,0,0,1,1.93-1.86,1.94,1.94,0,0,1,1.36.54A1.82,1.82,0,0,1,30.73,91.74Z"/><path class="cls-1" d="M22.23,27.68v122a5.57,5.57,0,0,1-1.73,4V23.67A5.57,5.57,0,0,1,22.23,27.68Z"/><path class="cls-3" d="M20.5,23.67V153.75a6,6,0,0,1-4.16,1.67H9.1a5.85,5.85,0,0,1-5.82-4.79,4.15,4.15,0,0,0,1.52.29,4,4,0,0,0,4-3.89V110.71A3.8,3.8,0,0,0,7.65,108a4.12,4.12,0,0,0-4.44-.82V34.67a12.67,12.67,0,0,1,7.32-11.35V91.51a3.37,3.37,0,0,0,6.73,0V23.05a3.1,3.1,0,0,0-.17-1A6,6,0,0,1,20.5,23.67ZM19.18,148.82V124.46a2.06,2.06,0,0,0-.63-1.47,2.21,2.21,0,0,0-1.53-.62,2.14,2.14,0,0,0-2.17,2.09v24.37a2.17,2.17,0,0,0,4.33,0Zm-4.33-38.29v-8.82a.48.48,0,0,0-1,0v8.82a.48.48,0,0,0,1,0Z"/><path class="cls-2" d="M19.18,124.46v24.37a2.17,2.17,0,0,1-4.33,0V124.46A2.14,2.14,0,0,1,17,122.37a2.21,2.21,0,0,1,1.53.62A2.06,2.06,0,0,1,19.18,124.46Z"/><path class="cls-2" d="M17.26,23.05V91.51a3.37,3.37,0,0,1-6.73,0V23.32A13.35,13.35,0,0,1,16.34,22a5.61,5.61,0,0,1,.75,0A3.1,3.1,0,0,1,17.26,23.05Z"/><path class="cls-2" d="M14.85,101.71v8.82a.48.48,0,0,1-1,0v-8.82a.48.48,0,0,1,1,0Z"/><path class="cls-2" d="M8.84,110.71V147a4,4,0,0,1-4,3.89,4.15,4.15,0,0,1-1.52-.29,5.32,5.32,0,0,1-.07-.89V107.14a4.12,4.12,0,0,1,4.44.82A3.8,3.8,0,0,1,8.84,110.71Z"/><polyline class="cls-3" points="50 26.6 50 27.23 50 60.65 56.94 64.98 60.29 60.72 60.29 29.09 56.06 21.24"/><polygon class="cls-2" points="44.21 59.44 44.52 30.29 45.91 22 49.02 23.98 50.7 23.41 50.7 66.45 46.56 69.56 44.21 59.44"/><polygon class="cls-3" points="41.26 29.64 41.26 69.56 44.21 75.78 45.09 18.64 41.26 29.64"/><g id="_Group_" data-name="&lt;Group&gt;"><path class="cls-2" d="M118.8,162v2a5.81,5.81,0,0,1-5.89,5.68H5.89A5.82,5.82,0,0,1,0,164.24H46.88a3.85,3.85,0,0,0,2.7-1.08,3.57,3.57,0,0,0,1-1.72h65.67A6,6,0,0,1,118.8,162Z"/><path class="cls-3" d="M118.8,154.21V162a6,6,0,0,0-2.54-.56H50.59a3.43,3.43,0,0,0,.11-.88,3.77,3.77,0,0,0-3.82-3.69H23.63a4.48,4.48,0,0,0-.25-1.45H113a4.44,4.44,0,0,0,3.07-1.23,4.12,4.12,0,0,0,1.28-3,3.78,3.78,0,0,0-.08-.79A5.53,5.53,0,0,1,118.8,154.21Z"/><path class="cls-2" d="M117.3,150.43a3.78,3.78,0,0,1,.08.79,4.12,4.12,0,0,1-1.28,3,4.44,4.44,0,0,1-3.07,1.23H23.38a4.74,4.74,0,0,0-4.48-3.11H.92a4.11,4.11,0,0,1-.14-.9,5.94,5.94,0,0,1,5.12-2.88h107A6,6,0,0,1,117.3,150.43Z"/><path class="cls-1" d="M117.3,150.43a6,6,0,0,0-4.39-1.9H5.89A5.94,5.94,0,0,0,.78,151.4c0-.06,0-.12,0-.19a4.12,4.12,0,0,1,1.28-3A4.44,4.44,0,0,1,5.12,147H113A4.33,4.33,0,0,1,117.3,150.43Z"/><path class="cls-2" d="M50.7,160.55a3.43,3.43,0,0,1-.11.88H18.9a4.79,4.79,0,0,0,3.34-1.34,4.46,4.46,0,0,0,1.39-3.22H46.88A3.77,3.77,0,0,1,50.7,160.55Z"/><path class="cls-2" d="M18.9,161.43H50.59a3.57,3.57,0,0,1-1,1.72,3.85,3.85,0,0,1-2.7,1.08H0c0-.07,0-.15,0-.22v-2.59Z"/><path class="cls-2" d="M23.63,156.87H0v-2.65a5.39,5.39,0,0,1,.35-1.91H.92a4.34,4.34,0,0,0,4.2,3.11H23.38A4.48,4.48,0,0,1,23.63,156.87Z"/><path class="cls-2" d="M0,156.87H23.63a4.46,4.46,0,0,1-1.39,3.22,4.79,4.79,0,0,1-3.34,1.34H0Z"/><path class="cls-2" d="M23.38,155.41H5.12a4.34,4.34,0,0,1-4.2-3.11h18A4.74,4.74,0,0,1,23.38,155.41Z"/><path class="cls-4" d="M.92,152.3H.35a5,5,0,0,1,.43-.9A4.11,4.11,0,0,0,.92,152.3Z"/></g><rect class="cls-5" x="12.72" y="73.77" width="23.25" height="37.88" rx="11.21" ry="11.21" transform="translate(48.69 185.42) rotate(-180)"/><rect class="cls-6" x="15.88" y="75.78" width="16.92" height="27.88" rx="8.16" ry="8.16" transform="translate(48.69 179.45) rotate(180)"/><ellipse class="cls-7" cx="24.34" cy="84.84" rx="7.4" ry="7.14"/><ellipse class="cls-8" cx="26.88" cy="82.92" rx="2.72" ry="2.62"/></g></g></svg>