<svg xmlns="http://www.w3.org/2000/svg" viewBox="0 0 550.39 50"><defs><style>.cls-1{fill:#d66947;}.cls-1,.cls-2{opacity:0.7;}.cls-2{fill:#ffe888;}</style></defs><title>firespsh</title><g id="Layer_2" data-name="Layer 2"><rect class="cls-1" x="8.94" y="24.54" width="30.8" height="20.35" rx="10.17" ry="10.17"/><rect class="cls-1" x="8.94" y="15.59" width="10.48" height="23.36" rx="5.24" ry="5.24"/><rect class="cls-1" x="19.42" y="3.81" width="10.55" height="33.63" rx="5.28" ry="5.28"/><rect class="cls-1" x="30.54" y="13.52" width="9.21" height="25.43" rx="4.6" ry="4.6"/><rect class="cls-1" x="59.08" y="24.54" width="30.8" height="20.35" rx="10.17" ry="10.17"/><rect class="cls-1" x="59.08" y="16.81" width="10.48" height="22.14" rx="5.24" ry="5.24"/><rect class="cls-1" x="69.56" y="8.85" width="10.55" height="28.59" rx="5.28" ry="5.28"/><rect class="cls-1" x="80.68" y="10.73" width="9.21" height="28.22" rx="4.6" ry="4.6"/><rect class="cls-2" x="62.26" y="29.98" width="24.75" height="11.13" rx="5.57" ry="5.57"/><rect class="cls-2" x="63.63" y="21.09" width="4.62" height="15.06" rx="2.31" ry="2.31"/><rect class="cls-2" x="71.77" y="14.11" width="7.02" height="21.78" rx="3.51" ry="3.51"/><rect class="cls-2" x="77.32" y="20.63" width="8.82" height="16.01" rx="4.41" ry="4.41"/><rect class="cls-1" x="109.22" y="24.54" width="30.8" height="20.35" rx="10.17" ry="10.17"/><rect class="cls-1" x="109.22" y="15.74" width="10.48" height="23.21" rx="5.24" ry="5.24"/><rect class="cls-1" x="119.7" y="11.53" width="10.55" height="25.91" rx="5.28" ry="5.28"/><rect class="cls-1" x="130.81" y="4.81" width="9.21" height="34.14" rx="4.6" ry="4.6"/><rect class="cls-2" x="112.4" y="29.99" width="24.75" height="11.13" rx="5.57" ry="5.57"/><rect class="cls-2" x="113.77" y="21.88" width="4.62" height="14.27" rx="2.31" ry="2.31"/><rect class="cls-2" x="121.9" y="15.74" width="7.02" height="20.15" rx="3.51" ry="3.51"/><rect class="cls-2" x="127.46" y="22.5" width="8.82" height="14.14" rx="4.41" ry="4.41"/><rect class="cls-1" x="159.35" y="24.54" width="30.8" height="20.35" rx="10.17" ry="10.17"/><rect class="cls-1" x="159.35" y="18.25" width="10.48" height="20.7" rx="5.24" ry="5.24"/><rect class="cls-1" x="169.84" y="7.24" width="10.55" height="30.21" rx="5.28" ry="5.28"/><rect class="cls-1" x="180.95" y="11.53" width="9.21" height="27.42" rx="4.6" ry="4.6"/><rect class="cls-2" x="162.54" y="29.99" width="24.75" height="11.13" rx="5.57" ry="5.57"/><rect class="cls-2" x="163.91" y="23.06" width="4.62" height="13.09" rx="2.31" ry="2.31"/><rect class="cls-2" x="172.04" y="14.06" width="7.02" height="21.84" rx="3.51" ry="3.51"/><rect class="cls-2" x="177.6" y="19.77" width="8.82" height="16.87" rx="4.41" ry="4.41"/><rect class="cls-1" x="209.33" y="24.51" width="30.8" height="20.35" rx="10.17" ry="10.17"/><rect class="cls-1" x="209.33" y="9.35" width="10.48" height="29.58" rx="5.24" ry="5.24"/><rect class="cls-1" x="219.81" y="9.35" width="10.55" height="28.07" rx="5.28" ry="5.28"/><rect class="cls-1" x="230.93" y="16.67" width="9.21" height="22.26" rx="4.6" ry="4.6"/><rect class="cls-2" x="212.51" y="29.96" width="24.75" height="11.13" rx="5.57" ry="5.57"/><rect class="cls-2" x="213.88" y="16.67" width="4.62" height="19.46" rx="2.31" ry="2.31"/><rect class="cls-2" x="222.02" y="15.57" width="7.02" height="20.3" rx="3.51" ry="3.51"/><rect class="cls-2" x="227.57" y="22.34" width="8.82" height="14.27" rx="4.41" ry="4.41"/><rect class="cls-1" x="259.33" y="24.51" width="30.8" height="20.35" rx="10.17" ry="10.17"/><rect class="cls-1" x="259.33" y="4.55" width="10.48" height="34.38" rx="5.24" ry="5.24"/><rect class="cls-1" x="269.81" y="9.35" width="10.55" height="28.07" rx="5.28" ry="5.28"/><rect class="cls-1" x="280.93" y="16.67" width="9.21" height="22.26" rx="4.6" ry="4.6"/><rect class="cls-2" x="262.51" y="29.96" width="24.75" height="11.13" rx="5.57" ry="5.57"/><rect class="cls-2" x="263.88" y="14.06" width="4.62" height="22.07" rx="2.31" ry="2.31"/><rect class="cls-2" x="272.02" y="15.57" width="7.02" height="20.3" rx="3.51" ry="3.51"/><rect class="cls-2" x="277.57" y="22.34" width="8.82" height="14.27" rx="4.41" ry="4.41"/><rect class="cls-1" x="309.33" y="24.78" width="30.8" height="20.35" rx="10.17" ry="10.17"/><rect class="cls-1" x="309.33" y="9.62" width="10.48" height="29.58" rx="5.24" ry="5.24"/><rect class="cls-1" x="319.81" y="9.62" width="10.55" height="28.07" rx="5.28" ry="5.28"/><rect class="cls-1" x="330.93" y="16.94" width="9.21" height="22.26" rx="4.6" ry="4.6"/><rect class="cls-2" x="312.51" y="30.23" width="24.75" height="11.13" rx="5.57" ry="5.57"/><rect class="cls-2" x="313.88" y="16.94" width="4.62" height="19.46" rx="2.31" ry="2.31"/><rect class="cls-2" x="322.02" y="15.84" width="7.02" height="20.3" rx="3.51" ry="3.51"/><rect class="cls-2" x="327.57" y="22.61" width="8.82" height="14.27" rx="4.41" ry="4.41"/><rect class="cls-1" x="359.33" y="24.78" width="30.8" height="20.35" rx="10.17" ry="10.17"/><rect class="cls-1" x="359.33" y="18.5" width="10.48" height="20.7" rx="5.24" ry="5.24"/><rect class="cls-1" x="369.81" y="7.48" width="10.55" height="30.21" rx="5.28" ry="5.28"/><rect class="cls-1" x="380.93" y="11.78" width="9.21" height="27.42" rx="4.6" ry="4.6"/><rect class="cls-2" x="362.51" y="30.23" width="24.75" height="11.13" rx="5.57" ry="5.57"/><rect class="cls-2" x="363.88" y="23.3" width="4.62" height="13.09" rx="2.31" ry="2.31"/><rect class="cls-2" x="372.02" y="14.3" width="7.02" height="21.84" rx="3.51" ry="3.51"/><rect class="cls-2" x="377.57" y="20.01" width="8.82" height="16.87" rx="4.41" ry="4.41"/><rect class="cls-1" x="409.33" y="24.78" width="30.8" height="20.35" rx="10.17" ry="10.17"/><rect class="cls-1" x="409.33" y="15.83" width="10.48" height="23.21" rx="5.24" ry="5.24"/><rect class="cls-1" x="419.81" y="11.78" width="10.55" height="25.91" rx="5.28" ry="5.28"/><rect class="cls-1" x="430.93" y="5.05" width="9.21" height="34.14" rx="4.6" ry="4.6"/><rect class="cls-2" x="412.51" y="30.23" width="24.75" height="11.13" rx="5.57" ry="5.57"/><rect class="cls-2" x="413.88" y="21.97" width="4.62" height="14.27" rx="2.31" ry="2.31"/><rect class="cls-2" x="422.02" y="15.98" width="7.02" height="20.15" rx="3.51" ry="3.51"/><rect class="cls-2" x="427.57" y="22.74" width="8.82" height="14.14" rx="4.41" ry="4.41"/><rect class="cls-1" x="459.33" y="24.78" width="30.8" height="20.35" rx="10.17" ry="10.17"/><rect class="cls-1" x="459.33" y="17.06" width="10.48" height="22.14" rx="5.24" ry="5.24"/><rect class="cls-1" x="469.81" y="8.94" width="10.55" height="28.59" rx="5.28" ry="5.28"/><rect class="cls-1" x="480.93" y="10.82" width="9.21" height="28.22" rx="4.6" ry="4.6"/><rect class="cls-2" x="462.51" y="30.23" width="24.75" height="11.13" rx="5.57" ry="5.57"/><rect class="cls-2" x="463.88" y="21.34" width="4.62" height="15.06" rx="2.31" ry="2.31"/><rect class="cls-2" x="472.02" y="14.2" width="7.02" height="21.78" rx="3.51" ry="3.51"/><rect class="cls-2" x="477.57" y="20.72" width="8.82" height="16.01" rx="4.41" ry="4.41"/></g><g id="Layer_3" data-name="Layer 3"><rect class="cls-2" x="12.12" y="29.98" width="24.75" height="11.13" rx="5.57" ry="5.57"/><rect class="cls-2" x="13.49" y="22.1" width="4.62" height="14.04" rx="2.31" ry="2.31"/><rect class="cls-2" x="21.63" y="11.23" width="7.02" height="24.66" rx="3.51" ry="3.51"/><rect class="cls-2" x="27.18" y="18.26" width="8.82" height="18.38" rx="4.41" ry="4.41"/><rect class="cls-1" x="509.33" y="24.78" width="30.8" height="20.35" rx="10.17" ry="10.17"/><rect class="cls-1" x="509.33" y="15.84" width="10.48" height="23.36" rx="5.24" ry="5.24"/><rect class="cls-1" x="519.81" y="4.06" width="10.55" height="33.63" rx="5.28" ry="5.28"/><rect class="cls-1" x="530.93" y="13.76" width="9.21" height="25.43" rx="4.6" ry="4.6"/><rect class="cls-2" x="512.51" y="30.23" width="24.75" height="11.13" rx="5.57" ry="5.57"/><rect class="cls-2" x="513.88" y="22.35" width="4.62" height="14.04" rx="2.31" ry="2.31"/><rect class="cls-2" x="522.02" y="11.47" width="7.02" height="24.66" rx="3.51" ry="3.51"/><rect class="cls-2" x="527.57" y="18.5" width="8.82" height="18.38" rx="4.41" ry="4.41"/></g></svg>