<svg xmlns="http://www.w3.org/2000/svg" xmlns:xlink="http://www.w3.org/1999/xlink" viewBox="0 0 481.5 405.35"><defs><style>.cls-1{fill:url(#radial-gradient);}.cls-2{fill:url(#radial-gradient-2);}.cls-3{fill:#685949;}.cls-4{fill:#594c3e;}.cls-5{fill:#9e9486;}.cls-6{fill:#b2a18b;}.cls-7{fill:#595756;}.cls-8{fill:#777270;}.cls-9{fill:#878381;}.cls-10{fill:#70615a;}.cls-11{fill:#9b7b6a;}.cls-12{fill:#af9487;}</style><radialGradient id="radial-gradient" cx="234.88" cy="241.43" r="160.46" gradientUnits="userSpaceOnUse"><stop offset="0" stop-color="#603813"/><stop offset="1"/></radialGradient><radialGradient id="radial-gradient-2" cx="231.46" cy="65.41" r="71.22" xlink:href="#radial-gradient"/></defs><title>fireplace</title><g id="Layer_2" data-name="Layer 2"><g id="Layer_6" data-name="Layer 6"><rect class="cls-1" x="47.71" y="113.13" width="374.35" height="256.6"/><rect class="cls-2" x="146.48" y="11.36" width="169.97" height="108.1"/><path class="cls-3" d="M260.78,256a6.17,6.17,0,0,0-6.69-5.54l-102.5,13.25a6.17,6.17,0,0,0-5.06,7.06l1.54,11.89a6.35,6.35,0,0,0,4.79,5.45,6.47,6.47,0,0,1-.75-2.29A6,6,0,0,1,157,279l9-1.17a3.59,3.59,0,0,1-.69-1.7,3.34,3.34,0,0,1,2.74-3.82l19-2.46a3.34,3.34,0,0,1,3.62,3,3.59,3.59,0,0,1-.23,1.82l11.91-1.54a3.59,3.59,0,0,1-.69-1.7,3.34,3.34,0,0,1,2.74-3.82l18.57-2.4a3.72,3.72,0,0,1-.73-1.77,3.46,3.46,0,0,1,2.84-4l30-3.88a3.57,3.57,0,0,1,.91,7.07l-6.59.85a3.6,3.6,0,0,1,.42,3.47l6.38-.83a5.82,5.82,0,0,1,6,3.6,6.71,6.71,0,0,0,0-1.85ZM209,261.59l-28.14,3.64a.94.94,0,0,1-.24-1.86l28.14-3.64a.94.94,0,0,1,.24,1.86Z"/><path class="cls-4" d="M256.31,266.19l-6.38.83a3.6,3.6,0,0,0-.42-3.47l6.59-.85a3.57,3.57,0,0,0-.91-7.07l-30,3.88a3.46,3.46,0,0,0-2.84,4,3.72,3.72,0,0,0,.73,1.77l-18.57,2.4a3.34,3.34,0,0,0-2.74,3.82,3.59,3.59,0,0,0,.69,1.7l-11.91,1.54a3.59,3.59,0,0,0,.23-1.82,3.34,3.34,0,0,0-3.62-3l-19,2.46a3.34,3.34,0,0,0-2.74,3.82,3.59,3.59,0,0,0,.69,1.7L157,279a6,6,0,0,0-4.9,6.83,6.47,6.47,0,0,0,.75,2.29,5.51,5.51,0,0,0,1.9.09L257.26,275a6,6,0,0,0,5-5.2A5.82,5.82,0,0,0,256.31,266.19Z"/><path class="cls-4" d="M180.9,265.23,209,261.59a.94.94,0,0,0-.24-1.86l-28.14,3.64a.94.94,0,0,0,.24,1.86Z"/><rect class="cls-5" x="146.12" y="263.4" width="15.47" height="24.69" rx="7.73" ry="7.73" transform="matrix(0.99, -0.13, 0.13, 0.99, -34.09, 22.01)"/><rect class="cls-6" x="142.03" y="269.63" width="21.52" height="12.51" rx="6.25" ry="6.25" transform="matrix(-0.13, -0.99, 0.99, -0.13, -101.22, 462.78)"/><path class="cls-3" d="M359.7,296.28a12,12,0,0,0-12-12H138.37a12,12,0,0,0-12,12v22.67a12,12,0,0,0,8.2,11.37,11.5,11.5,0,0,1-.91-4.48,11.65,11.65,0,0,1,11.61-11.61h18.46a6.43,6.43,0,0,1-.94-3.35,6.51,6.51,0,0,1,6.5-6.5h38.85a6.51,6.51,0,0,1,6.5,6.5,6.43,6.43,0,0,1-.94,3.35H238a6.43,6.43,0,0,1-.94-3.35,6.51,6.51,0,0,1,6.5-6.5h37.92a6.67,6.67,0,0,1-1-3.5,6.75,6.75,0,0,1,6.73-6.73h61.33a6.73,6.73,0,0,1,0,13.47H335.11a6.41,6.41,0,0,1,0,6.61h13a11.66,11.66,0,0,1,11.09,8.19,11.9,11.9,0,0,0,.52-3.47Zm-105.38-2.13H196.84a1.77,1.77,0,0,1,0-3.54h57.47a1.77,1.77,0,0,1,0,3.54Z"/><path class="cls-4" d="M348.09,314.22h-13a6.41,6.41,0,0,0,0-6.61h13.45a6.73,6.73,0,0,0,0-13.47H287.23a6.75,6.75,0,0,0-6.73,6.73,6.67,6.67,0,0,0,1,3.5H243.57a6.51,6.51,0,0,0-6.5,6.5,6.43,6.43,0,0,0,.94,3.35H213.69a6.43,6.43,0,0,0,.94-3.35,6.51,6.51,0,0,0-6.5-6.5H169.29a6.51,6.51,0,0,0-6.5,6.5,6.43,6.43,0,0,0,.94,3.35H145.27a11.65,11.65,0,0,0-11.61,11.61,11.5,11.5,0,0,0,.91,4.48,11.88,11.88,0,0,0,3.8.63H347.7a12,12,0,0,0,11.48-8.53A11.66,11.66,0,0,0,348.09,314.22Z"/><path class="cls-4" d="M196.84,294.14h57.47a1.77,1.77,0,0,0,0-3.54H196.84a1.77,1.77,0,0,0,0,3.54Z"/><rect class="cls-5" x="124.12" y="283.96" width="31.33" height="46.67" rx="12" ry="12"/><rect class="cls-6" x="117.28" y="294.63" width="40.67" height="25.33" rx="9" ry="9" transform="translate(-169.68 444.91) rotate(-90)"/><path class="cls-3" d="M312.28,273.88a7.31,7.31,0,0,0-6.63-7.88l-122.43-6.31a7.31,7.31,0,0,0-7.41,7.16l-.73,14.21a7.53,7.53,0,0,0,4.43,7.37,7.67,7.67,0,0,1-.38-2.84,7.08,7.08,0,0,1,7.17-6.93l10.8.56a4.26,4.26,0,0,1-.44-2.13,4,4,0,0,1,4-3.88l22.72,1.17a4,4,0,0,1,3.59,4.27,4.26,4.26,0,0,1-.66,2.07l14.23.73a4.26,4.26,0,0,1-.44-2.13,4,4,0,0,1,4-3.88l22.18,1.14a4.41,4.41,0,0,1-.47-2.23,4.1,4.1,0,0,1,4.16-4l35.87,1.85a4.24,4.24,0,0,1-.44,8.44l-7.87-.41a4.27,4.27,0,0,1-.24,4.14l7.62.39a6.9,6.9,0,0,1,6.22,5.47,8,8,0,0,0,.42-2.16Zm-61.57-4.51-33.61-1.73a1.11,1.11,0,0,1,.11-2.22l33.61,1.73a1.11,1.11,0,0,1-.11,2.22Z"/><path class="cls-4" d="M304.9,284.78l-7.62-.39a4.27,4.27,0,0,0,.24-4.14l7.87.41a4.24,4.24,0,0,0,.44-8.44L270,270.36a4.1,4.1,0,0,0-4.16,4,4.41,4.41,0,0,0,.47,2.23l-22.18-1.14a4,4,0,0,0-4,3.88,4.26,4.26,0,0,0,.44,2.13l-14.23-.73a4.26,4.26,0,0,0,.66-2.07,4,4,0,0,0-3.59-4.27l-22.72-1.17a4,4,0,0,0-4,3.88,4.26,4.26,0,0,0,.44,2.13l-10.8-.56a7.08,7.08,0,0,0-7.17,6.93,7.67,7.67,0,0,0,.38,2.84,6.53,6.53,0,0,0,2.2.51l122.43,6.31a7.14,7.14,0,0,0,7-5A6.9,6.9,0,0,0,304.9,284.78Z"/><path class="cls-4" d="M217.1,267.64l33.61,1.73a1.11,1.11,0,0,0,.11-2.22l-33.61-1.73a1.11,1.11,0,0,0-.11,2.22Z"/><rect class="cls-5" x="174.13" y="259.51" width="18.35" height="29.29" rx="7.87" ry="7.87" transform="translate(14.36 -9.08) rotate(2.95)"/><rect class="cls-6" x="169.27" y="266.67" width="25.52" height="14.84" rx="6.36" ry="6.36" transform="translate(-101.07 441.77) rotate(-87.05)"/><path class="cls-3" d="M200.44,307.26c-1.51,6.82-.33,12.94,2.63,13.6l93.87,20.84c3,.66,6.62-4.39,8.13-11.21l5.2-23.43c1.21-5.45.69-10.44-1.07-12.57a26.51,26.51,0,0,1-.62,4.72c-1.47,6.6-5,11.48-7.87,10.85l-8.28-1.84a14.08,14.08,0,0,1-.34,3.55c-.82,3.69-2.8,6.42-4.4,6.07L270.26,314c-1.6-.36-2.24-3.67-1.42-7.36a14.08,14.08,0,0,1,1.19-3.36l-10.91-2.42a14.08,14.08,0,0,1-.34,3.55c-.82,3.69-2.8,6.42-4.4,6.07l-17-3.78a14.56,14.56,0,0,1-.36,3.72c-.85,3.83-2.9,6.66-4.56,6.29l-27.5-6.11c-1.66-.37-2.32-3.8-1.47-7.63s2.9-6.66,4.56-6.29l6,1.34a14.73,14.73,0,0,1,1.54-6.83l-5.84-1.3c-2.33-.52-3.52-4.54-3.1-9.57a28.13,28.13,0,0,0-1,3.53ZM247.2,320,273,325.68c.44.1.61,1,.39,2s-.76,1.75-1.2,1.65l-25.77-5.72c-.44-.1-.61-1-.39-2S246.77,319.86,247.2,320Z"/><path class="cls-4" d="M209.76,289.87l5.84,1.3a14.73,14.73,0,0,0-1.54,6.83l-6-1.34c-1.66-.37-3.71,2.46-4.56,6.29s-.19,7.26,1.47,7.63l27.5,6.11c1.66.37,3.71-2.46,4.56-6.29a14.56,14.56,0,0,0,.36-3.72l17,3.78c1.6.36,3.58-2.37,4.4-6.07a14.08,14.08,0,0,0,.34-3.55L270,303.25a14.08,14.08,0,0,0-1.19,3.36c-.82,3.69-.18,7,1.42,7.36l17.42,3.87c1.6.36,3.58-2.37,4.4-6.07a14.08,14.08,0,0,0,.34-3.55l8.28,1.84c2.86.64,6.41-4.25,7.87-10.85a26.51,26.51,0,0,0,.62-4.72,2.85,2.85,0,0,0-1.56-1l-93.87-20.84c-2.42-.54-5.31,2.74-7.11,7.68C206.24,285.34,207.43,289.35,209.76,289.87Z"/><path class="cls-4" d="M273,325.68,247.2,320c-.44-.1-1,.65-1.2,1.65s0,1.91.39,2l25.77,5.72c.44.1,1-.65,1.2-1.65S273.41,325.78,273,325.68Z"/><rect class="cls-5" x="294.38" y="293.06" width="14.39" height="49.41" rx="5.75" ry="5.75" transform="translate(527.12 693.35) rotate(-167.48)"/><rect class="cls-6" x="281.03" y="312.17" width="43.06" height="11.64" rx="4.65" ry="4.65" transform="translate(678.56 91.54) rotate(102.52)"/><path class="cls-3" d="M164.2,313c-.11-3.49,1.15-6.39,2.79-6.44l52.26-1.67c1.65-.05,3.09,2.76,3.2,6.25l.38,12c.09,2.79-.7,5.19-1.85,6.08a12.21,12.21,0,0,0,.15-2.38c-.11-3.38-1.5-6.1-3.1-6l-4.61.15a6.5,6.5,0,0,0,.18-1.78c-.06-1.89-.84-3.41-1.73-3.38l-9.7.31c-.89,0-1.57,1.6-1.51,3.49a6.5,6.5,0,0,0,.29,1.76l-6.07.19a6.5,6.5,0,0,0,.18-1.78c-.06-1.89-.84-3.41-1.73-3.38l-9.47.3a6.72,6.72,0,0,0,.19-1.86c-.06-2-.87-3.54-1.79-3.51l-15.31.49c-.92,0-1.63,1.66-1.57,3.61s.87,3.54,1.79,3.51l3.36-.11a6.78,6.78,0,0,0,.12,3.5l-3.25.1c-1.3,0-2.34,1.91-2.63,4.42a12.94,12.94,0,0,1-.19-1.83Zm26.27-2,14.35-.46c.24,0,.43-.44.41-1s-.23-.93-.47-.92l-14.35.46c-.24,0-.43.44-.41,1S190.23,311,190.47,311Z"/><path class="cls-4" d="M167.4,322.4l3.25-.1a6.78,6.78,0,0,1-.12-3.5l-3.36.11c-.92,0-1.73-1.55-1.79-3.51s.64-3.59,1.57-3.61l15.31-.49c.92,0,1.73,1.55,1.79,3.51a6.72,6.72,0,0,1-.19,1.86l9.47-.3c.89,0,1.67,1.49,1.73,3.38a6.5,6.5,0,0,1-.18,1.78l6.07-.19a6.5,6.5,0,0,1-.29-1.76c-.06-1.89.62-3.46,1.51-3.49l9.7-.31c.89,0,1.67,1.49,1.73,3.38a6.5,6.5,0,0,1-.18,1.78l4.61-.15c1.59-.05,3,2.67,3.1,6a12.21,12.21,0,0,1-.15,2.38,1.63,1.63,0,0,1-.94.36l-52.26,1.67c-1.35,0-2.55-1.83-3-4.42C165.05,324.31,166.1,322.44,167.4,322.4Z"/><path class="cls-4" d="M204.82,310.58l-14.35.46c-.24,0-.46-.41-.47-.92s.17-.94.41-1l14.35-.46c.24,0,.46.41.47.92S205.06,310.57,204.82,310.58Z"/><rect class="cls-5" x="215.37" y="304.73" width="7.83" height="24.69" rx="3.91" ry="3.91" transform="translate(448.59 626.99) rotate(178.17)"/><rect class="cls-6" x="209.07" y="313.9" width="21.52" height="6.33" rx="3.16" ry="3.16" transform="translate(-90.05 546.9) rotate(-91.83)"/><path class="cls-7" d="M365.13,353.39H110.74c-3.67,0-6.67-3.35-6.67-7.44v7.17c0,4.09,3,7.44,6.67,7.44H365.13c3.67,0,6.67-3.35,6.67-7.44V346C371.8,350,368.8,353.39,365.13,353.39Z"/><path class="cls-8" d="M365.13,330.68H110.74c-3.67,0-6.67,3.35-6.67,7.44V346c0,4.09,3,7.44,6.67,7.44H365.13c3.67,0,6.67-3.35,6.67-7.44v-7.84C371.8,334,368.8,330.68,365.13,330.68Z"/><rect class="cls-9" x="294.24" y="334.93" width="73.56" height="7.11" rx="3.55" ry="3.55"/><path class="cls-7" d="M434.19,131.45H37.27c-5.73,0-10.41-5.4-10.41-12V131c0,6.6,4.68,12,10.41,12H434.19c5.73,0,10.41-5.4,10.41-12V119.45C444.6,126.05,439.92,131.45,434.19,131.45Z"/><path class="cls-8" d="M434.19,94.81H37.27c-5.73,0-10.41,5.4-10.41,12v12.65c0,6.6,4.68,12,10.41,12H434.19c5.73,0,10.41-5.4,10.41-12V106.81C444.6,100.21,439.92,94.81,434.19,94.81Z"/><rect class="cls-9" x="323.58" y="101.67" width="114.77" height="11.46" rx="5.73" ry="5.73"/><path class="cls-7" d="M367.13,22.72H112.74c-3.67,0-6.67-3.35-6.67-7.44v7.17c0,4.09,3,7.44,6.67,7.44H367.13c3.67,0,6.67-3.35,6.67-7.44V15.28C373.8,19.37,370.8,22.72,367.13,22.72Z"/><path class="cls-8" d="M367.13,0H112.74c-3.67,0-6.67,3.35-6.67,7.44v7.84c0,4.09,3,7.44,6.67,7.44H367.13c3.67,0,6.67-3.35,6.67-7.44V7.44C373.8,3.35,370.8,0,367.13,0Z"/><rect class="cls-9" x="296.24" y="4.25" width="73.56" height="7.11" rx="3.55" ry="3.55"/><path class="cls-10" d="M115.73,352h-71a12,12,0,0,1-12-12V315.19a11.89,11.89,0,0,1,1.8-6.28,12,12,0,0,0-5.46,10v33a12,12,0,0,0,12,12h74.66a12,12,0,0,0,12-12V340A12,12,0,0,1,115.73,352Z"/><path class="cls-11" d="M125.49,331.62a2.12,2.12,0,0,1-.15-.88,1.51,1.51,0,0,1,.45-.75,9.89,9.89,0,0,1,1.94-1.59V319a12,12,0,0,0-12-12H55.86A8.66,8.66,0,0,1,51,308.07a22.38,22.38,0,0,0-2.81-.26A4.89,4.89,0,0,0,45,309.2a.73.73,0,0,1-.44.27c-.22,0-.38-.19-.52-.36A6.84,6.84,0,0,0,40.94,307a11.9,11.9,0,0,0-6.41,2,11.89,11.89,0,0,0-1.8,6.28V340a12,12,0,0,0,12,12h71a12,12,0,0,0,12-12v-3.41a16.2,16.2,0,0,0-3-1.7A3.61,3.61,0,0,0,125.49,331.62ZM115,323.3H80.82a5,5,0,0,1,0-9.93H115a5,5,0,0,1,0,9.93Z"/><path class="cls-12" d="M115,313.37H80.82a5,5,0,0,0,0,9.93H115a5,5,0,0,0,0-9.93Z"/><path class="cls-10" d="M116.56,296.4h-71a12,12,0,0,1-12-12V259.59a11.89,11.89,0,0,1,1.8-6.28,12,12,0,0,0-5.46,10v33a12,12,0,0,0,12,12h74.66a12,12,0,0,0,12-12v-12A12,12,0,0,1,116.56,296.4Z"/><path class="cls-11" d="M126.32,276a2.12,2.12,0,0,1-.15-.88,1.51,1.51,0,0,1,.45-.75,9.89,9.89,0,0,1,1.94-1.59v-9.45a12,12,0,0,0-12-12H56.69a8.66,8.66,0,0,1-4.89,1.11A22.38,22.38,0,0,0,49,252.2a4.89,4.89,0,0,0-3.17,1.39.73.73,0,0,1-.44.27c-.22,0-.38-.19-.52-.36a6.84,6.84,0,0,0-3.08-2.16,11.9,11.9,0,0,0-6.41,2,11.89,11.89,0,0,0-1.8,6.28V284.4a12,12,0,0,0,12,12h71a12,12,0,0,0,12-12V281a16.2,16.2,0,0,0-3-1.7A3.61,3.61,0,0,0,126.32,276Zm-10.51-8.32H81.65a5,5,0,0,1,0-9.93h34.16a5,5,0,0,1,0,9.93Z"/><path class="cls-12" d="M115.81,257.76H81.65a5,5,0,0,0,0,9.93h34.16a5,5,0,0,0,0-9.93Z"/><path class="cls-10" d="M116.15,239.35h-71a12,12,0,0,1-12-12V202.54a11.89,11.89,0,0,1,1.8-6.28,12,12,0,0,0-5.46,10v33a12,12,0,0,0,12,12h74.66a12,12,0,0,0,12-12v-12A12,12,0,0,1,116.15,239.35Z"/><path class="cls-11" d="M125.91,219a2.12,2.12,0,0,1-.15-.88,1.51,1.51,0,0,1,.45-.75,9.89,9.89,0,0,1,1.94-1.59V206.3a12,12,0,0,0-12-12H56.27a8.66,8.66,0,0,1-4.89,1.11,22.38,22.38,0,0,0-2.81-.26,4.89,4.89,0,0,0-3.17,1.39.73.73,0,0,1-.44.27c-.22,0-.38-.19-.52-.36a6.84,6.84,0,0,0-3.08-2.16,11.9,11.9,0,0,0-6.41,2,11.89,11.89,0,0,0-1.8,6.28v24.81a12,12,0,0,0,12,12h71a12,12,0,0,0,12-12v-3.41a16.2,16.2,0,0,0-3-1.7A3.61,3.61,0,0,0,125.91,219Zm-10.51-8.32H81.23a5,5,0,0,1,0-9.93h34.16a5,5,0,0,1,0,9.93Z"/><path class="cls-12" d="M115.39,200.72H81.23a5,5,0,0,0,0,9.93h34.16a5,5,0,0,0,0-9.93Z"/><path class="cls-10" d="M117,183.74H46a12,12,0,0,1-12-12V146.94a11.89,11.89,0,0,1,1.8-6.28,12,12,0,0,0-5.46,10v33a12,12,0,0,0,12,12H117a12,12,0,0,0,12-12v-12A12,12,0,0,1,117,183.74Z"/><path class="cls-11" d="M126.74,163.37a2.12,2.12,0,0,1-.15-.88,1.51,1.51,0,0,1,.45-.75,9.89,9.89,0,0,1,1.94-1.59V150.7a12,12,0,0,0-12-12H57.1a8.66,8.66,0,0,1-4.89,1.11,22.38,22.38,0,0,0-2.81-.26,4.89,4.89,0,0,0-3.17,1.39.73.73,0,0,1-.44.27c-.22,0-.38-.19-.52-.36a6.84,6.84,0,0,0-3.08-2.16,11.9,11.9,0,0,0-6.41,2,11.89,11.89,0,0,0-1.8,6.28v24.81a12,12,0,0,0,12,12h71a12,12,0,0,0,12-12v-3.41a16.2,16.2,0,0,0-3-1.7A3.61,3.61,0,0,0,126.74,163.37ZM116.22,155H82.06a5,5,0,0,1,0-9.93h34.16a5,5,0,0,1,0,9.93Z"/><path class="cls-12" d="M116.22,145.11H82.06a5,5,0,0,0,0,9.93h34.16a5,5,0,0,0,0-9.93Z"/><path class="cls-10" d="M431.36,352h-71a12,12,0,0,1-12-12V315.19a11.89,11.89,0,0,1,1.8-6.28,12,12,0,0,0-5.46,10v33a12,12,0,0,0,12,12h74.66a12,12,0,0,0,12-12V340A12,12,0,0,1,431.36,352Z"/><path class="cls-11" d="M441.12,331.62a2.12,2.12,0,0,1-.15-.88,1.51,1.51,0,0,1,.45-.75,9.89,9.89,0,0,1,1.94-1.59V319a12,12,0,0,0-12-12H371.48a8.66,8.66,0,0,1-4.89,1.11,22.38,22.38,0,0,0-2.81-.26,4.89,4.89,0,0,0-3.17,1.39.73.73,0,0,1-.44.27c-.22,0-.38-.19-.52-.36a6.84,6.84,0,0,0-3.08-2.16,11.9,11.9,0,0,0-6.41,2,11.89,11.89,0,0,0-1.8,6.28V340a12,12,0,0,0,12,12h71a12,12,0,0,0,12-12v-3.41a16.2,16.2,0,0,0-3-1.7A3.61,3.61,0,0,0,441.12,331.62Zm-10.51-8.32H396.45a5,5,0,0,1,0-9.93h34.16a5,5,0,0,1,0,9.93Z"/><path class="cls-12" d="M430.61,313.37H396.45a5,5,0,0,0,0,9.93h34.16a5,5,0,0,0,0-9.93Z"/><path class="cls-10" d="M432.19,296.4h-71a12,12,0,0,1-12-12V259.59a11.89,11.89,0,0,1,1.8-6.28,12,12,0,0,0-5.46,10v33a12,12,0,0,0,12,12h74.66a12,12,0,0,0,12-12v-12A12,12,0,0,1,432.19,296.4Z"/><path class="cls-11" d="M441.95,276a2.12,2.12,0,0,1-.15-.88,1.51,1.51,0,0,1,.45-.75,9.89,9.89,0,0,1,1.94-1.59v-9.45a12,12,0,0,0-12-12H372.31a8.66,8.66,0,0,1-4.89,1.11,22.38,22.38,0,0,0-2.81-.26,4.89,4.89,0,0,0-3.17,1.39.73.73,0,0,1-.44.27c-.22,0-.38-.19-.52-.36a6.84,6.84,0,0,0-3.08-2.16,11.9,11.9,0,0,0-6.41,2,11.89,11.89,0,0,0-1.8,6.28V284.4a12,12,0,0,0,12,12h71a12,12,0,0,0,12-12V281a16.2,16.2,0,0,0-3-1.7A3.61,3.61,0,0,0,441.95,276Zm-10.51-8.32H397.28a5,5,0,0,1,0-9.93h34.16a5,5,0,0,1,0,9.93Z"/><path class="cls-12" d="M431.43,257.76H397.28a5,5,0,0,0,0,9.93h34.16a5,5,0,0,0,0-9.93Z"/><path class="cls-10" d="M431.77,239.35h-71a12,12,0,0,1-12-12V202.54a11.89,11.89,0,0,1,1.8-6.28,12,12,0,0,0-5.46,10v33a12,12,0,0,0,12,12h74.66a12,12,0,0,0,12-12v-12A12,12,0,0,1,431.77,239.35Z"/><path class="cls-11" d="M441.54,219a2.12,2.12,0,0,1-.15-.88,1.51,1.51,0,0,1,.45-.75,9.89,9.89,0,0,1,1.94-1.59V206.3a12,12,0,0,0-12-12H371.9a8.66,8.66,0,0,1-4.89,1.11,22.38,22.38,0,0,0-2.81-.26,4.89,4.89,0,0,0-3.17,1.39.73.73,0,0,1-.44.27c-.22,0-.38-.19-.52-.36a6.84,6.84,0,0,0-3.08-2.16,11.9,11.9,0,0,0-6.41,2,11.89,11.89,0,0,0-1.8,6.28v24.81a12,12,0,0,0,12,12h71a12,12,0,0,0,12-12v-3.41a16.2,16.2,0,0,0-3-1.7A3.61,3.61,0,0,0,441.54,219ZM431,210.65H396.86a5,5,0,0,1,0-9.93H431a5,5,0,0,1,0,9.93Z"/><path class="cls-12" d="M431,200.72H396.86a5,5,0,0,0,0,9.93H431a5,5,0,0,0,0-9.93Z"/><path class="cls-10" d="M432.6,183.74h-71a12,12,0,0,1-12-12V146.94a11.89,11.89,0,0,1,1.8-6.28,12,12,0,0,0-5.46,10v33a12,12,0,0,0,12,12H432.6a12,12,0,0,0,12-12v-12A12,12,0,0,1,432.6,183.74Z"/><path class="cls-11" d="M442.36,163.37a2.12,2.12,0,0,1-.15-.88,1.51,1.51,0,0,1,.45-.75,9.89,9.89,0,0,1,1.94-1.59V150.7a12,12,0,0,0-12-12H372.73a8.66,8.66,0,0,1-4.89,1.11,22.38,22.38,0,0,0-2.81-.26,4.89,4.89,0,0,0-3.17,1.39.73.73,0,0,1-.44.27c-.22,0-.38-.19-.52-.36a6.84,6.84,0,0,0-3.08-2.16,11.9,11.9,0,0,0-6.41,2,11.89,11.89,0,0,0-1.8,6.28v24.81a12,12,0,0,0,12,12h71a12,12,0,0,0,12-12v-3.41a16.2,16.2,0,0,0-3-1.7A3.61,3.61,0,0,0,442.36,163.37ZM431.85,155H397.69a5,5,0,0,1,0-9.93h34.16a5,5,0,0,1,0,9.93Z"/><path class="cls-12" d="M431.85,145.11H397.69a5,5,0,0,0,0,9.93h34.16a5,5,0,0,0,0-9.93Z"/><path class="cls-10" d="M335.83,89.22H286.71c-4.57,0-8.3-3.3-8.3-7.33V66.73a6.65,6.65,0,0,1,1.25-3.84A7.17,7.17,0,0,0,275.88,69v20.2c0,4,3.74,7.33,8.3,7.33h51.65c4.57,0,8.3-3.3,8.3-7.33V81.89C344.13,85.92,340.39,89.22,335.83,89.22Z"/><path class="cls-11" d="M342.58,76.77a1.16,1.16,0,0,1-.1-.54.91.91,0,0,1,.31-.46,6.74,6.74,0,0,1,1.34-1V69c0-4-3.74-7.33-8.3-7.33H294.4a6.64,6.64,0,0,1-3.39.68,17.47,17.47,0,0,0-1.95-.16,3.61,3.61,0,0,0-2.19.85.52.52,0,0,1-.31.17.5.5,0,0,1-.36-.22,4.78,4.78,0,0,0-2.13-1.32,9,9,0,0,0-4.44,1.2,6.65,6.65,0,0,0-1.25,3.84V81.89c0,4,3.74,7.33,8.3,7.33h49.12c4.57,0,8.3-3.3,8.3-7.33V79.8a11.67,11.67,0,0,0-2.06-1A2,2,0,0,0,342.58,76.77Zm-7.27-5.08H311.67a3.06,3.06,0,1,1,0-6.07h23.63a3.06,3.06,0,1,1,0,6.07Z"/><path class="cls-12" d="M335.31,65.61H311.67a3.06,3.06,0,1,0,0,6.07h23.63a3.06,3.06,0,1,0,0-6.07Z"/><path class="cls-10" d="M336.4,55.24H287.28c-4.57,0-8.3-3.3-8.3-7.33V32.74a6.65,6.65,0,0,1,1.25-3.84A7.17,7.17,0,0,0,276.45,35v20.2c0,4,3.74,7.33,8.3,7.33H336.4c4.57,0,8.3-3.3,8.3-7.33V47.9C344.7,51.94,341,55.24,336.4,55.24Z"/><path class="cls-11" d="M343.15,42.78a1.16,1.16,0,0,1-.1-.54.91.91,0,0,1,.31-.46,6.74,6.74,0,0,1,1.34-1V35c0-4-3.74-7.33-8.3-7.33H295a6.64,6.64,0,0,1-3.39.68,17.47,17.47,0,0,0-1.95-.16,3.61,3.61,0,0,0-2.19.85.52.52,0,0,1-.31.17.5.5,0,0,1-.36-.22,4.78,4.78,0,0,0-2.13-1.32,9,9,0,0,0-4.44,1.2A6.65,6.65,0,0,0,279,32.74V47.9c0,4,3.74,7.33,8.3,7.33H336.4c4.57,0,8.3-3.3,8.3-7.33V45.82a11.67,11.67,0,0,0-2.06-1A2,2,0,0,0,343.15,42.78Zm-7.27-5.08H312.25a3.26,3.26,0,0,1-3.44-3,3.26,3.26,0,0,1,3.44-3h23.63a3.26,3.26,0,0,1,3.44,3A3.26,3.26,0,0,1,335.88,37.7Z"/><path class="cls-12" d="M335.88,31.63H312.25a3.26,3.26,0,0,0-3.44,3,3.26,3.26,0,0,0,3.44,3h23.63a3.26,3.26,0,0,0,3.44-3A3.26,3.26,0,0,0,335.88,31.63Z"/><path class="cls-10" d="M188.93,87.47H139.81c-4.57,0-8.3-3.3-8.3-7.33V65a6.65,6.65,0,0,1,1.25-3.84A7.17,7.17,0,0,0,129,67.28v20.2c0,4,3.74,7.33,8.3,7.33h51.65c4.57,0,8.3-3.3,8.3-7.33V80.14C197.23,84.17,193.49,87.47,188.93,87.47Z"/><path class="cls-11" d="M195.68,75a1.16,1.16,0,0,1-.1-.54.91.91,0,0,1,.31-.46,6.74,6.74,0,0,1,1.34-1V67.28c0-4-3.74-7.33-8.3-7.33H147.5a6.64,6.64,0,0,1-3.39.68,17.47,17.47,0,0,0-1.95-.16,3.61,3.61,0,0,0-2.19.85.52.52,0,0,1-.31.17.5.5,0,0,1-.36-.22,4.78,4.78,0,0,0-2.13-1.32,9,9,0,0,0-4.44,1.2A6.65,6.65,0,0,0,131.5,65V80.14c0,4,3.74,7.33,8.3,7.33h49.12c4.57,0,8.3-3.3,8.3-7.33V78.06a11.67,11.67,0,0,0-2.06-1A2,2,0,0,0,195.68,75Zm-7.27-5.08H164.77a3.06,3.06,0,1,1,0-6.07h23.63a3.06,3.06,0,1,1,0,6.07Z"/><path class="cls-12" d="M188.41,63.87H164.77a3.06,3.06,0,1,0,0,6.07h23.63a3.06,3.06,0,1,0,0-6.07Z"/><path class="cls-10" d="M189.5,53.49H140.38c-4.57,0-8.3-3.3-8.3-7.33V31a6.65,6.65,0,0,1,1.25-3.84,7.17,7.17,0,0,0-3.78,6.13v20.2c0,4,3.74,7.33,8.3,7.33H189.5c4.57,0,8.3-3.3,8.3-7.33V46.16C197.8,50.19,194.06,53.49,189.5,53.49Z"/><path class="cls-11" d="M196.25,41a1.16,1.16,0,0,1-.1-.54.91.91,0,0,1,.31-.46,6.74,6.74,0,0,1,1.34-1V33.3c0-4-3.74-7.33-8.3-7.33H148.08a6.64,6.64,0,0,1-3.39.68,17.47,17.47,0,0,0-1.95-.16,3.61,3.61,0,0,0-2.19.85.52.52,0,0,1-.31.17.5.5,0,0,1-.36-.22A4.78,4.78,0,0,0,137.76,26a9,9,0,0,0-4.44,1.2A6.65,6.65,0,0,0,132.08,31V46.16c0,4,3.74,7.33,8.3,7.33H189.5c4.57,0,8.3-3.3,8.3-7.33V44.08a11.67,11.67,0,0,0-2.06-1A2,2,0,0,0,196.25,41ZM189,36H165.35a3.26,3.26,0,0,1-3.44-3,3.26,3.26,0,0,1,3.44-3H189a3.26,3.26,0,0,1,3.44,3A3.26,3.26,0,0,1,189,36Z"/><path class="cls-12" d="M189,29.88H165.35a3.26,3.26,0,0,0-3.44,3,3.26,3.26,0,0,0,3.44,3H189a3.26,3.26,0,0,0,3.44-3A3.26,3.26,0,0,0,189,29.88Z"/><path class="cls-7" d="M469.5,393.79H12a12,12,0,0,1-12-12v11.56a12,12,0,0,0,12,12H469.5a12,12,0,0,0,12-12V381.79A12,12,0,0,1,469.5,393.79Z"/><rect class="cls-8" y="357.14" width="481.5" height="36.65" rx="12" ry="12"/><rect class="cls-9" x="342" y="364" width="132.29" height="11.46" rx="5.73" ry="5.73"/></g></g></svg>