<svg xmlns="http://www.w3.org/2000/svg" viewBox="0 0 878.51 255.82"><defs><style>.cls-1{fill:#56684a;}.cls-2{fill:#577046;}.cls-3{fill:#747a70;}</style></defs><title>ground</title><g id="Layer_2" data-name="Layer 2"><g id="Layer_2-2" data-name="Layer 2"><rect class="cls-1" width="878.51" height="255.82"/><rect class="cls-2" x="52.66" y="40.28" width="49.91" height="39.19" rx="12" ry="12"/><rect class="cls-2" x="126.77" y="26.13" width="26.27" height="14.15" rx="7.08" ry="7.08"/><rect class="cls-2" x="35.92" y="127.91" width="106.46" height="19.05" rx="9.53" ry="9.53"/><rect class="cls-2" x="170.34" y="91.83" width="100.24" height="15.94" rx="7.97" ry="7.97"/><rect class="cls-2" x="102.57" y="182.89" width="115.4" height="44.63" rx="12" ry="12"/><rect class="cls-2" x="6.53" y="163.29" width="71.08" height="71.08" rx="12" ry="12"/><rect class="cls-2" x="21.77" y="79.47" width="30.89" height="30.89" rx="12" ry="12"/><rect class="cls-2" x="6.53" y="3.27" width="59.27" height="224.25" rx="12" ry="12"/><rect class="cls-2" x="153.04" y="54.43" width="90.8" height="25.04" rx="12" ry="12"/><rect class="cls-2" x="575.88" y="40.28" width="69.46" height="14.15" rx="7.08" ry="7.08"/><rect class="cls-2" x="601.47" y="115.39" width="106.13" height="31.57" rx="12" ry="12"/><rect class="cls-2" x="698.89" y="47.35" width="128.46" height="60.42" rx="12" ry="12"/><rect class="cls-2" x="776.13" y="19.6" width="76.25" height="214.78" rx="12" ry="12"/><rect class="cls-2" x="698.89" y="168.74" width="128.46" height="36.47" rx="12" ry="12"/><rect class="cls-3" x="307.38" y="77.56" width="124.31" height="22.24" rx="11.12" ry="11.12"/><rect class="cls-3" x="353.55" y="115.39" width="132.23" height="22.04" rx="11.02" ry="11.02"/><rect class="cls-3" x="343.96" y="156.76" width="69.76" height="6.53" rx="3.27" ry="3.27"/><rect class="cls-3" x="400.81" y="186.97" width="178.88" height="36.2" rx="12" ry="12"/><rect class="cls-3" x="469.06" y="234.37" width="181.92" height="21.45" rx="10.73" ry="10.73"/><rect class="cls-3" x="323.81" y="234.37" width="124.09" height="21.45" rx="10.73" ry="10.73"/><rect class="cls-3" x="453.37" y="146.96" width="81.14" height="26.13" rx="12" ry="12"/></g></g></svg>