<svg xmlns="http://www.w3.org/2000/svg" viewBox="0 0 100 100"><defs><style>.cls-1{fill:#7c7c7b;}.cls-2{fill:#757570;}.cls-3{fill:#5e5e5e;}.cls-4{fill:#565547;}.cls-5{fill:#6b6958;}.cls-6{fill:#878574;}.cls-7{fill:#b7b6a9;}.cls-8{fill:#c9c7b5;}.cls-9{fill:none;}</style></defs><title>handdun</title><g id="Layer_2" data-name="Layer 2"><g id="Layer_2-2" data-name="Layer 2"><rect class="cls-1" x="25.95" y="14.28" width="52.05" height="52.05" rx="5.64" ry="5.64"/><rect class="cls-1" x="32.47" y="5.67" width="38.1" height="18.65" rx="6.5" ry="6.5"/><rect class="cls-2" x="20.34" y="62" width="62.89" height="18.53" rx="6.46" ry="6.46"/><rect class="cls-3" x="33.33" y="23.12" width="37.16" height="37.16" rx="4.65" ry="4.65"/><rect class="cls-1" x="37.1" y="26.63" width="9.09" height="9.09" rx="3.17" ry="3.17"/><rect class="cls-1" x="58.64" y="49.07" width="9.09" height="9.09" rx="3.17" ry="3.17"/><rect class="cls-1" x="48.28" y="37.51" width="9.09" height="9.09" rx="3.17" ry="3.17"/><rect class="cls-1" x="58.64" y="26.63" width="9.09" height="9.09" rx="3.17" ry="3.17"/><rect class="cls-1" x="37.1" y="49.07" width="9.09" height="9.09" rx="3.17" ry="3.17"/><rect class="cls-4" x="18.52" y="74.38" width="24.95" height="13.48" rx="4.7" ry="4.7"/><rect class="cls-4" x="35.03" y="71.27" width="32.71" height="18.41" rx="6.41" ry="6.41"/><rect class="cls-4" x="57.37" y="77.12" width="25.85" height="15.43" rx="5.38" ry="5.38"/><rect class="cls-4" x="65.2" y="71.13" width="12.03" height="12.03" rx="4.19" ry="4.19"/><rect class="cls-4" x="31" y="84.83" width="44.18" height="11.74" rx="4.09" ry="4.09"/><rect class="cls-5" x="24.1" y="83.16" width="21.58" height="9.39" rx="3.27" ry="3.27"/><rect class="cls-5" x="51.97" y="77.14" width="20.29" height="8.96" rx="3.12" ry="3.12"/><rect class="cls-5" x="27.99" y="79.06" width="28.34" height="8.8" rx="3.07" ry="3.07"/><rect class="cls-6" x="33.33" y="71.13" width="34.51" height="9.68" rx="3.38" ry="3.38"/><path class="cls-7" d="M53.22,59.93c-.32-4.4,1.63-6.24,4.12-9s4.07-4.39,4.59-5.84,3.38-2.3,3.48-.63S56.59,54,56.56,55.72s3.28-.07,4.4-1.51a40.72,40.72,0,0,0,3.6-5.14c1.18-2.1-1.58-8.43,1.49-7s2.22,3.3,1.53,5-2.84,7.69-5,9.71S53.52,64.1,53.22,59.93Z"/><path class="cls-8" d="M65.21,44.89c.21,5,4.7,1.11,6.39,1.69s3.88,2.56,6.16.66-1.62-.82-2.76-1.86,0-1.89,1.49-2.52,2.9,2.8,4.11,2.31-2.12-4.81-3-5.13-3.95.25-3.95.25a4.51,4.51,0,0,1,2.22-1.44c1.15-.17,4.4,1.48,4.62.45s-2.23-1.89-2.23-1.89l-2.77-1.93s-2.64.06-3.9,1.06S66.82,39,66.24,40.2,65,41,65.21,44.89Z"/><path class="cls-8" d="M51.24,76.23c-.17.93.31,1.82,1.78,2.36s1.75-1.14,3.3-1.09h0a3.16,3.16,0,0,0,.79.09,2.85,2.85,0,0,0,2.9-2.8,2.64,2.64,0,0,0-1-2L59,72.67A3.36,3.36,0,0,1,57.7,70c0-1.71-.71-7.94-.18-9.27s-.21-2.91-1.34-2.85-1.41,1.46-2.11,1.56-3.37.31-3.09,1.88,1.54,1.47,2.39,3.45,1.35,4.69.12,6.41c-.27.37-.52.69-.73,1a2.35,2.35,0,0,0-1.54,2.2C49.7,75.42,51.41,75.29,51.24,76.23Z"/></g><g id="Layer_3" data-name="Layer 3"><rect class="cls-9" width="100" height="100"/></g></g></svg>