<svg xmlns="http://www.w3.org/2000/svg" xmlns:xlink="http://www.w3.org/1999/xlink" viewBox="0 0 521.11 333.44"><defs><style>.cls-1{fill:#332b3a;}.cls-2{fill:#555944;}.cls-3{fill:#2e3024;}.cls-4,.cls-6{stroke-miterlimit:10;}.cls-4{fill:url(#radial-gradient);stroke:url(#radial-gradient-2);}.cls-5{fill:#827964;}.cls-6{fill:url(#radial-gradient-3);stroke:url(#radial-gradient-4);}.cls-7{fill:#a8a78a;}.cls-8{fill:#757465;}</style><radialGradient id="radial-gradient" cx="325.37" cy="136.04" r="211.42" gradientUnits="userSpaceOnUse"><stop offset="0" stop-color="#9e005d"/><stop offset="1" stop-color="#1b1464"/></radialGradient><radialGradient id="radial-gradient-2" cx="402.78" cy="218.88" r="34.14" gradientUnits="userSpaceOnUse"><stop offset="0" stop-color="#fff"/><stop offset="1"/></radialGradient><radialGradient id="radial-gradient-3" cx="46.44" cy="140.1" r="211.42" xlink:href="#radial-gradient"/><radialGradient id="radial-gradient-4" cx="123.84" cy="222.94" r="34.14" xlink:href="#radial-gradient-2"/></defs><title>house</title><g id="Layer_2" data-name="Layer 2"><g id="Layer_2-2" data-name="Layer 2"><polygon class="cls-1" points="260.86 24.6 5.78 130.64 515.93 130.64 260.86 24.6"/><path class="cls-2" d="M521,133.66l-.45.62h0c-2.88,2-7.87,4.94-9.22,5-1.88,0-25.29-10.17-30.83-13.57-4.76-2.92,0-8.89,1.87-12.85a9.45,9.45,0,0,1,5.86.44L518.11,126C521.66,127.51,522.94,131,521,133.66Z" transform="translate(-0.78 -1.6)"/><path class="cls-3" d="M520.5,134.28l-3.75,5.11c-2,2.71-6.51,3.68-10.07,2.17l-29.93-12.74c-3.55-1.51-4.84-5-2.85-7.67l4.2-5.73a7.27,7.27,0,0,1,4.21-2.61c-1.85,4-6.63,9.93-1.87,12.85,5.54,3.41,29,13.6,30.83,13.57C512.63,139.22,517.62,136.24,520.5,134.28Z" transform="translate(-0.78 -1.6)"/><path class="cls-2" d="M476.76,108.34c3.55,1.51,4.83,5,2.85,7.66l-.46.62c-2.88,2-7.87,4.94-9.22,5-1.88,0-25.29-10.17-30.83-13.57-4.77-2.93,0-8.9,1.87-12.85a9.43,9.43,0,0,1,5.85.44Z" transform="translate(-0.78 -1.6)"/><path class="cls-3" d="M479.15,116.63l-3.75,5.11c-2,2.71-6.51,3.68-10.07,2.17L435.4,111.16c-3.55-1.51-4.83-5-2.85-7.66l4.2-5.73A7.27,7.27,0,0,1,441,95.15c-1.85,4-6.64,9.93-1.87,12.85,5.54,3.41,29,13.6,30.83,13.57C471.28,121.56,476.28,118.58,479.15,116.63Z" transform="translate(-0.78 -1.6)"/><path class="cls-2" d="M436.45,89.21c3.55,1.51,4.83,5,2.85,7.67l-.45.62c-2.87,2-7.88,4.94-9.23,5-1.88,0-25.29-10.17-30.83-13.57C394,86,398.81,80,400.66,76a9.45,9.45,0,0,1,5.85.44Z" transform="translate(-0.78 -1.6)"/><path class="cls-3" d="M438.85,97.5l-3.76,5.11c-2,2.71-6.51,3.68-10.07,2.17L395.09,92c-3.55-1.51-4.83-5-2.85-7.67l4.2-5.73A7.27,7.27,0,0,1,400.66,76c-1.85,4-6.64,9.93-1.87,12.85,5.54,3.41,28.95,13.59,30.83,13.57C431,102.44,436,99.46,438.85,97.5Z" transform="translate(-0.78 -1.6)"/><path class="cls-2" d="M396.38,69.91c3.55,1.51,4.83,5,2.85,7.67l-.46.62c-2.88,2-7.87,4.94-9.22,5-1.88,0-25.29-10.17-30.83-13.57-4.76-2.92,0-8.9,1.87-12.85a9.46,9.46,0,0,1,5.86.44Z" transform="translate(-0.78 -1.6)"/><path class="cls-3" d="M398.77,78.2,395,83.31C393,86,388.51,87,385,85.48L355,72.73c-3.55-1.51-4.83-5-2.85-7.67l4.21-5.73a7.3,7.3,0,0,1,4.21-2.61c-1.85,4-6.63,9.93-1.87,12.85,5.55,3.41,29,13.59,30.83,13.57C390.9,83.14,395.9,80.16,398.77,78.2Z" transform="translate(-0.78 -1.6)"/><path class="cls-2" d="M356.11,52.78c3.55,1.51,4.83,5,2.85,7.66l-.46.62c-2.88,2-7.87,4.94-9.22,5C347.4,66,324,55.85,318.44,52.45c-4.76-2.92,0-8.89,1.88-12.86a9.44,9.44,0,0,1,5.85.44Z" transform="translate(-0.78 -1.6)"/><path class="cls-3" d="M358.5,61.07l-3.75,5.11c-2,2.71-6.52,3.68-10.07,2.17L314.74,55.6c-3.55-1.51-4.83-5-2.85-7.67l4.21-5.73a7.29,7.29,0,0,1,4.22-2.61c-1.86,4-6.64,9.93-1.88,12.86C324,55.85,347.4,66,349.27,66,350.62,66,355.62,63,358.5,61.07Z" transform="translate(-0.78 -1.6)"/><path class="cls-2" d="M318.45,35.92c3.55,1.51,4.83,5,2.85,7.67l-.44.61c-2.87,2-7.89,4.95-9.24,5-1.88,0-25.29-10.17-30.83-13.57-4.76-2.92,0-8.89,1.87-12.85a9.42,9.42,0,0,1,5.86.44Z" transform="translate(-0.78 -1.6)"/><path class="cls-3" d="M320.85,44.19l-3.77,5.12C315.1,52,310.57,53,307,51.48L277.08,38.74c-3.55-1.51-4.84-5-2.85-7.67l4.2-5.73a7.31,7.31,0,0,1,4.21-2.61c-1.85,4-6.63,9.93-1.87,12.85,5.54,3.41,29,13.6,30.83,13.57C313,49.14,318,46.15,320.85,44.19Z" transform="translate(-0.78 -1.6)"/><path class="cls-2" d="M4.48,117.41c-3.48,1.51-4.73,5-2.78,7.67l.45.62c2.81,2,7.7,4.94,9,5,1.84,0,24.72-10.17,30.15-13.57,4.65-2.92,0-8.89-1.84-12.86a9,9,0,0,0-5.72.44Z" transform="translate(-0.78 -1.6)"/><path class="cls-3" d="M43.59,106.83a7.11,7.11,0,0,0-4.12-2.61c1.81,4,6.49,9.93,1.84,12.86-5.42,3.41-28.31,13.59-30.15,13.57-1.32,0-6.21-3-9-5l3.66,5.11c1.94,2.7,6.38,3.68,9.84,2.17l29.28-12.75c3.47-1.51,4.72-5,2.78-7.67Z" transform="translate(-0.78 -1.6)"/><path class="cls-2" d="M42.35,101.15c-3.48,1.51-4.73,5-2.78,7.67l.44.62c2.81,2,7.7,4.94,9,5,1.83,0,24.72-10.17,30.14-13.57,4.66-2.93,0-8.9-1.84-12.86a9.1,9.1,0,0,0-5.72.44Z" transform="translate(-0.78 -1.6)"/><path class="cls-3" d="M40,109.43l3.67,5.11c1.94,2.71,6.37,3.68,9.84,2.17L82.8,104c3.47-1.51,4.72-5,2.78-7.67l-4.11-5.73A7.11,7.11,0,0,0,77.34,88c1.81,4,6.49,9.93,1.84,12.86-5.42,3.4-28.31,13.59-30.14,13.57C47.71,114.37,42.82,111.39,40,109.43Z" transform="translate(-0.78 -1.6)"/><path class="cls-2" d="M80.92,84c-3.48,1.51-4.73,5-2.78,7.67l.45.62c2.81,2,7.7,4.94,9,5,1.83,0,24.72-10.17,30.15-13.57,4.65-2.92,0-8.89-1.84-12.86a9,9,0,0,0-5.72.44Z" transform="translate(-0.78 -1.6)"/><path class="cls-3" d="M78.59,92.3l3.66,5.11c1.94,2.7,6.38,3.68,9.84,2.17l29.28-12.75c3.47-1.51,4.72-5,2.78-7.66L120,73.44a7.11,7.11,0,0,0-4.12-2.61c1.81,4,6.49,9.93,1.84,12.86-5.42,3.41-28.31,13.6-30.15,13.57C86.28,97.24,81.4,94.26,78.59,92.3Z" transform="translate(-0.78 -1.6)"/><path class="cls-2" d="M118.63,68.4c-3.47,1.51-4.72,5-2.78,7.67l.44.61c2.81,2,7.71,4.95,9,5,1.84,0,24.73-10.17,30.15-13.57,4.65-2.92,0-8.89-1.83-12.85a9,9,0,0,0-5.73.44Z" transform="translate(-0.78 -1.6)"/><path class="cls-3" d="M116.28,76.68,120,81.79c1.94,2.71,6.37,3.68,9.84,2.17l29.27-12.74c3.48-1.51,4.73-5,2.78-7.67l-4.11-5.73a7.14,7.14,0,0,0-4.12-2.61c1.81,4,6.48,9.93,1.83,12.85-5.42,3.41-28.31,13.6-30.15,13.57C124,81.62,119.1,78.64,116.28,76.68Z" transform="translate(-0.78 -1.6)"/><path class="cls-2" d="M157.79,53.53c-3.47,1.51-4.73,5-2.78,7.67l.44.62c2.81,2,7.7,4.94,9,5,1.83,0,24.72-10.17,30.15-13.57,4.65-2.92,0-8.89-1.83-12.85a9.05,9.05,0,0,0-5.73.44Z" transform="translate(-0.78 -1.6)"/><path class="cls-3" d="M155.45,61.81l3.67,5.11c1.94,2.71,6.37,3.68,9.84,2.17l29.27-12.74c3.47-1.51,4.72-5,2.78-7.67L196.91,43a7.09,7.09,0,0,0-4.12-2.61c1.81,4,6.49,9.93,1.83,12.85-5.42,3.41-28.31,13.6-30.15,13.57C163.16,66.76,158.27,63.77,155.45,61.81Z" transform="translate(-0.78 -1.6)"/><path class="cls-2" d="M198.8,39.41c-3.48,1.51-4.73,5-2.78,7.67l.45.62c2.81,2,7.7,4.94,9,5,1.83,0,24.72-10.17,30.15-13.57,4.65-2.92,0-8.89-1.84-12.86a9,9,0,0,0-5.72.44Z" transform="translate(-0.78 -1.6)"/><path class="cls-3" d="M196.46,47.7l3.66,5.11c1.94,2.7,6.38,3.68,9.84,2.17l29.28-12.75c3.47-1.51,4.72-5,2.78-7.67l-4.12-5.73a7.08,7.08,0,0,0-4.12-2.61c1.81,4,6.49,9.93,1.84,12.86-5.42,3.41-28.31,13.6-30.15,13.57C204.16,52.64,199.28,49.66,196.46,47.7Z" transform="translate(-0.78 -1.6)"/><path class="cls-2" d="M309.75,11.53c4.62,1.15,7,6,5.35,10.83l-.38,1.11c-2.92,4-8.11,10.18-9.71,10.65-2.23.65-32.69-7.27-40.16-10.67-6.41-2.92-2.25-13.66-1.05-20.36a9.21,9.21,0,0,1,7.08-1.25Z" transform="translate(-0.78 -1.6)"/><path class="cls-3" d="M314.71,23.47l-3.15,9.08c-1.67,4.81-6.81,7.81-11.42,6.65l-38.88-9.68c-4.61-1.15-7-6-5.35-10.83L259.45,8.5a10.38,10.38,0,0,1,4.35-5.4c-1.19,6.7-5.36,17.44,1.05,20.36,7.47,3.39,37.93,11.31,40.16,10.67C306.6,33.65,311.79,27.43,314.71,23.47Z" transform="translate(-0.78 -1.6)"/><path class="cls-2" d="M253.54,4.49l-35.46,9.68c-4.21,1.15-6.4,6-4.88,10.83l.35,1.11c2.67,4,7.39,10.18,8.85,10.65,2,.65,29.82-7.26,36.62-10.67,5.85-2.92,2.05-13.67,1-20.35A7.78,7.78,0,0,0,253.54,4.49Z" transform="translate(-0.78 -1.6)"/><path class="cls-3" d="M264,11.14a10.27,10.27,0,0,0-4-5.4c1.09,6.69,4.88,17.44-1,20.35-6.81,3.4-34.58,11.32-36.62,10.67-1.46-.47-6.19-6.69-8.85-10.65l2.88,9.09c1.52,4.8,6.21,7.8,10.42,6.65l35.46-9.69c4.21-1.15,6.4-6,4.88-10.83Z" transform="translate(-0.78 -1.6)"/><path class="cls-1" d="M17.38,130V334.4H205.13V219a22.18,22.18,0,0,1,0-9.36V195.53h8c10-10.2,27.93-17,48.37-17s38.35,6.8,48.37,17h8.89V334.4H505.67V130Z" transform="translate(-0.78 -1.6)"/></g><g id="Layer_3" data-name="Layer 3"><rect class="cls-4" x="369.14" y="185.24" width="67.29" height="67.29"/><path class="cls-5" d="M441.63,244.33h-.42V197.18a5.54,5.54,0,0,0,5.44-5.52v-8.53a5.54,5.54,0,0,0-5.53-5.53h-8.53a5.54,5.54,0,0,0-5.53,5.53v.65H380.43v-.65a5.54,5.54,0,0,0-5.53-5.53h-8.53a5.54,5.54,0,0,0-5.53,5.53v8.53a5.54,5.54,0,0,0,5.53,5.53h.42v47.38a5.54,5.54,0,0,0-5.44,5.52v8.53a5.54,5.54,0,0,0,5.53,5.53h8.53a5.54,5.54,0,0,0,5.53-5.53v-.42h46.64v.19a5.54,5.54,0,0,0,5.53,5.53h8.53a5.54,5.54,0,0,0,5.53-5.53v-8.53A5.54,5.54,0,0,0,441.63,244.33Zm-9-47.14h.93v20.68H407.38V191.47h19.69v.19A5.54,5.54,0,0,0,432.59,197.19Zm-57.69,0a5.54,5.54,0,0,0,5.53-5.53v-.19h20.2v26.39H374.48V197.19Zm.51,47.38h-.93V224.62h26.15v25.9H380.94v-.42A5.54,5.54,0,0,0,375.41,244.56Zm57.69-.23a5.54,5.54,0,0,0-5.53,5.53v.65h-20.2v-25.9h26.15v19.71Z" transform="translate(-0.78 -1.6)"/><rect class="cls-6" x="90.2" y="189.3" width="67.29" height="67.29"/><path class="cls-5" d="M162.7,248.39h-.42V201.24a5.54,5.54,0,0,0,5.44-5.52v-8.53a5.54,5.54,0,0,0-5.53-5.53h-8.53a5.54,5.54,0,0,0-5.53,5.53v.65H101.49v-.65A5.54,5.54,0,0,0,96,181.66H87.43a5.54,5.54,0,0,0-5.53,5.53v8.53a5.54,5.54,0,0,0,5.53,5.53h.42v47.38a5.54,5.54,0,0,0-5.44,5.52v8.53a5.54,5.54,0,0,0,5.53,5.53h8.53a5.54,5.54,0,0,0,5.53-5.53v-.42h46.64v.19a5.54,5.54,0,0,0,5.53,5.53h8.53a5.54,5.54,0,0,0,5.53-5.53v-8.53A5.54,5.54,0,0,0,162.7,248.39Zm-9-47.14h.93v20.68H128.44V195.53h19.69v.19A5.54,5.54,0,0,0,153.65,201.25Zm-57.69,0a5.54,5.54,0,0,0,5.53-5.53v-.19h20.2v26.39H95.54V201.25Zm.51,47.38h-.93V228.68h26.15v25.9H102v-.42A5.54,5.54,0,0,0,96.47,248.62Zm57.69-.23a5.54,5.54,0,0,0-5.53,5.53v.65h-20.2v-25.9h26.15v19.71Z" transform="translate(-0.78 -1.6)"/></g><g id="Layer_1-2" data-name="Layer 1"><path class="cls-7" d="M350.45,242.45l.78,9.66c-2.64,4.47-7.83,3.86-7.83,3.86s-19.54,1.22-23.76,1.43c-2.22.11-4.44-1.87-6-3.77l-.69-8.47a6.61,6.61,0,0,1,5.58-6.91,7.37,7.37,0,0,0,2.4.08l5.31-.68,16.8-1.21A6.81,6.81,0,0,1,350.45,242.45Z" transform="translate(-0.78 -1.6)"/><path class="cls-8" d="M344.43,228.71a6.62,6.62,0,0,1-5.93,7.36l-12.28,1.58-6.91.5a6.58,6.58,0,0,0-.8.1,6.71,6.71,0,0,1-5.41-5.5l-.54-3.73c1.41,1.64,3.6,3.92,5,4.06,2.15.21,22-2.15,22-2.15a8.46,8.46,0,0,0,4.63-4Z" transform="translate(-0.78 -1.6)"/><path class="cls-7" d="M341.82,210.72l2.36,16.22a8.46,8.46,0,0,1-4.63,4s-19.89,2.36-22,2.15c-1.36-.14-3.55-2.42-5-4.06l-1.24-8.57a10.57,10.57,0,0,1,4.44-10.11,5.74,5.74,0,0,0,4-.78l4.46-1.71,11.5-1.48A5.36,5.36,0,0,1,341.82,210.72Z" transform="translate(-0.78 -1.6)"/><path class="cls-8" d="M338.8,334H322.67a10.25,10.25,0,0,1-10.25-10.24c1.43,2,3.35,3.75,5.66,3.91,5.37.36,25,0,25,0A11,11,0,0,0,349,324,10.24,10.24,0,0,1,338.8,334Z" transform="translate(-0.78 -1.6)"/><path class="cls-8" d="M337.72,196.14c1.21,3,.4,5.71-2.16,7.33l-11.34,4.37-3.07.4a11.86,11.86,0,0,0-5.4,2.1,8.56,8.56,0,0,1-5.76-4l-7.5-11.82a9.19,9.19,0,0,1-1.34-3.49,7,7,0,0,0,3.45-1.12,6.79,6.79,0,0,0,.45,1.13c1.64,3.31,6.08,11.54,8.66,12.69s5.8.29,6.8,0,14.88-5.15,14.88-5.15A5.21,5.21,0,0,0,337.72,196.14Z" transform="translate(-0.78 -1.6)"/><path class="cls-7" d="M336.82,194.39a10.34,10.34,0,0,1,.9,1.75,5.21,5.21,0,0,1-2.32,2.44s-13.88,4.86-14.88,5.15-4.23,1.15-6.8,0-7-9.38-8.66-12.69a6.79,6.79,0,0,1-.45-1.13,7.32,7.32,0,0,0,2.43-2.56L318.55,173a8.9,8.9,0,0,0,.6-1.25c2.24-.4,4.48.47,6.14,3.09Z" transform="translate(-0.78 -1.6)"/><path class="cls-8" d="M336.3,309.46H325.16a10.24,10.24,0,0,1-9.94-7.76c1.5,1.6,3.31,3,5,3.08,3.93.15,20.89,0,20.89,0a7.94,7.94,0,0,0,5.13-3.13A10.24,10.24,0,0,1,336.3,309.46Z" transform="translate(-0.78 -1.6)"/><path class="cls-7" d="M326.21,237.64l-5.31.68a7.37,7.37,0,0,1-2.4-.08,6.58,6.58,0,0,1,.8-.1Z" transform="translate(-0.78 -1.6)"/><path class="cls-7" d="M325.36,262.34l-3.71.27a9.91,9.91,0,0,1,2.31-.27Z" transform="translate(-0.78 -1.6)"/><path class="cls-8" d="M324,284.9a10.25,10.25,0,0,1-10.25-10.25v-.54c1.17,2.57,3.09,5.68,5.51,5.76,4.15.15,23.18,0,23.18,0a8.8,8.8,0,0,0,4.7-2.23,10.25,10.25,0,0,1-9.8,7.26H324Z" transform="translate(-0.78 -1.6)"/><path class="cls-7" d="M324.22,207.84l-4.46,1.71a5.74,5.74,0,0,1-4,.78,11.86,11.86,0,0,1,5.4-2.1Z" transform="translate(-0.78 -1.6)"/><path class="cls-8" d="M324,262.34a9.91,9.91,0,0,0-2.31.27l-.36,0a6.82,6.82,0,0,1-7.45-6l-.24-3c1.61,1.91,3.83,3.89,6,3.77,4.22-.21,23.76-1.43,23.76-1.43s5.19.61,7.83-3.86l.15,1.8a6.67,6.67,0,0,1-6.39,7l-19.64,1.42Z" transform="translate(-0.78 -1.6)"/><path class="cls-7" d="M319.15,171.76a8.9,8.9,0,0,1-.6,1.25L307,187.36a7.32,7.32,0,0,1-2.43,2.56c-.7-2.31,0-4.51,1-7.27,0,0,0,0,0,0l10.78-9.76A7.63,7.63,0,0,1,319.15,171.76Z" transform="translate(-0.78 -1.6)"/><path class="cls-7" d="M316.59,164.4a6.52,6.52,0,0,1,2.05,1.78,4.63,4.63,0,0,0-1.92,1S303.4,180.08,301,182.65s-5.06,0-5.06,0-5.06-3.08-8.33-5c-2.84-1.71,2.46-15.76,3.87-19.33l.11-.29.22-.54c2-3.42,5-5.26,8.31-3.39Z" transform="translate(-0.78 -1.6)"/><path class="cls-7" d="M314.92,295.14a10.24,10.24,0,0,1,10.24-10.24H336.3a10.24,10.24,0,0,1,10.24,10.24v4.07a10.19,10.19,0,0,1-.29,2.43,7.94,7.94,0,0,1-5.13,3.13s-17,.15-20.89,0c-1.7-.06-3.5-1.48-5-3.08a10.33,10.33,0,0,1-.31-2.49Z" transform="translate(-0.78 -1.6)"/><path class="cls-7" d="M313.71,272.59a10.25,10.25,0,0,1,7.94-10l3.71-.27h12a10.25,10.25,0,0,1,10.25,10.25v2.06a10.07,10.07,0,0,1-.45,3,8.8,8.8,0,0,1-4.7,2.23s-19,.15-23.18,0c-2.42-.08-4.34-3.19-5.51-5.76Z" transform="translate(-0.78 -1.6)"/><path class="cls-7" d="M312.42,319.7a10.25,10.25,0,0,1,10.25-10.24H338.8A10.25,10.25,0,0,1,349,319.7v4.07c0,.09,0,.18,0,.27a11,11,0,0,1-5.92,3.63s-19.68.36-25,0c-2.31-.15-4.23-1.94-5.66-3.91h0Z" transform="translate(-0.78 -1.6)"/><path class="cls-8" d="M305.6,182.64c-1,2.76-1.69,5-1,7.27a7,7,0,0,1-3.45,1.12,6.5,6.5,0,0,1,2.59-6.72Z" transform="translate(-0.78 -1.6)"/><path class="cls-7" d="M291.52,158.26l.11-.29Z" transform="translate(-0.78 -1.6)"/><path class="cls-7" d="M287.92,146.53c2.26.38,3.4,2.66,3.25,6l-9.8,19.61s-2,4.07-6.16,3.56-3.78-5.64-3.78-5.64v-.18c0-1.91,0-18.56,0-25.24a3.08,3.08,0,0,1,2.94-1.27Z" transform="translate(-0.78 -1.6)"/><path class="cls-8" d="M305.6,182.63s0,0,0,0l-1.85,1.67a6.5,6.5,0,0,0-2.59,6.72,6.54,6.54,0,0,1-3.58-.86l-10.39-6a6.71,6.71,0,0,1-3.31-5.4,11.64,11.64,0,0,0,1.77-4.63l1.2-4.46,4.68-11.46c-1.41,3.58-6.71,17.62-3.87,19.33,3.27,2,8.33,5,8.33,5s2.69,2.56,5.06,0,15.69-15.5,15.69-15.5a4.63,4.63,0,0,1,1.92-1,5.59,5.59,0,0,1,.5,5.58,7.63,7.63,0,0,0-2.77,1.11Z" transform="translate(-0.78 -1.6)"/><path class="cls-8" d="M284.84,174.62l2-4.9-1.2,4.46a11.64,11.64,0,0,1-1.77,4.63A7.35,7.35,0,0,1,284.84,174.62Z" transform="translate(-0.78 -1.6)"/><path class="cls-8" d="M271.43,170.09s-.41,5.12,3.78,5.64,6.16-3.56,6.16-3.56l9.8-19.61a16.53,16.53,0,0,1-.2,1.85l-4.12,15.31-2,4.9a7.35,7.35,0,0,0-1,4.19c-1.19,1.75-2.78,2.75-4.34,2.49l-8.47-1.39c-1.62-.27-2.83-1.81-3.37-4a8.38,8.38,0,0,0,2.49-6h1.25Z" transform="translate(-0.78 -1.6)"/><path class="cls-8" d="M271.4,144.67c0,6.69,0,23.33,0,25.24h-1.25a8.92,8.92,0,0,0-.26-2.15L268.8,155l.34-4.4A12.73,12.73,0,0,1,271.4,144.67Z" transform="translate(-0.78 -1.6)"/><path class="cls-8" d="M270.18,169.92a8.38,8.38,0,0,1-2.49,6,11.81,11.81,0,0,1-.14-4.74l.1-1.22,1.16-15,1.12,12.79A8.92,8.92,0,0,1,270.18,169.92Z" transform="translate(-0.78 -1.6)"/><path class="cls-8" d="M268.8,155l-1.16,15-.27,0a10,10,0,0,0,0-1.39c-.24-4.18-.76-20.53-.93-25.94a9.43,9.43,0,0,1,1.59,3.52Z" transform="translate(-0.78 -1.6)"/><path class="cls-7" d="M267.37,168.58a10,10,0,0,1,0,1.39c-.26,3.6-2.52,3.45-2.52,3.45s-11.14,2.75-15.11,4-5.89-3.31-5.89-3.31l-.49-1.13L233,149.17a5.65,5.65,0,0,1,4.39-4.4l22-4.41a6.34,6.34,0,0,1,7,2.28C266.61,148.05,267.14,164.4,267.37,168.58Z" transform="translate(-0.78 -1.6)"/><path class="cls-8" d="M267.54,171.2a11.81,11.81,0,0,0,.14,4.74,7.41,7.41,0,0,1-3.42,1.89l-13.48,3.29a7.88,7.88,0,0,1-8.13-3.09,7.2,7.2,0,0,0-.37-4.63l1.06-.46.49,1.13s1.92,4.53,5.89,3.31,15.11-4,15.11-4,2.26.14,2.52-3.45l.27,0Z" transform="translate(-0.78 -1.6)"/><path class="cls-8" d="M241.35,171.81l-4.87-9-3.28-8.43a11.16,11.16,0,0,1-.17-5.24l10.31,23.78-1.06.46A7.67,7.67,0,0,0,241.35,171.81Z" transform="translate(-0.78 -1.6)"/><path class="cls-8" d="M241.13,174.8l-4.65-12,4.87,9a7.67,7.67,0,0,1,.94,1.6,7.2,7.2,0,0,1,.37,4.63A8.94,8.94,0,0,1,241.13,174.8Z" transform="translate(-0.78 -1.6)"/><path class="cls-7" d="M238.46,173.55c.89,5.19-2.18,6.41-2.18,6.41s-1.92,1.6-5.51,4.35-8.36-.69-8.36-.69L206,168.37a5,5,0,0,1,2-3.09l15.9-11.15a5.54,5.54,0,0,1,7.5.22C233.46,159.22,237.79,169.63,238.46,173.55Z" transform="translate(-0.78 -1.6)"/><path class="cls-8" d="M238.46,173.55c-.68-3.92-5-14.33-7.08-19.2a9.38,9.38,0,0,1,1.19,1.29l3.91,7.2,4.65,12a8.94,8.94,0,0,0,1.52,3.24,6.54,6.54,0,0,1-2.36,3.58l-9.52,7.28a7,7,0,0,1-9.75-1.55l-3.75-3.74-9.38-9.36a7.75,7.75,0,0,1-1.9-5.89l16.43,15.25s4.77,3.44,8.36.69,5.51-4.35,5.51-4.35S239.36,178.74,238.46,173.55Z" transform="translate(-0.78 -1.6)"/><path class="cls-7" d="M218.6,185.88c2.76,5.43,1.21,8.81,1.21,8.81s-5.4,7.75-8.82,12.21-8.58,1.07-8.58,1.07l-17.76-9a7.51,7.51,0,0,1,1.22-2.89l13.19-18.46c2.43-3.65,5.81-4.53,8.81-2.52Z" transform="translate(-0.78 -1.6)"/><path class="cls-7" d="M207.51,226.54l-.34,2.51a10.07,10.07,0,0,1-.85,2.91,8.18,8.18,0,0,1-5.63,1.82s-13.28-2-18.56-2.72c-2.54-.36-3.81-3.34-4.43-6.33,0,0,0,0,0,0l1.52-11.14a8,8,0,0,1,9-6.84l4.67.64h0l8.75,3.88A17,17,0,0,1,207.51,226.54Z" transform="translate(-0.78 -1.6)"/><path class="cls-8" d="M201.65,211.27l-8.75-3.88H193A16.92,16.92,0,0,1,201.65,211.27Z" transform="translate(-0.78 -1.6)"/><path class="cls-7" d="M176.44,272.91a10.25,10.25,0,0,1,10.24-10.25h10.79a11,11,0,0,0,1.29,0,10.24,10.24,0,0,1,9.54,10.22V275a10.3,10.3,0,0,1-.48,3.12c-1.85,2.75-3.61,3.13-3.61,3.13s-17.1-.05-22.69,0a5.89,5.89,0,0,1-3.93-1.55,10.16,10.16,0,0,1-1.15-4.7Z" transform="translate(-0.78 -1.6)"/><path class="cls-7" d="M208.46,253.23a10.26,10.26,0,0,1-1,3.7,7.87,7.87,0,0,1-5.21,1.93s-17.07-1.65-24-2.23a6.43,6.43,0,0,1-4.81-2.67,10.26,10.26,0,0,1-.32-3.44l.31-4.05a10.25,10.25,0,0,1,11-9.43l14.92,1.13a10.25,10.25,0,0,1,9.43,11Z" transform="translate(-0.78 -1.6)"/><path class="cls-8" d="M203.7,329.42a7.27,7.27,0,0,0,5.56-3.05,10.24,10.24,0,0,1-10,8h-14a10.24,10.24,0,0,1-10.09-8.49,7,7,0,0,0,5.72,3.58C186.46,329.47,203.7,329.42,203.7,329.42Z" transform="translate(-0.78 -1.6)"/><path class="cls-7" d="M198.76,262.68a11,11,0,0,1-1.29,0h.59C198.29,262.66,198.53,262.66,198.76,262.68Z" transform="translate(-0.78 -1.6)"/><path class="cls-8" d="M207.46,256.93a10.25,10.25,0,0,1-8.7,5.75c-.23,0-.47,0-.7,0h-.72l-14.79-1.13a10.24,10.24,0,0,1-9.12-7.56,6.43,6.43,0,0,0,4.81,2.67c6.93.58,24,2.23,24,2.23A7.87,7.87,0,0,0,207.46,256.93Z" transform="translate(-0.78 -1.6)"/><path class="cls-8" d="M201.68,304.61a7.44,7.44,0,0,0,5.35-3.45,10.25,10.25,0,0,1-10.12,8.62h-9.29a10.25,10.25,0,0,1-9.93-7.71,7.39,7.39,0,0,0,4.72,2.55C186.86,304.87,201.68,304.61,201.68,304.61Z" transform="translate(-0.78 -1.6)"/><path class="cls-8" d="M213.09,209c-2.43,3.65-6.85,5-9.84,3l-1.59-.71A16.92,16.92,0,0,0,193,207.4h-.07l-5.22-2.32c-2.18-1.45-3.43-3.59-3-6.06l17.76,9s5.16,3.38,8.58-1.07,8.82-12.21,8.82-12.21,1.55-3.38-1.21-8.81l1.22,1.22c3,2,3.46,6.58,1,10.24Z" transform="translate(-0.78 -1.6)"/><path class="cls-8" d="M204.21,281.22s1.76-.38,3.61-3.13a10.24,10.24,0,0,1-9.76,7.13H186.68a10.22,10.22,0,0,1-9.1-5.55,5.89,5.89,0,0,0,3.93,1.55C187.11,281.17,204.21,281.22,204.21,281.22Z" transform="translate(-0.78 -1.6)"/><path class="cls-8" d="M186.42,236.57A10.25,10.25,0,0,1,177.65,225l0-.29c.62,3,1.89,6,4.43,6.33,5.28.74,18.56,2.72,18.56,2.72a8.18,8.18,0,0,0,5.63-1.82,10.24,10.24,0,0,1-10.69,5.85Z" transform="translate(-0.78 -1.6)"/><path class="cls-7" d="M177.38,299.52v-4.07a10.25,10.25,0,0,1,10.25-10.24h9.29a10.25,10.25,0,0,1,10.25,10.24v4.07a9.83,9.83,0,0,1-.13,1.63,7.44,7.44,0,0,1-5.35,3.45s-14.82.25-19.26,0a7.39,7.39,0,0,1-4.72-2.55A10.1,10.1,0,0,1,177.38,299.52Z" transform="translate(-0.78 -1.6)"/><path class="cls-7" d="M175,320a10.25,10.25,0,0,1,10.25-10.24h14A10.25,10.25,0,0,1,209.52,320v4.07a10,10,0,0,1-.26,2.28,7.27,7.27,0,0,1-5.56,3.05s-17.25.05-22.79,0a7,7,0,0,1-5.72-3.58,9.46,9.46,0,0,1-.16-1.76Z" transform="translate(-0.78 -1.6)"/><path class="cls-8" d="M370.42,334.33H359.28a10.24,10.24,0,0,1-9.94-7.76c1.5,1.6,3.31,3,5,3.08,3.93.15,20.89,0,20.89,0a7.94,7.94,0,0,0,5.13-3.13A10.24,10.24,0,0,1,370.42,334.33Z" transform="translate(-0.78 -1.6)"/><path class="cls-7" d="M349,320a10.24,10.24,0,0,1,10.24-10.24h11.14A10.24,10.24,0,0,1,380.67,320v4.07a10.19,10.19,0,0,1-.29,2.43,7.94,7.94,0,0,1-5.13,3.13s-17,.15-20.89,0c-1.7-.06-3.5-1.48-5-3.08a10.33,10.33,0,0,1-.31-2.49Z" transform="translate(-0.78 -1.6)"/><path class="cls-8" d="M402.05,334H390.91a10.24,10.24,0,0,1-9.94-7.76c1.5,1.6,3.31,3,5,3.08,3.93.15,20.89,0,20.89,0A7.94,7.94,0,0,0,412,326.2,10.24,10.24,0,0,1,402.05,334Z" transform="translate(-0.78 -1.6)"/><path class="cls-7" d="M380.67,319.7a10.24,10.24,0,0,1,10.24-10.24h11.14A10.24,10.24,0,0,1,412.3,319.7v4.07a10.19,10.19,0,0,1-.29,2.43,7.94,7.94,0,0,1-5.13,3.13s-17,.15-20.89,0c-1.7-.06-3.5-1.48-5-3.08a10.33,10.33,0,0,1-.31-2.49Z" transform="translate(-0.78 -1.6)"/><path class="cls-8" d="M372.92,309.42H356.8a10.25,10.25,0,0,1-10.25-10.24c1.43,2,3.35,3.75,5.66,3.91,5.37.36,25,0,25,0a11,11,0,0,0,5.92-3.63A10.24,10.24,0,0,1,372.92,309.42Z" transform="translate(-0.78 -1.6)"/><path class="cls-7" d="M346.55,295.11a10.25,10.25,0,0,1,10.25-10.24h16.13a10.25,10.25,0,0,1,10.25,10.24v4.07c0,.09,0,.18,0,.27a11,11,0,0,1-5.92,3.63s-19.68.36-25,0c-2.31-.15-4.23-1.94-5.66-3.91h0Z" transform="translate(-0.78 -1.6)"/><path class="cls-8" d="M438.67,334H422.55a10.25,10.25,0,0,1-10.25-10.24c1.43,2,3.35,3.75,5.66,3.91,5.37.36,25,0,25,0a11,11,0,0,0,5.92-3.63A10.24,10.24,0,0,1,438.67,334Z" transform="translate(-0.78 -1.6)"/><path class="cls-7" d="M412.3,319.66a10.25,10.25,0,0,1,10.25-10.24h16.13a10.25,10.25,0,0,1,10.25,10.24v4.07c0,.09,0,.18,0,.27a11,11,0,0,1-5.92,3.63s-19.68.36-25,0c-2.31-.15-4.23-1.94-5.66-3.91h0Z" transform="translate(-0.78 -1.6)"/><path class="cls-8" d="M459.17,334a10.25,10.25,0,0,1-10.25-10.25v-.54c1.17,2.57,3.09,5.68,5.51,5.76,4.15.15,23.18,0,23.18,0a8.8,8.8,0,0,0,4.7-2.23,10.25,10.25,0,0,1-9.8,7.26H459.17Z" transform="translate(-0.78 -1.6)"/><path class="cls-7" d="M448.92,321.67a10.25,10.25,0,0,1,7.94-10l3.71-.27h12a10.25,10.25,0,0,1,10.25,10.25v2.06a10.07,10.07,0,0,1-.45,3,8.8,8.8,0,0,1-4.7,2.23s-19,.15-23.18,0c-2.42-.08-4.34-3.19-5.51-5.76Z" transform="translate(-0.78 -1.6)"/><path class="cls-8" d="M491.76,334.46c-5,0-9-4.59-9-10.25v-.54c1,2.57,2.71,5.68,4.84,5.76,3.64.15,20.34,0,20.34,0a7.28,7.28,0,0,0,4.13-2.23c-1.12,4.2-4.55,7.26-8.6,7.26H491.76Z" transform="translate(-0.78 -1.6)"/><path class="cls-7" d="M482.77,322.15c0-4.86,3-8.94,7-10l3.25-.27h10.49c5,0,9,4.59,9,10.25v2.06a11.38,11.38,0,0,1-.39,3,7.28,7.28,0,0,1-4.13,2.23s-16.7.15-20.34,0c-2.13-.08-3.81-3.19-4.84-5.76Z" transform="translate(-0.78 -1.6)"/><path class="cls-8" d="M483.86,312.44c-6.43,0-11.64-4.59-11.64-10.25v-.54c1.33,2.57,3.51,5.68,6.26,5.76,4.71.15,26.34,0,26.34,0a10.72,10.72,0,0,0,5.34-2.23c-1.45,4.2-5.89,7.26-11.14,7.26H483.86Z" transform="translate(-0.78 -1.6)"/><path class="cls-7" d="M472.22,300.13c0-4.86,3.85-8.94,9-10l4.21-.27H499c6.43,0,11.64,4.59,11.64,10.25v2.06a9,9,0,0,1-.51,3,10.72,10.72,0,0,1-5.34,2.23s-21.62.15-26.34,0c-2.75-.08-4.93-3.19-6.26-5.76Z" transform="translate(-0.78 -1.6)"/><path class="cls-8" d="M462,311H445.84a10.25,10.25,0,0,1-10.25-10.24c1.43,2,3.35,3.75,5.66,3.91,5.37.36,25,0,25,0a11,11,0,0,0,5.92-3.63A10.24,10.24,0,0,1,462,311Z" transform="translate(-0.78 -1.6)"/><path class="cls-7" d="M435.59,296.64a10.25,10.25,0,0,1,10.25-10.24H462a10.25,10.25,0,0,1,10.25,10.24v4.07c0,.09,0,.18,0,.27a11,11,0,0,1-5.92,3.63s-19.68.36-25,0c-2.31-.15-4.23-1.94-5.66-3.91h0Z" transform="translate(-0.78 -1.6)"/><path class="cls-8" d="M498.59,290.36H482.46a10.25,10.25,0,0,1-10.25-10.24c1.43,2,3.35,3.75,5.66,3.91,5.37.36,25,0,25,0a11,11,0,0,0,5.92-3.63A10.24,10.24,0,0,1,498.59,290.36Z" transform="translate(-0.78 -1.6)"/><path class="cls-7" d="M472.21,276.05a10.25,10.25,0,0,1,10.25-10.24h16.13a10.25,10.25,0,0,1,10.25,10.24v4.07c0,.09,0,.18,0,.27a11,11,0,0,1-5.92,3.63s-19.68.36-25,0c-2.31-.15-4.23-1.94-5.66-3.91h0Z" transform="translate(-0.78 -1.6)"/><path class="cls-8" d="M462,286.38H450.83a10.18,10.18,0,0,1-9.94-7.49c1.5,1.54,3.31,2.91,5,3,3.93.14,20.89,0,20.89,0a8,8,0,0,0,5.13-3A10.18,10.18,0,0,1,462,286.38Z" transform="translate(-0.78 -1.6)"/><path class="cls-7" d="M440.59,272.57a10.07,10.07,0,0,1,10.24-9.88H462a10.07,10.07,0,0,1,10.24,9.88v3.92a9.5,9.5,0,0,1-.29,2.35,8,8,0,0,1-5.13,3s-17,.14-20.89,0c-1.7-.06-3.5-1.43-5-3a9.63,9.63,0,0,1-.31-2.4Z" transform="translate(-0.78 -1.6)"/><path class="cls-8" d="M497,266.24H485.87c-4.8,0-8.83-3.74-9.94-8.81,1.5,1.81,3.31,3.43,5,3.49,3.93.17,20.89,0,20.89,0s2.72-.2,5.13-3.55C505.88,262.47,501.84,266.24,497,266.24Z" transform="translate(-0.78 -1.6)"/><path class="cls-7" d="M475.63,250c0-6.42,4.59-11.62,10.24-11.62H497c5.65,0,10.24,5.2,10.24,11.62v4.61a13,13,0,0,1-.29,2.76c-2.42,3.35-5.13,3.55-5.13,3.55s-17,.17-20.89,0c-1.7-.07-3.5-1.68-5-3.49a13.21,13.21,0,0,1-.31-2.82Z" transform="translate(-0.78 -1.6)"/><path class="cls-8" d="M486.56,239.68c-5,0-9-4.59-9-10.25v-.54c1,2.57,2.71,5.68,4.84,5.76,3.64.15,20.34,0,20.34,0a7.28,7.28,0,0,0,4.13-2.23c-1.12,4.2-4.55,7.26-8.6,7.26H486.56Z" transform="translate(-0.78 -1.6)"/><path class="cls-7" d="M477.56,227.37c0-4.86,3-8.94,7-10l3.25-.27h10.49c5,0,9,4.59,9,10.25v2.06a11.38,11.38,0,0,1-.39,3,7.28,7.28,0,0,1-4.13,2.23s-16.7.15-20.34,0c-2.13-.08-3.81-3.19-4.84-5.76Z" transform="translate(-0.78 -1.6)"/><path class="cls-8" d="M478.67,217.86c-6.43,0-11.64-4.59-11.64-10.25v-.54c1.33,2.57,3.51,5.68,6.26,5.76,4.71.15,26.34,0,26.34,0A10.72,10.72,0,0,0,505,210.6c-1.45,4.2-5.89,7.26-11.14,7.26H478.67Z" transform="translate(-0.78 -1.6)"/><path class="cls-7" d="M467,205.55c0-4.86,3.85-8.94,9-10l4.21-.27h13.58c6.43,0,11.64,4.59,11.64,10.25v2.06a9,9,0,0,1-.51,3,10.72,10.72,0,0,1-5.34,2.23s-21.62.15-26.34,0c-2.75-.08-4.93-3.19-6.26-5.76Z" transform="translate(-0.78 -1.6)"/><path class="cls-8" d="M496.81,195.71H480.68a10.25,10.25,0,0,1-10.25-10.24c1.43,2,3.35,3.75,5.66,3.91,5.37.36,25,0,25,0a11,11,0,0,0,5.92-3.63A10.24,10.24,0,0,1,496.81,195.71Z" transform="translate(-0.78 -1.6)"/><path class="cls-7" d="M470.43,181.4a10.25,10.25,0,0,1,10.25-10.24h16.13a10.25,10.25,0,0,1,10.25,10.24v4.07c0,.09,0,.18,0,.27a11,11,0,0,1-5.92,3.63s-19.68.36-25,0c-2.31-.15-4.23-1.94-5.66-3.91h0Z" transform="translate(-0.78 -1.6)"/><path class="cls-8" d="M495.24,171.59H484.09c-4.8,0-8.83-3.74-9.94-8.81,1.5,1.81,3.31,3.43,5,3.49,3.93.17,20.89,0,20.89,0s2.72-.2,5.13-3.55C504.1,167.82,500.05,171.59,495.24,171.59Z" transform="translate(-0.78 -1.6)"/><path class="cls-7" d="M473.85,155.35c0-6.42,4.59-11.62,10.24-11.62h11.14c5.65,0,10.24,5.2,10.24,11.62V160a13,13,0,0,1-.29,2.76c-2.42,3.35-5.13,3.55-5.13,3.55s-17,.17-20.89,0c-1.7-.07-3.5-1.68-5-3.49a13.21,13.21,0,0,1-.31-2.82Z" transform="translate(-0.78 -1.6)"/><path class="cls-8" d="M153.83,334.92H165a10.24,10.24,0,0,0,9.94-7.76c-1.5,1.6-3.31,3-5,3.08-3.93.15-20.89,0-20.89,0a7.94,7.94,0,0,1-5.13-3.13A10.24,10.24,0,0,0,153.83,334.92Z" transform="translate(-0.78 -1.6)"/><path class="cls-7" d="M175.21,320.6A10.24,10.24,0,0,0,165,310.36H153.83a10.24,10.24,0,0,0-10.24,10.24v4.07a10.19,10.19,0,0,0,.29,2.43,7.94,7.94,0,0,0,5.13,3.13s17,.15,20.89,0c1.7-.06,3.5-1.48,5-3.08a10.33,10.33,0,0,0,.31-2.49Z" transform="translate(-0.78 -1.6)"/><path class="cls-8" d="M122.2,334.6h11.14a10.24,10.24,0,0,0,9.94-7.76c-1.5,1.6-3.31,3-5,3.08-3.93.15-20.89,0-20.89,0a7.94,7.94,0,0,1-5.13-3.13A10.24,10.24,0,0,0,122.2,334.6Z" transform="translate(-0.78 -1.6)"/><path class="cls-7" d="M143.58,320.28A10.24,10.24,0,0,0,133.34,310H122.2A10.24,10.24,0,0,0,112,320.28v4.07a10.19,10.19,0,0,0,.29,2.43,7.94,7.94,0,0,0,5.13,3.13s17,.15,20.89,0c1.7-.06,3.5-1.48,5-3.08a10.33,10.33,0,0,0,.31-2.49Z" transform="translate(-0.78 -1.6)"/><path class="cls-8" d="M151.33,310h16.13a10.25,10.25,0,0,0,10.25-10.24c-1.43,2-3.35,3.75-5.66,3.91-5.37.36-25,0-25,0a11,11,0,0,1-5.92-3.63A10.24,10.24,0,0,0,151.33,310Z" transform="translate(-0.78 -1.6)"/><path class="cls-7" d="M177.7,295.69a10.25,10.25,0,0,0-10.25-10.24H151.33a10.25,10.25,0,0,0-10.25,10.24v4.07c0,.09,0,.18,0,.27a11,11,0,0,0,5.92,3.63s19.68.36,25,0c2.31-.15,4.23-1.94,5.66-3.91h0Z" transform="translate(-0.78 -1.6)"/><path class="cls-8" d="M85.58,334.56H101.7A10.25,10.25,0,0,0,112,324.31c-1.43,2-3.35,3.75-5.66,3.91-5.37.36-25,0-25,0a11,11,0,0,1-5.92-3.63A10.24,10.24,0,0,0,85.58,334.56Z" transform="translate(-0.78 -1.6)"/><path class="cls-7" d="M112,320.25A10.25,10.25,0,0,0,101.7,310H85.58a10.25,10.25,0,0,0-10.25,10.24v4.07c0,.09,0,.18,0,.27a11,11,0,0,0,5.92,3.63s19.68.36,25,0c2.31-.15,4.23-1.94,5.66-3.91h0Z" transform="translate(-0.78 -1.6)"/><path class="cls-8" d="M65.08,334.56a10.25,10.25,0,0,0,10.25-10.25v-.54c-1.17,2.57-3.09,5.68-5.51,5.76-4.15.15-23.18,0-23.18,0a8.8,8.8,0,0,1-4.7-2.23,10.25,10.25,0,0,0,9.8,7.26H65.08Z" transform="translate(-0.78 -1.6)"/><path class="cls-7" d="M75.33,322.25a10.25,10.25,0,0,0-7.94-10L63.68,312h-12a10.25,10.25,0,0,0-10.25,10.25v2.06a10.07,10.07,0,0,0,.45,3,8.8,8.8,0,0,0,4.7,2.23s19,.15,23.18,0c2.42-.08,4.34-3.19,5.51-5.76Z" transform="translate(-0.78 -1.6)"/><path class="cls-8" d="M32.49,335c5,0,9-4.59,9-10.25v-.54c-1,2.57-2.71,5.68-4.84,5.76-3.64.15-20.34,0-20.34,0a7.28,7.28,0,0,1-4.13-2.23c1.12,4.2,4.55,7.26,8.6,7.26H32.49Z" transform="translate(-0.78 -1.6)"/><path class="cls-7" d="M41.48,322.73c0-4.86-3-8.94-7-10l-3.25-.27H20.78c-5,0-9,4.59-9,10.25v2.06a11.38,11.38,0,0,0,.39,3A7.28,7.28,0,0,0,16.3,330s16.7.15,20.34,0c2.13-.08,3.81-3.19,4.84-5.76Z" transform="translate(-0.78 -1.6)"/><path class="cls-8" d="M40.39,313C46.82,313,52,308.43,52,302.77v-.54c-1.33,2.57-3.51,5.68-6.26,5.76-4.71.15-26.34,0-26.34,0a10.72,10.72,0,0,1-5.34-2.23C15.53,310,20,313,25.22,313H40.39Z" transform="translate(-0.78 -1.6)"/><path class="cls-7" d="M52,300.71c0-4.86-3.85-8.94-9-10l-4.21-.27H25.22c-6.43,0-11.64,4.59-11.64,10.25v2.06a9,9,0,0,0,.51,3A10.72,10.72,0,0,0,19.43,308s21.62.15,26.34,0c2.75-.08,4.93-3.19,6.26-5.76Z" transform="translate(-0.78 -1.6)"/><path class="cls-8" d="M62.28,311.53H78.41a10.25,10.25,0,0,0,10.25-10.24c-1.43,2-3.35,3.75-5.66,3.91-5.37.36-25,0-25,0A11,11,0,0,1,52,301.56,10.24,10.24,0,0,0,62.28,311.53Z" transform="translate(-0.78 -1.6)"/><path class="cls-7" d="M88.66,297.22A10.25,10.25,0,0,0,78.41,287H62.28A10.25,10.25,0,0,0,52,297.22v4.07c0,.09,0,.18,0,.27A11,11,0,0,0,58,305.2s19.68.36,25,0c2.31-.15,4.23-1.94,5.66-3.91h0Z" transform="translate(-0.78 -1.6)"/><path class="cls-8" d="M25.66,290.95H41.79A10.25,10.25,0,0,0,52,280.7c-1.43,2-3.35,3.75-5.66,3.91-5.37.36-25,0-25,0A11,11,0,0,1,15.42,281,10.24,10.24,0,0,0,25.66,290.95Z" transform="translate(-0.78 -1.6)"/><path class="cls-7" d="M52,276.64a10.25,10.25,0,0,0-10.25-10.24H25.66a10.25,10.25,0,0,0-10.25,10.24v4.07c0,.09,0,.18,0,.27a11,11,0,0,0,5.92,3.63s19.68.36,25,0c2.31-.15,4.23-1.94,5.66-3.91h0Z" transform="translate(-0.78 -1.6)"/><path class="cls-8" d="M62.27,287H73.42a10.18,10.18,0,0,0,9.94-7.49c-1.5,1.54-3.31,2.91-5,3-3.93.14-20.89,0-20.89,0a8,8,0,0,1-5.13-3A10.18,10.18,0,0,0,62.27,287Z" transform="translate(-0.78 -1.6)"/><path class="cls-7" d="M83.66,273.15a10.07,10.07,0,0,0-10.24-9.88H62.27A10.07,10.07,0,0,0,52,273.15v3.92a9.5,9.5,0,0,0,.29,2.35,8,8,0,0,0,5.13,3s17,.14,20.89,0c1.7-.06,3.5-1.43,5-3a9.63,9.63,0,0,0,.31-2.4Z" transform="translate(-0.78 -1.6)"/><path class="cls-8" d="M27.23,266.82H38.38c4.8,0,8.83-3.74,9.94-8.81-1.5,1.81-3.31,3.43-5,3.49-3.93.17-20.89,0-20.89,0s-2.72-.2-5.13-3.55C18.37,263,22.41,266.82,27.23,266.82Z" transform="translate(-0.78 -1.6)"/><path class="cls-7" d="M48.62,250.59C48.62,244.17,44,239,38.38,239H27.23C21.58,239,17,244.17,17,250.59v4.61a13,13,0,0,0,.29,2.76c2.42,3.35,5.13,3.55,5.13,3.55s17,.17,20.89,0c1.7-.07,3.5-1.68,5-3.49a13.21,13.21,0,0,0,.31-2.82Z" transform="translate(-0.78 -1.6)"/><path class="cls-8" d="M37.69,240.26c5,0,9-4.59,9-10.25v-.54c-1,2.57-2.71,5.68-4.84,5.76-3.64.15-20.34,0-20.34,0A7.28,7.28,0,0,1,17.38,233c1.12,4.2,4.55,7.26,8.6,7.26H37.69Z" transform="translate(-0.78 -1.6)"/><path class="cls-7" d="M46.69,228c0-4.86-3-8.94-7-10l-3.25-.27H26c-5,0-9,4.59-9,10.25V230a11.38,11.38,0,0,0,.39,3,7.28,7.28,0,0,0,4.13,2.23s16.7.15,20.34,0c2.13-.08,3.81-3.19,4.84-5.76Z" transform="translate(-0.78 -1.6)"/><path class="cls-8" d="M45.58,218.44c6.43,0,11.64-4.59,11.64-10.25v-.54c-1.33,2.57-3.51,5.68-6.26,5.76-4.71.15-26.34,0-26.34,0a10.72,10.72,0,0,1-5.34-2.23c1.45,4.2,5.89,7.26,11.14,7.26H45.58Z" transform="translate(-0.78 -1.6)"/><path class="cls-7" d="M57.23,206.14c0-4.86-3.85-8.94-9-10L44,195.89H30.42c-6.43,0-11.64,4.59-11.64,10.25v2.06a9,9,0,0,0,.51,3,10.72,10.72,0,0,0,5.34,2.23s21.62.15,26.34,0c2.75-.08,4.93-3.19,6.26-5.76Z" transform="translate(-0.78 -1.6)"/><path class="cls-8" d="M27.44,196.3H43.57a10.25,10.25,0,0,0,10.25-10.24c-1.43,2-3.35,3.75-5.66,3.91-5.37.36-25,0-25,0a11,11,0,0,1-5.92-3.63A10.24,10.24,0,0,0,27.44,196.3Z" transform="translate(-0.78 -1.6)"/><path class="cls-7" d="M53.82,182a10.25,10.25,0,0,0-10.25-10.24H27.44A10.25,10.25,0,0,0,17.19,182v4.07c0,.09,0,.18,0,.27A11,11,0,0,0,23.11,190s19.68.36,25,0c2.31-.15,4.23-1.94,5.66-3.91h0Z" transform="translate(-0.78 -1.6)"/><path class="cls-8" d="M29,172.17H40.16c4.8,0,8.83-3.74,9.94-8.81-1.5,1.81-3.31,3.43-5,3.49-3.93.17-20.89,0-20.89,0s-2.72-.2-5.13-3.55C20.15,168.4,24.19,172.17,29,172.17Z" transform="translate(-0.78 -1.6)"/><path class="cls-7" d="M50.4,155.93c0-6.42-4.59-11.62-10.24-11.62H29c-5.65,0-10.24,5.2-10.24,11.62v4.61a13,13,0,0,0,.29,2.76c2.42,3.35,5.13,3.55,5.13,3.55s17,.17,20.89,0c1.7-.07,3.5-1.68,5-3.49a13.21,13.21,0,0,0,.31-2.82Z" transform="translate(-0.78 -1.6)"/></g></g></svg>