<svg id="Layer_1" data-name="Layer 1" xmlns="http://www.w3.org/2000/svg" xmlns:xlink="http://www.w3.org/1999/xlink" viewBox="0 0 300 300"><defs><style>.cls-1{fill:#96948c;}.cls-2{fill:#a5a397;}.cls-3{fill:#b7b6a9;}.cls-4{fill:#c9c7b5;}.cls-5{fill:#7f7e77;}.cls-6{fill:url(#linear-gradient);}.cls-7{fill:url(#linear-gradient-2);}.cls-8{fill:url(#linear-gradient-3);}.cls-9{fill:url(#linear-gradient-4);}.cls-10{fill:url(#linear-gradient-5);}.cls-11{fill:url(#linear-gradient-6);}.cls-12{fill:url(#linear-gradient-7);}.cls-13{fill:url(#linear-gradient-8);}.cls-14{fill:url(#linear-gradient-9);}.cls-15{fill:url(#linear-gradient-10);}.cls-16{fill:#2b2b28;}</style><linearGradient id="linear-gradient" x1="78.33" y1="861.91" x2="95.9" y2="891.76" gradientTransform="matrix(0.84, 0.54, 0.54, -0.84, -425.79, 955.79)" gradientUnits="userSpaceOnUse"><stop offset="0" stop-color="#c9c7b5"/><stop offset="1" stop-color="#605d57"/></linearGradient><linearGradient id="linear-gradient-2" x1="187.18" y1="170.26" x2="204.75" y2="200.12" gradientTransform="matrix(0.99, 0.11, 0.11, -0.99, -80.93, 439.93)" xlink:href="#linear-gradient"/><linearGradient id="linear-gradient-3" x1="186.13" y1="179.55" x2="203.7" y2="209.41" gradientTransform="matrix(0.99, 0.11, 0.11, -0.99, -80.93, 439.93)" xlink:href="#linear-gradient"/><linearGradient id="linear-gradient-4" x1="186.56" y1="188.97" x2="204.13" y2="218.82" gradientTransform="matrix(0.99, 0.11, 0.11, -0.99, -80.93, 439.93)" xlink:href="#linear-gradient"/><linearGradient id="linear-gradient-5" x1="169.14" y1="617.04" x2="186.71" y2="646.89" gradientTransform="matrix(0.93, 0.38, 0.38, -0.93, -266, 768.18)" xlink:href="#linear-gradient"/><linearGradient id="linear-gradient-6" x1="32.06" y1="826.24" x2="49.63" y2="856.1" gradientTransform="matrix(0.76, 0.65, 0.65, -0.76, -499.32, 894.61)" xlink:href="#linear-gradient"/><linearGradient id="linear-gradient-7" x1="31.69" y1="836.45" x2="49.26" y2="866.3" gradientTransform="matrix(0.76, 0.65, 0.65, -0.76, -499.32, 894.61)" xlink:href="#linear-gradient"/><linearGradient id="linear-gradient-8" x1="31.97" y1="847.46" x2="49.54" y2="877.32" gradientTransform="matrix(0.76, 0.65, 0.65, -0.76, -499.32, 894.61)" xlink:href="#linear-gradient"/><linearGradient id="linear-gradient-9" x1="-55.23" y1="1064.84" x2="-37.66" y2="1094.69" gradientTransform="matrix(0.65, 0.76, 0.76, -0.65, -691.49, 996.52)" xlink:href="#linear-gradient"/><linearGradient id="linear-gradient-10" x1="114.73" y1="18.04" x2="169.61" y2="74.35" gradientTransform="matrix(1, 0, 0, -1, 0, 302)" xlink:href="#linear-gradient"/></defs><title>skeledead</title><path class="cls-1" d="M142,275.61c1,6.22,4.92,12.51,2.28,15.69s-5.4,4.66-7.46,2.41-6.29-6.12-6.12-10.35-2.77-2.6-5-4.34-8.63-6.86-1.79-9.9S140.64,267,142,275.61Z"/><path class="cls-2" d="M166.24,270.55c-2.33-.52-4.66.32-6.27,3.28s2.6,3.83,2.22,7h0a5.45,5.45,0,0,0-.34,1.62c-.18,3.38,2.78,6.29,6.62,6.5a7.38,7.38,0,0,0,5.21-1.7l.33-.1a9.2,9.2,0,0,1,6.87-2.16c4.34.34,20.23-.08,23.51,1.26s7.39.08,7.44-2.28-3.48-3.18-3.61-4.65-.25-7-4.26-6.74-4,2.94-9.12,4.34-12.11,2-16.26-.87c-.9-.62-1.68-1.19-2.38-1.69a6,6,0,0,0-5.34-3.58C168.52,267.49,168.57,271.06,166.24,270.55Z"/><path class="cls-3" d="M179.89,245.69c9.86,4.07,12.87,10.38,17.49,18.82s7.47,13.75,10.37,16.47,3.24,10-.51,8.35-16.13-29.77-19.9-31.7-1.64,7.32.95,11.35a134.62,134.62,0,0,0,9.36,13.53c4,4.88,19.42,5.66,14.7,10.93s-8.47,1.31-11.79-2-15.4-14.63-18.64-21.66S170.55,241.83,179.89,245.69Z"/><path class="cls-4" d="M202.63,239.22c-9.27,4.53,2.34,10.88,2.85,14.93s-1.2,10.34,4.59,13.6,0-4.12.92-7.39,3.57-1.64,6.23,1.09-2.59,8.47-.5,10.62,7.17-8.47,7-10.52-4.23-8.17-4.23-8.17,3.45,1.24,4.85,3.53,1.36,10.54,3.54,10.16,1.49-6.29,1.49-6.29l1.06-7.46s-2.62-5.55-5.73-7.39-9.21-8.18-12.12-8.4S209.87,235.69,202.63,239.22Z"/><path class="cls-5" d="M178.25,263.7c-2,.13-3.71-.89-4.61-3.61s2.61-2.9,2.74-5.65h0a4.89,4.89,0,0,1-.06-1.41,5.48,5.48,0,0,1,6.21-4.62,5.87,5.87,0,0,1,4,2.14l.25.13a7.35,7.35,0,0,0,5.24,2.74c3.54.29,16.28,2.77,19.1,2.08s6,.92,5.68,2.92-3.24,2.22-3.54,3.46-1.16,5.93-4.34,5.13-2.79-3-6.75-4.89-9.49-3.29-13.22-1.44c-.81.4-1.51.79-2.15,1.11a4.87,4.87,0,0,1-4.79,2.32C179.67,266.6,180.2,263.58,178.25,263.7Z"/><path class="cls-2" d="M190,266.53c-2.92,8.88-8.26,11.25-15.36,15s-11.58,6-13.77,8.52-8.52,2.33-7.37-1,25.07-13,26.51-16.34-6.53-2-9.9.12a95.57,95.57,0,0,0-11.26,7.78c-4,3.37-3.69,17.65-8.62,12.91s-1.71-8,1-10.81S163.05,269.4,169,266.86,192.8,258.11,190,266.53Z"/><path class="cls-5" d="M99.52,232.77c.71-1.82,2.38-3,5.23-2.64s1.51,3.6,3.95,4.88h0a4.89,4.89,0,0,1,1.3.55,5.48,5.48,0,0,1,1.54,7.59,5.87,5.87,0,0,1-3.62,2.68l-.22.18a7.35,7.35,0,0,0-4.71,3.58c-1.77,3.08-9.42,13.57-10,16.41s-3.36,5-5.05,3.9-.64-3.87-1.63-4.67-4.88-3.57-2.8-6.11,3.92-1.25,7.3-4,7-7.19,6.91-11.36c0-.9-.07-1.7-.1-2.42a4.87,4.87,0,0,1-.07-5.32C96.3,232.83,98.81,234.59,99.52,232.77Z"/><path class="cls-2" d="M68.16,248c9.32-.65,13.53,3.4,19.66,8.57s9.93,8.45,13.09,9.54,5.38,7,1.83,7.21S81.27,255,77.6,254.94s.6,6.81,3.85,9.12a95.57,95.57,0,0,0,11.46,7.49c4.64,2.45,17.73-3.25,15.21,3.11s-6.71,4.59-10.39,3.16-16.79-5.92-21.39-10.48S59.32,248.61,68.16,248Z"/><path class="cls-1" d="M95.92,275.89c5.19-3.57,9.21-9.8,13.21-8.76s6.51,2.89,5.37,5.71-2.85,8.31-6.75,10-1.16,3.61-1.77,6.41-2.52,10.73-8.19,5.85S88.71,280.84,95.92,275.89Z"/><path class="cls-2" d="M114.44,221.35c-12,2.6-18.64,8-10.31,12.35s19.36,7.4,19.82,14,14.48-1.58,13.5-7.09,7-10.19,7-12.16-9.66-8-13.06-8.44-16.94,1.36-16.94,1.36h0"/><path class="cls-6" d="M125.33,265.56,121,262.78a6.53,6.53,0,0,0-7.76.52l-1.61-1a3.81,3.81,0,0,0-5.25,1.12l-.67,1a3.81,3.81,0,0,0,1.12,5.25l1.61,1a6.53,6.53,0,0,0,2.7,7.29l4.29,2.78a6.53,6.53,0,0,0,9-1.93l2.78-4.29A6.53,6.53,0,0,0,125.33,265.56Z"/><path class="cls-7" d="M134.81,275.36l-5.08-.56a6.53,6.53,0,0,0-6.71,3.94l-1.91-.21a3.81,3.81,0,0,0-4.19,3.36l-.14,1.23a3.81,3.81,0,0,0,3.36,4.19l1.91.21a6.53,6.53,0,0,0,5.68,5.31l5.08.56a6.53,6.53,0,0,0,7.18-5.75l.56-5.08A6.53,6.53,0,0,0,134.81,275.36Z"/><path class="cls-8" d="M134.81,266l-5.08-.56a6.53,6.53,0,0,0-6.71,3.94l-1.91-.21a3.81,3.81,0,0,0-4.19,3.36l-.14,1.23a3.81,3.81,0,0,0,3.36,4.19l1.91.21a6.53,6.53,0,0,0,5.68,5.31l5.08.56a6.53,6.53,0,0,0,7.18-5.75l.56-5.08A6.53,6.53,0,0,0,134.81,266Z"/><path class="cls-9" d="M136.25,256.71l-5.08-.56a6.53,6.53,0,0,0-6.71,3.94l-1.91-.21a3.81,3.81,0,0,0-4.19,3.36l-.14,1.23a3.81,3.81,0,0,0,3.36,4.19l1.91.21a6.53,6.53,0,0,0,5.68,5.31l5.08.56a6.53,6.53,0,0,0,7.18-5.75l.56-5.08A6.53,6.53,0,0,0,136.25,256.71Z"/><path class="cls-10" d="M139.86,249.43l-4.73-1.94a6.53,6.53,0,0,0-7.53,1.93l-1.78-.73a3.81,3.81,0,0,0-5,2v0l-.47,1.14a3.81,3.81,0,0,0,2,5h0l1.78.73a6.53,6.53,0,0,0,4,6.67l4.73,1.94a6.53,6.53,0,0,0,8.49-3.55l1.94-4.73A6.53,6.53,0,0,0,139.86,249.43Z"/><path class="cls-11" d="M80,280.58l-3.88-3.32a6.53,6.53,0,0,0-7.76-.51L66.9,275.5a3.81,3.81,0,0,0-5.35.42l-.8.94a3.81,3.81,0,0,0,.42,5.35l1.46,1.25A6.53,6.53,0,0,0,64.38,291l3.88,3.32a6.53,6.53,0,0,0,9.18-.72l3.32-3.88A6.53,6.53,0,0,0,80,280.58Z"/><path class="cls-12" d="M86.38,272.58l-3.88-3.32a6.53,6.53,0,0,0-7.76-.51l-1.46-1.25a3.81,3.81,0,0,0-5.35.42l-.8.94a3.81,3.81,0,0,0,.42,5.35L69,275.46A6.53,6.53,0,0,0,70.72,283l3.88,3.32a6.53,6.53,0,0,0,9.18-.72l3.32-3.88A6.53,6.53,0,0,0,86.38,272.58Z"/><path class="cls-13" d="M93.75,264.37,89.87,261a6.53,6.53,0,0,0-7.76-.51l-1.46-1.25a3.81,3.81,0,0,0-5.35.42l-.8.94a3.81,3.81,0,0,0,.42,5.35l1.46,1.25a6.53,6.53,0,0,0,1.72,7.58l3.9,3.32a6.53,6.53,0,0,0,9.18-.72l3.32-3.88A6.53,6.53,0,0,0,93.75,264.37Z"/><path class="cls-14" d="M101.76,258.16l-3.31-3.89a6.53,6.53,0,0,0-7.58-1.74l-1.24-1.46a3.81,3.81,0,0,0-5.35-.43l-.94.8a3.81,3.81,0,0,0-.43,5.35l1.24,1.46a6.53,6.53,0,0,0,.49,7.76L88,269.9a6.53,6.53,0,0,0,9.17.74l3.89-3.31A6.53,6.53,0,0,0,101.76,258.16Z"/><path class="cls-15" d="M132,220.83c-13.16-.57-24.82,9.29-31.16,20.83-2.6,4.73-4.59,10-4.11,15.42.57,6.4,4.51,12,8.78,16.79,7.94,8.92,17.81,16.52,29.32,19.73,7.16,2,16.14,1.6,20.38-4.51,3.29-4.75,2.46-11.09,1.73-16.82s-1-12.29,3-16.46a2.58,2.58,0,0,1,1.21-.81c1.44-.33,2.4,1.44,2.73,2.88a40.83,40.83,0,0,1-.21,19.36c-.53,2.07-1.23,4.17-1,6.3s1.76,4.31,3.9,4.43c2.57.15,4.32-2.5,5.34-4.86a59.91,59.91,0,0,0,0-47.16,19.38,19.38,0,0,0-5.11-7.54c-2.38-1.93-5.81-2.84-8.59-1.54-5.36,2.51-6.67.54-11.93-2C141.77,222.77,137,221.05,132,220.83Z"/><path class="cls-16" d="M104.19,253.37a7.19,7.19,0,0,1,6.35,1.69c2.66,2.61,7,12.21,11.24,15.31s16.36,9,18.68,9.7,4.06,2.23,4.05,3.86-1.07,4.71-3.1,4.41-18.38-7.2-22.12-10.26-15.2-14.22-16.29-17.83S103,254.29,104.19,253.37Z"/><path class="cls-16" d="M109.84,241.66a6.72,6.72,0,0,1,5.36,2c2.08,2.37,5,10.52,8.42,13.45A106.63,106.63,0,0,0,139,266.84c1.95.79,3.33,2.21,3.18,3.51s-1.33,3.67-3.06,3.21-15.3-7.69-18.29-10.53-11.94-13-12.57-16S108.73,242.27,109.84,241.66Z"/><path class="cls-16" d="M120.77,232.9a5.29,5.29,0,0,1,4.68,1.89c1.78,2.31,4.19,10.36,7.13,13.19a87.1,87.1,0,0,0,13.33,9.32c1.7.74,2.89,2.13,2.73,3.43s-1.26,3.68-2.78,3.27-13.34-7.3-15.91-10.06-10.25-12.65-10.73-15.63S119.77,233.53,120.77,232.9Z"/><path class="cls-16" d="M174.26,267.27c-.57,1.88-2.48,5.12-4.9,4.07-1.84-.8-2.29-3.8-1.29-5.37s3.27-2.53,4.74-3.52C175.92,260.34,174.82,265.39,174.26,267.27Z"/><path class="cls-16" d="M166.37,276.48a4.13,4.13,0,0,0-.57,1.52,13.26,13.26,0,0,0-.28,2.64,2.53,2.53,0,0,0,.53,1.84,1.78,1.78,0,0,0,1.68.38,3.83,3.83,0,0,0,1.54-.9c1.47-1.28,4-4.81,3-6.93C171.24,272.75,167.3,275.13,166.37,276.48Z"/><path class="cls-16" d="M170.47,261.26a5.64,5.64,0,0,0,2.92-2.26,5.21,5.21,0,0,0,.41-2.15c.07-2,.85-5.9-1.8-5.76a6.48,6.48,0,0,0-4.56,2.76c-.75,1.28-.55,2.84-.46,4.25C167.15,260.86,167.23,262.76,170.47,261.26Z"/><path class="cls-3" d="M10.65,273.94c9.09-7.29,16.72-6.85,27.23-6.83s17.1.1,21.23-1.25,11.23,2.14,7.73,4.89-37-.24-40.84,2.36,6.14,5.42,11.37,5.07a147.11,147.11,0,0,0,17.89-1.84C62,275.09,70.92,260.73,73.47,268s-3.21,8.8-8.15,10.22-22.12,7-30.56,6.44S2,280.86,10.65,273.94Z"/><path class="cls-4" d="M55.8,286.1c2.6-.26,4.73-1.91,5.4-5.54s-4-3.1-4.7-6.54h0a6,6,0,0,0-.19-1.8c-1-3.58-5-5.59-9.08-4.5a8.06,8.06,0,0,0-4.83,3.54l-.31.21a10.05,10.05,0,0,1-6.4,4.57c-4.62,1.12-21,7-24.84,6.69s-7.71,2.43-6.95,4.89,4.7,2.12,5.33,3.61,2.66,7.23,6.71,5.55,3.12-4.4,8-7.61,11.91-6.17,17.18-4.63c1.14.33,2.15.67,3,1a6.55,6.55,0,0,0,6.76,1.91C54.47,290,53.2,286.36,55.8,286.1Z"/><path class="cls-4" d="M50.89,256.3c-11.27-.27-3.2,11.73-4.74,15.92s-6.36,9.43-2.38,15.5,2.09-4,4.61-6.7,4.29.21,5.5,4.19-6.78,6.91-5.82,10.06,11.22-4.61,12.06-6.7,0-10.06,0-10.06,2.72,2.93,2.93,5.87-4,10.91-1.68,11.63S66,290.66,66,290.66l4.78-6.7s.25-6.7-1.84-10.06-4.82-12.57-7.54-14.24S59.69,256.51,50.89,256.3Z"/><path class="cls-4" d="M286.21,252.32a44.25,44.25,0,1,0-73.53,13.9l-.23,2.58a8.09,8.09,0,0,0,7.33,8.74l3.91.34.86,7.84.39,3.56.39,3.56a5.58,5.58,0,0,0,6.14,4.93l3-.33a5.58,5.58,0,0,0,4.93-6.14l-.39-3.56,4.52-.5.39,3.56a5.58,5.58,0,0,0,6.14,4.93l3-.33a5.58,5.58,0,0,0,4.93-6.14l-.39-3.56s2-3.23,7.27-4a10.24,10.24,0,0,1,8.32,2.26l.39,3.56c.33,3,2.09,5.37,5.13,5l3-.33c3-.33,4.57-3.59,4.24-6.63l-.55-3.38a7,7,0,0,0,1.47-3.36c.37-2.17-1.09-9.86-1.09-9.86a5.82,5.82,0,0,0,.87-.28,5.88,5.88,0,0,0,3.14-7.68Z"/><circle class="cls-16" cx="236.91" cy="257.57" r="14.97" transform="translate(-26.75 27.46) rotate(-6.28)"/><ellipse class="cls-16" cx="275.98" cy="253.27" rx="5.42" ry="10.19" transform="translate(-26.05 31.71) rotate(-6.28)"/><path class="cls-16" d="M268.12,268.22c-.77-1.77-2.17-2.87-3.11-2.46a1,1,0,0,0-.19.13,1.73,1.73,0,0,0-1-.91c-1.36-.39-3,1.37-3.78,3.93s-.22,5,1.14,5.33,3-1.37,3.78-3.93v-.09c.8,1.46,2,2.32,2.85,2S268.89,270,268.12,268.22Z"/></svg>