<svg id="Layer_1" data-name="Layer 1" xmlns="http://www.w3.org/2000/svg" xmlns:xlink="http://www.w3.org/1999/xlink" viewBox="0 0 700 100"><defs><style>.cls-1{fill:#96948c;}.cls-2{fill:#a5a397;}.cls-3{fill:#b7b6a9;}.cls-4{fill:#c9c7b5;}.cls-5{fill:#7f7e77;}.cls-6{fill:url(#linear-gradient);}.cls-7{fill:url(#linear-gradient-2);}.cls-8{fill:url(#linear-gradient-3);}.cls-9{fill:url(#linear-gradient-4);}.cls-10{fill:url(#linear-gradient-5);}.cls-11{fill:url(#linear-gradient-6);}.cls-12{fill:url(#linear-gradient-7);}.cls-13{fill:url(#linear-gradient-8);}.cls-14{fill:url(#linear-gradient-9);}.cls-15{fill:url(#linear-gradient-10);}.cls-16{fill:#2b2b28;}.cls-17{fill:url(#linear-gradient-11);}.cls-18{fill:url(#linear-gradient-12);}.cls-19{fill:url(#linear-gradient-13);}.cls-20{fill:url(#linear-gradient-14);}.cls-21{fill:url(#linear-gradient-15);}.cls-22{fill:url(#linear-gradient-16);}.cls-23{fill:url(#linear-gradient-17);}.cls-24{fill:url(#linear-gradient-18);}.cls-25{fill:url(#linear-gradient-19);}.cls-26{fill:url(#linear-gradient-20);}.cls-27{fill:url(#linear-gradient-21);}.cls-28{fill:url(#linear-gradient-22);}.cls-29{fill:url(#linear-gradient-23);}.cls-30{fill:url(#linear-gradient-24);}.cls-31{fill:url(#linear-gradient-25);}.cls-32{fill:url(#linear-gradient-26);}.cls-33{fill:url(#linear-gradient-27);}.cls-34{fill:url(#linear-gradient-28);}.cls-35{fill:url(#linear-gradient-29);}.cls-36{fill:url(#linear-gradient-30);}.cls-37{fill:url(#linear-gradient-31);}.cls-38{fill:url(#linear-gradient-32);}.cls-39{fill:url(#linear-gradient-33);}.cls-40{fill:url(#linear-gradient-34);}.cls-41{fill:url(#linear-gradient-35);}.cls-42{fill:url(#linear-gradient-36);}.cls-43{fill:url(#linear-gradient-37);}.cls-44{fill:url(#linear-gradient-38);}.cls-45{fill:url(#linear-gradient-39);}.cls-46{fill:url(#linear-gradient-40);}.cls-47{fill:url(#linear-gradient-41);}.cls-48{fill:url(#linear-gradient-42);}.cls-49{fill:url(#linear-gradient-43);}.cls-50{fill:url(#linear-gradient-44);}.cls-51{fill:url(#linear-gradient-45);}.cls-52{fill:url(#linear-gradient-46);}.cls-53{fill:url(#linear-gradient-47);}.cls-54{fill:url(#linear-gradient-48);}.cls-55{fill:url(#linear-gradient-49);}.cls-56{fill:url(#linear-gradient-50);}.cls-57{fill:url(#linear-gradient-51);}.cls-58{fill:url(#linear-gradient-52);}.cls-59{fill:url(#linear-gradient-53);}.cls-60{fill:url(#linear-gradient-54);}.cls-61{fill:url(#linear-gradient-55);}.cls-62{fill:url(#linear-gradient-56);}.cls-63{fill:url(#linear-gradient-57);}.cls-64{fill:url(#linear-gradient-58);}.cls-65{fill:url(#linear-gradient-59);}.cls-66{fill:url(#linear-gradient-60);}.cls-67{fill:url(#linear-gradient-61);}.cls-68{fill:url(#linear-gradient-62);}.cls-69{fill:url(#linear-gradient-63);}.cls-70{fill:url(#linear-gradient-64);}.cls-71{fill:url(#linear-gradient-65);}.cls-72{fill:url(#linear-gradient-66);}.cls-73{fill:url(#linear-gradient-67);}.cls-74{fill:url(#linear-gradient-68);}.cls-75{fill:url(#linear-gradient-69);}.cls-76{fill:url(#linear-gradient-70);}</style><linearGradient id="linear-gradient" x1="274.92" y1="233.76" x2="280.77" y2="223.82" gradientTransform="translate(106.42 -314.89) rotate(58.13)" gradientUnits="userSpaceOnUse"><stop offset="0" stop-color="#c9c7b5"/><stop offset="1" stop-color="#605d57"/></linearGradient><linearGradient id="linear-gradient-2" x1="127.48" y1="157.51" x2="133.33" y2="147.57" gradientTransform="translate(-56.3 -114.32) rotate(11.08)" xlink:href="#linear-gradient"/><linearGradient id="linear-gradient-3" x1="127.14" y1="154.43" x2="132.99" y2="144.49" gradientTransform="translate(-56.3 -114.32) rotate(11.08)" xlink:href="#linear-gradient"/><linearGradient id="linear-gradient-4" x1="222.97" y1="298.33" x2="228.82" y2="288.39" gradientTransform="matrix(0.81, 0.58, -0.58, 0.81, 32.22, -314.45)" xlink:href="#linear-gradient"/><linearGradient id="linear-gradient-5" x1="242.14" y1="263.53" x2="247.99" y2="253.59" gradientTransform="translate(71.24 -302.41) rotate(47.54)" xlink:href="#linear-gradient"/><linearGradient id="linear-gradient-6" x1="241.15" y1="260.31" x2="247" y2="250.37" gradientTransform="translate(71.24 -302.41) rotate(47.54)" xlink:href="#linear-gradient"/><linearGradient id="linear-gradient-7" x1="241.02" y1="256.91" x2="246.87" y2="246.97" gradientTransform="translate(71.24 -302.41) rotate(47.54)" xlink:href="#linear-gradient"/><linearGradient id="linear-gradient-8" x1="241.11" y1="253.24" x2="246.96" y2="243.3" gradientTransform="translate(71.24 -302.41) rotate(47.54)" xlink:href="#linear-gradient"/><linearGradient id="linear-gradient-9" x1="288.13" y1="236.24" x2="293.98" y2="226.3" gradientTransform="translate(88.92 -326.85) rotate(56.66)" xlink:href="#linear-gradient"/><linearGradient id="linear-gradient-10" x1="108.92" y1="260.36" x2="127.2" y2="241.61" gradientTransform="translate(55.73 -226.67) rotate(25.21)" xlink:href="#linear-gradient"/><linearGradient id="linear-gradient-11" x1="332.16" y1="151.37" x2="338.01" y2="141.43" xlink:href="#linear-gradient"/><linearGradient id="linear-gradient-12" x1="226.78" y1="143.27" x2="232.63" y2="133.33" gradientTransform="translate(-56.3 -114.32) rotate(11.08)" xlink:href="#linear-gradient"/><linearGradient id="linear-gradient-13" x1="226.43" y1="140.18" x2="232.28" y2="130.24" gradientTransform="translate(-56.3 -114.32) rotate(11.08)" xlink:href="#linear-gradient"/><linearGradient id="linear-gradient-14" x1="307.22" y1="243.88" x2="313.07" y2="233.94" gradientTransform="matrix(0.81, 0.58, -0.58, 0.81, 32.22, -314.45)" xlink:href="#linear-gradient"/><linearGradient id="linear-gradient-15" x1="313.54" y1="193.07" x2="319.39" y2="183.13" gradientTransform="translate(71.24 -302.41) rotate(47.54)" xlink:href="#linear-gradient"/><linearGradient id="linear-gradient-16" x1="312.55" y1="189.85" x2="318.4" y2="179.91" gradientTransform="translate(71.24 -302.41) rotate(47.54)" xlink:href="#linear-gradient"/><linearGradient id="linear-gradient-17" x1="312.42" y1="186.45" x2="318.27" y2="176.51" gradientTransform="translate(71.24 -302.41) rotate(47.54)" xlink:href="#linear-gradient"/><linearGradient id="linear-gradient-18" x1="312.51" y1="182.78" x2="318.36" y2="172.84" gradientTransform="translate(71.24 -302.41) rotate(47.54)" xlink:href="#linear-gradient"/><linearGradient id="linear-gradient-19" x1="347.45" y1="155.34" x2="353.3" y2="145.4" gradientTransform="translate(88.92 -326.85) rotate(56.66)" xlink:href="#linear-gradient"/><linearGradient id="linear-gradient-20" x1="201.75" y1="222.31" x2="220.02" y2="203.56" gradientTransform="translate(55.73 -226.67) rotate(25.21)" xlink:href="#linear-gradient"/><linearGradient id="linear-gradient-21" x1="447.69" y1="101.61" x2="453.54" y2="91.67" gradientTransform="translate(135.77 -395.09) rotate(62.28)" xlink:href="#linear-gradient"/><linearGradient id="linear-gradient-22" x1="341.8" y1="193.5" x2="347.65" y2="183.56" gradientTransform="translate(-41.04 -206.82) rotate(15.23)" xlink:href="#linear-gradient"/><linearGradient id="linear-gradient-23" x1="341.58" y1="190.84" x2="347.43" y2="180.9" gradientTransform="translate(-41.04 -206.82) rotate(15.23)" xlink:href="#linear-gradient"/><linearGradient id="linear-gradient-24" x1="433" y1="241.76" x2="438.85" y2="231.82" gradientTransform="translate(61.73 -400.02) rotate(39.95)" xlink:href="#linear-gradient"/><linearGradient id="linear-gradient-25" x1="436.26" y1="165.39" x2="442.11" y2="155.45" gradientTransform="translate(99.78 -385.18) rotate(51.69)" xlink:href="#linear-gradient"/><linearGradient id="linear-gradient-26" x1="435.26" y1="162.16" x2="441.11" y2="152.22" gradientTransform="translate(99.78 -385.18) rotate(51.69)" xlink:href="#linear-gradient"/><linearGradient id="linear-gradient-27" x1="435.14" y1="158.77" x2="440.99" y2="148.83" gradientTransform="translate(99.78 -385.18) rotate(51.69)" xlink:href="#linear-gradient"/><linearGradient id="linear-gradient-28" x1="435.23" y1="155.09" x2="441.08" y2="145.15" gradientTransform="translate(99.78 -385.18) rotate(51.69)" xlink:href="#linear-gradient"/><linearGradient id="linear-gradient-29" x1="464.23" y1="108.56" x2="470.08" y2="98.62" gradientTransform="translate(119.19 -408.28) rotate(60.81)" xlink:href="#linear-gradient"/><linearGradient id="linear-gradient-30" x1="325.77" y1="243.34" x2="344.05" y2="224.59" gradientTransform="translate(78.83 -310.77) rotate(29.36)" xlink:href="#linear-gradient"/><linearGradient id="linear-gradient-31" x1="495.53" y1="13.18" x2="501.38" y2="3.24" gradientTransform="translate(135.77 -395.09) rotate(62.28)" xlink:href="#linear-gradient"/><linearGradient id="linear-gradient-32" x1="438.95" y1="167.61" x2="444.8" y2="157.67" gradientTransform="translate(-41.04 -206.82) rotate(15.23)" xlink:href="#linear-gradient"/><linearGradient id="linear-gradient-33" x1="438.61" y1="164.52" x2="444.46" y2="154.58" gradientTransform="translate(-41.04 -206.82) rotate(15.23)" xlink:href="#linear-gradient"/><linearGradient id="linear-gradient-34" x1="510.86" y1="178.14" x2="516.71" y2="168.2" gradientTransform="translate(61.73 -400.02) rotate(39.95)" xlink:href="#linear-gradient"/><linearGradient id="linear-gradient-35" x1="499.53" y1="87.26" x2="505.38" y2="77.32" gradientTransform="translate(99.78 -385.18) rotate(51.69)" xlink:href="#linear-gradient"/><linearGradient id="linear-gradient-36" x1="498.53" y1="84.03" x2="504.38" y2="74.09" gradientTransform="translate(99.78 -385.18) rotate(51.69)" xlink:href="#linear-gradient"/><linearGradient id="linear-gradient-37" x1="498.41" y1="80.63" x2="504.26" y2="70.69" gradientTransform="translate(99.78 -385.18) rotate(51.69)" xlink:href="#linear-gradient"/><linearGradient id="linear-gradient-38" x1="498.5" y1="76.96" x2="504.35" y2="67.02" gradientTransform="translate(99.78 -385.18) rotate(51.69)" xlink:href="#linear-gradient"/><linearGradient id="linear-gradient-39" x1="514.31" y1="21.38" x2="520.16" y2="11.44" gradientTransform="translate(119.19 -408.28) rotate(60.81)" xlink:href="#linear-gradient"/><linearGradient id="linear-gradient-40" x1="413.99" y1="195.11" x2="432.26" y2="176.36" gradientTransform="translate(78.83 -310.77) rotate(29.36)" xlink:href="#linear-gradient"/><linearGradient id="linear-gradient-41" x1="541.03" y1="-75.49" x2="546.88" y2="-85.43" gradientTransform="translate(135.77 -395.09) rotate(62.28)" xlink:href="#linear-gradient"/><linearGradient id="linear-gradient-42" x1="535.03" y1="141.13" x2="540.88" y2="131.19" gradientTransform="translate(-41.04 -206.82) rotate(15.23)" xlink:href="#linear-gradient"/><linearGradient id="linear-gradient-43" x1="534.8" y1="138.48" x2="540.65" y2="128.54" gradientTransform="translate(-41.04 -206.82) rotate(15.23)" xlink:href="#linear-gradient"/><linearGradient id="linear-gradient-44" x1="586.64" y1="113.41" x2="592.49" y2="103.47" gradientTransform="translate(61.73 -400.02) rotate(39.95)" xlink:href="#linear-gradient"/><linearGradient id="linear-gradient-45" x1="560.55" y1="8.45" x2="566.4" y2="-1.49" gradientTransform="translate(99.78 -385.18) rotate(51.69)" xlink:href="#linear-gradient"/><linearGradient id="linear-gradient-46" x1="559.55" y1="5.23" x2="565.4" y2="-4.71" gradientTransform="translate(99.78 -385.18) rotate(51.69)" xlink:href="#linear-gradient"/><linearGradient id="linear-gradient-47" x1="559.43" y1="1.83" x2="565.28" y2="-8.11" gradientTransform="translate(99.78 -385.18) rotate(51.69)" xlink:href="#linear-gradient"/><linearGradient id="linear-gradient-48" x1="559.52" y1="-1.84" x2="565.37" y2="-11.78" gradientTransform="translate(99.78 -385.18) rotate(51.69)" xlink:href="#linear-gradient"/><linearGradient id="linear-gradient-49" x1="562.07" y1="-66.1" x2="567.92" y2="-76.04" gradientTransform="translate(119.19 -408.28) rotate(60.81)" xlink:href="#linear-gradient"/><linearGradient id="linear-gradient-50" x1="500.37" y1="145.4" x2="518.65" y2="126.65" gradientTransform="translate(78.83 -310.77) rotate(29.36)" xlink:href="#linear-gradient"/><linearGradient id="linear-gradient-51" x1="539.9" y1="-190.15" x2="545.75" y2="-200.09" xlink:href="#linear-gradient"/><linearGradient id="linear-gradient-52" x1="618.29" y1="62.61" x2="624.14" y2="52.67" gradientTransform="translate(-56.3 -114.32) rotate(11.08)" xlink:href="#linear-gradient"/><linearGradient id="linear-gradient-53" x1="617.95" y1="59.52" x2="623.8" y2="49.58" gradientTransform="translate(-56.3 -114.32) rotate(11.08)" xlink:href="#linear-gradient"/><linearGradient id="linear-gradient-54" x1="629.16" y1="6.93" x2="635.01" y2="-3.01" gradientTransform="matrix(0.81, 0.58, -0.58, 0.81, 32.22, -314.45)" xlink:href="#linear-gradient"/><linearGradient id="linear-gradient-55" x1="580.51" y1="-104.46" x2="586.36" y2="-114.4" gradientTransform="translate(71.24 -302.41) rotate(47.54)" xlink:href="#linear-gradient"/><linearGradient id="linear-gradient-56" x1="579.51" y1="-107.68" x2="585.36" y2="-117.62" gradientTransform="translate(71.24 -302.41) rotate(47.54)" xlink:href="#linear-gradient"/><linearGradient id="linear-gradient-57" x1="579.38" y1="-111.08" x2="585.23" y2="-121.02" gradientTransform="translate(71.24 -302.41) rotate(47.54)" xlink:href="#linear-gradient"/><linearGradient id="linear-gradient-58" x1="579.48" y1="-114.75" x2="585.33" y2="-124.69" gradientTransform="translate(71.24 -302.41) rotate(47.54)" xlink:href="#linear-gradient"/><linearGradient id="linear-gradient-59" x1="563.87" y1="-180.74" x2="569.72" y2="-190.68" gradientTransform="translate(88.92 -326.85) rotate(56.66)" xlink:href="#linear-gradient"/><linearGradient id="linear-gradient-60" x1="561.74" y1="48.54" x2="580.01" y2="29.79" gradientTransform="translate(55.73 -226.67) rotate(25.21)" xlink:href="#linear-gradient"/><linearGradient id="linear-gradient-61" x1="591.47" y1="-276" x2="597.32" y2="-285.94" xlink:href="#linear-gradient"/><linearGradient id="linear-gradient-62" x1="716.28" y1="41.86" x2="722.13" y2="31.92" gradientTransform="translate(-56.3 -114.32) rotate(11.08)" xlink:href="#linear-gradient"/><linearGradient id="linear-gradient-63" x1="715.94" y1="38.77" x2="721.79" y2="28.83" gradientTransform="translate(-56.3 -114.32) rotate(11.08)" xlink:href="#linear-gradient"/><linearGradient id="linear-gradient-64" x1="709.5" y1="-52.89" x2="715.35" y2="-62.83" gradientTransform="matrix(0.81, 0.58, -0.58, 0.81, 32.22, -314.45)" xlink:href="#linear-gradient"/><linearGradient id="linear-gradient-65" x1="646.98" y1="-179.38" x2="652.83" y2="-189.32" gradientTransform="translate(71.24 -302.41) rotate(47.54)" xlink:href="#linear-gradient"/><linearGradient id="linear-gradient-66" x1="645.98" y1="-182.6" x2="651.83" y2="-192.54" gradientTransform="translate(71.24 -302.41) rotate(47.54)" xlink:href="#linear-gradient"/><linearGradient id="linear-gradient-67" x1="645.86" y1="-186" x2="651.71" y2="-195.94" gradientTransform="translate(71.24 -302.41) rotate(47.54)" xlink:href="#linear-gradient"/><linearGradient id="linear-gradient-68" x1="645.95" y1="-189.67" x2="651.8" y2="-199.61" gradientTransform="translate(71.24 -302.41) rotate(47.54)" xlink:href="#linear-gradient"/><linearGradient id="linear-gradient-69" x1="617.63" y1="-265.25" x2="623.48" y2="-275.19" gradientTransform="translate(88.92 -326.85) rotate(56.66)" xlink:href="#linear-gradient"/><linearGradient id="linear-gradient-70" x1="651.7" y1="4.51" x2="669.97" y2="-14.24" gradientTransform="translate(55.73 -226.67) rotate(25.21)" xlink:href="#linear-gradient"/></defs><title>skeletestani</title><path class="cls-1" d="M62.81,82c2.1,0,4.37-1,5.28,0s1.26,2,.42,2.58-2.33,1.76-3.72,1.49-1,.78-1.68,1.44-2.7,2.49-3.35.09S59.9,82,62.81,82Z"/><path class="cls-2" d="M61.75,50.93a1.83,1.83,0,0,0-2-1.29c-1.12,0-.69,1.38-1.68,1.79h0a1.82,1.82,0,0,0-.53.16,2.19,2.19,0,0,0-.81,3,2.46,2.46,0,0,0,1.34,1.23l.08.08a3.06,3.06,0,0,1,1.75,1.64c.61,1.31,3.32,5.86,3.47,7s1.18,2.16,1.87,1.79.35-1.53.76-1.81,2-1.22,1.26-2.33-1.5-.67-2.75-1.94-2.55-3.19-2.4-4.86c0-.36.07-.68.1-1a2,2,0,0,0,.17-2.13C63,51.09,62,51.69,61.75,50.93Z"/><path class="cls-3" d="M64.35,62.62c2.77-2.22,5.09-2.09,8.3-2.08s5.21,0,6.47-.38,3.42.65,2.36,1.49S70.2,61.57,69,62.37,70.9,64,72.49,63.91a44.82,44.82,0,0,0,5.45-.56c2.06-.38,4.77-4.76,5.55-2.54s-1,2.68-2.48,3.11-6.74,2.15-9.31,2S61.72,64.73,64.35,62.62Z"/><path class="cls-4" d="M81.53,61.11c-2,2.78,2.39,2.83,3.17,3.94s1.26,3.23,3.48,3.28-.64-1.21-.88-2.32.79-1,2-.65.56,2.9,1.52,3.2.78-3.61.4-4.18a12,12,0,0,0-2.52-1.74,3.59,3.59,0,0,1,2,.28c.77.45,2,2.88,2.63,2.43s-.54-2.08-.54-2.08l-.86-2.36a6.85,6.85,0,0,0-2.84-1.28c-1.2-.05-4-1-4.88-.57S83.1,58.94,81.53,61.11Z"/><path class="cls-5" d="M44.56,67.89a1.48,1.48,0,0,1-.83-1.77c.14-.94,1.21-.47,1.66-1.27h0a1.63,1.63,0,0,1,.2-.43A1.82,1.82,0,0,1,48.14,64,2,2,0,0,1,49,65.22l.06.08a2.45,2.45,0,0,0,1.14,1.6c1,.62,4.42,3.27,5.36,3.49s1.63,1.17,1.25,1.72-1.3.17-1.57.49-1.24,1.59-2.06.87S52.8,72.16,51.9,71s-2.32-2.4-3.71-2.41h-.81a1.62,1.62,0,0,1-1.77,0C44.55,69,45.16,68.14,44.56,67.89Z"/><path class="cls-2" d="M55.8,70.6C58.56,72,59,73.92,59.89,76.45s1.35,4.13,2.06,5,.31,2.92-.73,2.37-2.92-8.93-3.95-9.59-1,2-.49,3.26a31.82,31.82,0,0,0,2,4.12c.89,1.5,5.6,2.16,3.78,3.53s-2.7.14-3.5-.91-3.74-4.6-4.25-6.69S53.18,69.24,55.8,70.6Z"/><path class="cls-5" d="M34.84,63.54a1.48,1.48,0,0,1,1.68-1c1,.06.58,1.16,1.41,1.54h0a1.63,1.63,0,0,1,.44.16,1.82,1.82,0,0,1,.67,2.49,2,2,0,0,1-1.15,1l-.07.06a2.45,2.45,0,0,0-1.49,1.28c-.53,1.06-2.85,4.7-3,5.66s-1,1.73-1.6,1.4-.29-1.27-.64-1.52-1.69-1.09-1.06-2,1.28-.49,2.34-1.49,2.18-2.53,2.07-3.91c0-.3-.06-.56-.08-.8a1.62,1.62,0,0,1-.13-1.77C33.77,63.63,34.64,64.16,34.84,63.54Z"/><path class="cls-2" d="M32.9,74.53c-2.36,2-4.29,1.78-7,1.61s-4.33-.29-5.39.05-2.83-.8-1.92-1.57S28,75.26,29,74.55s-1.51-1.7-2.84-1.67a31.82,31.82,0,0,0-4.55.27c-1.73.27-4.09,4.39-4.68,2.19s.88-2.56,2.15-2.91,5.66-1.75,7.8-1.45S35.14,72.61,32.9,74.53Z"/><path class="cls-1" d="M19.14,77.66c-1.75,1.16-3.13,3.2-4.45,2.83s-2.15-1-1.75-1.94,1-2.75,2.31-3.27.41-1.2.63-2.12.91-3.56,2.76-1.9S21.57,76.05,19.14,77.66Z"/><path class="cls-2" d="M38.7,61.93c-4,.82-6.23,2.6-3.48,4.08s6.42,2.53,6.55,4.72,4.83-.48,4.52-2.31,2.37-3.37,2.37-4-3.19-2.69-4.32-2.86a42.65,42.65,0,0,0-5.64.39h0"/><path class="cls-6" d="M59.48,41.61l-.9-1.44a2.17,2.17,0,0,0-2.41-.95l-.34-.54a1.27,1.27,0,0,0-1.74-.41l-.35.22a1.27,1.27,0,0,0-.41,1.74l.34.54a2.17,2.17,0,0,0-.22,2.58l.9,1.44a2.17,2.17,0,0,0,3,.7l1.44-.9A2.17,2.17,0,0,0,59.48,41.61Z"/><path class="cls-7" d="M42.6,59.79l-1.67-.33a2.17,2.17,0,0,0-2.33,1.12L38,60.46a1.27,1.27,0,0,0-1.48,1l-.08.4a1.27,1.27,0,0,0,1,1.48l.63.12a2.17,2.17,0,0,0,1.74,1.92l1.67.33A2.17,2.17,0,0,0,44,64l.33-1.67A2.17,2.17,0,0,0,42.6,59.79Z"/><path class="cls-8" d="M42.86,56.69l-1.67-.33a2.17,2.17,0,0,0-2.33,1.12l-.63-.12a1.27,1.27,0,0,0-1.48,1l-.08.4a1.27,1.27,0,0,0,1,1.48l.63.12A2.17,2.17,0,0,0,40,62.29l1.67.33a2.17,2.17,0,0,0,2.54-1.71l.33-1.67A2.17,2.17,0,0,0,42.86,56.69Z"/><path class="cls-9" d="M44.37,55.13l-1.38-1a2.17,2.17,0,0,0-2.59,0l-.52-.37a1.27,1.27,0,0,0-1.76.29l-.24.33a1.27,1.27,0,0,0,.29,1.76l.52.37A2.17,2.17,0,0,0,39.46,59l1.38,1a2.17,2.17,0,0,0,3-.49l1-1.38A2.17,2.17,0,0,0,44.37,55.13Z"/><path class="cls-10" d="M46.51,52.57l-1.15-1.25a2.17,2.17,0,0,0-2.54-.49l-.43-.47a1.27,1.27,0,0,0-1.79-.08l-.3.28a1.27,1.27,0,0,0-.08,1.79l.43.47a2.17,2.17,0,0,0,.26,2.58l1.15,1.25a2.17,2.17,0,0,0,3.06.14l1.25-1.15A2.17,2.17,0,0,0,46.51,52.57Z"/><path class="cls-11" d="M48.22,49.65,47.07,48.4a2.17,2.17,0,0,0-2.54-.49l-.43-.47a1.27,1.27,0,0,0-1.79-.08l-.3.28a1.27,1.27,0,0,0-.08,1.79l.43.47a2.17,2.17,0,0,0,.26,2.58l1.15,1.25a2.17,2.17,0,0,0,3.06.14l1.25-1.15A2.17,2.17,0,0,0,48.22,49.65Z"/><path class="cls-12" d="M50.64,47.27,49.49,46a2.17,2.17,0,0,0-2.54-.49l-.43-.47A1.27,1.27,0,0,0,44.73,45l-.3.28A1.27,1.27,0,0,0,44.35,47l.43.47A2.17,2.17,0,0,0,45,50.09l1.15,1.25a2.17,2.17,0,0,0,3.06.14l1.25-1.15A2.17,2.17,0,0,0,50.64,47.27Z"/><path class="cls-13" d="M53.41,44.86,52.26,43.6a2.17,2.17,0,0,0-2.54-.49l-.43-.47a1.27,1.27,0,0,0-1.79-.08l-.3.28a1.27,1.27,0,0,0-.08,1.79l.43.47a2.17,2.17,0,0,0,.26,2.58L49,48.93a2.17,2.17,0,0,0,3.06.14l1.25-1.15A2.17,2.17,0,0,0,53.41,44.86Z"/><path class="cls-14" d="M56.31,43.13l-.93-1.42a2.17,2.17,0,0,0-2.43-.88l-.35-.53a1.27,1.27,0,0,0-1.75-.36l-.34.23a1.27,1.27,0,0,0-.36,1.75l.35.53A2.17,2.17,0,0,0,50.33,45l.93,1.42a2.17,2.17,0,0,0,3,.62l1.42-.93A2.17,2.17,0,0,0,56.31,43.13Z"/><path class="cls-15" d="M57.54,38.72c-3.88-2-8.79-.72-12.34,1.86a9.21,9.21,0,0,0-3.43,4.06,10.14,10.14,0,0,0,.27,6.3,21,21,0,0,0,6,10.1c1.87,1.62,4.64,2.77,6.78,1.53,1.66-1,2.32-3,2.91-4.82S59.2,53.9,61,53.21a.86.86,0,0,1,.48-.07c.48.1.52.77.42,1.25a13.59,13.59,0,0,1-2.81,5.8A5.94,5.94,0,0,0,57.89,62a1.58,1.58,0,0,0,.55,1.89c.75.41,1.66-.14,2.3-.71a20,20,0,0,0,6.68-14.21,6.45,6.45,0,0,0-.47-3,2.8,2.8,0,0,0-2.37-1.68c-2,0-2.08-.78-3.32-2.28A12.41,12.41,0,0,0,57.54,38.72Z"/><path class="cls-16" d="M44.55,44.58A2.4,2.4,0,0,1,46.22,46c.43,1.16.38,4.67,1.21,6.21a38.83,38.83,0,0,0,4.25,5.57,1.64,1.64,0,0,1,.67,1.74c-.23.49-1,1.27-1.56.89a37,37,0,0,1-5.21-6.23c-.69-1.45-2.56-6.44-2.37-7.68S44.06,44.68,44.55,44.58Z"/><path class="cls-16" d="M47.92,41.85a2.24,2.24,0,0,1,1.33,1.37c.29,1,0,3.88.63,5.24a35.5,35.5,0,0,0,3.25,5.1c.47.51.69,1.14.46,1.51s-.92.92-1.38.53a34.09,34.09,0,0,1-4-5.76c-.5-1.28-1.76-5.6-1.52-6.6S47.49,41.87,47.92,41.85Z"/><path class="cls-16" d="M52.45,40.76A1.76,1.76,0,0,1,53.59,42c.21.95-.21,3.71.28,5a29,29,0,0,0,2.69,4.7,1.28,1.28,0,0,1,.34,1.42c-.23.37-.9.93-1.3.59a27.53,27.53,0,0,1-3.37-5.29c-.38-1.2-1.29-5.26-1-6.23S52.06,40.81,52.45,40.76Z"/><path class="cls-16" d="M63.69,58.7c-.44.49-1.47,1.19-2.05.53a1.33,1.33,0,0,1,.37-1.8A5.37,5.37,0,0,1,63.93,57C65.17,56.85,64.12,58.21,63.69,58.7Z"/><path class="cls-16" d="M60,60.36a1.37,1.37,0,0,0-.39.38,4.41,4.41,0,0,0-.46.76.84.84,0,0,0-.1.63.59.59,0,0,0,.45.35,1.27,1.27,0,0,0,.59-.05c.62-.18,1.89-.88,1.9-1.66S60.48,60.08,60,60.36Z"/><path class="cls-16" d="M63.4,56.35a1.88,1.88,0,0,0,1.2-.27A1.74,1.74,0,0,0,65,55.5c.3-.58,1.09-1.66.27-2a2.16,2.16,0,0,0-1.76.18,2.45,2.45,0,0,0-.74,1.21C62.46,55.76,62.21,56.34,63.4,56.35Z"/><path class="cls-4" d="M80.24,43.58a14.73,14.73,0,1,0-24.9-.72l-.26.82A2.69,2.69,0,0,0,56.84,47l1.25.39L57.8,50l-.13,1.19-.13,1.19a1.86,1.86,0,0,0,1.65,2l1,.11a1.86,1.86,0,0,0,2-1.65l.13-1.19,1.51.16-.13,1.19a1.86,1.86,0,0,0,1.65,2l1,.11a1.86,1.86,0,0,0,2-1.65l.13-1.19a3.76,3.76,0,0,1,5.19.55l-.13,1.19c-.11,1,.3,1.9,1.31,2l1,.11c1,.11,1.74-.84,1.85-1.86l.06-1.14a2.33,2.33,0,0,0,.72-1A17.76,17.76,0,0,0,78.94,49l.3,0a2,2,0,0,0,1.57-2.27Z"/><circle class="cls-16" cx="63.83" cy="41.77" r="4.98" transform="translate(15.53 100.82) rotate(-83.92)"/><ellipse class="cls-16" cx="76.84" cy="43.16" rx="3.39" ry="1.8" transform="translate(25.79 115) rotate(-83.92)"/><path class="cls-16" d="M73.22,47.46c-.13-.63-.5-1.09-.84-1l-.07,0a.58.58,0,0,0-.27-.37c-.41-.22-1.09.23-1.51,1s-.42,1.59,0,1.82,1.09-.23,1.51-1v0c.16.53.49.9.79.84S73.35,48.09,73.22,47.46Z"/><path class="cls-3" d="M56.22,52.06c3.67-1.27,6-.28,9.3.91s5.35,1.95,6.8,2,3.28,1.93,1.88,2.4-11.57-4.22-13.07-3.84,1.32,2.39,3,2.86a49,49,0,0,0,5.81,1.43c2.26.37,6.66-3.14,6.64-.57s-2,2.4-3.7,2.29-7.72-.27-10.3-1.4S52.74,53.26,56.22,52.06Z"/><path class="cls-4" d="M51.16,38.4A2,2,0,0,0,49,37c-1.23,0-.72,1.52-1.79,2h0a2,2,0,0,0-.57.19,2.4,2.4,0,0,0-.82,3.27,2.69,2.69,0,0,0,1.5,1.32l.09.09a3.35,3.35,0,0,1,1.94,1.75c.69,1.42,3.76,6.33,3.95,7.6s1.34,2.33,2.09,1.91.35-1.68.79-2,2.16-1.38,1.33-2.58-1.65-.7-3-2.06-2.86-3.43-2.73-5.26c0-.39.06-.75.09-1.06a2.18,2.18,0,0,0,.14-2.34C52.54,38.55,51.43,39.22,51.16,38.4Z"/><path class="cls-4" d="M72.42,54.95c-2.85,2.44,1.82,3.62,2.36,5s.52,3.75,2.86,4.37-.37-1.45-.35-2.69,1.11-.9,2.29-.18-.14,3.22.79,3.79,1.76-3.64,1.5-4.34a13.12,13.12,0,0,0-2.24-2.49,3.92,3.92,0,0,1,2,.8c.7.68,1.44,3.59,2.17,3.26s0-2.35,0-2.35l-.31-2.72A7.49,7.49,0,0,0,80.8,55.3c-1.26-.36-4-2-5-1.85S74.65,53,72.42,54.95Z"/><path class="cls-1" d="M159.93,90.39c2,.73,4.43.64,4.91,1.93s.46,2.33-.53,2.56-2.81.81-4,.06-1.21.37-2.09.74-3.41,1.36-3.16-1.12S157.2,89.37,159.93,90.39Z"/><path class="cls-2" d="M161.94,56a1.83,1.83,0,0,0-2-1.29c-1.12,0-.69,1.38-1.68,1.79h0a1.82,1.82,0,0,0-.53.16,2.19,2.19,0,0,0-.81,3,2.46,2.46,0,0,0,1.34,1.23l.08.08a3.06,3.06,0,0,1,1.75,1.64c.61,1.31,3.32,5.86,3.47,7s1.18,2.16,1.87,1.79.35-1.53.76-1.81,2-1.22,1.26-2.33-1.5-.67-2.75-1.94-2.55-3.19-2.4-4.86c0-.36.07-.68.1-1a2,2,0,0,0,.17-2.13C163.2,56.2,162.17,56.8,161.94,56Z"/><path class="cls-3" d="M164.53,67.73c2.77-2.22,5.09-2.09,8.3-2.08s5.21,0,6.47-.38,3.42.65,2.36,1.49-11.27-.07-12.44.72,1.87,1.65,3.46,1.54a44.82,44.82,0,0,0,5.45-.56c2.06-.38,4.77-4.76,5.55-2.54s-1,2.68-2.48,3.11-6.74,2.15-9.31,2S161.91,69.84,164.53,67.73Z"/><path class="cls-4" d="M181.71,66.22c-2,2.78,2.39,2.83,3.17,3.94s1.26,3.23,3.48,3.28-.64-1.21-.88-2.32.79-1,2-.65.56,2.9,1.52,3.2.78-3.61.4-4.18a12,12,0,0,0-2.52-1.74,3.59,3.59,0,0,1,2,.28c.77.45,2,2.88,2.63,2.43s-.54-2.08-.54-2.08L192.09,66a6.85,6.85,0,0,0-2.84-1.28c-1.2-.05-4-1-4.88-.57S183.29,64,181.71,66.22Z"/><path class="cls-5" d="M144.54,72.84a1.48,1.48,0,0,1-.45-1.9c.33-.89,1.28-.21,1.89-.9h0a1.63,1.63,0,0,1,.28-.38,1.82,1.82,0,0,1,2.58.09,2,2,0,0,1,.59,1.38l0,.09a2.45,2.45,0,0,0,.79,1.8c.86.81,3.66,4.11,4.54,4.51s1.36,1.48.87,1.94-1.3-.09-1.64.16-1.53,1.3-2.2.43-.1-1.36-.74-2.68-1.78-2.83-3.14-3.12l-.79-.16a1.62,1.62,0,0,1-1.73-.39C144.31,73.89,145.08,73.22,144.54,72.84Z"/><path class="cls-2" d="M155,77.8c2.41,2,2.5,3.91,2.81,6.57s.48,4.32,1,5.3-.3,2.93-1.2,2.17-1-9.34-1.9-10.19-1.41,1.79-1.15,3.09a31.82,31.82,0,0,0,1.07,4.43c.57,1.65,5,3.26,3,4.22s-2.67-.42-3.24-1.61-2.72-5.27-2.79-7.42S152.7,75.93,155,77.8Z"/><path class="cls-5" d="M135,69.31a1.48,1.48,0,0,1,1.35-1.41c.93-.21.87,1,1.78,1.1h0a1.63,1.63,0,0,1,.47,0,1.82,1.82,0,0,1,1.32,2.21,2,2,0,0,1-.84,1.24l0,.08A2.45,2.45,0,0,0,138,74.2c-.21,1.16-1.45,5.3-1.32,6.26s-.5,1.95-1.15,1.79-.63-1.15-1-1.29-1.93-.58-1.56-1.61,1.09-.83,1.84-2.08,1.4-3,.91-4.33c-.11-.28-.21-.53-.3-.75a1.62,1.62,0,0,1-.61-1.66C134,69.68,135,70,135,69.31Z"/><path class="cls-2" d="M136.5,80.83c-1.93,2.44-3.87,2.57-6.52,2.92s-4.31.55-5.28,1.09-2.93-.25-2.18-1.17,9.32-1.18,10.16-2.07-1.81-1.38-3.11-1.1a31.82,31.82,0,0,0-4.41,1.14c-1.64.59-3.17,5.09-4.17,3s.38-2.68,1.55-3.27,5.22-2.81,7.37-2.92S138.33,78.52,136.5,80.83Z"/><path class="cls-1" d="M123.59,86.55c-1.5,1.47-2.45,3.75-3.82,3.64s-2.3-.57-2.09-1.56.45-2.89,1.64-3.65.17-1.25.21-2.21.21-3.66,2.35-2.39S125.67,84.51,123.59,86.55Z"/><path class="cls-2" d="M138.88,67c-4,.82-6.23,2.6-3.48,4.08s6.42,2.53,6.55,4.72,4.83-.48,4.52-2.31,2.37-3.37,2.37-4-3.19-2.69-4.32-2.86a42.65,42.65,0,0,0-5.64.39h0"/><path class="cls-17" d="M159.66,46.72l-.9-1.44a2.17,2.17,0,0,0-2.41-.95l-.34-.54a1.27,1.27,0,0,0-1.74-.41l-.35.22a1.27,1.27,0,0,0-.41,1.74l.34.54a2.17,2.17,0,0,0-.22,2.58l.9,1.44a2.17,2.17,0,0,0,3,.7l1.44-.9A2.17,2.17,0,0,0,159.66,46.72Z"/><path class="cls-18" d="M142.79,64.9l-1.67-.33a2.17,2.17,0,0,0-2.33,1.12l-.63-.12a1.27,1.27,0,0,0-1.48,1l-.08.4a1.27,1.27,0,0,0,1,1.48l.63.12A2.17,2.17,0,0,0,140,70.49l1.67.33a2.17,2.17,0,0,0,2.54-1.71l.33-1.67A2.17,2.17,0,0,0,142.79,64.9Z"/><path class="cls-19" d="M143,61.8l-1.67-.33A2.17,2.17,0,0,0,139,62.6l-.63-.12a1.27,1.27,0,0,0-1.48,1l-.08.4a1.27,1.27,0,0,0,1,1.48l.63.12a2.17,2.17,0,0,0,1.74,1.92l1.67.33A2.17,2.17,0,0,0,144.43,66l.33-1.67A2.17,2.17,0,0,0,143,61.8Z"/><path class="cls-20" d="M144.55,60.24l-1.38-1a2.17,2.17,0,0,0-2.59,0l-.52-.37a1.27,1.27,0,0,0-1.76.29l-.24.33a1.27,1.27,0,0,0,.29,1.76l.52.37a2.17,2.17,0,0,0,.78,2.47l1.38,1a2.17,2.17,0,0,0,3-.49l1-1.38A2.17,2.17,0,0,0,144.55,60.24Z"/><path class="cls-21" d="M146.7,57.68l-1.15-1.25a2.17,2.17,0,0,0-2.54-.49l-.43-.47a1.27,1.27,0,0,0-1.79-.08l-.3.28a1.27,1.27,0,0,0-.08,1.79l.43.47a2.17,2.17,0,0,0,.26,2.58l1.15,1.25a2.17,2.17,0,0,0,3.06.14l1.25-1.15A2.17,2.17,0,0,0,146.7,57.68Z"/><path class="cls-22" d="M148.4,54.77l-1.15-1.25a2.17,2.17,0,0,0-2.54-.49l-.43-.47a1.27,1.27,0,0,0-1.79-.08l-.3.28a1.27,1.27,0,0,0-.08,1.79l.43.47a2.17,2.17,0,0,0,.26,2.58L144,58.84A2.17,2.17,0,0,0,147,59l1.25-1.15A2.17,2.17,0,0,0,148.4,54.77Z"/><path class="cls-23" d="M150.83,52.38l-1.15-1.25a2.17,2.17,0,0,0-2.54-.49l-.43-.47a1.27,1.27,0,0,0-1.79-.08l-.3.28a1.27,1.27,0,0,0-.08,1.79l.43.47a2.17,2.17,0,0,0,.26,2.58l1.15,1.25a2.17,2.17,0,0,0,3.06.14l1.25-1.15A2.17,2.17,0,0,0,150.83,52.38Z"/><path class="cls-24" d="M153.6,50l-1.15-1.25a2.17,2.17,0,0,0-2.54-.49l-.43-.47a1.27,1.27,0,0,0-1.79-.08l-.3.28a1.27,1.27,0,0,0-.08,1.79l.43.47a2.17,2.17,0,0,0,.26,2.58L149.14,54a2.17,2.17,0,0,0,3.06.14L153.46,53A2.17,2.17,0,0,0,153.6,50Z"/><path class="cls-25" d="M156.5,48.24l-.93-1.42a2.17,2.17,0,0,0-2.43-.88l-.35-.53A1.27,1.27,0,0,0,151,45l-.34.23a1.27,1.27,0,0,0-.36,1.75l.35.53a2.17,2.17,0,0,0-.15,2.58l.93,1.42a2.17,2.17,0,0,0,3,.62l1.42-.93A2.17,2.17,0,0,0,156.5,48.24Z"/><path class="cls-26" d="M157.73,43.83c-3.88-2-8.79-.72-12.34,1.86A9.21,9.21,0,0,0,142,49.75a10.14,10.14,0,0,0,.27,6.3,21,21,0,0,0,6,10.1c1.87,1.62,4.64,2.77,6.78,1.53,1.66-1,2.32-3,2.91-4.82s1.44-3.84,3.24-4.53a.86.86,0,0,1,.48-.07c.48.1.52.77.42,1.25a13.59,13.59,0,0,1-2.81,5.8,5.94,5.94,0,0,0-1.19,1.76,1.58,1.58,0,0,0,.55,1.89c.75.41,1.66-.14,2.3-.71A20,20,0,0,0,167.6,54a6.45,6.45,0,0,0-.47-3,2.8,2.8,0,0,0-2.37-1.68c-2,0-2.08-.78-3.32-2.28A12.41,12.41,0,0,0,157.73,43.83Z"/><path class="cls-16" d="M144.74,49.69a2.4,2.4,0,0,1,1.67,1.41c.43,1.16.38,4.67,1.21,6.21a38.83,38.83,0,0,0,4.25,5.57,1.64,1.64,0,0,1,.67,1.74c-.23.49-1,1.27-1.56.89a37,37,0,0,1-5.21-6.23c-.69-1.45-2.56-6.44-2.37-7.68S144.25,49.79,144.74,49.69Z"/><path class="cls-16" d="M148.1,47a2.24,2.24,0,0,1,1.33,1.37c.29,1,0,3.88.63,5.24a35.5,35.5,0,0,0,3.25,5.1c.47.51.69,1.14.46,1.51s-.92.92-1.38.53a34.09,34.09,0,0,1-4-5.76c-.5-1.28-1.76-5.6-1.52-6.6S147.68,47,148.1,47Z"/><path class="cls-16" d="M152.64,45.87a1.76,1.76,0,0,1,1.14,1.23c.21.95-.21,3.71.28,5a29,29,0,0,0,2.69,4.7,1.28,1.28,0,0,1,.34,1.42c-.23.37-.9.93-1.3.59a27.53,27.53,0,0,1-3.37-5.29c-.38-1.2-1.29-5.26-1-6.23S152.24,45.92,152.64,45.87Z"/><path class="cls-16" d="M163.87,63.81c-.44.49-1.47,1.19-2.05.53a1.33,1.33,0,0,1,.37-1.8,5.37,5.37,0,0,1,1.93-.39C165.36,62,164.31,63.32,163.87,63.81Z"/><path class="cls-16" d="M160.19,65.47a1.37,1.37,0,0,0-.39.38,4.41,4.41,0,0,0-.46.76.84.84,0,0,0-.1.63.59.59,0,0,0,.45.35,1.27,1.27,0,0,0,.59-.05c.62-.18,1.89-.88,1.9-1.66S160.67,65.19,160.19,65.47Z"/><path class="cls-16" d="M163.58,61.46a1.88,1.88,0,0,0,1.2-.27,1.74,1.74,0,0,0,.43-.59c.3-.58,1.09-1.66.27-2a2.16,2.16,0,0,0-1.76.18A2.45,2.45,0,0,0,163,60C162.64,60.87,162.4,61.45,163.58,61.46Z"/><path class="cls-4" d="M180.42,48.69a14.73,14.73,0,1,0-24.9-.72l-.26.82A2.69,2.69,0,0,0,157,52.15l1.25.39L158,55.15l-.13,1.19-.13,1.19a1.86,1.86,0,0,0,1.65,2l1,.11a1.86,1.86,0,0,0,2-1.65l.13-1.19,1.51.16-.13,1.19a1.86,1.86,0,0,0,1.65,2l1,.11a1.86,1.86,0,0,0,2-1.65l.13-1.19a3.76,3.76,0,0,1,5.19.55l-.13,1.19c-.11,1,.3,1.9,1.31,2l1,.11c1,.11,1.74-.84,1.85-1.86l.06-1.14a2.33,2.33,0,0,0,.72-1,17.76,17.76,0,0,0,.35-3.29l.3,0A2,2,0,0,0,181,51.78Z"/><circle class="cls-16" cx="164.02" cy="46.88" r="4.98" transform="translate(100.03 205.01) rotate(-83.92)"/><ellipse class="cls-16" cx="177.03" cy="48.27" rx="3.39" ry="1.8" transform="translate(110.28 219.19) rotate(-83.92)"/><path class="cls-16" d="M173.41,52.57c-.13-.63-.5-1.09-.84-1l-.07,0a.58.58,0,0,0-.27-.37c-.41-.22-1.09.23-1.51,1s-.42,1.59,0,1.82,1.09-.23,1.51-1v0c.16.53.49.9.79.84S173.53,53.2,173.41,52.57Z"/><path class="cls-3" d="M156.41,57.17c3.67-1.27,6-.28,9.3.91s5.35,1.95,6.8,2,3.28,1.93,1.88,2.4-11.57-4.22-13.07-3.84,1.32,2.39,3,2.86a49,49,0,0,0,5.81,1.43c2.26.37,6.66-3.14,6.64-.57s-2,2.4-3.7,2.29-7.72-.27-10.3-1.4S152.93,58.37,156.41,57.17Z"/><path class="cls-4" d="M151.35,43.51a2,2,0,0,0-2.19-1.36c-1.23,0-.72,1.52-1.79,2h0a2,2,0,0,0-.57.19,2.4,2.4,0,0,0-.82,3.27,2.69,2.69,0,0,0,1.5,1.32l.09.09a3.35,3.35,0,0,1,1.94,1.75c.69,1.42,3.76,6.33,3.95,7.6s1.34,2.33,2.09,1.91.35-1.68.79-2,2.16-1.38,1.33-2.58-1.65-.7-3-2.06-2.86-3.43-2.73-5.26c0-.39.06-.75.09-1.06a2.18,2.18,0,0,0,.14-2.34C152.73,43.66,151.62,44.33,151.35,43.51Z"/><path class="cls-4" d="M172.61,60.06c-2.85,2.44,1.82,3.62,2.36,5s.52,3.75,2.86,4.37-.37-1.45-.35-2.69,1.11-.9,2.29-.18-.14,3.22.79,3.79,1.76-3.64,1.5-4.34a13.12,13.12,0,0,0-2.24-2.49,3.92,3.92,0,0,1,2,.8c.7.68,1.44,3.59,2.17,3.26s0-2.35,0-2.35l-.31-2.72A7.49,7.49,0,0,0,181,60.41c-1.26-.36-4-2-5-1.85S174.84,58.15,172.61,60.06Z"/><path class="cls-1" d="M252.21,94.34c1.77,1.13,4.2,1.56,4.4,2.92s0,2.37-1.06,2.39-2.92.2-3.93-.78-1.26.11-2.2.29-3.62.61-2.85-1.76S249.76,92.77,252.21,94.34Z"/><path class="cls-2" d="M262.1,58a1.83,1.83,0,0,0-1.88-1.42c-1.12-.07-.79,1.33-1.8,1.67h0a1.82,1.82,0,0,0-.54.13,2.19,2.19,0,0,0-1,2.92,2.46,2.46,0,0,0,1.25,1.33l.08.09a3.06,3.06,0,0,1,1.62,1.76c.51,1.35,2.89,6.08,3,7.26s1,2.24,1.74,1.92.46-1.5.89-1.75,2.09-1.08,1.43-2.24-1.45-.78-2.6-2.13-2.31-3.37-2-5c.06-.36.12-.67.17-1a2,2,0,0,0,.32-2.12C263.34,58.27,262.27,58.79,262.1,58Z"/><path class="cls-3" d="M263.84,69.87c2.92-2,5.23-1.71,8.43-1.48s5.19.41,6.48.09,3.37.9,2.24,1.65-11.24-.89-12.46-.18,1.75,1.78,3.34,1.79a44.82,44.82,0,0,0,5.48-.16c2.09-.23,5.1-4.4,5.72-2.13s-1.17,2.6-2.7,2.93-6.88,1.65-9.43,1.28S261.07,71.78,263.84,69.87Z"/><path class="cls-4" d="M281.55,67.39c-2,2.78,2.39,2.83,3.17,3.94s1.26,3.23,3.48,3.28-.64-1.21-.88-2.32.79-1,2-.65.56,2.9,1.52,3.2.78-3.61.4-4.18a12,12,0,0,0-2.52-1.74,3.59,3.59,0,0,1,2,.28c.77.45,2,2.88,2.63,2.43s-.54-2.08-.54-2.08l-.86-2.36a6.85,6.85,0,0,0-2.84-1.28c-1.2-.05-4-1-4.88-.57S283.12,65.22,281.55,67.39Z"/><path class="cls-5" d="M242.85,73.12a1.48,1.48,0,0,1,.13-1.94c.58-.76,1.29.18,2.07-.31h0a1.63,1.63,0,0,1,.38-.28,1.82,1.82,0,0,1,2.44.84,2,2,0,0,1,.16,1.49V73a2.45,2.45,0,0,0,.23,2c.58,1,2.29,5,3,5.64s.87,1.81.26,2.11-1.22-.47-1.62-.33-1.85.79-2.23-.23.3-1.33.08-2.78-.88-3.23-2.09-3.9l-.71-.38a1.62,1.62,0,0,1-1.54-.88C242.33,74.05,243.25,73.63,242.85,73.12Z"/><path class="cls-2" d="M251.38,80.92c1.72,2.59,1.25,4.48.76,7.1s-.81,4.27-.6,5.36-1.14,2.71-1.79,1.72,1.76-9.23,1.17-10.3-1.87,1.3-2,2.62a31.82,31.82,0,0,0-.28,4.55c.06,1.75,3.86,4.59,1.61,4.91s-2.43-1.19-2.63-2.48-1.06-5.83-.49-7.92S249.75,78.46,251.38,80.92Z"/><path class="cls-5" d="M233.87,70.25a1.48,1.48,0,0,1,.36-1.91c.67-.68,1.26.33,2.09-.05h0a1.63,1.63,0,0,1,.41-.23,1.82,1.82,0,0,1,2.32,1.13,2,2,0,0,1,0,1.5s0,.06,0,.09a2.45,2.45,0,0,0,0,2c.45,1.09,1.67,5.24,2.31,6s.64,1.9,0,2.13-1.15-.62-1.56-.52-1.93.56-2.18-.5.46-1.29.41-2.75-.48-3.31-1.6-4.13l-.66-.47a1.62,1.62,0,0,1-1.42-1.06C233.24,71.11,234.21,70.81,233.87,70.25Z"/><path class="cls-2" d="M241.32,79.57c-.86,3-2.6,3.85-4.92,5.18s-3.77,2.15-4.47,3-2.8.89-2.46-.25,8.17-4.64,8.61-5.78-2.2-.59-3.29.17a31.82,31.82,0,0,0-3.65,2.73c-1.29,1.17-1,5.92-2.7,4.41s-.67-2.62.19-3.61,3.76-4.58,5.71-5.5S242.13,76.74,241.32,79.57Z"/><path class="cls-1" d="M231.56,89.76c-.82,1.93-.84,4.4-2.15,4.82s-2.35.35-2.53-.65-.68-2.84.12-4-.32-1.22-.65-2.12-1.2-3.47,1.26-3.1S232.7,87.09,231.56,89.76Z"/><path class="cls-2" d="M238.31,66.87c-4.06.53-6.41,2.14-3.76,3.81s6.22,3,6.19,5.19,4.85-.13,4.68-2S248,70.7,248.06,70s-3-2.91-4.1-3.16a42.65,42.65,0,0,0-5.66,0h0"/><path class="cls-27" d="M260.5,48.55,259.71,47a2.17,2.17,0,0,0-2.34-1.12l-.3-.57a1.27,1.27,0,0,0-1.71-.53L255,45a1.27,1.27,0,0,0-.53,1.71l.3.57a2.17,2.17,0,0,0-.41,2.56l.79,1.51a2.17,2.17,0,0,0,2.93.91l1.51-.79A2.17,2.17,0,0,0,260.5,48.55Z"/><path class="cls-28" d="M242.36,65l-1.64-.45a2.17,2.17,0,0,0-2.41.95l-.62-.17a1.27,1.27,0,0,0-1.55.89l-.11.4a1.27,1.27,0,0,0,.89,1.55l.62.17a2.17,2.17,0,0,0,1.6,2l1.64.45a2.17,2.17,0,0,0,2.66-1.52l.45-1.64A2.17,2.17,0,0,0,242.36,65Z"/><path class="cls-29" d="M242.84,62.4l-1.64-.45a2.17,2.17,0,0,0-2.41.95l-.62-.17a1.27,1.27,0,0,0-1.55.89l-.11.4a1.27,1.27,0,0,0,.89,1.55l.62.17a2.17,2.17,0,0,0,1.6,2l1.64.45a2.17,2.17,0,0,0,2.66-1.52l.45-1.64A2.17,2.17,0,0,0,242.84,62.4Z"/><path class="cls-30" d="M244.45,60.95l-1.3-1.09a2.17,2.17,0,0,0-2.58-.15l-.49-.41a1.27,1.27,0,0,0-1.78.16l-.26.31a1.27,1.27,0,0,0,.16,1.78l.49.41a2.17,2.17,0,0,0,.6,2.52l1.3,1.09a2.17,2.17,0,0,0,3.05-.27l1.09-1.3A2.17,2.17,0,0,0,244.45,60.95Z"/><path class="cls-31" d="M246.78,58.55l-1.05-1.33a2.17,2.17,0,0,0-2.5-.67l-.4-.5a1.27,1.27,0,0,0-1.78-.21l-.32.25a1.27,1.27,0,0,0-.21,1.78l.4.5A2.17,2.17,0,0,0,241,61L242,62.29a2.17,2.17,0,0,0,3,.36l1.33-1.05A2.17,2.17,0,0,0,246.78,58.55Z"/><path class="cls-32" d="M248.69,55.76l-1.05-1.33a2.17,2.17,0,0,0-2.5-.67l-.4-.5a1.27,1.27,0,0,0-1.78-.21l-.32.25a1.27,1.27,0,0,0-.21,1.78l.4.5a2.17,2.17,0,0,0,.07,2.59L244,59.51a2.17,2.17,0,0,0,3,.36l1.33-1.05A2.17,2.17,0,0,0,248.69,55.76Z"/><path class="cls-33" d="M251.28,53.56l-1.05-1.33a2.17,2.17,0,0,0-2.5-.67l-.4-.5a1.27,1.27,0,0,0-1.78-.21l-.32.25a1.27,1.27,0,0,0-.21,1.78l.4.5a2.17,2.17,0,0,0,.07,2.59l1.05,1.33a2.17,2.17,0,0,0,3,.36l1.33-1.05A2.17,2.17,0,0,0,251.28,53.56Z"/><path class="cls-34" d="M254.22,51.36,253.16,50a2.17,2.17,0,0,0-2.5-.67l-.4-.5a1.27,1.27,0,0,0-1.78-.21l-.32.25a1.27,1.27,0,0,0-.21,1.78l.4.5a2.17,2.17,0,0,0,.07,2.59l1.05,1.33a2.17,2.17,0,0,0,3,.36l1.33-1.05A2.17,2.17,0,0,0,254.22,51.36Z"/><path class="cls-35" d="M257.23,49.85l-.83-1.48A2.17,2.17,0,0,0,254,47.3l-.31-.56a1.27,1.27,0,0,0-1.72-.49l-.36.2a1.27,1.27,0,0,0-.49,1.72l.31.56a2.17,2.17,0,0,0-.34,2.57l.83,1.48a2.17,2.17,0,0,0,2.95.84l1.48-.83A2.17,2.17,0,0,0,257.23,49.85Z"/><path class="cls-36" d="M258.78,45.53c-3.72-2.31-8.72-1.36-12.44,1a9.21,9.21,0,0,0-3.71,3.8,10.14,10.14,0,0,0-.19,6.3,21,21,0,0,0,5.29,10.51c1.75,1.75,4.42,3.1,6.65,2,1.73-.84,2.53-2.82,3.25-4.6s1.72-3.73,3.56-4.29a.86.86,0,0,1,.48,0c.47.14.46.81.32,1.28a13.59,13.59,0,0,1-3.22,5.58,5.94,5.94,0,0,0-1.32,1.67,1.58,1.58,0,0,0,.41,1.92c.72.46,1.66,0,2.34-.54a20,20,0,0,0,7.69-13.69,6.45,6.45,0,0,0-.25-3,2.8,2.8,0,0,0-2.24-1.85c-2-.15-2-.93-3.14-2.52A12.41,12.41,0,0,0,258.78,45.53Z"/><path class="cls-16" d="M245.4,50.43A2.4,2.4,0,0,1,247,52c.34,1.19,0,4.69.76,6.28a38.83,38.83,0,0,0,3.84,5.86,1.64,1.64,0,0,1,.55,1.78c-.27.47-1.08,1.19-1.62.77a37,37,0,0,1-4.75-6.59c-.59-1.5-2.09-6.61-1.81-7.83S244.9,50.5,245.4,50.43Z"/><path class="cls-16" d="M249,48a2.24,2.24,0,0,1,1.22,1.46c.22,1-.26,3.87.25,5.28A35.5,35.5,0,0,0,253.29,60c.44.55.6,1.19.35,1.54s-1,.85-1.41.43a34.09,34.09,0,0,1-3.59-6c-.4-1.31-1.35-5.72-1-6.69S248.53,48,249,48Z"/><path class="cls-16" d="M253.55,47.2a1.76,1.76,0,0,1,1.05,1.31c.14,1-.48,3.69-.08,5a29,29,0,0,0,2.35,4.88,1.28,1.28,0,0,1,.23,1.44c-.26.35-1,.86-1.34.5a27.53,27.53,0,0,1-3-5.52c-.3-1.22-.91-5.34-.56-6.29S253.16,47.22,253.55,47.2Z"/><path class="cls-16" d="M263.47,65.9c-.47.45-1.56,1.08-2.09.38a1.33,1.33,0,0,1,.5-1.77,5.37,5.37,0,0,1,1.95-.25C265.08,64.16,263.94,65.45,263.47,65.9Z"/><path class="cls-16" d="M259.67,67.29a1.37,1.37,0,0,0-.41.35,4.41,4.41,0,0,0-.51.72.84.84,0,0,0-.15.62.59.59,0,0,0,.43.39,1.27,1.27,0,0,0,.59,0c.63-.13,1.95-.74,2-1.52S260.17,67,259.67,67.29Z"/><path class="cls-16" d="M263.35,63.54a1.88,1.88,0,0,0,1.22-.18,1.74,1.74,0,0,0,.47-.56c.34-.56,1.21-1.57.42-2a2.16,2.16,0,0,0-1.77.06,2.45,2.45,0,0,0-.83,1.16C262.45,62.88,262.16,63.45,263.35,63.54Z"/><path class="cls-4" d="M281.07,52a14.73,14.73,0,1,0-24.79-2.52l-.32.8a2.69,2.69,0,0,0,1.51,3.48l1.22.48-.47,2.58L258,58l-.21,1.17a1.86,1.86,0,0,0,1.5,2.15l1,.18a1.86,1.86,0,0,0,2.15-1.5l.21-1.17,1.49.27-.21,1.17a1.86,1.86,0,0,0,1.5,2.15l1,.18a1.86,1.86,0,0,0,2.15-1.5l.21-1.17a3.76,3.76,0,0,1,5.14.93l-.21,1.17c-.18,1,.16,1.91,1.16,2.09l1,.18a1.86,1.86,0,0,0,2-1.72l.14-1.13a2.33,2.33,0,0,0,.79-.94,17.76,17.76,0,0,0,.59-3.25h.3a2,2,0,0,0,1.73-2.15Z"/><circle class="cls-16" cx="264.83" cy="49.03" r="4.98" transform="translate(169.55 300.95) rotate(-79.77)"/><ellipse class="cls-16" cx="277.71" cy="51.35" rx="3.39" ry="1.8" transform="translate(177.86 315.53) rotate(-79.77)"/><path class="cls-16" d="M273.79,55.38c-.08-.64-.42-1.12-.76-1.08l-.07,0a.58.58,0,0,0-.24-.39c-.4-.25-1.1.15-1.58.9s-.54,1.56-.14,1.81,1.1-.15,1.58-.9l0,0c.12.54.42.93.73.89S273.87,56,273.79,55.38Z"/><path class="cls-3" d="M256.5,58.74c3.75-1,6,.16,9.21,1.58s5.2,2.33,6.64,2.47,3.13,2.16,1.7,2.53-11.24-5-12.76-4.77,1.14,2.48,2.78,3.07a49,49,0,0,0,5.7,1.85c2.23.53,6.87-2.65,6.66-.09s-2.16,2.25-3.86,2-7.68-.83-10.18-2.15S252.94,59.69,256.5,58.74Z"/><path class="cls-4" d="M252.44,44.75a2,2,0,0,0-2.08-1.52c-1.23,0-.83,1.47-1.93,1.86h0a2,2,0,0,0-.58.15,2.4,2.4,0,0,0-1.05,3.21,2.69,2.69,0,0,0,1.4,1.42l.08.09a3.35,3.35,0,0,1,1.81,1.89c.59,1.47,3.29,6.58,3.39,7.87s1.17,2.42,1.94,2.06.47-1.65.93-1.93,2.26-1.22,1.51-2.48-1.6-.82-2.89-2.27-2.6-3.63-2.34-5.44c.06-.39.12-.74.17-1.05a2.18,2.18,0,0,0,.31-2.32C253.81,45,252.65,45.59,252.44,44.75Z"/><path class="cls-4" d="M272.45,62.79c-3,2.23,1.55,3.74,2,5.16s.25,3.78,2.53,4.57-.26-1.47-.15-2.7,1.17-.82,2.3,0-.38,3.2.52,3.83,2-3.5,1.81-4.22a13.12,13.12,0,0,0-2-2.65,3.92,3.92,0,0,1,2,.95c.65.73,1.18,3.68,1.93,3.4s.12-2.35.12-2.35L283.31,66a7.49,7.49,0,0,0-2.53-2.27c-1.23-.46-3.83-2.33-4.89-2.21S274.81,61.05,272.45,62.79Z"/><path class="cls-1" d="M347.75,94.63c1.77,1.13,4.2,1.56,4.4,2.92s0,2.37-1.06,2.39-2.92.2-3.93-.78-1.26.11-2.2.29-3.62.61-2.85-1.76S345.3,93.06,347.75,94.63Z"/><path class="cls-2" d="M362.63,59.23a1.83,1.83,0,0,0-1.88-1.42c-1.12-.07-.79,1.33-1.8,1.67h0a1.82,1.82,0,0,0-.54.13,2.19,2.19,0,0,0-1,2.92,2.46,2.46,0,0,0,1.25,1.33l.08.09a3.06,3.06,0,0,1,1.62,1.76c.51,1.35,2.89,6.08,3,7.26s1,2.24,1.74,1.92.46-1.5.89-1.75S368,72,367.36,70.88s-1.45-.78-2.6-2.13-2.31-3.37-2-5c.06-.36.12-.67.17-1a2,2,0,0,0,.32-2.12C363.88,59.49,362.81,60,362.63,59.23Z"/><path class="cls-3" d="M364.37,71.08c2.92-2,5.23-1.71,8.43-1.48s5.19.41,6.48.09,3.37.9,2.24,1.65-11.24-.89-12.46-.18,1.75,1.78,3.34,1.79a44.82,44.82,0,0,0,5.48-.16c2.09-.23,5.1-4.4,5.72-2.13s-1.17,2.6-2.7,2.93-6.88,1.65-9.43,1.28S361.6,73,364.37,71.08Z"/><path class="cls-4" d="M382.08,68.6c-2,2.78,2.39,2.83,3.17,3.94s1.26,3.23,3.48,3.28-.64-1.21-.88-2.32.79-1,2-.65.56,2.9,1.52,3.2.78-3.61.4-4.18a12,12,0,0,0-2.52-1.74,3.59,3.59,0,0,1,2,.28c.77.45,2,2.88,2.63,2.43s-.54-2.08-.54-2.08l-.86-2.36a6.85,6.85,0,0,0-2.84-1.28c-1.2-.05-4-1-4.88-.57S383.65,66.43,382.08,68.6Z"/><path class="cls-5" d="M343.73,72a1.48,1.48,0,0,1,.94-1.71c.85-.44,1.09.7,2,.6h0a1.63,1.63,0,0,1,.46-.1A1.82,1.82,0,0,1,349,72.61,2,2,0,0,1,348.5,74l0,.09a2.45,2.45,0,0,0-.62,1.87c.09,1.18,0,5.5.35,6.39s0,2-.65,2-.91-.94-1.33-1-2-.06-1.92-1.15.84-1.08,1.24-2.48.57-3.29-.24-4.42l-.48-.65a1.62,1.62,0,0,1-1-1.45C342.86,72.65,343.88,72.66,343.73,72Z"/><path class="cls-2" d="M346.93,81.21c1.72,2.59,1.25,4.48.76,7.1s-.81,4.27-.6,5.36-1.14,2.71-1.79,1.72,1.76-9.23,1.17-10.3-1.87,1.3-2,2.62a31.82,31.82,0,0,0-.28,4.55c.06,1.75,3.86,4.59,1.61,4.91s-2.43-1.19-2.63-2.48-1.06-5.83-.49-7.92S345.29,78.76,346.93,81.21Z"/><path class="cls-2" d="M338.84,67.42c-4.06.53-6.41,2.14-3.76,3.81s6.22,3,6.19,5.19,4.85-.13,4.68-2,2.61-3.19,2.65-3.84-3-2.91-4.1-3.16a42.65,42.65,0,0,0-5.66,0h0"/><path class="cls-5" d="M335,72.92a1.48,1.48,0,0,1-.35-1.92c.38-.88,1.29-.14,1.93-.8h0a1.63,1.63,0,0,1,.3-.37,1.82,1.82,0,0,1,2.57.22,2,2,0,0,1,.51,1.41l0,.09a2.45,2.45,0,0,0,.7,1.84c.82.85,3.44,4.29,4.3,4.74s1.28,1.55.77,2-1.3-.16-1.65.08-1.6,1.22-2.22.32,0-1.37-.6-2.71-1.64-2.92-3-3.28l-.78-.2a1.62,1.62,0,0,1-1.7-.48C334.73,74,335.53,73.32,335,72.92Z"/><path class="cls-2" d="M344.91,77.9c.28,3.1-1,4.53-2.73,6.6s-2.75,3.36-3.09,4.42-2.3,1.84-2.39.66,6-7.27,6-8.49-2.26.25-3,1.34a31.82,31.82,0,0,0-2.42,3.86c-.79,1.56,1.2,5.88-.93,5.08s-1.57-2.2-1.12-3.44,1.86-5.63,3.35-7.19S344.65,75,344.91,77.9Z"/><path class="cls-1" d="M339.47,90.92c-.08,2.1.79,4.41-.28,5.27s-2.06,1.17-2.59.3-1.66-2.41-1.32-3.78-.74-1-1.36-1.75-2.37-2.8.06-3.35S339.58,88,339.47,90.92Z"/><path class="cls-37" d="M361,49.77l-.79-1.51a2.17,2.17,0,0,0-2.34-1.12l-.3-.57a1.27,1.27,0,0,0-1.71-.53l-.36.19a1.27,1.27,0,0,0-.53,1.71l.3.57a2.17,2.17,0,0,0-.41,2.56l.79,1.51a2.17,2.17,0,0,0,2.93.91l1.51-.79A2.17,2.17,0,0,0,361,49.77Z"/><path class="cls-38" d="M342.89,65.56l-1.64-.45a2.17,2.17,0,0,0-2.41.95l-.62-.17a1.27,1.27,0,0,0-1.55.89l-.11.4a1.27,1.27,0,0,0,.89,1.55l.62.17a2.17,2.17,0,0,0,1.6,2l1.64.45A2.17,2.17,0,0,0,344,69.86l.45-1.64A2.17,2.17,0,0,0,342.89,65.56Z"/><path class="cls-39" d="M343.37,62.49,341.73,62a2.17,2.17,0,0,0-2.41.95l-.62-.17a1.27,1.27,0,0,0-1.55.89l-.11.4a1.27,1.27,0,0,0,.89,1.55l.62.17a2.17,2.17,0,0,0,1.6,2l1.64.45a2.17,2.17,0,0,0,2.66-1.52l.45-1.64A2.17,2.17,0,0,0,343.37,62.49Z"/><path class="cls-40" d="M345,62.16l-1.3-1.09a2.17,2.17,0,0,0-2.58-.15l-.49-.41a1.27,1.27,0,0,0-1.78.16l-.26.31a1.27,1.27,0,0,0,.16,1.78l.49.41a2.17,2.17,0,0,0,.6,2.52l1.3,1.09a2.17,2.17,0,0,0,3.05-.27l1.09-1.3A2.17,2.17,0,0,0,345,62.16Z"/><path class="cls-41" d="M347.31,59.76l-1.05-1.33a2.17,2.17,0,0,0-2.5-.67l-.4-.5a1.27,1.27,0,0,0-1.78-.21l-.32.25a1.27,1.27,0,0,0-.21,1.78l.4.5a2.17,2.17,0,0,0,.07,2.59l1.05,1.33a2.17,2.17,0,0,0,3,.36L347,62.81A2.17,2.17,0,0,0,347.31,59.76Z"/><path class="cls-42" d="M349.22,57l-1.05-1.33a2.17,2.17,0,0,0-2.5-.67l-.4-.5a1.27,1.27,0,0,0-1.78-.21l-.32.25A1.27,1.27,0,0,0,343,56.3l.4.5a2.17,2.17,0,0,0,.07,2.59l1.05,1.33a2.17,2.17,0,0,0,3,.36L348.87,60A2.17,2.17,0,0,0,349.22,57Z"/><path class="cls-43" d="M351.81,54.78l-1.05-1.33a2.17,2.17,0,0,0-2.5-.67l-.4-.5a1.27,1.27,0,0,0-1.78-.21l-.32.25a1.27,1.27,0,0,0-.21,1.78l.4.5a2.17,2.17,0,0,0,.07,2.59l1.05,1.33a2.17,2.17,0,0,0,3,.36l1.33-1.05A2.17,2.17,0,0,0,351.81,54.78Z"/><path class="cls-44" d="M354.75,52.57l-1.05-1.33a2.17,2.17,0,0,0-2.5-.67l-.4-.5a1.27,1.27,0,0,0-1.78-.21l-.32.25a1.27,1.27,0,0,0-.21,1.78l.4.5A2.17,2.17,0,0,0,349,55L350,56.31a2.17,2.17,0,0,0,3,.36l1.33-1.05A2.17,2.17,0,0,0,354.75,52.57Z"/><path class="cls-45" d="M357.77,51.06l-.83-1.48a2.17,2.17,0,0,0-2.36-1.06l-.31-.56a1.27,1.27,0,0,0-1.72-.49l-.36.2a1.27,1.27,0,0,0-.49,1.72L352,50a2.17,2.17,0,0,0-.34,2.57L352.5,54a2.17,2.17,0,0,0,2.95.84l1.48-.83A2.17,2.17,0,0,0,357.77,51.06Z"/><path class="cls-46" d="M359.31,46.75c-3.72-2.31-8.72-1.36-12.44,1a9.21,9.21,0,0,0-3.71,3.8,10.14,10.14,0,0,0-.19,6.3,21,21,0,0,0,5.29,10.51c1.75,1.75,4.42,3.1,6.65,2,1.73-.84,2.53-2.82,3.25-4.6s1.72-3.73,3.56-4.29a.86.86,0,0,1,.48,0c.47.14.46.81.32,1.28a13.59,13.59,0,0,1-3.22,5.58A5.94,5.94,0,0,0,358,69.95a1.58,1.58,0,0,0,.41,1.92c.72.46,1.66,0,2.34-.54a20,20,0,0,0,7.69-13.69,6.45,6.45,0,0,0-.25-3,2.8,2.8,0,0,0-2.24-1.85c-2-.15-2-.93-3.14-2.52A12.41,12.41,0,0,0,359.31,46.75Z"/><path class="cls-16" d="M345.93,51.65a2.4,2.4,0,0,1,1.57,1.53c.34,1.19,0,4.69.76,6.28a38.83,38.83,0,0,0,3.84,5.86,1.64,1.64,0,0,1,.55,1.78c-.27.47-1.08,1.19-1.62.77a37,37,0,0,1-4.75-6.59c-.59-1.5-2.09-6.61-1.81-7.83S345.44,51.72,345.93,51.65Z"/><path class="cls-16" d="M349.49,49.17a2.24,2.24,0,0,1,1.22,1.46c.22,1-.26,3.87.25,5.28a35.5,35.5,0,0,0,2.87,5.33c.44.55.6,1.19.35,1.54s-1,.85-1.41.43a34.09,34.09,0,0,1-3.59-6c-.4-1.31-1.35-5.72-1-6.69S349.06,49.17,349.49,49.17Z"/><path class="cls-16" d="M354.09,48.42a1.76,1.76,0,0,1,1.05,1.31c.14,1-.48,3.69-.08,5a29,29,0,0,0,2.35,4.88,1.28,1.28,0,0,1,.23,1.44c-.26.35-1,.86-1.34.5a27.53,27.53,0,0,1-3-5.52c-.3-1.22-.91-5.34-.56-6.29S353.69,48.44,354.09,48.42Z"/><path class="cls-16" d="M364,67.12c-.47.45-1.56,1.08-2.09.38a1.33,1.33,0,0,1,.5-1.77,5.37,5.37,0,0,1,1.95-.25C365.61,65.38,364.47,66.67,364,67.12Z"/><path class="cls-16" d="M360.21,68.51a1.37,1.37,0,0,0-.41.35,4.41,4.41,0,0,0-.51.72.84.84,0,0,0-.15.62.59.59,0,0,0,.43.39,1.27,1.27,0,0,0,.59,0c.63-.13,1.95-.74,2-1.52S360.7,68.27,360.21,68.51Z"/><path class="cls-16" d="M363.88,64.76a1.88,1.88,0,0,0,1.22-.18,1.74,1.74,0,0,0,.47-.56c.34-.56,1.21-1.57.42-2a2.16,2.16,0,0,0-1.77.06,2.45,2.45,0,0,0-.83,1.16C363,64.1,362.69,64.66,363.88,64.76Z"/><path class="cls-4" d="M381.6,53.23a14.73,14.73,0,1,0-24.79-2.52l-.32.8A2.69,2.69,0,0,0,358,55l1.22.48-.47,2.58-.21,1.17-.21,1.17a1.86,1.86,0,0,0,1.5,2.15l1,.18a1.86,1.86,0,0,0,2.15-1.5l.21-1.17,1.49.27-.21,1.17a1.86,1.86,0,0,0,1.5,2.15l1,.18a1.86,1.86,0,0,0,2.15-1.5l.21-1.17a3.76,3.76,0,0,1,5.14.93l-.21,1.17c-.18,1,.16,1.91,1.16,2.09l1,.18a1.86,1.86,0,0,0,2-1.72l.14-1.13a2.33,2.33,0,0,0,.79-.94,17.76,17.76,0,0,0,.59-3.25h.3a2,2,0,0,0,1.73-2.15Z"/><circle class="cls-16" cx="365.36" cy="50.25" r="4.98" transform="translate(251.04 400.88) rotate(-79.77)"/><ellipse class="cls-16" cx="378.24" cy="52.57" rx="3.39" ry="1.8" transform="translate(259.34 415.46) rotate(-79.77)"/><path class="cls-16" d="M374.32,56.6c-.08-.64-.42-1.12-.76-1.08l-.07,0a.58.58,0,0,0-.24-.39c-.4-.25-1.1.15-1.58.9s-.54,1.56-.14,1.81,1.1-.15,1.58-.9l0,0c.12.54.42.93.73.89S374.4,57.24,374.32,56.6Z"/><path class="cls-3" d="M357,60c3.75-1,6,.16,9.21,1.58s5.2,2.33,6.64,2.47,3.13,2.16,1.7,2.53-11.24-5-12.76-4.77,1.14,2.48,2.78,3.07a49,49,0,0,0,5.7,1.85c2.23.53,6.87-2.65,6.66-.09s-2.16,2.25-3.86,2-7.68-.83-10.18-2.15S353.48,60.91,357,60Z"/><path class="cls-4" d="M353,46a2,2,0,0,0-2.08-1.52c-1.23,0-.83,1.47-1.93,1.86h0a2,2,0,0,0-.58.15,2.4,2.4,0,0,0-1.05,3.21,2.69,2.69,0,0,0,1.4,1.42l.08.09a3.35,3.35,0,0,1,1.81,1.89c.59,1.47,3.29,6.58,3.39,7.87s1.17,2.42,1.94,2.06.47-1.65.93-1.93,2.26-1.22,1.51-2.48-1.6-.82-2.89-2.27-2.6-3.63-2.34-5.44c.06-.39.12-.74.17-1.05a2.18,2.18,0,0,0,.31-2.32C354.34,46.21,353.18,46.81,353,46Z"/><path class="cls-4" d="M373,64c-3,2.23,1.55,3.74,2,5.16s.25,3.78,2.53,4.57-.26-1.47-.15-2.7,1.17-.82,2.3,0-.38,3.2.52,3.83,2-3.5,1.81-4.22a13.12,13.12,0,0,0-2-2.65,3.92,3.92,0,0,1,2,.95c.65.73,1.18,3.68,1.93,3.4S384,70,384,70l-.11-2.74A7.49,7.49,0,0,0,381.31,65c-1.23-.46-3.83-2.33-4.89-2.21S375.34,62.27,373,64Z"/><path class="cls-1" d="M435.59,93.65c1.51,1.45,3.81,2.35,3.74,3.72s-.51,2.32-1.5,2.13-2.9-.37-3.7-1.53-1.26-.14-2.21-.15-3.67-.1-2.46-2.28S433.49,91.63,435.59,93.65Z"/><path class="cls-2" d="M462.29,58.26a1.83,1.83,0,0,0-1.88-1.42c-1.12-.07-.79,1.33-1.8,1.67h0a1.82,1.82,0,0,0-.54.13,2.19,2.19,0,0,0-1,2.92,2.46,2.46,0,0,0,1.25,1.33l.08.09A3.06,3.06,0,0,1,460,64.71c.51,1.35,2.89,6.08,3,7.26s1,2.24,1.74,1.92.46-1.5.89-1.75,2.09-1.08,1.43-2.24-1.45-.78-2.6-2.13-2.31-3.37-2-5c.06-.36.12-.67.17-1a2,2,0,0,0,.32-2.12C463.54,58.51,462.47,59,462.29,58.26Z"/><path class="cls-3" d="M464,70.11c2.92-2,5.23-1.71,8.43-1.48s5.19.41,6.48.09,3.37.9,2.24,1.65-11.24-.89-12.46-.18S470.47,72,472.06,72a44.82,44.82,0,0,0,5.48-.16c2.09-.23,5.1-4.4,5.72-2.13s-1.17,2.6-2.7,2.93-6.88,1.65-9.43,1.28S461.26,72,464,70.11Z"/><path class="cls-4" d="M481.74,67.63c-2,2.78,2.39,2.83,3.17,3.94s1.26,3.23,3.48,3.28-.64-1.21-.88-2.32.79-1,2-.65.56,2.9,1.52,3.2.78-3.61.4-4.18a12,12,0,0,0-2.52-1.74,3.59,3.59,0,0,1,2,.28c.77.45,2,2.88,2.63,2.43s-.54-2.08-.54-2.08l-.86-2.36a6.85,6.85,0,0,0-2.84-1.28c-1.2-.05-4-1-4.88-.57S483.32,65.46,481.74,67.63Z"/><path class="cls-5" d="M443.73,71a1.48,1.48,0,0,1,1.42-1.33c.94-.15.82,1,1.72,1.19h0a1.63,1.63,0,0,1,.47.05,1.82,1.82,0,0,1,1.2,2.28,2,2,0,0,1-.91,1.19l-.05.08a2.45,2.45,0,0,0-1.17,1.58c-.28,1.15-1.75,5.21-1.66,6.18s-.61,1.92-1.25,1.72-.57-1.18-1-1.34-1.89-.69-1.47-1.69,1.14-.76,2-2,1.57-3,1.15-4.27c-.09-.29-.18-.54-.26-.76a1.62,1.62,0,0,1-.52-1.69C442.71,71.32,443.67,71.65,443.73,71Z"/><path class="cls-2" d="M443.94,81.75c.09,3.11-1.31,4.46-3.11,6.43s-2.94,3.19-3.34,4.23-2.4,1.7-2.42.51,6.37-6.9,6.44-8.12-2.27.11-3.09,1.16a31.82,31.82,0,0,0-2.64,3.71c-.88,1.51.85,5.94-1.23,5s-1.44-2.29-.91-3.5,2.19-5.51,3.77-7S443.85,78.8,443.94,81.75Z"/><path class="cls-2" d="M445.85,78.33c1.58,2.68,1,4.54.38,7.13s-1,4.22-.89,5.32-1.28,2.65-1.88,1.62,2.25-9.12,1.72-10.23-1.94,1.19-2.14,2.51a31.82,31.82,0,0,0-.52,4.53c0,1.75,3.61,4.79,1.34,5s-2.37-1.32-2.49-2.62-.74-5.88-.07-7.93S444.35,75.79,445.85,78.33Z"/><path class="cls-1" d="M446.46,92c.81,1.93,2.58,3.66,2,4.9s-1.38,1.93-2.22,1.37-2.52-1.49-2.79-2.87-1.1-.62-2-1-3.33-1.54-1.36-3.06S445.32,89.3,446.46,92Z"/><path class="cls-2" d="M438.5,67.11c-4.06.53-6.41,2.14-3.76,3.81s6.22,3,6.19,5.19,4.85-.13,4.68-2,2.61-3.19,2.65-3.84-3-2.91-4.1-3.16a42.65,42.65,0,0,0-5.66,0h0"/><path class="cls-47" d="M460.7,48.8l-.79-1.51a2.17,2.17,0,0,0-2.34-1.12l-.3-.57a1.27,1.27,0,0,0-1.71-.53l-.36.19a1.27,1.27,0,0,0-.53,1.71l.3.57a2.17,2.17,0,0,0-.41,2.56l.79,1.51a2.17,2.17,0,0,0,2.93.91l1.51-.79A2.17,2.17,0,0,0,460.7,48.8Z"/><path class="cls-48" d="M442.55,65.26l-1.64-.45a2.17,2.17,0,0,0-2.41.95l-.62-.17a1.27,1.27,0,0,0-1.55.89l-.11.4a1.27,1.27,0,0,0,.89,1.55l.62.17a2.17,2.17,0,0,0,1.6,2l1.64.45a2.17,2.17,0,0,0,2.66-1.52l.45-1.64A2.17,2.17,0,0,0,442.55,65.26Z"/><path class="cls-49" d="M443,62.64l-1.64-.45a2.17,2.17,0,0,0-2.41.95l-.62-.17a1.27,1.27,0,0,0-1.55.89l-.11.4a1.27,1.27,0,0,0,.89,1.55l.62.17a2.17,2.17,0,0,0,1.6,2l1.64.45a2.17,2.17,0,0,0,2.66-1.52l.45-1.64A2.17,2.17,0,0,0,443,62.64Z"/><path class="cls-50" d="M444.65,61.19l-1.3-1.09a2.17,2.17,0,0,0-2.58-.15l-.49-.41a1.27,1.27,0,0,0-1.78.16l-.26.31a1.27,1.27,0,0,0,.16,1.78l.49.41a2.17,2.17,0,0,0,.6,2.52l1.3,1.09a2.17,2.17,0,0,0,3.05-.27l1.09-1.3A2.17,2.17,0,0,0,444.65,61.19Z"/><path class="cls-51" d="M447,58.79l-1.05-1.33a2.17,2.17,0,0,0-2.5-.67l-.4-.5a1.27,1.27,0,0,0-1.78-.21l-.32.25a1.27,1.27,0,0,0-.21,1.78l.4.5a2.17,2.17,0,0,0,.07,2.59l1.05,1.33a2.17,2.17,0,0,0,3,.36l1.33-1.05A2.17,2.17,0,0,0,447,58.79Z"/><path class="cls-52" d="M448.88,56l-1.05-1.33a2.17,2.17,0,0,0-2.5-.67l-.4-.5a1.27,1.27,0,0,0-1.78-.21l-.32.25a1.27,1.27,0,0,0-.21,1.78l.4.5a2.17,2.17,0,0,0,.07,2.59l1.05,1.33a2.17,2.17,0,0,0,3,.36l1.33-1.05A2.17,2.17,0,0,0,448.88,56Z"/><path class="cls-53" d="M451.47,53.8l-1.05-1.33a2.17,2.17,0,0,0-2.5-.67l-.4-.5a1.27,1.27,0,0,0-1.78-.21l-.32.25a1.27,1.27,0,0,0-.21,1.78l.4.5a2.17,2.17,0,0,0,.07,2.59l1.05,1.33a2.17,2.17,0,0,0,3,.36l1.33-1.05A2.17,2.17,0,0,0,451.47,53.8Z"/><path class="cls-54" d="M454.41,51.6l-1.05-1.33a2.17,2.17,0,0,0-2.5-.67l-.4-.5a1.27,1.27,0,0,0-1.78-.21l-.32.25a1.27,1.27,0,0,0-.21,1.78l.4.5a2.17,2.17,0,0,0,.07,2.59l1.05,1.33a2.17,2.17,0,0,0,3,.36l1.33-1.05A2.17,2.17,0,0,0,454.41,51.6Z"/><path class="cls-55" d="M457.43,50.09l-.83-1.48a2.17,2.17,0,0,0-2.36-1.06l-.31-.56a1.27,1.27,0,0,0-1.72-.49l-.36.2a1.27,1.27,0,0,0-.49,1.72l.31.56a2.17,2.17,0,0,0-.34,2.57l.83,1.48a2.17,2.17,0,0,0,2.95.84l1.48-.83A2.17,2.17,0,0,0,457.43,50.09Z"/><path class="cls-56" d="M459,45.77c-3.72-2.31-8.72-1.36-12.44,1a9.21,9.21,0,0,0-3.71,3.8,10.14,10.14,0,0,0-.19,6.3,21,21,0,0,0,5.29,10.51c1.75,1.75,4.42,3.1,6.65,2,1.73-.84,2.53-2.82,3.25-4.6s1.72-3.73,3.56-4.29a.86.86,0,0,1,.48,0c.47.14.46.81.32,1.28A13.59,13.59,0,0,1,459,67.31,5.94,5.94,0,0,0,457.64,69a1.58,1.58,0,0,0,.41,1.92c.72.46,1.66,0,2.34-.54a20,20,0,0,0,7.69-13.69,6.45,6.45,0,0,0-.25-3,2.8,2.8,0,0,0-2.24-1.85c-2-.15-2-.93-3.14-2.52A12.41,12.41,0,0,0,459,45.77Z"/><path class="cls-16" d="M445.59,50.68a2.4,2.4,0,0,1,1.57,1.53c.34,1.19,0,4.69.76,6.28a38.83,38.83,0,0,0,3.84,5.86,1.64,1.64,0,0,1,.55,1.78c-.27.47-1.08,1.19-1.62.77a37,37,0,0,1-4.75-6.59c-.59-1.5-2.09-6.61-1.81-7.83S445.1,50.74,445.59,50.68Z"/><path class="cls-16" d="M449.15,48.2a2.24,2.24,0,0,1,1.22,1.46c.22,1-.26,3.87.25,5.28a35.5,35.5,0,0,0,2.87,5.33c.44.55.6,1.19.35,1.54s-1,.85-1.41.43a34.09,34.09,0,0,1-3.59-6c-.4-1.31-1.35-5.72-1-6.69S448.72,48.19,449.15,48.2Z"/><path class="cls-16" d="M453.75,47.44a1.76,1.76,0,0,1,1.05,1.31c.14,1-.48,3.69-.08,5a29,29,0,0,0,2.35,4.88,1.28,1.28,0,0,1,.23,1.44c-.26.35-1,.86-1.34.5A27.53,27.53,0,0,1,453,55c-.3-1.22-.91-5.34-.56-6.29S453.36,47.46,453.75,47.44Z"/><path class="cls-16" d="M463.66,66.15c-.47.45-1.56,1.08-2.09.38a1.33,1.33,0,0,1,.5-1.77,5.37,5.37,0,0,1,1.95-.25C465.27,64.41,464.13,65.69,463.66,66.15Z"/><path class="cls-16" d="M459.87,67.53a1.37,1.37,0,0,0-.41.35,4.41,4.41,0,0,0-.51.72.84.84,0,0,0-.15.62.59.59,0,0,0,.43.39,1.27,1.27,0,0,0,.59,0c.63-.13,1.95-.74,2-1.52S460.36,67.29,459.87,67.53Z"/><path class="cls-16" d="M463.54,63.78a1.88,1.88,0,0,0,1.22-.18,1.74,1.74,0,0,0,.47-.56c.34-.56,1.21-1.57.42-2a2.16,2.16,0,0,0-1.77.06A2.45,2.45,0,0,0,463,62.3C462.64,63.13,462.36,63.69,463.54,63.78Z"/><path class="cls-4" d="M481.26,52.26a14.73,14.73,0,1,0-24.79-2.52l-.32.8A2.69,2.69,0,0,0,457.67,54l1.22.48-.47,2.58-.21,1.17L458,59.44a1.86,1.86,0,0,0,1.5,2.15l1,.18a1.86,1.86,0,0,0,2.15-1.5l.21-1.17,1.49.27-.21,1.17a1.86,1.86,0,0,0,1.5,2.15l1,.18a1.86,1.86,0,0,0,2.15-1.5l.21-1.17a3.76,3.76,0,0,1,5.14.93l-.21,1.17c-.18,1,.16,1.91,1.16,2.09l1,.18a1.86,1.86,0,0,0,2-1.72l.14-1.13a2.33,2.33,0,0,0,.79-.94,17.76,17.76,0,0,0,.59-3.25h.3a2,2,0,0,0,1.73-2.15Z"/><circle class="cls-16" cx="465.03" cy="49.27" r="4.98" transform="translate(333.96 498.16) rotate(-79.77)"/><ellipse class="cls-16" cx="477.9" cy="51.6" rx="3.39" ry="1.8" transform="translate(342.26 512.74) rotate(-79.77)"/><path class="cls-16" d="M474,55.62c-.08-.64-.42-1.12-.76-1.08l-.07,0a.58.58,0,0,0-.24-.39c-.4-.25-1.1.15-1.58.9s-.54,1.56-.14,1.81,1.1-.15,1.58-.9l0,0c.12.54.42.93.73.89S474.06,56.26,474,55.62Z"/><path class="cls-3" d="M456.69,59c3.75-1,6,.16,9.21,1.58s5.2,2.33,6.64,2.47,3.13,2.16,1.7,2.53-11.24-5-12.76-4.77,1.14,2.48,2.78,3.07a49,49,0,0,0,5.7,1.85c2.23.53,6.87-2.65,6.66-.09s-2.16,2.25-3.86,2-7.68-.83-10.18-2.15S453.14,59.93,456.69,59Z"/><path class="cls-4" d="M452.64,45a2,2,0,0,0-2.08-1.52c-1.23,0-.83,1.47-1.93,1.86h0a2,2,0,0,0-.58.15A2.4,2.4,0,0,0,447,48.69a2.69,2.69,0,0,0,1.4,1.42l.08.09a3.35,3.35,0,0,1,1.81,1.89c.59,1.47,3.29,6.58,3.39,7.87s1.17,2.42,1.94,2.06.47-1.65.93-1.93,2.26-1.22,1.51-2.48-1.6-.82-2.89-2.27-2.6-3.63-2.34-5.44c.06-.39.12-.74.17-1.05a2.18,2.18,0,0,0,.31-2.32C454,45.24,452.84,45.83,452.64,45Z"/><path class="cls-4" d="M472.64,63c-3,2.23,1.55,3.74,2,5.16s.25,3.78,2.53,4.57-.26-1.47-.15-2.7,1.17-.82,2.3,0-.38,3.2.52,3.83,2-3.5,1.81-4.22a13.12,13.12,0,0,0-2-2.65,3.92,3.92,0,0,1,2,.95c.65.73,1.18,3.68,1.93,3.4s.12-2.35.12-2.35l-.11-2.74A7.49,7.49,0,0,0,481,64c-1.23-.46-3.83-2.33-4.89-2.21S475,61.3,472.64,63Z"/><path class="cls-1" d="M529.06,86.63c-1.45,1.51-2.35,3.81-3.72,3.74s-2.32-.51-2.13-1.5.37-2.9,1.54-3.7.14-1.26.15-2.21.11-3.67,2.28-2.45S531.08,84.54,529.06,86.63Z"/><path class="cls-2" d="M561.66,52.15a1.83,1.83,0,0,0-2-1.29c-1.12,0-.69,1.38-1.68,1.79h0a1.82,1.82,0,0,0-.53.16,2.19,2.19,0,0,0-.81,3A2.46,2.46,0,0,0,558,57l.08.08a3.06,3.06,0,0,1,1.75,1.64c.61,1.31,3.32,5.86,3.47,7s1.18,2.16,1.87,1.79.35-1.53.76-1.81,2-1.22,1.26-2.33-1.5-.67-2.75-1.94-2.55-3.19-2.4-4.86c0-.36.07-.68.1-1a2,2,0,0,0,.17-2.13C562.92,52.31,561.89,52.91,561.66,52.15Z"/><path class="cls-3" d="M564.25,63.84c2.77-2.22,5.09-2.09,8.3-2.08s5.21,0,6.47-.38,3.42.65,2.36,1.49-11.27-.07-12.44.72,1.87,1.65,3.46,1.54a44.82,44.82,0,0,0,5.45-.56c2.06-.38,4.77-4.76,5.55-2.54s-1,2.68-2.48,3.11-6.74,2.15-9.31,2S561.63,65.95,564.25,63.84Z"/><path class="cls-4" d="M581.44,62.32c-2,2.78,2.39,2.83,3.17,3.94s1.26,3.23,3.48,3.28-.64-1.21-.88-2.32.79-1,2-.65.56,2.9,1.52,3.2.78-3.61.4-4.18a12,12,0,0,0-2.52-1.74,3.59,3.59,0,0,1,2,.28c.77.45,2,2.88,2.63,2.43s-.54-2.08-.54-2.08l-.86-2.36A6.85,6.85,0,0,0,589,60.85c-1.2-.05-4-1-4.88-.57S583,60.15,581.44,62.32Z"/><path class="cls-5" d="M544.15,66.36a1.48,1.48,0,0,1,1.7-1c1,.07.56,1.18,1.38,1.57h0a1.63,1.63,0,0,1,.44.16,1.82,1.82,0,0,1,.62,2.5,2,2,0,0,1-1.16.94l-.07.06a2.45,2.45,0,0,0-1.51,1.26c-.54,1-2.94,4.65-3.09,5.6s-1,1.72-1.63,1.37-.27-1.28-.61-1.53-1.67-1.12-1-2,1.28-.47,2.37-1.45,2.23-2.49,2.14-3.88c0-.3,0-.57-.07-.8a1.62,1.62,0,0,1-.1-1.77C543.08,66.42,543.94,67,544.15,66.36Z"/><path class="cls-2" d="M541.64,77.55c-1.23,2.86-3.07,3.48-5.54,4.51s-4,1.65-4.82,2.42-2.89.52-2.41-.56,8.7-3.56,9.28-4.63-2.11-.86-3.29-.25a31.82,31.82,0,0,0-4,2.25c-1.43,1-1.74,5.74-3.24,4s-.33-2.69.65-3.56,4.31-4.06,6.37-4.73S542.81,74.84,541.64,77.55Z"/><path class="cls-2" d="M548.41,72.46c2.79,1.37,3.32,3.24,4.22,5.76s1.44,4.1,2.17,4.94.37,2.92-.68,2.38S551,76.67,550,76s-1,2.06-.42,3.27a31.82,31.82,0,0,0,2,4.07c.93,1.48,5.65,2,3.86,3.44s-2.7.2-3.52-.83-3.84-4.52-4.4-6.6S545.77,71.16,548.41,72.46Z"/><path class="cls-1" d="M557.43,85.13c1.75,1.15,4.18,1.61,4.36,3s-.07,2.37-1.09,2.37-2.92.16-3.92-.83-1.26.09-2.2.26-3.63.57-2.83-1.79S555,83.52,557.43,85.13Z"/><path class="cls-2" d="M538.6,63.15c-4,.82-6.23,2.6-3.48,4.08s6.42,2.53,6.55,4.72,4.83-.48,4.52-2.31,2.37-3.37,2.37-4-3.19-2.69-4.32-2.86a42.65,42.65,0,0,0-5.64.39h0"/><path class="cls-57" d="M559.39,42.82l-.9-1.44a2.17,2.17,0,0,0-2.41-.95l-.34-.54a1.27,1.27,0,0,0-1.74-.41l-.35.22a1.27,1.27,0,0,0-.41,1.74l.34.54a2.17,2.17,0,0,0-.22,2.58l.9,1.44a2.17,2.17,0,0,0,3,.7l1.44-.9A2.17,2.17,0,0,0,559.39,42.82Z"/><path class="cls-58" d="M542.51,61l-1.67-.33a2.17,2.17,0,0,0-2.33,1.12l-.63-.12a1.27,1.27,0,0,0-1.48,1l-.08.4a1.27,1.27,0,0,0,1,1.48l.63.12a2.17,2.17,0,0,0,1.74,1.92l1.67.33a2.17,2.17,0,0,0,2.54-1.71l.33-1.67A2.17,2.17,0,0,0,542.51,61Z"/><path class="cls-59" d="M542.77,57.91l-1.67-.33a2.17,2.17,0,0,0-2.33,1.12l-.63-.12a1.27,1.27,0,0,0-1.48,1l-.08.4a1.27,1.27,0,0,0,1,1.48l.63.12a2.17,2.17,0,0,0,1.74,1.92l1.67.33a2.17,2.17,0,0,0,2.54-1.71l.33-1.67A2.17,2.17,0,0,0,542.77,57.91Z"/><path class="cls-60" d="M544.27,56.35l-1.38-1a2.17,2.17,0,0,0-2.59,0l-.52-.37a1.27,1.27,0,0,0-1.76.29l-.24.33a1.27,1.27,0,0,0,.29,1.76l.52.37a2.17,2.17,0,0,0,.78,2.47l1.38,1a2.17,2.17,0,0,0,3-.49l1-1.38A2.17,2.17,0,0,0,544.27,56.35Z"/><path class="cls-61" d="M546.42,53.78l-1.15-1.25a2.17,2.17,0,0,0-2.54-.49l-.43-.47a1.27,1.27,0,0,0-1.79-.08l-.3.28a1.27,1.27,0,0,0-.08,1.79l.43.47a2.17,2.17,0,0,0,.26,2.58L542,57.86A2.17,2.17,0,0,0,545,58l1.25-1.15A2.17,2.17,0,0,0,546.42,53.78Z"/><path class="cls-62" d="M548.13,50.87,547,49.62a2.17,2.17,0,0,0-2.54-.49l-.43-.47a1.27,1.27,0,0,0-1.79-.08l-.3.28a1.27,1.27,0,0,0-.08,1.79l.43.47a2.17,2.17,0,0,0,.26,2.58l1.15,1.25a2.17,2.17,0,0,0,3.06.14L548,53.93A2.17,2.17,0,0,0,548.13,50.87Z"/><path class="cls-63" d="M550.55,48.49l-1.15-1.25a2.17,2.17,0,0,0-2.54-.49l-.43-.47a1.27,1.27,0,0,0-1.79-.08l-.3.28a1.27,1.27,0,0,0-.08,1.79l.43.47a2.17,2.17,0,0,0,.26,2.58l1.15,1.25a2.17,2.17,0,0,0,3.06.14l1.25-1.15A2.17,2.17,0,0,0,550.55,48.49Z"/><path class="cls-64" d="M553.32,46.07l-1.15-1.25a2.17,2.17,0,0,0-2.54-.49l-.43-.47a1.27,1.27,0,0,0-1.79-.08l-.3.28a1.27,1.27,0,0,0-.08,1.79l.43.47a2.17,2.17,0,0,0,.26,2.58l1.15,1.25a2.17,2.17,0,0,0,3.06.14l1.25-1.15A2.17,2.17,0,0,0,553.32,46.07Z"/><path class="cls-65" d="M556.22,44.35l-.93-1.42a2.17,2.17,0,0,0-2.43-.88l-.35-.53a1.27,1.27,0,0,0-1.75-.36l-.34.23a1.27,1.27,0,0,0-.36,1.75l.35.53a2.17,2.17,0,0,0-.15,2.58l.93,1.42a2.17,2.17,0,0,0,3,.62l1.42-.93A2.17,2.17,0,0,0,556.22,44.35Z"/><path class="cls-66" d="M557.45,39.93c-3.88-2-8.79-.72-12.34,1.86a9.21,9.21,0,0,0-3.43,4.06,10.14,10.14,0,0,0,.27,6.3,21,21,0,0,0,6,10.1c1.87,1.62,4.64,2.77,6.78,1.53,1.66-1,2.32-3,2.91-4.82s1.44-3.84,3.24-4.53a.86.86,0,0,1,.48-.07c.48.1.52.77.42,1.25a13.59,13.59,0,0,1-2.81,5.8,5.94,5.94,0,0,0-1.19,1.76,1.58,1.58,0,0,0,.55,1.89c.75.41,1.66-.14,2.3-.71a20,20,0,0,0,6.68-14.21,6.45,6.45,0,0,0-.47-3,2.8,2.8,0,0,0-2.37-1.68c-2,0-2.08-.78-3.32-2.28A12.41,12.41,0,0,0,557.45,39.93Z"/><path class="cls-16" d="M544.46,45.79a2.4,2.4,0,0,1,1.67,1.41c.43,1.16.38,4.67,1.21,6.21A38.83,38.83,0,0,0,551.6,59a1.64,1.64,0,0,1,.67,1.74c-.23.49-1,1.27-1.56.89a37,37,0,0,1-5.21-6.23c-.69-1.45-2.56-6.44-2.37-7.68S544,45.9,544.46,45.79Z"/><path class="cls-16" d="M547.82,43.07a2.24,2.24,0,0,1,1.33,1.37c.29,1,0,3.88.63,5.24a35.5,35.5,0,0,0,3.25,5.1c.47.51.69,1.14.46,1.51s-.92.92-1.38.53a34.09,34.09,0,0,1-4-5.76c-.5-1.28-1.76-5.6-1.52-6.6S547.4,43.09,547.82,43.07Z"/><path class="cls-16" d="M552.36,42a1.76,1.76,0,0,1,1.14,1.23c.21.95-.21,3.71.28,5a29,29,0,0,0,2.69,4.7,1.28,1.28,0,0,1,.34,1.42c-.23.37-.9.93-1.3.59a27.53,27.53,0,0,1-3.37-5.29c-.38-1.2-1.29-5.26-1-6.23S552,42,552.36,42Z"/><path class="cls-16" d="M563.6,59.91c-.44.49-1.47,1.19-2.05.53a1.33,1.33,0,0,1,.37-1.8,5.37,5.37,0,0,1,1.93-.39C565.08,58.06,564,59.43,563.6,59.91Z"/><path class="cls-16" d="M559.91,61.57a1.37,1.37,0,0,0-.39.38,4.41,4.41,0,0,0-.46.76.84.84,0,0,0-.1.63.59.59,0,0,0,.45.35,1.27,1.27,0,0,0,.59-.05c.62-.18,1.89-.88,1.9-1.66S560.39,61.3,559.91,61.57Z"/><path class="cls-16" d="M563.31,57.57a1.88,1.88,0,0,0,1.2-.27,1.74,1.74,0,0,0,.43-.59c.3-.58,1.09-1.66.27-2a2.16,2.16,0,0,0-1.76.18,2.45,2.45,0,0,0-.74,1.21C562.36,57,562.12,57.56,563.31,57.57Z"/><path class="cls-4" d="M580.15,44.79a14.73,14.73,0,1,0-24.9-.72l-.26.82a2.69,2.69,0,0,0,1.76,3.36l1.25.39-.28,2.61-.13,1.19-.13,1.19a1.86,1.86,0,0,0,1.65,2l1,.11a1.86,1.86,0,0,0,2-1.65l.13-1.19,1.51.16-.13,1.19a1.86,1.86,0,0,0,1.65,2l1,.11a1.86,1.86,0,0,0,2-1.65l.13-1.19a3.76,3.76,0,0,1,5.19.55l-.13,1.19c-.11,1,.3,1.9,1.31,2l1,.11c1,.11,1.74-.84,1.85-1.86l.06-1.14a2.33,2.33,0,0,0,.72-1,17.76,17.76,0,0,0,.35-3.29l.3,0a2,2,0,0,0,1.57-2.27Z"/><circle class="cls-16" cx="563.74" cy="42.99" r="4.98" transform="translate(461.29 599) rotate(-83.92)"/><ellipse class="cls-16" cx="576.75" cy="44.37" rx="3.39" ry="1.8" transform="translate(471.55 613.18) rotate(-83.92)"/><path class="cls-16" d="M573.13,48.67c-.13-.63-.5-1.09-.84-1l-.07,0a.58.58,0,0,0-.27-.37c-.41-.22-1.09.23-1.51,1s-.42,1.59,0,1.82,1.09-.23,1.51-1v0c.16.53.49.9.79.84S573.25,49.3,573.13,48.67Z"/><path class="cls-3" d="M556.13,53.28c3.67-1.27,6-.28,9.3.91s5.35,1.95,6.8,2,3.28,1.93,1.88,2.4S562.53,54.35,561,54.73s1.32,2.39,3,2.86A49,49,0,0,0,569.85,59c2.26.37,6.66-3.14,6.64-.57s-2,2.4-3.7,2.29-7.72-.27-10.3-1.4S552.65,54.48,556.13,53.28Z"/><path class="cls-4" d="M551.07,39.61a2,2,0,0,0-2.19-1.36c-1.23,0-.72,1.52-1.79,2h0a2,2,0,0,0-.57.19,2.4,2.4,0,0,0-.82,3.27A2.69,2.69,0,0,0,547.2,45l.09.09a3.35,3.35,0,0,1,1.94,1.75c.69,1.42,3.76,6.33,3.95,7.6s1.34,2.33,2.09,1.91.35-1.68.79-2,2.16-1.38,1.33-2.58-1.65-.7-3-2.06-2.86-3.43-2.73-5.26c0-.39.06-.75.09-1.06a2.18,2.18,0,0,0,.14-2.34C552.45,39.76,551.34,40.44,551.07,39.61Z"/><path class="cls-4" d="M572.33,56.16c-2.85,2.44,1.82,3.62,2.36,5s.52,3.75,2.86,4.37-.37-1.45-.35-2.69,1.11-.9,2.29-.18-.14,3.22.79,3.79,1.76-3.64,1.5-4.34a13.12,13.12,0,0,0-2.24-2.49,3.92,3.92,0,0,1,2,.8c.7.68,1.44,3.59,2.17,3.26s0-2.35,0-2.35l-.31-2.72a7.49,7.49,0,0,0-2.69-2.08c-1.26-.36-4-2-5-1.85S574.56,54.26,572.33,56.16Z"/><path class="cls-1" d="M626.81,77.24c-.52,2-.16,4.47-1.39,5.09s-2.27.7-2.6-.26-1.11-2.71-.49-4-.5-1.16-1-2-1.72-3.24.77-3.26S627.54,74.42,626.81,77.24Z"/><path class="cls-2" d="M661.81,50.61a1.83,1.83,0,0,0-2-1.29c-1.12,0-.69,1.38-1.68,1.79h0a1.82,1.82,0,0,0-.53.16,2.19,2.19,0,0,0-.81,3,2.46,2.46,0,0,0,1.34,1.23l.08.08A3.06,3.06,0,0,1,660,57.22c.61,1.31,3.32,5.86,3.47,7s1.18,2.16,1.87,1.79.35-1.53.76-1.81,2-1.22,1.26-2.33-1.5-.67-2.75-1.94-2.55-3.19-2.4-4.86c0-.36.07-.68.1-1a2,2,0,0,0,.17-2.13C663.07,50.78,662,51.38,661.81,50.61Z"/><path class="cls-3" d="M664.4,62.31c2.77-2.22,5.09-2.09,8.3-2.08s5.21,0,6.47-.38,3.42.65,2.36,1.49-11.27-.07-12.44.72,1.87,1.65,3.46,1.54A44.82,44.82,0,0,0,678,63c2.06-.38,4.77-4.76,5.55-2.54s-1,2.68-2.48,3.11-6.74,2.15-9.31,2S661.77,64.42,664.4,62.31Z"/><path class="cls-5" d="M645.13,63.21a1.48,1.48,0,0,1,1.92-.35c.87.38.14,1.29.8,1.93h0a1.63,1.63,0,0,1,.36.3,1.82,1.82,0,0,1-.23,2.57,2,2,0,0,1-1.41.51l-.09,0a2.45,2.45,0,0,0-1.84.7c-.86.81-4.29,3.44-4.75,4.29s-1.55,1.28-2,.77.16-1.3-.08-1.65-1.22-1.6-.31-2.22,1.37,0,2.71-.6,2.92-1.63,3.28-3c.08-.29.14-.55.2-.78a1.62,1.62,0,0,1,.48-1.7C644.1,62.92,644.73,63.72,645.13,63.21Z"/><path class="cls-2" d="M639.63,73.37c-2.1,2.3-4,2.29-6.71,2.46s-4.34.25-5.34.72-2.91-.45-2.1-1.32,9.38-.53,10.28-1.36-1.71-1.5-3-1.31a31.82,31.82,0,0,0-4.48.83c-1.68.48-3.52,4.86-4.38,2.75s.56-2.65,1.77-3.15,5.4-2.44,7.56-2.4S641.62,71.19,639.63,73.37Z"/><path class="cls-2" d="M648,66.53c2.69-1.45,4.49-.81,7-.09s4.09,1.18,5.18,1.08,2.54,1.36,1.51,1.9-8.85-2.57-10-2.09,1.09,1.95,2.37,2.2a31.21,31.21,0,0,0,4.42.69c1.71.11,4.84-3.35,4.95-1.12s-1.38,2.27-2.67,2.34-5.79.49-7.78-.25S645.44,67.9,648,66.53Z"/><path class="cls-1" d="M661.83,66.41c1.92-.74,3.67-2.42,4.86-1.79S668.54,66,668,66.85s-1.53,2.42-2.9,2.65-.64,1.06-1,1.9-1.61,3.22-3,1.24S659.17,67.44,661.83,66.41Z"/><path class="cls-2" d="M638.75,61.62c-4,.82-6.23,2.6-3.48,4.08s6.42,2.53,6.55,4.72,4.83-.48,4.52-2.31,2.37-3.37,2.37-4-3.19-2.69-4.32-2.86a42.65,42.65,0,0,0-5.64.39h0"/><path class="cls-67" d="M659.53,41.29l-.9-1.44a2.17,2.17,0,0,0-2.41-.95l-.34-.54a1.27,1.27,0,0,0-1.74-.41l-.35.22a1.27,1.27,0,0,0-.41,1.74l.34.54a2.17,2.17,0,0,0-.22,2.58l.9,1.44a2.17,2.17,0,0,0,3,.7l1.44-.9A2.17,2.17,0,0,0,659.53,41.29Z"/><path class="cls-68" d="M642.66,59.47,641,59.15a2.17,2.17,0,0,0-2.33,1.12l-.63-.12a1.27,1.27,0,0,0-1.48,1l-.08.4a1.27,1.27,0,0,0,1,1.48l.63.12a2.17,2.17,0,0,0,1.74,1.92l1.67.33A2.17,2.17,0,0,0,644,63.69l.33-1.67A2.17,2.17,0,0,0,642.66,59.47Z"/><path class="cls-69" d="M642.91,56.38l-1.67-.33a2.17,2.17,0,0,0-2.33,1.12l-.63-.12a1.27,1.27,0,0,0-1.48,1l-.08.4a1.27,1.27,0,0,0,1,1.48l.63.12A2.17,2.17,0,0,0,640.08,62l1.67.33a2.17,2.17,0,0,0,2.54-1.71l.33-1.67A2.17,2.17,0,0,0,642.91,56.38Z"/><path class="cls-70" d="M644.42,54.82l-1.38-1a2.17,2.17,0,0,0-2.59,0l-.52-.37a1.27,1.27,0,0,0-1.76.29l-.24.33a1.27,1.27,0,0,0,.29,1.76l.52.37a2.17,2.17,0,0,0,.78,2.47l1.38,1a2.17,2.17,0,0,0,3-.49l1-1.38A2.17,2.17,0,0,0,644.42,54.82Z"/><path class="cls-71" d="M646.57,52.25,645.42,51a2.17,2.17,0,0,0-2.54-.49l-.43-.47a1.27,1.27,0,0,0-1.79-.08l-.3.28a1.27,1.27,0,0,0-.08,1.79l.43.47a2.17,2.17,0,0,0,.26,2.58l1.15,1.25a2.17,2.17,0,0,0,3.06.14l1.25-1.15A2.17,2.17,0,0,0,646.57,52.25Z"/><path class="cls-72" d="M648.27,49.34l-1.15-1.25a2.17,2.17,0,0,0-2.54-.49l-.43-.47a1.27,1.27,0,0,0-1.79-.08l-.3.28a1.27,1.27,0,0,0-.08,1.79l.43.47a2.17,2.17,0,0,0,.26,2.58l1.15,1.25a2.17,2.17,0,0,0,3.06.14l1.25-1.15A2.17,2.17,0,0,0,648.27,49.34Z"/><path class="cls-73" d="M650.69,47l-1.15-1.25a2.17,2.17,0,0,0-2.54-.49l-.43-.47a1.27,1.27,0,0,0-1.79-.08l-.3.28a1.27,1.27,0,0,0-.08,1.79l.43.47a2.17,2.17,0,0,0,.26,2.58L646.24,51a2.17,2.17,0,0,0,3.06.14L650.56,50A2.17,2.17,0,0,0,650.69,47Z"/><path class="cls-74" d="M653.46,44.54l-1.15-1.25a2.17,2.17,0,0,0-2.54-.49l-.43-.47a1.27,1.27,0,0,0-1.79-.08l-.3.28a1.27,1.27,0,0,0-.08,1.79l.43.47a2.17,2.17,0,0,0,.26,2.58L649,48.62a2.17,2.17,0,0,0,3.06.14l1.25-1.15A2.17,2.17,0,0,0,653.46,44.54Z"/><path class="cls-75" d="M656.36,42.82l-.93-1.42a2.17,2.17,0,0,0-2.43-.88l-.35-.53a1.27,1.27,0,0,0-1.75-.36l-.34.23a1.27,1.27,0,0,0-.36,1.75l.35.53a2.17,2.17,0,0,0-.15,2.58l.93,1.42a2.17,2.17,0,0,0,3,.62l1.42-.93A2.17,2.17,0,0,0,656.36,42.82Z"/><path class="cls-76" d="M657.59,38.4c-3.88-2-8.79-.72-12.34,1.86a9.21,9.21,0,0,0-3.43,4.06,10.14,10.14,0,0,0,.27,6.3,21,21,0,0,0,6,10.1c1.87,1.62,4.64,2.77,6.78,1.53,1.66-1,2.32-3,2.91-4.82s1.44-3.84,3.24-4.53a.86.86,0,0,1,.48-.07c.48.1.52.77.42,1.25a13.59,13.59,0,0,1-2.81,5.8,5.94,5.94,0,0,0-1.19,1.76,1.58,1.58,0,0,0,.55,1.89c.75.41,1.66-.14,2.3-.71a20,20,0,0,0,6.68-14.21,6.45,6.45,0,0,0-.47-3,2.8,2.8,0,0,0-2.37-1.68c-2,0-2.08-.78-3.32-2.28A12.41,12.41,0,0,0,657.59,38.4Z"/><path class="cls-16" d="M644.6,44.26a2.4,2.4,0,0,1,1.67,1.41c.43,1.16.38,4.67,1.21,6.21a38.83,38.83,0,0,0,4.25,5.57,1.64,1.64,0,0,1,.67,1.74c-.23.49-1,1.27-1.56.89a37,37,0,0,1-5.21-6.23c-.69-1.45-2.56-6.44-2.37-7.68S644.11,44.37,644.6,44.26Z"/><path class="cls-16" d="M648,41.54a2.24,2.24,0,0,1,1.33,1.37c.29,1,0,3.88.63,5.24a35.5,35.5,0,0,0,3.25,5.1c.47.51.69,1.14.46,1.51s-.92.92-1.38.53a34.09,34.09,0,0,1-4-5.76c-.5-1.28-1.76-5.6-1.52-6.6S647.55,41.56,648,41.54Z"/><path class="cls-16" d="M652.5,40.45a1.76,1.76,0,0,1,1.14,1.23c.21.95-.21,3.71.28,5a29,29,0,0,0,2.69,4.7,1.28,1.28,0,0,1,.34,1.42c-.23.37-.9.93-1.3.59a27.53,27.53,0,0,1-3.37-5.29c-.38-1.2-1.29-5.26-1-6.23S652.11,40.49,652.5,40.45Z"/><path class="cls-16" d="M663.74,58.38c-.44.49-1.47,1.19-2.05.53a1.33,1.33,0,0,1,.37-1.8,5.37,5.37,0,0,1,1.93-.39C665.22,56.53,664.18,57.9,663.74,58.38Z"/><path class="cls-16" d="M660.06,60a1.37,1.37,0,0,0-.39.38,4.41,4.41,0,0,0-.46.76.84.84,0,0,0-.1.63.59.59,0,0,0,.45.35,1.27,1.27,0,0,0,.59-.05c.62-.18,1.89-.88,1.9-1.66S660.53,59.77,660.06,60Z"/><path class="cls-16" d="M663.45,56a1.88,1.88,0,0,0,1.2-.27,1.74,1.74,0,0,0,.43-.59c.3-.58,1.09-1.66.27-2a2.16,2.16,0,0,0-1.76.18,2.45,2.45,0,0,0-.74,1.21C662.51,55.45,662.26,56,663.45,56Z"/><path class="cls-4" d="M680.29,43.26a14.73,14.73,0,1,0-24.9-.72l-.26.82a2.69,2.69,0,0,0,1.76,3.36l1.25.39-.28,2.61-.13,1.19-.13,1.19a1.86,1.86,0,0,0,1.65,2l1,.11a1.86,1.86,0,0,0,2-1.65l.13-1.19,1.51.16-.13,1.19a1.86,1.86,0,0,0,1.65,2l1,.11a1.86,1.86,0,0,0,2-1.65l.13-1.19a3.76,3.76,0,0,1,5.19.55l-.13,1.19c-.11,1,.3,1.9,1.31,2l1,.11c1,.11,1.74-.84,1.85-1.86l.06-1.14a2.33,2.33,0,0,0,.72-1,17.76,17.76,0,0,0,.35-3.29l.3,0a2,2,0,0,0,1.57-2.27Z"/><circle class="cls-16" cx="663.88" cy="41.46" r="4.98" transform="translate(552.35 697.22) rotate(-83.92)"/><ellipse class="cls-16" cx="676.89" cy="42.84" rx="3.39" ry="1.8" transform="translate(562.61 711.39) rotate(-83.92)"/><path class="cls-16" d="M673.27,47.14c-.13-.63-.5-1.09-.84-1l-.07,0a.58.58,0,0,0-.27-.37c-.41-.22-1.09.23-1.51,1s-.42,1.59,0,1.82,1.09-.23,1.51-1v0c.16.53.49.9.79.84S673.4,47.77,673.27,47.14Z"/><path class="cls-3" d="M656.27,51.75c3.67-1.27,6-.28,9.3.91s5.35,1.95,6.8,2,3.28,1.93,1.88,2.4-11.57-4.22-13.07-3.84,1.32,2.39,3,2.86A49,49,0,0,0,670,57.49c2.26.37,6.66-3.14,6.64-.57s-2,2.4-3.7,2.29-7.72-.27-10.3-1.4S652.8,53,656.27,51.75Z"/><path class="cls-4" d="M651.22,38.08A2,2,0,0,0,649,36.72c-1.23,0-.72,1.52-1.79,2h0a2,2,0,0,0-.57.19,2.4,2.4,0,0,0-.82,3.27,2.69,2.69,0,0,0,1.5,1.32l.09.09a3.35,3.35,0,0,1,1.94,1.75c.69,1.42,3.76,6.33,3.95,7.6s1.34,2.33,2.09,1.91.35-1.68.79-2,2.16-1.38,1.33-2.58-1.65-.7-3-2.06-2.86-3.43-2.73-5.26c0-.39.06-.75.09-1.06a2.18,2.18,0,0,0,.14-2.34C652.6,38.23,651.48,38.91,651.22,38.08Z"/><path class="cls-4" d="M672.48,54.63c-2.85,2.44,1.82,3.62,2.36,5s.52,3.75,2.86,4.37-.37-1.45-.35-2.69,1.11-.9,2.29-.18-.14,3.22.79,3.79,1.76-3.64,1.5-4.34a13.12,13.12,0,0,0-2.24-2.49,3.92,3.92,0,0,1,2,.8c.7.68,1.44,3.59,2.17,3.26s0-2.35,0-2.35l-.31-2.72A7.49,7.49,0,0,0,680.85,55c-1.26-.36-4-2-5-1.85S674.7,52.73,672.48,54.63Z"/><path class="cls-5" d="M637.18,69a1.48,1.48,0,0,1-1.71-.93c-.44-.84.7-1.1.59-2h0a1.63,1.63,0,0,1-.1-.46,1.82,1.82,0,0,1,1.79-1.86,2,2,0,0,1,1.42.48l.09,0a2.45,2.45,0,0,0,1.87.61c1.18-.1,5.5,0,6.39-.37s2,0,2,.65-.94.91-1,1.33-.06,2-1.15,1.92-1.08-.84-2.49-1.24-3.3-.56-4.42.25l-.64.48a1.62,1.62,0,0,1-1.44,1C637.8,69.88,637.81,68.86,637.18,69Z"/><path class="cls-5" d="M536.84,70.35a1.48,1.48,0,0,1-1-1.69c.06-1,1.17-.57,1.55-1.4h0a1.63,1.63,0,0,1,.16-.44,1.82,1.82,0,0,1,2.49-.65,2,2,0,0,1,1,1.15l.06.07a2.45,2.45,0,0,0,1.27,1.5c1.05.53,4.68,2.89,5.63,3s1.73,1,1.39,1.61-1.28.28-1.53.62-1.1,1.68-2,1-.48-1.28-1.47-2.35-2.52-2.2-3.9-2.1l-.8.08a1.62,1.62,0,0,1-1.77.12C536.92,71.42,537.46,70.55,536.84,70.35Z"/><path class="cls-5" d="M434.34,73.53a1.48,1.48,0,0,1-.57-1.86c.27-.91,1.27-.29,1.82-1h0a1.63,1.63,0,0,1,.25-.4,1.82,1.82,0,0,1,2.58-.08,2,2,0,0,1,.68,1.34l0,.08a2.45,2.45,0,0,0,.91,1.75c.91.75,3.92,3.85,4.82,4.2s1.46,1.39,1,1.88-1.31,0-1.63.27-1.45,1.4-2.16.58-.19-1.36-.91-2.62-2-2.7-3.34-2.91l-.8-.1a1.62,1.62,0,0,1-1.75-.28C434.18,74.59,434.89,73.86,434.34,73.53Z"/></svg>