<svg xmlns="http://www.w3.org/2000/svg" viewBox="0 0 1300 100"><defs><style>.cls-1{fill:#7c7c7b;}.cls-2{fill:#757570;}.cls-3{fill:#5e5e5e;}.cls-4{fill:#565547;}.cls-5{fill:#6b6958;}.cls-6{fill:#878574;}.cls-7{fill:#c9c7b5;}.cls-8{fill:#b7b6a9;}</style></defs><title>skelehandboo</title><g id="Layer_1" data-name="Layer 1"><rect class="cls-1" x="25.95" y="14.35" width="52.05" height="52.05" rx="5.64" ry="5.64"/><rect class="cls-1" x="32.47" y="5.74" width="38.1" height="18.65" rx="6.5" ry="6.5"/><rect class="cls-2" x="20.34" y="62.08" width="62.89" height="18.53" rx="6.46" ry="6.46"/><rect class="cls-3" x="33.33" y="23.2" width="37.16" height="37.16" rx="4.65" ry="4.65"/><rect class="cls-1" x="37.1" y="26.7" width="9.09" height="9.09" rx="3.17" ry="3.17"/><rect class="cls-1" x="58.64" y="49.14" width="9.09" height="9.09" rx="3.17" ry="3.17"/><rect class="cls-1" x="48.28" y="37.58" width="9.09" height="9.09" rx="3.17" ry="3.17"/><rect class="cls-1" x="58.64" y="26.7" width="9.09" height="9.09" rx="3.17" ry="3.17"/><rect class="cls-1" x="37.1" y="49.14" width="9.09" height="9.09" rx="3.17" ry="3.17"/><rect class="cls-4" x="18.52" y="74.45" width="24.95" height="13.48" rx="4.7" ry="4.7"/><rect class="cls-4" x="35.03" y="71.34" width="32.71" height="18.41" rx="6.41" ry="6.41"/><rect class="cls-4" x="57.37" y="77.19" width="25.85" height="15.43" rx="5.38" ry="5.38"/><rect class="cls-4" x="65.2" y="71.2" width="12.03" height="12.03" rx="4.19" ry="4.19"/><rect class="cls-4" x="31" y="84.9" width="44.18" height="11.74" rx="4.09" ry="4.09"/><rect class="cls-5" x="24.1" y="83.23" width="21.58" height="9.39" rx="3.27" ry="3.27"/><rect class="cls-5" x="51.97" y="77.22" width="20.29" height="8.96" rx="3.12" ry="3.12"/><rect class="cls-5" x="27.99" y="79.13" width="28.34" height="8.8" rx="3.07" ry="3.07"/><rect class="cls-6" x="33.33" y="71.2" width="34.51" height="9.68" rx="3.38" ry="3.38"/><rect class="cls-1" x="125.95" y="14.35" width="52.05" height="52.05" rx="5.64" ry="5.64"/><rect class="cls-1" x="132.47" y="5.74" width="38.1" height="18.65" rx="6.5" ry="6.5"/><rect class="cls-2" x="120.34" y="62.08" width="62.89" height="18.53" rx="6.46" ry="6.46"/><rect class="cls-3" x="133.33" y="23.2" width="37.16" height="37.16" rx="4.65" ry="4.65"/><rect class="cls-1" x="137.1" y="26.7" width="9.09" height="9.09" rx="3.17" ry="3.17"/><rect class="cls-1" x="158.64" y="49.14" width="9.09" height="9.09" rx="3.17" ry="3.17"/><rect class="cls-1" x="148.28" y="37.58" width="9.09" height="9.09" rx="3.17" ry="3.17"/><rect class="cls-1" x="158.64" y="26.7" width="9.09" height="9.09" rx="3.17" ry="3.17"/><rect class="cls-1" x="137.1" y="49.14" width="9.09" height="9.09" rx="3.17" ry="3.17"/><rect class="cls-4" x="118.52" y="74.45" width="24.95" height="13.48" rx="4.7" ry="4.7"/><rect class="cls-4" x="135.03" y="71.34" width="32.71" height="18.41" rx="6.41" ry="6.41"/><rect class="cls-4" x="157.37" y="77.19" width="25.85" height="15.43" rx="5.38" ry="5.38"/><rect class="cls-4" x="165.2" y="71.2" width="12.03" height="12.03" rx="4.19" ry="4.19"/><rect class="cls-4" x="131" y="84.9" width="44.18" height="11.74" rx="4.09" ry="4.09"/><rect class="cls-5" x="124.1" y="83.23" width="21.58" height="9.39" rx="3.27" ry="3.27"/><rect class="cls-5" x="151.97" y="77.22" width="20.29" height="8.96" rx="3.12" ry="3.12"/><rect class="cls-5" x="127.99" y="79.13" width="28.34" height="8.8" rx="3.07" ry="3.07"/><rect class="cls-6" x="133.33" y="71.2" width="34.51" height="9.68" rx="3.38" ry="3.38"/></g><g id="Layer_2" data-name="Layer 2"><path class="cls-7" d="M153.41,79.4c4,2.92,2.68-1.35,3.78-1.73s3.52-.12,2.88-2.25-1.27.2-2.53.06-1.51-1.13-1.43-2.17,3.34.45,3.4-.37-4.63-2-5.21-1.83S153,73,153,73s-.6-1.23-.29-1.83,2.85-1,2.12-1.72-2.35-.19-2.35-.19l-2.59,0a3,3,0,0,0-.65,2.32c.31,1.15.09,3.54.85,4.55S150.28,77.12,153.41,79.4Z"/><rect class="cls-1" x="225.95" y="14.35" width="52.05" height="52.05" rx="5.64" ry="5.64"/><rect class="cls-1" x="232.47" y="5.74" width="38.1" height="18.65" rx="6.5" ry="6.5"/><rect class="cls-2" x="220.34" y="62.08" width="62.89" height="18.53" rx="6.46" ry="6.46"/><rect class="cls-3" x="233.33" y="23.2" width="37.16" height="37.16" rx="4.65" ry="4.65"/><rect class="cls-1" x="237.1" y="26.7" width="9.09" height="9.09" rx="3.17" ry="3.17"/><rect class="cls-1" x="258.64" y="49.14" width="9.09" height="9.09" rx="3.17" ry="3.17"/><rect class="cls-1" x="248.28" y="37.58" width="9.09" height="9.09" rx="3.17" ry="3.17"/><rect class="cls-1" x="258.64" y="26.7" width="9.09" height="9.09" rx="3.17" ry="3.17"/><rect class="cls-1" x="237.1" y="49.14" width="9.09" height="9.09" rx="3.17" ry="3.17"/><rect class="cls-4" x="218.52" y="74.45" width="24.95" height="13.48" rx="4.7" ry="4.7"/><rect class="cls-4" x="235.03" y="71.34" width="32.71" height="18.41" rx="6.41" ry="6.41"/><rect class="cls-4" x="257.37" y="77.19" width="25.85" height="15.43" rx="5.38" ry="5.38"/><rect class="cls-4" x="265.2" y="71.2" width="12.03" height="12.03" rx="4.19" ry="4.19"/><rect class="cls-4" x="231" y="84.9" width="44.18" height="11.74" rx="4.09" ry="4.09"/><rect class="cls-5" x="224.1" y="83.23" width="21.58" height="9.39" rx="3.27" ry="3.27"/><rect class="cls-5" x="251.97" y="77.22" width="20.29" height="8.96" rx="3.12" ry="3.12"/><rect class="cls-5" x="227.99" y="79.13" width="28.34" height="8.8" rx="3.07" ry="3.07"/><rect class="cls-6" x="233.33" y="71.2" width="34.51" height="9.68" rx="3.38" ry="3.38"/><path class="cls-7" d="M259.49,76c4.62-1.8-.47-4.8-.47-6.59s1.17-4.5-1.37-6-.25,1.8-.86,3.21-1.78.65-2.87-.6,1.71-3.66.85-4.64-3.87,3.57-3.89,4.47,1.52,3.66,1.52,3.66a4.51,4.51,0,0,1-2.08-1.64c-.53-1,0-4.64-1.07-4.51s-1.07,2.72-1.07,2.72l-.93,3.24s.91,2.48,2.27,3.34,3.86,3.76,5.22,3.91S255.88,77.41,259.49,76Z"/><rect class="cls-1" x="325.95" y="14.35" width="52.05" height="52.05" rx="5.64" ry="5.64"/><rect class="cls-1" x="332.47" y="5.74" width="38.1" height="18.65" rx="6.5" ry="6.5"/><rect class="cls-2" x="320.34" y="62.08" width="62.89" height="18.53" rx="6.46" ry="6.46"/><rect class="cls-3" x="333.33" y="23.2" width="37.16" height="37.16" rx="4.65" ry="4.65"/><rect class="cls-1" x="337.1" y="26.7" width="9.09" height="9.09" rx="3.17" ry="3.17"/><rect class="cls-1" x="358.64" y="49.14" width="9.09" height="9.09" rx="3.17" ry="3.17"/><rect class="cls-1" x="348.28" y="37.58" width="9.09" height="9.09" rx="3.17" ry="3.17"/><rect class="cls-1" x="358.64" y="26.7" width="9.09" height="9.09" rx="3.17" ry="3.17"/><rect class="cls-1" x="337.1" y="49.14" width="9.09" height="9.09" rx="3.17" ry="3.17"/><rect class="cls-4" x="318.52" y="74.45" width="24.95" height="13.48" rx="4.7" ry="4.7"/><rect class="cls-4" x="335.03" y="71.34" width="32.71" height="18.41" rx="6.41" ry="6.41"/><rect class="cls-4" x="357.37" y="77.19" width="25.85" height="15.43" rx="5.38" ry="5.38"/><rect class="cls-4" x="365.2" y="71.2" width="12.03" height="12.03" rx="4.19" ry="4.19"/><rect class="cls-4" x="331" y="84.9" width="44.18" height="11.74" rx="4.09" ry="4.09"/><rect class="cls-5" x="324.1" y="83.23" width="21.58" height="9.39" rx="3.27" ry="3.27"/><rect class="cls-5" x="351.97" y="77.22" width="20.29" height="8.96" rx="3.12" ry="3.12"/><rect class="cls-5" x="327.99" y="79.13" width="28.34" height="8.8" rx="3.07" ry="3.07"/><rect class="cls-6" x="333.33" y="71.2" width="34.51" height="9.68" rx="3.38" ry="3.38"/><path class="cls-8" d="M356.41,79.11c-3.38-1.06-3.48-2.83-3.85-5.19s-.59-3.85-1.3-4.59.48-2.8,1.76-2.39,1.26,8.33,2.48,8.84,2-2.1,1.7-3.22a16.78,16.78,0,0,0-1.42-3.76c-.77-1.35-7.09-1.43-4.14-3s3.79-.46,4.57.46,3.75,4,3.81,6S359.61,80.12,356.41,79.11Z"/><path class="cls-7" d="M353.49,68.26c4.62-1.8-.47-4.8-.47-6.59s1.17-4.5-1.37-6-.25,1.8-.86,3.21-1.78.65-2.87-.6,1.71-3.66.85-4.64-3.87,3.57-3.89,4.47,1.52,3.66,1.52,3.66a4.51,4.51,0,0,1-2.08-1.64c-.53-1,0-4.64-1.07-4.51s-1.07,2.72-1.07,2.72l-.93,3.24s.91,2.48,2.27,3.34,3.86,3.76,5.22,3.91S349.88,69.67,353.49,68.26Z"/><rect class="cls-1" x="425.95" y="14.35" width="52.05" height="52.05" rx="5.64" ry="5.64"/><rect class="cls-1" x="432.47" y="5.74" width="38.1" height="18.65" rx="6.5" ry="6.5"/><rect class="cls-2" x="420.34" y="62.08" width="62.89" height="18.53" rx="6.46" ry="6.46"/><rect class="cls-3" x="433.33" y="23.2" width="37.16" height="37.16" rx="4.65" ry="4.65"/><rect class="cls-1" x="437.1" y="26.7" width="9.09" height="9.09" rx="3.17" ry="3.17"/><rect class="cls-1" x="458.64" y="49.14" width="9.09" height="9.09" rx="3.17" ry="3.17"/><rect class="cls-1" x="448.28" y="37.58" width="9.09" height="9.09" rx="3.17" ry="3.17"/><rect class="cls-1" x="458.64" y="26.7" width="9.09" height="9.09" rx="3.17" ry="3.17"/><rect class="cls-1" x="437.1" y="49.14" width="9.09" height="9.09" rx="3.17" ry="3.17"/><rect class="cls-4" x="418.52" y="74.45" width="24.95" height="13.48" rx="4.7" ry="4.7"/><rect class="cls-4" x="435.03" y="71.34" width="32.71" height="18.41" rx="6.41" ry="6.41"/><rect class="cls-4" x="457.37" y="77.19" width="25.85" height="15.43" rx="5.38" ry="5.38"/><rect class="cls-4" x="465.2" y="71.2" width="12.03" height="12.03" rx="4.19" ry="4.19"/><rect class="cls-4" x="431" y="84.9" width="44.18" height="11.74" rx="4.09" ry="4.09"/><rect class="cls-5" x="424.1" y="83.23" width="21.58" height="9.39" rx="3.27" ry="3.27"/><rect class="cls-5" x="451.97" y="77.22" width="20.29" height="8.96" rx="3.12" ry="3.12"/><rect class="cls-5" x="427.99" y="79.13" width="28.34" height="8.8" rx="3.07" ry="3.07"/><rect class="cls-6" x="433.33" y="71.2" width="34.51" height="9.68" rx="3.38" ry="3.38"/><path class="cls-8" d="M455.48,78.25c-4.06-1.73-4.8-4.31-6.07-7.77s-2-5.63-3.09-6.76-.5-4.06,1-3.38,4.4,12.19,5.92,13,1.45-3,.67-4.6A40.72,40.72,0,0,0,451,63.19c-1.33-2-8.21-2.45-5.58-4.55s3.95-.46,5.12.92,5.54,6.05,6.32,8.93S459.32,79.89,455.48,78.25Z"/><path class="cls-7" d="M448.14,60c2.9-4-3-3.78-4-5.27s-1.47-4.41-4.43-4.32.77,1.65,1,3.17-1.14,1.51-2.73,1.06-.55-4-1.8-4.36-1.31,5.1-.84,5.87,3.26,2.25,3.26,2.25a4.51,4.51,0,0,1-2.63-.25c-1-.58-2.54-3.88-3.35-3.21s.58,2.87.58,2.87l1,3.23s2.11,1.59,3.72,1.58,5.28,1.06,6.5.45S445.87,63.19,448.14,60Z"/><rect class="cls-1" x="525.95" y="14.35" width="52.05" height="52.05" rx="5.64" ry="5.64"/><rect class="cls-1" x="532.47" y="5.74" width="38.1" height="18.65" rx="6.5" ry="6.5"/><rect class="cls-2" x="520.34" y="62.08" width="62.89" height="18.53" rx="6.46" ry="6.46"/><rect class="cls-3" x="533.33" y="23.2" width="37.16" height="37.16" rx="4.65" ry="4.65"/><rect class="cls-1" x="537.1" y="26.7" width="9.09" height="9.09" rx="3.17" ry="3.17"/><rect class="cls-1" x="558.64" y="49.14" width="9.09" height="9.09" rx="3.17" ry="3.17"/><rect class="cls-1" x="548.28" y="37.58" width="9.09" height="9.09" rx="3.17" ry="3.17"/><rect class="cls-1" x="558.64" y="26.7" width="9.09" height="9.09" rx="3.17" ry="3.17"/><rect class="cls-1" x="537.1" y="49.14" width="9.09" height="9.09" rx="3.17" ry="3.17"/><rect class="cls-4" x="518.52" y="74.45" width="24.95" height="13.48" rx="4.7" ry="4.7"/><rect class="cls-4" x="535.03" y="71.34" width="32.71" height="18.41" rx="6.41" ry="6.41"/><rect class="cls-4" x="557.37" y="77.19" width="25.85" height="15.43" rx="5.38" ry="5.38"/><rect class="cls-4" x="565.2" y="71.2" width="12.03" height="12.03" rx="4.19" ry="4.19"/><rect class="cls-4" x="531" y="84.9" width="44.18" height="11.74" rx="4.09" ry="4.09"/><rect class="cls-5" x="524.1" y="83.23" width="21.58" height="9.39" rx="3.27" ry="3.27"/><rect class="cls-5" x="551.97" y="77.22" width="20.29" height="8.96" rx="3.12" ry="3.12"/><rect class="cls-5" x="527.99" y="79.13" width="28.34" height="8.8" rx="3.07" ry="3.07"/><rect class="cls-6" x="533.33" y="71.2" width="34.51" height="9.68" rx="3.38" ry="3.38"/><path class="cls-8" d="M553.33,70.23c-4.41-.07-6.08-2.17-8.56-4.89s-4-4.44-5.42-5.08-2-3.56-.32-3.52,8.69,9.62,10.4,9.8.22-3.28-1.12-4.51a40.72,40.72,0,0,0-4.8-4c-2-1.36-8.53.84-6.88-2.1s3.48-1.92,5.09-1.09,7.41,3.51,9.23,5.87S557.51,70.29,553.33,70.23Z"/><path class="cls-7" d="M540.29,55.34c2.9-4-3-3.78-4-5.27s-1.47-4.41-4.43-4.32.77,1.65,1,3.17-1.14,1.51-2.73,1.06-.55-4-1.8-4.36-1.31,5.1-.84,5.87,3.26,2.25,3.26,2.25a4.51,4.51,0,0,1-2.63-.25c-1-.58-2.54-3.88-3.35-3.21s.58,2.87.58,2.87l1,3.23s2.11,1.59,3.72,1.58,5.28,1.06,6.5.45S538,58.48,540.29,55.34Z"/><path class="cls-7" d="M551.11,77.61c-.13.56.38,1,1.87,1.23s1.7-.82,3.24-.93h0a5.26,5.26,0,0,0,.79,0c1.62-.16,2.86-1,2.78-1.9,0-.47-.46-.85-1.07-1.08l-.06-.07s-1.31-.43-1.36-1.44-1-4.61-.55-5.44-.32-1.69-1.45-1.56-1.35,1-2,1.11-3.35.48-3,1.38,1.59.73,2.51,1.82,1.53,2.64.38,3.76l-.69.65c-.9.3-1.51.86-1.45,1.43C549.54,77.28,551.24,77.05,551.11,77.61Z"/><rect class="cls-1" x="625.95" y="14.35" width="52.05" height="52.05" rx="5.64" ry="5.64"/><rect class="cls-1" x="632.47" y="5.74" width="38.1" height="18.65" rx="6.5" ry="6.5"/><rect class="cls-2" x="620.34" y="62.08" width="62.89" height="18.53" rx="6.46" ry="6.46"/><rect class="cls-3" x="633.33" y="23.2" width="37.16" height="37.16" rx="4.65" ry="4.65"/><rect class="cls-1" x="637.1" y="26.7" width="9.09" height="9.09" rx="3.17" ry="3.17"/><rect class="cls-1" x="658.64" y="49.14" width="9.09" height="9.09" rx="3.17" ry="3.17"/><rect class="cls-1" x="648.28" y="37.58" width="9.09" height="9.09" rx="3.17" ry="3.17"/><rect class="cls-1" x="658.64" y="26.7" width="9.09" height="9.09" rx="3.17" ry="3.17"/><rect class="cls-1" x="637.1" y="49.14" width="9.09" height="9.09" rx="3.17" ry="3.17"/><rect class="cls-4" x="618.52" y="74.45" width="24.95" height="13.48" rx="4.7" ry="4.7"/><rect class="cls-4" x="635.03" y="71.34" width="32.71" height="18.41" rx="6.41" ry="6.41"/><rect class="cls-4" x="657.37" y="77.19" width="25.85" height="15.43" rx="5.38" ry="5.38"/><rect class="cls-4" x="665.2" y="71.2" width="12.03" height="12.03" rx="4.19" ry="4.19"/><rect class="cls-4" x="631" y="84.9" width="44.18" height="11.74" rx="4.09" ry="4.09"/><rect class="cls-5" x="624.1" y="83.23" width="21.58" height="9.39" rx="3.27" ry="3.27"/><rect class="cls-5" x="651.97" y="77.22" width="20.29" height="8.96" rx="3.12" ry="3.12"/><rect class="cls-5" x="627.99" y="79.13" width="28.34" height="8.8" rx="3.07" ry="3.07"/><rect class="cls-6" x="633.33" y="71.2" width="34.51" height="9.68" rx="3.38" ry="3.38"/><path class="cls-8" d="M655.28,61.1c-4,1.87-6.41.71-9.84-.65s-5.56-2.23-7.09-2.2-3.36-2.33-1.83-3,12,4.85,13.64,4.26-1.23-3-3-3.57a40.72,40.72,0,0,0-6.09-1.53c-2.38-.35-7.31,4.49-7.11,1.12s2.29-3.25,4.1-3.21,8.2-.09,10.87,1.24S659.07,59.33,655.28,61.1Z"/><path class="cls-7" d="M637.09,54.12c.24-5-4.58-1.53-6.21-2.25s-3.63-2.9-6.07-1.21,1.54,1,2.58,2.1-.13,1.89-1.71,2.38-2.64-3.05-3.89-2.67,1.68,5,2.5,5.38,4,.1,4,.1a4.51,4.51,0,0,1-2.34,1.23c-1.16.06-4.24-1.87-4.56-.86s2.05,2.08,2.05,2.08L626,62.57s2.63.18,4-.71,5-2,5.69-3.17S636.9,58,637.09,54.12Z"/><path class="cls-7" d="M651,76.59c-.09.94.45,1.79,2,2.21s1.66-1.27,3.2-1.35h0a3.16,3.16,0,0,0,.79,0,2.85,2.85,0,0,0,2.66-3,2.64,2.64,0,0,0-1.15-1.91l-.07-.12a3.36,3.36,0,0,1-1.47-2.52c-.12-1.71-1.35-7.86-.93-9.22s-.44-2.88-1.57-2.73-1.29,1.57-2,1.72-3.34.58-2.93,2.12,1.66,1.34,2.66,3.24,1.73,4.57.64,6.38c-.23.39-.46.73-.65,1a2.35,2.35,0,0,0-1.36,2.32C649.4,75.91,651.1,75.64,651,76.59Z"/><rect class="cls-1" x="725.95" y="14.35" width="52.05" height="52.05" rx="5.64" ry="5.64"/><rect class="cls-1" x="732.47" y="5.74" width="38.1" height="18.65" rx="6.5" ry="6.5"/><rect class="cls-2" x="720.34" y="62.08" width="62.89" height="18.53" rx="6.46" ry="6.46"/><rect class="cls-3" x="733.33" y="23.2" width="37.16" height="37.16" rx="4.65" ry="4.65"/><rect class="cls-1" x="737.1" y="26.7" width="9.09" height="9.09" rx="3.17" ry="3.17"/><rect class="cls-1" x="758.64" y="49.14" width="9.09" height="9.09" rx="3.17" ry="3.17"/><rect class="cls-1" x="748.28" y="37.58" width="9.09" height="9.09" rx="3.17" ry="3.17"/><rect class="cls-1" x="758.64" y="26.7" width="9.09" height="9.09" rx="3.17" ry="3.17"/><rect class="cls-1" x="737.1" y="49.14" width="9.09" height="9.09" rx="3.17" ry="3.17"/><rect class="cls-4" x="718.52" y="74.45" width="24.95" height="13.48" rx="4.7" ry="4.7"/><rect class="cls-4" x="735.03" y="71.34" width="32.71" height="18.41" rx="6.41" ry="6.41"/><rect class="cls-4" x="757.37" y="77.19" width="25.85" height="15.43" rx="5.38" ry="5.38"/><rect class="cls-4" x="765.2" y="71.2" width="12.03" height="12.03" rx="4.19" ry="4.19"/><rect class="cls-4" x="731" y="84.9" width="44.18" height="11.74" rx="4.09" ry="4.09"/><rect class="cls-5" x="724.1" y="83.23" width="21.58" height="9.39" rx="3.27" ry="3.27"/><rect class="cls-5" x="751.97" y="77.22" width="20.29" height="8.96" rx="3.12" ry="3.12"/><rect class="cls-5" x="727.99" y="79.13" width="28.34" height="8.8" rx="3.07" ry="3.07"/><rect class="cls-6" x="733.33" y="71.2" width="34.51" height="9.68" rx="3.38" ry="3.38"/><path class="cls-8" d="M754.86,62.51c-4.3-1-5.5-3.38-7.36-6.56s-3-5.18-4.25-6.09-1.22-3.9.41-3.51,6.51,11.21,8.15,11.74.9-3.16-.17-4.65a40.72,40.72,0,0,0-3.86-4.95c-1.66-1.74-8.52-.95-6.3-3.48s3.8-1.16,5.21,0,6.53,5,7.81,7.65S758.94,63.44,754.86,62.51Z"/><path class="cls-7" d="M745.67,46c1.3-4.79-4.14-2.48-5.58-3.54s-2.92-3.61-5.67-2.49,1.3,1.27,2.07,2.61-.54,1.81-2.18,2-1.92-3.55-3.22-3.44.57,5.23,1.28,5.79,3.84,1,3.84,1a4.51,4.51,0,0,1-2.55.7c-1.14-.19-3.74-2.74-4.26-1.82s1.55,2.48,1.55,2.48L733,51.89s2.53.75,4,.17,5.31-.86,6.24-1.87S744.65,49.77,745.67,46Z"/><path class="cls-7" d="M751.24,76.3c-.17.93.31,1.82,1.78,2.36s1.75-1.14,3.3-1.09h0a3.16,3.16,0,0,0,.79.09,2.85,2.85,0,0,0,2.9-2.8,2.64,2.64,0,0,0-1-2l-.06-.13a3.36,3.36,0,0,1-1.26-2.63c0-1.71-.71-7.94-.18-9.27s-.21-2.91-1.34-2.85-1.41,1.46-2.11,1.56-3.37.31-3.09,1.88,1.54,1.47,2.39,3.45,1.35,4.69.12,6.41c-.27.37-.52.69-.73,1a2.35,2.35,0,0,0-1.54,2.2C749.7,75.49,751.41,75.36,751.24,76.3Z"/><rect class="cls-1" x="825.95" y="14.35" width="52.05" height="52.05" rx="5.64" ry="5.64"/><rect class="cls-1" x="832.47" y="5.74" width="38.1" height="18.65" rx="6.5" ry="6.5"/><rect class="cls-2" x="820.34" y="62.08" width="62.89" height="18.53" rx="6.46" ry="6.46"/><rect class="cls-3" x="833.33" y="23.2" width="37.16" height="37.16" rx="4.65" ry="4.65"/><rect class="cls-1" x="837.1" y="26.7" width="9.09" height="9.09" rx="3.17" ry="3.17"/><rect class="cls-1" x="858.64" y="49.14" width="9.09" height="9.09" rx="3.17" ry="3.17"/><rect class="cls-1" x="848.28" y="37.58" width="9.09" height="9.09" rx="3.17" ry="3.17"/><rect class="cls-1" x="858.64" y="26.7" width="9.09" height="9.09" rx="3.17" ry="3.17"/><rect class="cls-1" x="837.1" y="49.14" width="9.09" height="9.09" rx="3.17" ry="3.17"/><rect class="cls-4" x="818.52" y="74.45" width="24.95" height="13.48" rx="4.7" ry="4.7"/><rect class="cls-4" x="835.03" y="71.34" width="32.71" height="18.41" rx="6.41" ry="6.41"/><rect class="cls-4" x="857.37" y="77.19" width="25.85" height="15.43" rx="5.38" ry="5.38"/><rect class="cls-4" x="865.2" y="71.2" width="12.03" height="12.03" rx="4.19" ry="4.19"/><rect class="cls-4" x="831" y="84.9" width="44.18" height="11.74" rx="4.09" ry="4.09"/><rect class="cls-5" x="824.1" y="83.23" width="21.58" height="9.39" rx="3.27" ry="3.27"/><rect class="cls-5" x="851.97" y="77.22" width="20.29" height="8.96" rx="3.12" ry="3.12"/><rect class="cls-5" x="827.99" y="79.13" width="28.34" height="8.8" rx="3.07" ry="3.07"/><rect class="cls-6" x="833.33" y="71.2" width="34.51" height="9.68" rx="3.38" ry="3.38"/><path class="cls-8" d="M852.77,60.79c-3.25-3-3.1-5.66-3.15-9.34s-.05-6-.67-7.4.88-4,2.1-2.84.1,13,1.26,14.23,2.34-2.3,2.16-4.12a40.72,40.72,0,0,0-.9-6.21c-.58-2.34-6.93-5-3.75-6.14s3.88.88,4.53,2.57,3.21,7.55,3,10.52S855.85,63.62,852.77,60.79Z"/><path class="cls-7" d="M852,42.79c4.86-1,.33-4.82.62-6.58s1.89-4.25-.35-6.18-.55,1.73-1.38,3-1.86.35-2.73-1.06,2.29-3.32,1.61-4.43-4.4,2.88-4.58,3.77.89,3.86.89,3.86a4.51,4.51,0,0,1-1.78-2c-.35-1.1.74-4.58-.31-4.63s-1.5,2.51-1.5,2.51l-1.45,3s.49,2.6,1.68,3.67,3.18,4.34,4.5,4.71S848.23,43.58,852,42.79Z"/><path class="cls-7" d="M851.24,76.3c-.17.93.31,1.82,1.78,2.36s1.75-1.14,3.3-1.09h0a3.16,3.16,0,0,0,.79.09,2.85,2.85,0,0,0,2.9-2.8,2.64,2.64,0,0,0-1-2l-.06-.13a3.36,3.36,0,0,1-1.26-2.63c0-1.71-.71-7.94-.18-9.27s-.21-2.91-1.34-2.85-1.41,1.46-2.11,1.56-3.37.31-3.09,1.88,1.54,1.47,2.39,3.45,1.35,4.69.12,6.41c-.27.37-.52.69-.73,1a2.35,2.35,0,0,0-1.54,2.2C849.7,75.49,851.41,75.36,851.24,76.3Z"/><rect class="cls-1" x="925.95" y="14.35" width="52.05" height="52.05" rx="5.64" ry="5.64"/><rect class="cls-1" x="932.47" y="5.74" width="38.1" height="18.65" rx="6.5" ry="6.5"/><rect class="cls-2" x="920.34" y="62.08" width="62.89" height="18.53" rx="6.46" ry="6.46"/><rect class="cls-3" x="933.33" y="23.2" width="37.16" height="37.16" rx="4.65" ry="4.65"/><rect class="cls-1" x="937.1" y="26.7" width="9.09" height="9.09" rx="3.17" ry="3.17"/><rect class="cls-1" x="958.64" y="49.14" width="9.09" height="9.09" rx="3.17" ry="3.17"/><rect class="cls-1" x="948.28" y="37.58" width="9.09" height="9.09" rx="3.17" ry="3.17"/><rect class="cls-1" x="958.64" y="26.7" width="9.09" height="9.09" rx="3.17" ry="3.17"/><rect class="cls-1" x="937.1" y="49.14" width="9.09" height="9.09" rx="3.17" ry="3.17"/><rect class="cls-4" x="918.52" y="74.45" width="24.95" height="13.48" rx="4.7" ry="4.7"/><rect class="cls-4" x="935.03" y="71.34" width="32.71" height="18.41" rx="6.41" ry="6.41"/><rect class="cls-4" x="957.37" y="77.19" width="25.85" height="15.43" rx="5.38" ry="5.38"/><rect class="cls-4" x="965.2" y="71.2" width="12.03" height="12.03" rx="4.19" ry="4.19"/><rect class="cls-4" x="931" y="84.9" width="44.18" height="11.74" rx="4.09" ry="4.09"/><rect class="cls-5" x="924.1" y="83.23" width="21.58" height="9.39" rx="3.27" ry="3.27"/><rect class="cls-5" x="951.97" y="77.22" width="20.29" height="8.96" rx="3.12" ry="3.12"/><rect class="cls-5" x="927.99" y="79.13" width="28.34" height="8.8" rx="3.07" ry="3.07"/><rect class="cls-6" x="933.33" y="71.2" width="34.51" height="9.68" rx="3.38" ry="3.38"/><path class="cls-8" d="M953.35,59.85c-1.56-4.12-.22-6.45,1.4-9.76s2.65-5.37,2.73-6.91,2.58-3.17,3.15-1.59-5.74,11.62-5.28,13.27,3.13-1,3.78-2.71a40.72,40.72,0,0,0,2-6c.53-2.35-3.92-7.62-.58-7.17s3.07,2.53,2.89,4.33-.53,8.18-2.06,10.74S954.83,63.76,953.35,59.85Z"/><path class="cls-7" d="M960.07,41.62c2.59,4.24,4.65-1.3,6.4-1.62s4.63.36,5.7-2.41-1.82.07-3.32-.29-.95-1.64.08-2.93,3.9,1,4.72,0-4.19-3.18-5.08-3-3.33,2.13-3.33,2.13a4.51,4.51,0,0,1,1.25-2.33c.92-.7,4.56-.84,4.25-1.85s-2.87-.57-2.87-.57l-3.36-.35s-2.28,1.33-2.9,2.82-3,4.45-2.93,5.82S958.05,38.31,960.07,41.62Z"/><path class="cls-7" d="M951.24,76.3c-.17.93.31,1.82,1.78,2.36s1.75-1.14,3.3-1.09h0a3.16,3.16,0,0,0,.79.09,2.85,2.85,0,0,0,2.9-2.8,2.64,2.64,0,0,0-1-2l-.06-.13a3.36,3.36,0,0,1-1.26-2.63c0-1.71-.71-7.94-.18-9.27s-.21-2.91-1.34-2.85-1.41,1.46-2.11,1.56-3.37.31-3.09,1.88,1.54,1.47,2.39,3.45,1.35,4.69.12,6.41c-.27.37-.52.69-.73,1a2.35,2.35,0,0,0-1.54,2.2C949.7,75.49,951.41,75.36,951.24,76.3Z"/><rect class="cls-1" x="1025.95" y="14.35" width="52.05" height="52.05" rx="5.64" ry="5.64"/><rect class="cls-1" x="1032.47" y="5.74" width="38.1" height="18.65" rx="6.5" ry="6.5"/><rect class="cls-2" x="1020.34" y="62.08" width="62.89" height="18.53" rx="6.46" ry="6.46"/><rect class="cls-3" x="1033.33" y="23.2" width="37.16" height="37.16" rx="4.65" ry="4.65"/><rect class="cls-1" x="1037.1" y="26.7" width="9.09" height="9.09" rx="3.17" ry="3.17"/><rect class="cls-1" x="1058.64" y="49.14" width="9.09" height="9.09" rx="3.17" ry="3.17"/><rect class="cls-1" x="1048.28" y="37.58" width="9.09" height="9.09" rx="3.17" ry="3.17"/><rect class="cls-1" x="1058.64" y="26.7" width="9.09" height="9.09" rx="3.17" ry="3.17"/><rect class="cls-1" x="1037.1" y="49.14" width="9.09" height="9.09" rx="3.17" ry="3.17"/><rect class="cls-4" x="1018.52" y="74.45" width="24.95" height="13.48" rx="4.7" ry="4.7"/><rect class="cls-4" x="1035.03" y="71.34" width="32.71" height="18.41" rx="6.41" ry="6.41"/><rect class="cls-4" x="1057.37" y="77.19" width="25.85" height="15.43" rx="5.38" ry="5.38"/><rect class="cls-4" x="1065.2" y="71.2" width="12.03" height="12.03" rx="4.19" ry="4.19"/><rect class="cls-4" x="1031" y="84.9" width="44.18" height="11.74" rx="4.09" ry="4.09"/><rect class="cls-5" x="1024.1" y="83.23" width="21.58" height="9.39" rx="3.27" ry="3.27"/><rect class="cls-5" x="1051.97" y="77.22" width="20.29" height="8.96" rx="3.12" ry="3.12"/><rect class="cls-5" x="1027.99" y="79.13" width="28.34" height="8.8" rx="3.07" ry="3.07"/><rect class="cls-6" x="1033.33" y="71.2" width="34.51" height="9.68" rx="3.38" ry="3.38"/><path class="cls-8" d="M1053.22,60c-.32-4.4,1.63-6.24,4.12-9s4.07-4.39,4.59-5.84,3.38-2.3,3.48-.63-8.82,9.49-8.85,11.22,3.28-.07,4.4-1.51a40.72,40.72,0,0,0,3.6-5.14c1.18-2.1-1.58-8.43,1.49-7s2.22,3.3,1.53,5-2.84,7.69-5,9.71S1053.52,64.17,1053.22,60Z"/><path class="cls-7" d="M1065.21,45c.21,5,4.7,1.11,6.39,1.69s3.88,2.56,6.16.66-1.62-.82-2.76-1.86,0-1.89,1.49-2.52,2.9,2.8,4.11,2.31-2.12-4.81-3-5.13-3.95.25-3.95.25a4.51,4.51,0,0,1,2.22-1.44c1.15-.17,4.4,1.48,4.62.45s-2.23-1.89-2.23-1.89l-2.77-1.93s-2.64.06-3.9,1.06-4.8,2.43-5.38,3.67S1065,41.09,1065.21,45Z"/><path class="cls-7" d="M1051.24,76.3c-.17.93.31,1.82,1.78,2.36s1.75-1.14,3.3-1.09h0a3.16,3.16,0,0,0,.79.09,2.85,2.85,0,0,0,2.9-2.8,2.64,2.64,0,0,0-1-2l-.06-.13a3.36,3.36,0,0,1-1.26-2.63c0-1.71-.71-7.94-.18-9.27s-.21-2.91-1.34-2.85-1.41,1.46-2.11,1.56-3.37.31-3.09,1.88,1.54,1.47,2.39,3.45,1.35,4.69.12,6.41c-.27.37-.52.69-.73,1a2.35,2.35,0,0,0-1.54,2.2C1049.7,75.49,1051.41,75.36,1051.24,76.3Z"/><rect class="cls-1" x="1125.95" y="14.35" width="52.05" height="52.05" rx="5.64" ry="5.64"/><rect class="cls-1" x="1132.47" y="5.74" width="38.1" height="18.65" rx="6.5" ry="6.5"/><rect class="cls-2" x="1120.34" y="62.08" width="62.89" height="18.53" rx="6.46" ry="6.46"/><rect class="cls-3" x="1133.33" y="23.2" width="37.16" height="37.16" rx="4.65" ry="4.65"/><rect class="cls-1" x="1137.1" y="26.7" width="9.09" height="9.09" rx="3.17" ry="3.17"/><rect class="cls-1" x="1158.64" y="49.14" width="9.09" height="9.09" rx="3.17" ry="3.17"/><rect class="cls-1" x="1148.28" y="37.58" width="9.09" height="9.09" rx="3.17" ry="3.17"/><rect class="cls-1" x="1158.64" y="26.7" width="9.09" height="9.09" rx="3.17" ry="3.17"/><rect class="cls-1" x="1137.1" y="49.14" width="9.09" height="9.09" rx="3.17" ry="3.17"/><rect class="cls-4" x="1118.52" y="74.45" width="24.95" height="13.48" rx="4.7" ry="4.7"/><rect class="cls-4" x="1135.03" y="71.34" width="32.71" height="18.41" rx="6.41" ry="6.41"/><rect class="cls-4" x="1157.37" y="77.19" width="25.85" height="15.43" rx="5.38" ry="5.38"/><rect class="cls-4" x="1165.2" y="71.2" width="12.03" height="12.03" rx="4.19" ry="4.19"/><rect class="cls-4" x="1131" y="84.9" width="44.18" height="11.74" rx="4.09" ry="4.09"/><rect class="cls-5" x="1124.1" y="83.23" width="21.58" height="9.39" rx="3.27" ry="3.27"/><rect class="cls-5" x="1151.97" y="77.22" width="20.29" height="8.96" rx="3.12" ry="3.12"/><rect class="cls-5" x="1127.99" y="79.13" width="28.34" height="8.8" rx="3.07" ry="3.07"/><rect class="cls-6" x="1133.33" y="71.2" width="34.51" height="9.68" rx="3.38" ry="3.38"/><path class="cls-8" d="M1154.46,59.06c.46-4.38,2.71-5.86,5.64-8.09s4.78-3.61,5.55-4.94,3.73-1.67,3.53,0-10.35,7.79-10.69,9.48,3.24.51,4.6-.71a40.72,40.72,0,0,0,4.45-4.42c1.53-1.86-.07-8.57,2.71-6.67s1.6,3.64.63,5.17-4.16,7.07-6.67,8.66S1154,63.21,1154.46,59.06Z"/><path class="cls-7" d="M1169.8,45.18c-.62,4.93,4.45,1.88,6,2.72s3.4,3.17,6,1.67-1.46-1.08-2.41-2.29.28-1.87,1.89-2.24,2.4,3.25,3.67,3-1.29-5.1-2.08-5.55-3.94-.41-3.94-.41a4.51,4.51,0,0,1,2.43-1c1.16,0,4.09,2.19,4.48,1.21s-1.88-2.24-1.88-2.24l-2.41-2.36s-2.61-.38-4,.4-5.14,1.6-5.92,2.72S1170.28,41.34,1169.8,45.18Z"/><path class="cls-7" d="M1151.47,74.92c-.36.88-.08,1.84,1.25,2.68s2-.74,3.45-.37h0a3.16,3.16,0,0,0,.75.25,2.85,2.85,0,0,0,3.42-2.13,2.64,2.64,0,0,0-.55-2.16l0-.14a3.36,3.36,0,0,1-.68-2.84c.38-1.67,1-7.91,1.76-9.1s.41-2.88-.71-3.07-1.68,1.14-2.39,1.08-3.36-.4-3.42,1.19,1.2,1.76,1.61,3.87.34,4.87-1.22,6.29c-.34.31-.65.57-.92.81a2.35,2.35,0,0,0-2,1.83C1150.13,73.82,1151.83,74,1151.47,74.92Z"/><rect class="cls-1" x="1225.95" y="14.35" width="52.05" height="52.05" rx="5.64" ry="5.64"/><rect class="cls-1" x="1232.47" y="5.74" width="38.1" height="18.65" rx="6.5" ry="6.5"/><rect class="cls-2" x="1220.34" y="62.08" width="62.89" height="18.53" rx="6.46" ry="6.46"/><rect class="cls-3" x="1233.33" y="23.2" width="37.16" height="37.16" rx="4.65" ry="4.65"/><rect class="cls-1" x="1237.1" y="26.7" width="9.09" height="9.09" rx="3.17" ry="3.17"/><rect class="cls-1" x="1258.64" y="49.14" width="9.09" height="9.09" rx="3.17" ry="3.17"/><rect class="cls-1" x="1248.28" y="37.58" width="9.09" height="9.09" rx="3.17" ry="3.17"/><rect class="cls-1" x="1258.64" y="26.7" width="9.09" height="9.09" rx="3.17" ry="3.17"/><rect class="cls-1" x="1237.1" y="49.14" width="9.09" height="9.09" rx="3.17" ry="3.17"/><rect class="cls-4" x="1218.52" y="74.45" width="24.95" height="13.48" rx="4.7" ry="4.7"/><rect class="cls-4" x="1235.03" y="71.34" width="32.71" height="18.41" rx="6.41" ry="6.41"/><rect class="cls-4" x="1257.37" y="77.19" width="25.85" height="15.43" rx="5.38" ry="5.38"/><rect class="cls-4" x="1265.2" y="71.2" width="12.03" height="12.03" rx="4.19" ry="4.19"/><rect class="cls-4" x="1231" y="84.9" width="44.18" height="11.74" rx="4.09" ry="4.09"/><rect class="cls-5" x="1224.1" y="83.23" width="21.58" height="9.39" rx="3.27" ry="3.27"/><rect class="cls-5" x="1251.97" y="77.22" width="20.29" height="8.96" rx="3.12" ry="3.12"/><rect class="cls-5" x="1227.99" y="79.13" width="28.34" height="8.8" rx="3.07" ry="3.07"/><rect class="cls-6" x="1233.33" y="71.2" width="34.51" height="9.68" rx="3.38" ry="3.38"/><path class="cls-8" d="M1253.22,60c-.32-4.4,1.63-6.24,4.12-9s4.07-4.39,4.59-5.84,3.38-2.3,3.48-.63-8.82,9.49-8.85,11.22,3.28-.07,4.4-1.51a40.72,40.72,0,0,0,3.6-5.14c1.18-2.1-1.58-8.43,1.49-7s2.22,3.3,1.53,5-2.84,7.69-5,9.71S1253.52,64.17,1253.22,60Z"/><path class="cls-7" d="M1265.21,45c.21,5,4.7,1.11,6.39,1.69s3.88,2.56,6.16.66-1.62-.82-2.76-1.86,0-1.89,1.49-2.52,2.9,2.8,4.11,2.31-2.12-4.81-3-5.13-3.95.25-3.95.25a4.51,4.51,0,0,1,2.22-1.44c1.15-.17,4.4,1.48,4.62.45s-2.23-1.89-2.23-1.89l-2.77-1.93s-2.64.06-3.9,1.06-4.8,2.43-5.38,3.67S1265,41.09,1265.21,45Z"/><path class="cls-7" d="M1251.24,76.3c-.17.93.31,1.82,1.78,2.36s1.75-1.14,3.3-1.09h0a3.16,3.16,0,0,0,.79.09,2.85,2.85,0,0,0,2.9-2.8,2.64,2.64,0,0,0-1-2l-.06-.13a3.36,3.36,0,0,1-1.26-2.63c0-1.71-.71-7.94-.18-9.27s-.21-2.91-1.34-2.85-1.41,1.46-2.11,1.56-3.37.31-3.09,1.88,1.54,1.47,2.39,3.45,1.35,4.69.12,6.41c-.27.37-.52.69-.73,1a2.35,2.35,0,0,0-1.54,2.2C1249.7,75.49,1251.41,75.36,1251.24,76.3Z"/></g></svg>