<svg id="Layer_1" data-name="Layer 1" xmlns="http://www.w3.org/2000/svg" xmlns:xlink="http://www.w3.org/1999/xlink" viewBox="0 0 600.06 100"><defs><style>.cls-1{fill:#96948c;}.cls-2{fill:#a5a397;}.cls-3{fill:#b7b6a9;}.cls-4{fill:#c9c7b5;}.cls-5{fill:#7f7e77;}.cls-6{fill:url(#linear-gradient);}.cls-7{fill:url(#linear-gradient-2);}.cls-8{fill:url(#linear-gradient-3);}.cls-9{fill:url(#linear-gradient-4);}.cls-10{fill:url(#linear-gradient-5);}.cls-11{fill:url(#linear-gradient-6);}.cls-12{fill:url(#linear-gradient-7);}.cls-13{fill:url(#linear-gradient-8);}.cls-14{fill:url(#linear-gradient-9);}.cls-15{fill:url(#linear-gradient-10);}.cls-16{fill:#2b2b28;}.cls-17{fill:url(#linear-gradient-11);}.cls-18{fill:url(#linear-gradient-12);}.cls-19{fill:url(#linear-gradient-13);}.cls-20{fill:url(#linear-gradient-14);}.cls-21{fill:url(#linear-gradient-15);}.cls-22{fill:url(#linear-gradient-16);}.cls-23{fill:url(#linear-gradient-17);}.cls-24{fill:url(#linear-gradient-18);}.cls-25{fill:url(#linear-gradient-19);}.cls-26{fill:url(#linear-gradient-20);}.cls-27{fill:url(#linear-gradient-21);}.cls-28{fill:url(#linear-gradient-22);}.cls-29{fill:url(#linear-gradient-23);}.cls-30{fill:url(#linear-gradient-24);}.cls-31{fill:url(#linear-gradient-25);}.cls-32{fill:url(#linear-gradient-26);}.cls-33{fill:url(#linear-gradient-27);}.cls-34{fill:url(#linear-gradient-28);}.cls-35{fill:url(#linear-gradient-29);}.cls-36{fill:url(#linear-gradient-30);}.cls-37{fill:url(#linear-gradient-31);}.cls-38{fill:url(#linear-gradient-32);}.cls-39{fill:url(#linear-gradient-33);}.cls-40{fill:url(#linear-gradient-34);}.cls-41{fill:url(#linear-gradient-35);}.cls-42{fill:url(#linear-gradient-36);}.cls-43{fill:url(#linear-gradient-37);}.cls-44{fill:url(#linear-gradient-38);}.cls-45{fill:url(#linear-gradient-39);}.cls-46{fill:url(#linear-gradient-40);}.cls-47{fill:url(#linear-gradient-41);}.cls-48{fill:url(#linear-gradient-42);}.cls-49{fill:url(#linear-gradient-43);}.cls-50{fill:url(#linear-gradient-44);}.cls-51{fill:url(#linear-gradient-45);}.cls-52{fill:url(#linear-gradient-46);}.cls-53{fill:url(#linear-gradient-47);}.cls-54{fill:url(#linear-gradient-48);}.cls-55{fill:url(#linear-gradient-49);}.cls-56{fill:url(#linear-gradient-50);}.cls-57{fill:url(#linear-gradient-51);}.cls-58{fill:url(#linear-gradient-52);}.cls-59{fill:url(#linear-gradient-53);}.cls-60{fill:url(#linear-gradient-54);}.cls-61{fill:url(#linear-gradient-55);}.cls-62{fill:url(#linear-gradient-56);}.cls-63{fill:url(#linear-gradient-57);}.cls-64{fill:url(#linear-gradient-58);}.cls-65{fill:url(#linear-gradient-59);}.cls-66{fill:url(#linear-gradient-60);}</style><linearGradient id="linear-gradient" x1="80.53" y1="18.89" x2="86.74" y2="8.34" gradientTransform="translate(-15.8 -19.88) rotate(32.92)" gradientUnits="userSpaceOnUse"><stop offset="0" stop-color="#c9c7b5"/><stop offset="1" stop-color="#605d57"/></linearGradient><linearGradient id="linear-gradient-2" x1="75.77" y1="67.44" x2="81.98" y2="56.89" gradientTransform="translate(-33.55 -7.73) rotate(6.31)" xlink:href="#linear-gradient"/><linearGradient id="linear-gradient-3" x1="75.41" y1="64.16" x2="81.62" y2="53.61" gradientTransform="translate(-33.55 -7.73) rotate(6.31)" xlink:href="#linear-gradient"/><linearGradient id="linear-gradient-4" x1="75.55" y1="60.83" x2="81.76" y2="50.28" gradientTransform="translate(-33.55 -7.73) rotate(6.31)" xlink:href="#linear-gradient"/><linearGradient id="linear-gradient-5" x1="88.01" y1="45.26" x2="94.22" y2="34.7" gradientTransform="translate(-29.48 -18.13) rotate(22.33)" xlink:href="#linear-gradient"/><linearGradient id="linear-gradient-6" x1="86.95" y1="41.83" x2="93.16" y2="31.28" gradientTransform="translate(-29.48 -18.13) rotate(22.33)" xlink:href="#linear-gradient"/><linearGradient id="linear-gradient-7" x1="86.82" y1="38.23" x2="93.03" y2="27.67" gradientTransform="translate(-29.48 -18.13) rotate(22.33)" xlink:href="#linear-gradient"/><linearGradient id="linear-gradient-8" x1="86.92" y1="34.33" x2="93.13" y2="23.78" gradientTransform="translate(-29.48 -18.13) rotate(22.33)" xlink:href="#linear-gradient"/><linearGradient id="linear-gradient-9" x1="99.23" y1="20.52" x2="105.44" y2="9.97" gradientTransform="translate(-34.68 -26.5) rotate(31.45)" xlink:href="#linear-gradient"/><linearGradient id="linear-gradient-10" x1="38.25" y1="56.87" x2="57.65" y2="36.96" gradientTransform="matrix(1, 0, 0, 1, 0, 0)" xlink:href="#linear-gradient"/><linearGradient id="linear-gradient-11" x1="163.43" y1="-37.16" x2="169.64" y2="-47.71" xlink:href="#linear-gradient"/><linearGradient id="linear-gradient-12" x1="175.22" y1="56.45" x2="181.43" y2="45.9" gradientTransform="translate(-33.55 -7.73) rotate(6.31)" xlink:href="#linear-gradient"/><linearGradient id="linear-gradient-13" x1="174.86" y1="53.17" x2="181.07" y2="42.62" gradientTransform="translate(-33.55 -7.73) rotate(6.31)" xlink:href="#linear-gradient"/><linearGradient id="linear-gradient-14" x1="175.01" y1="49.84" x2="181.22" y2="39.29" gradientTransform="translate(-33.55 -7.73) rotate(6.31)" xlink:href="#linear-gradient"/><linearGradient id="linear-gradient-15" x1="180.57" y1="7.24" x2="186.78" y2="-3.31" gradientTransform="translate(-29.48 -18.13) rotate(22.33)" xlink:href="#linear-gradient"/><linearGradient id="linear-gradient-16" x1="178.75" y1="1.97" x2="184.96" y2="-8.58" gradientTransform="translate(-29.48 -18.13) rotate(22.33)" xlink:href="#linear-gradient"/><linearGradient id="linear-gradient-17" x1="178.62" y1="-1.64" x2="184.83" y2="-12.19" gradientTransform="translate(-29.48 -18.13) rotate(22.33)" xlink:href="#linear-gradient"/><linearGradient id="linear-gradient-18" x1="178.71" y1="-5.54" x2="184.92" y2="-16.09" gradientTransform="translate(-29.48 -18.13) rotate(22.33)" xlink:href="#linear-gradient"/><linearGradient id="linear-gradient-19" x1="183.55" y1="-33.39" x2="189.76" y2="-43.94" gradientTransform="translate(-34.68 -26.5) rotate(31.45)" xlink:href="#linear-gradient"/><linearGradient id="linear-gradient-20" x1="138.31" y1="54.87" x2="157.7" y2="34.97" gradientTransform="matrix(1, 0, 0, 1, 0, 0)" xlink:href="#linear-gradient"/><linearGradient id="linear-gradient-21" x1="246.28" y1="-93.19" x2="252.49" y2="-103.75" xlink:href="#linear-gradient"/><linearGradient id="linear-gradient-22" x1="274.62" y1="45.45" x2="280.83" y2="34.9" gradientTransform="translate(-33.55 -7.73) rotate(6.31)" xlink:href="#linear-gradient"/><linearGradient id="linear-gradient-23" x1="274.25" y1="42.18" x2="280.46" y2="31.63" gradientTransform="translate(-33.55 -7.73) rotate(6.31)" xlink:href="#linear-gradient"/><linearGradient id="linear-gradient-24" x1="274.18" y1="36.86" x2="280.39" y2="26.3" gradientTransform="translate(-33.55 -7.73) rotate(6.31)" xlink:href="#linear-gradient"/><linearGradient id="linear-gradient-25" x1="272.3" y1="-32.61" x2="278.51" y2="-43.17" gradientTransform="translate(-29.48 -18.13) rotate(22.33)" xlink:href="#linear-gradient"/><linearGradient id="linear-gradient-26" x1="270.48" y1="-37.89" x2="276.69" y2="-48.44" gradientTransform="translate(-29.48 -18.13) rotate(22.33)" xlink:href="#linear-gradient"/><linearGradient id="linear-gradient-27" x1="270.35" y1="-41.49" x2="276.56" y2="-52.05" gradientTransform="translate(-29.48 -18.13) rotate(22.33)" xlink:href="#linear-gradient"/><linearGradient id="linear-gradient-28" x1="270.45" y1="-45.39" x2="276.66" y2="-55.94" gradientTransform="translate(-29.48 -18.13) rotate(22.33)" xlink:href="#linear-gradient"/><linearGradient id="linear-gradient-29" x1="267.8" y1="-87.28" x2="274.01" y2="-97.83" gradientTransform="translate(-34.68 -26.5) rotate(31.45)" xlink:href="#linear-gradient"/><linearGradient id="linear-gradient-30" x1="238.31" y1="52.87" x2="257.7" y2="32.96" gradientTransform="matrix(1, 0, 0, 1, 0, 0)" xlink:href="#linear-gradient"/><linearGradient id="linear-gradient-31" x1="331.3" y1="-145.88" x2="337.51" y2="-156.43" xlink:href="#linear-gradient"/><linearGradient id="linear-gradient-32" x1="374.01" y1="34.45" x2="380.22" y2="23.9" gradientTransform="translate(-33.55 -7.73) rotate(6.31)" xlink:href="#linear-gradient"/><linearGradient id="linear-gradient-33" x1="373.65" y1="31.17" x2="379.86" y2="20.62" gradientTransform="translate(-33.55 -7.73) rotate(6.31)" xlink:href="#linear-gradient"/><linearGradient id="linear-gradient-34" x1="373.79" y1="27.84" x2="380" y2="17.29" gradientTransform="translate(-33.55 -7.73) rotate(6.31)" xlink:href="#linear-gradient"/><linearGradient id="linear-gradient-35" x1="365.56" y1="-68.78" x2="371.77" y2="-79.33" gradientTransform="translate(-29.48 -18.13) rotate(22.33)" xlink:href="#linear-gradient"/><linearGradient id="linear-gradient-36" x1="363.74" y1="-74.05" x2="369.95" y2="-84.6" gradientTransform="translate(-29.48 -18.13) rotate(22.33)" xlink:href="#linear-gradient"/><linearGradient id="linear-gradient-37" x1="363.61" y1="-77.66" x2="369.82" y2="-88.21" gradientTransform="translate(-29.48 -18.13) rotate(22.33)" xlink:href="#linear-gradient"/><linearGradient id="linear-gradient-38" x1="363.7" y1="-81.55" x2="369.91" y2="-92.11" gradientTransform="translate(-29.48 -18.13) rotate(22.33)" xlink:href="#linear-gradient"/><linearGradient id="linear-gradient-39" x1="354.15" y1="-137.77" x2="360.36" y2="-148.32" gradientTransform="translate(-34.68 -26.5) rotate(31.45)" xlink:href="#linear-gradient"/><linearGradient id="linear-gradient-40" x1="338.31" y1="54.85" x2="357.7" y2="34.95" gradientTransform="matrix(1, 0, 0, 1, 0, 0)" xlink:href="#linear-gradient"/><linearGradient id="linear-gradient-41" x1="416.6" y1="-198.14" x2="422.81" y2="-208.69" xlink:href="#linear-gradient"/><linearGradient id="linear-gradient-42" x1="473.46" y1="23.94" x2="479.67" y2="13.39" gradientTransform="translate(-33.55 -7.73) rotate(6.31)" xlink:href="#linear-gradient"/><linearGradient id="linear-gradient-43" x1="473.09" y1="20.67" x2="479.3" y2="10.12" gradientTransform="translate(-33.55 -7.73) rotate(6.31)" xlink:href="#linear-gradient"/><linearGradient id="linear-gradient-44" x1="473.24" y1="17.34" x2="479.45" y2="6.78" gradientTransform="translate(-33.55 -7.73) rotate(6.31)" xlink:href="#linear-gradient"/><linearGradient id="linear-gradient-45" x1="458.24" y1="-106.32" x2="464.45" y2="-116.87" gradientTransform="translate(-29.48 -18.13) rotate(22.33)" xlink:href="#linear-gradient"/><linearGradient id="linear-gradient-46" x1="457.18" y1="-109.75" x2="463.39" y2="-120.3" gradientTransform="translate(-29.48 -18.13) rotate(22.33)" xlink:href="#linear-gradient"/><linearGradient id="linear-gradient-47" x1="457.05" y1="-113.35" x2="463.26" y2="-123.9" gradientTransform="translate(-29.48 -18.13) rotate(22.33)" xlink:href="#linear-gradient"/><linearGradient id="linear-gradient-48" x1="457.15" y1="-117.25" x2="463.36" y2="-127.8" gradientTransform="translate(-29.48 -18.13) rotate(22.33)" xlink:href="#linear-gradient"/><linearGradient id="linear-gradient-49" x1="440.75" y1="-187.83" x2="446.96" y2="-198.38" gradientTransform="translate(-34.68 -26.5) rotate(31.45)" xlink:href="#linear-gradient"/><linearGradient id="linear-gradient-50" x1="438.31" y1="57.34" x2="457.7" y2="37.44" gradientTransform="matrix(1, 0, 0, 1, 0, 0)" xlink:href="#linear-gradient"/><linearGradient id="linear-gradient-51" x1="500.54" y1="-252.49" x2="506.75" y2="-263.04" xlink:href="#linear-gradient"/><linearGradient id="linear-gradient-52" x1="572.85" y1="12.95" x2="579.06" y2="2.4" gradientTransform="translate(-33.55 -7.73) rotate(6.31)" xlink:href="#linear-gradient"/><linearGradient id="linear-gradient-53" x1="572.49" y1="9.68" x2="578.7" y2="-0.87" gradientTransform="translate(-33.55 -7.73) rotate(6.31)" xlink:href="#linear-gradient"/><linearGradient id="linear-gradient-54" x1="572.63" y1="6.34" x2="578.84" y2="-4.21" gradientTransform="translate(-33.55 -7.73) rotate(6.31)" xlink:href="#linear-gradient"/><linearGradient id="linear-gradient-55" x1="550.74" y1="-144.32" x2="556.95" y2="-154.87" gradientTransform="translate(-29.48 -18.13) rotate(22.33)" xlink:href="#linear-gradient"/><linearGradient id="linear-gradient-56" x1="549.68" y1="-147.74" x2="555.89" y2="-158.3" gradientTransform="translate(-29.48 -18.13) rotate(22.33)" xlink:href="#linear-gradient"/><linearGradient id="linear-gradient-57" x1="549.55" y1="-151.35" x2="555.76" y2="-161.9" gradientTransform="translate(-29.48 -18.13) rotate(22.33)" xlink:href="#linear-gradient"/><linearGradient id="linear-gradient-58" x1="549.65" y1="-155.25" x2="555.86" y2="-165.8" gradientTransform="translate(-29.48 -18.13) rotate(22.33)" xlink:href="#linear-gradient"/><linearGradient id="linear-gradient-59" x1="526.06" y1="-240.01" x2="532.27" y2="-250.56" gradientTransform="translate(-34.68 -26.5) rotate(31.45)" xlink:href="#linear-gradient"/><linearGradient id="linear-gradient-60" x1="538.31" y1="57.34" x2="557.7" y2="37.44" gradientTransform="matrix(1, 0, 0, 1, 0, 0)" xlink:href="#linear-gradient"/></defs><title>skelebreath</title><path class="cls-1" d="M50,93.12c1.85,1.24,4.42,1.75,4.6,3.2s-.1,2.52-1.18,2.51-3.1.14-4.15-.93S48,98,47,98.16s-3.86.57-3-1.93S47.48,91.4,50,93.12Z"/><path class="cls-2" d="M58.51,43a1.94,1.94,0,0,0-1.28-2.15c-1.08-.51-1.3,1-2.44.92h0a1.93,1.93,0,0,0-.58-.09,2.33,2.33,0,0,0-2.17,2.46,2.61,2.61,0,0,0,.7,1.81l0,.12a3.25,3.25,0,0,1,.89,2.38c0,1.54.41,7.14,0,8.32s.11,2.61.94,2.58S55.68,58,56.2,57.94s2.48-.22,2.3-1.63-1.11-1.34-1.7-3.14-.93-4.24,0-5.76c.2-.33.39-.61.55-.87a2.12,2.12,0,0,0,1.16-2C59.63,43.71,58.37,43.8,58.51,43Z"/><path class="cls-3" d="M56.56,55.61c3,2.31,3.42,4.74,4.2,8s1.26,5.39,2,6.58.17,3.69-1,2.8S59.09,61.39,58,60.38s-1.24,2.34-.74,4a47.58,47.58,0,0,0,1.93,5.49c.9,2,6.09,3.75,4,5.1s-3-.34-3.83-1.79S55.45,66.71,55,64,53.73,53.43,56.56,55.61Z"/><path class="cls-4" d="M61.85,70c-3.65-.09-1,3.79-1.53,5.15s-2.06,3-.77,5S60.22,78.9,61,78s1.39.07,1.78,1.36-2.19,2.24-1.88,3.25,3.63-1.49,3.9-2.17a12.74,12.74,0,0,0,0-3.25,3.81,3.81,0,0,1,.95,1.9c.07.95-1.29,3.53-.54,3.76s1.49-1.73,1.49-1.73L68.27,79a7.27,7.27,0,0,0-.6-3.25c-.68-1.08-1.56-4.07-2.44-4.61S64.69,70.09,61.85,70Z"/><path class="cls-5" d="M42.52,69.81a1.57,1.57,0,0,1,.34-2c.69-.74,1.34.32,2.22-.11h0a1.73,1.73,0,0,1,.43-.26A1.94,1.94,0,0,1,48,68.54a2.07,2.07,0,0,1,0,1.59s0,.06,0,.1a2.6,2.6,0,0,0,0,2.09c.51,1.15,1.91,5.52,2.61,6.27s.73,2,.06,2.26-1.24-.62-1.67-.51-2,.65-2.33-.47.46-1.38.37-2.92-.59-3.5-1.8-4.34l-.71-.48A1.72,1.72,0,0,1,43,71C41.87,70.75,42.89,70.4,42.52,69.81Z"/><path class="cls-2" d="M50.74,78.93c1.56,2.91.86,4.86.08,7.58s-1.29,4.43-1.18,5.6-1.48,2.75-2.06,1.63,2.8-9.57,2.29-10.77-2.11,1.18-2.39,2.56a33.78,33.78,0,0,0-.76,4.78c-.12,1.85,3.61,5.25,1.2,5.35s-2.45-1.5-2.52-2.89-.52-6.27.29-8.41S49.26,76.16,50.74,78.93Z"/><path class="cls-5" d="M28.27,70.39a1.57,1.57,0,0,1,.34-2c.69-.74,1.34.32,2.22-.11h0a1.73,1.73,0,0,1,.43-.26,1.94,1.94,0,0,1,2.49,1.14,2.07,2.07,0,0,1,0,1.59s0,.06,0,.1a2.6,2.6,0,0,0,0,2.09c.51,1.15,1.91,5.52,2.61,6.27s.73,2,.06,2.26-1.24-.62-1.67-.51-2,.65-2.33-.47.46-1.38.37-2.92S32.23,74,31,73.18l-.71-.48a1.72,1.72,0,0,1-1.53-1.09C27.61,71.32,28.64,71,28.27,70.39Z"/><path class="cls-2" d="M36.48,79.5c1.56,2.91.86,4.86.08,7.58s-1.29,4.43-1.18,5.6-1.48,2.75-2.06,1.63,2.8-9.57,2.29-10.77-2.11,1.18-2.39,2.56a33.78,33.78,0,0,0-.76,4.78c-.12,1.85,3.61,5.25,1.2,5.35s-2.45-1.5-2.52-2.89-.52-6.27.29-8.41S35,76.74,36.48,79.5Z"/><path class="cls-1" d="M34.87,93.44c2,1,4.61,1.17,5,2.58s.22,2.51-.85,2.64-3.06.54-4.23-.38-1.32.26-2.29.55-3.75,1.06-3.21-1.53S32.11,92.06,34.87,93.44Z"/><path class="cls-2" d="M34.18,64.7C30,65.93,27.82,68,30.86,69.32s7,2.11,7.35,4.42,5.06-.93,4.58-2.85,2.21-3.77,2.15-4.47-3.61-2.56-4.82-2.64a45.28,45.28,0,0,0-5.94.91h0"/><path class="cls-6" d="M47.52,36.46l-1.52-1a2.31,2.31,0,0,0-2.74.18l-.57-.37a1.35,1.35,0,0,0-1.86.4l-.24.37a1.35,1.35,0,0,0,.4,1.86l.57.37a2.31,2.31,0,0,0,1,2.58l1.52,1a2.31,2.31,0,0,0,3.18-.68l1-1.52A2.31,2.31,0,0,0,47.52,36.46Z"/><path class="cls-7" d="M38.23,62l-1.79-.2a2.31,2.31,0,0,0-2.37,1.39l-.68-.07a1.35,1.35,0,0,0-1.48,1.19l0,.43a1.35,1.35,0,0,0,1.19,1.48l.68.07a2.31,2.31,0,0,0,2,1.88l1.79.2a2.31,2.31,0,0,0,2.54-2l.2-1.79A2.31,2.31,0,0,0,38.23,62Z"/><path class="cls-8" d="M38.23,58.71l-1.79-.2a2.31,2.31,0,0,0-2.37,1.39l-.68-.07A1.35,1.35,0,0,0,31.91,61l0,.43a1.35,1.35,0,0,0,1.19,1.48l.68.07a2.31,2.31,0,0,0,2,1.88l1.79.2a2.31,2.31,0,0,0,2.54-2l.2-1.79A2.31,2.31,0,0,0,38.23,58.71Z"/><path class="cls-9" d="M38.75,55.42,37,55.22a2.31,2.31,0,0,0-2.37,1.39l-.68-.07a1.35,1.35,0,0,0-1.48,1.19l0,.43a1.35,1.35,0,0,0,1.19,1.48l.68.07a2.31,2.31,0,0,0,2,1.88l1.79.2a2.31,2.31,0,0,0,2.54-2l.2-1.79A2.31,2.31,0,0,0,38.75,55.42Z"/><path class="cls-10" d="M40,52.84l-1.67-.69a2.31,2.31,0,0,0-2.66.68l-.63-.26a1.35,1.35,0,0,0-1.75.73l-.17.4a1.35,1.35,0,0,0,.73,1.75l.63.26a2.31,2.31,0,0,0,1.41,2.36l1.67.69a2.31,2.31,0,0,0,3-1.25l.69-1.67A2.31,2.31,0,0,0,40,52.84Z"/><path class="cls-11" d="M40.34,49.27l-1.67-.69a2.31,2.31,0,0,0-2.66.68L35.38,49a1.35,1.35,0,0,0-1.75.73l-.17.4a1.35,1.35,0,0,0,.73,1.75l.63.26a2.31,2.31,0,0,0,1.41,2.36l1.67.69a2.31,2.31,0,0,0,3-1.25l.69-1.67A2.31,2.31,0,0,0,40.34,49.27Z"/><path class="cls-12" d="M41.59,45.89l-1.67-.69a2.31,2.31,0,0,0-2.66.68l-.63-.26a1.35,1.35,0,0,0-1.75.73l-.17.4a1.35,1.35,0,0,0,.73,1.75l.63.26a2.31,2.31,0,0,0,1.41,2.36l1.67.69a2.31,2.31,0,0,0,3-1.25l.69-1.67A2.31,2.31,0,0,0,41.59,45.89Z"/><path class="cls-13" d="M43.16,42.32l-1.67-.69a2.31,2.31,0,0,0-2.66.68l-.63-.26a1.35,1.35,0,0,0-1.75.73l-.17.4A1.35,1.35,0,0,0,37,44.94l.63.26a2.31,2.31,0,0,0,1.41,2.36l1.67.69a2.31,2.31,0,0,0,3-1.25l.69-1.67A2.31,2.31,0,0,0,43.16,42.32Z"/><path class="cls-14" d="M45.16,39.35l-1.54-.94a2.31,2.31,0,0,0-2.74.25l-.58-.35a1.35,1.35,0,0,0-1.84.44l-.23.37A1.35,1.35,0,0,0,38.68,41l.58.35a2.31,2.31,0,0,0,1,2.55l1.54.94A2.31,2.31,0,0,0,45,44.05l.94-1.54A2.31,2.31,0,0,0,45.16,39.35Z"/><path class="cls-15" d="M44.35,34.55c-4.65-.2-8.77,3.28-11,7.36a9.78,9.78,0,0,0-1.45,5.45c.2,2.26,1.59,4.24,3.1,5.93a22.31,22.31,0,0,0,10.36,7c2.53.71,5.71.57,7.2-1.59,1.16-1.68.87-3.92.61-5.95s-.35-4.34,1.06-5.82a.91.91,0,0,1,.43-.29c.51-.12.85.51,1,1a14.43,14.43,0,0,1-.07,6.84,6.3,6.3,0,0,0-.35,2.23,1.67,1.67,0,0,0,1.38,1.57c.91.05,1.53-.88,1.89-1.72a21.17,21.17,0,0,0,0-16.67,6.85,6.85,0,0,0-1.81-2.66,3,3,0,0,0-3-.54c-1.9.89-2.36.19-4.22-.69A13.18,13.18,0,0,0,44.35,34.55Z"/><path class="cls-16" d="M34.52,46.05a2.54,2.54,0,0,1,2.24.6c.94.92,2.47,4.32,4,5.41a41.22,41.22,0,0,0,6.6,3.43c.82.24,1.44.79,1.43,1.36s-.38,1.67-1.1,1.56a39.31,39.31,0,0,1-7.82-3.63c-1.32-1.08-5.37-5-5.75-6.3A2.19,2.19,0,0,1,34.52,46.05Z"/><path class="cls-16" d="M36.52,41.92a2.38,2.38,0,0,1,1.89.71c.73.84,1.77,3.72,3,4.75a37.69,37.69,0,0,0,5.42,3.43c.69.28,1.18.78,1.12,1.24s-.47,1.3-1.08,1.14a36.19,36.19,0,0,1-6.46-3.72c-1.05-1-4.22-4.59-4.44-5.65A1.66,1.66,0,0,1,36.52,41.92Z"/><path class="cls-16" d="M40.38,38.82a1.87,1.87,0,0,1,1.66.67c.63.82,1.48,3.66,2.52,4.66a30.79,30.79,0,0,0,4.71,3.29c.6.26,1,.75,1,1.21s-.44,1.3-1,1.16a29.23,29.23,0,0,1-5.62-3.56c-.91-1-3.62-4.47-3.79-5.53A1.84,1.84,0,0,1,40.38,38.82Z"/><path class="cls-16" d="M59.29,51c-.2.67-.88,1.81-1.73,1.44a1.42,1.42,0,0,1-.46-1.9,5.7,5.7,0,0,1,1.67-1.24C59.87,48.52,59.49,50.3,59.29,51Z"/><path class="cls-16" d="M56.5,54.22a1.46,1.46,0,0,0-.2.54,4.69,4.69,0,0,0-.1.93.9.9,0,0,0,.19.65.63.63,0,0,0,.59.14,1.35,1.35,0,0,0,.55-.32c.52-.45,1.42-1.7,1.07-2.45S56.83,53.74,56.5,54.22Z"/><path class="cls-16" d="M57.95,48.84a2,2,0,0,0,1-.8,1.84,1.84,0,0,0,.14-.76c0-.7.3-2.08-.64-2a2.29,2.29,0,0,0-1.61,1,2.6,2.6,0,0,0-.16,1.5C56.77,48.7,56.8,49.37,57.95,48.84Z"/><path class="cls-3" d="M36,53.79c3.26,2.52,3.73,5.18,4.59,8.8s1.38,5.88,2.18,7.19.19,4-1,3.06S38.8,60.11,37.59,59s-1.36,2.56-.81,4.32a52,52,0,0,0,2.11,6c1,2.23,6.65,4.09,4.36,5.57s-3.29-.38-4.19-2-4.24-7-4.73-10S33,51.4,36,53.79Z"/><path class="cls-4" d="M38.17,40a2.12,2.12,0,0,0-1.39-2.35c-1.18-.56-1.43,1.08-2.66,1h0a2.11,2.11,0,0,0-.63-.1,2.54,2.54,0,0,0-2.37,2.69,2.85,2.85,0,0,0,.76,2l0,.13a3.55,3.55,0,0,1,1,2.6c0,1.68.45,7.8,0,9.09s.12,2.85,1,2.82,1.15-1.41,1.72-1.49,2.71-.24,2.51-1.78-1.21-1.47-1.86-3.43-1-4.63,0-6.29c.22-.36.43-.67.6-1a2.32,2.32,0,0,0,1.27-2.13C39.39,40.79,38,40.88,38.17,40Z"/><path class="cls-4" d="M41,70.14c-4-.09-1.13,4.15-1.68,5.63s-2.25,3.33-.84,5.48.74-1.41,1.63-2.37,1.52.07,1.94,1.48S39.66,82.8,40,83.91s4-1.63,4.26-2.37a13.93,13.93,0,0,0,0-3.55,4.16,4.16,0,0,1,1,2.07c.07,1-1.41,3.85-.59,4.11s1.63-1.89,1.63-1.89L48,79.91a8,8,0,0,0-.65-3.55c-.74-1.18-1.7-4.44-2.67-5S44.11,70.21,41,70.14Z"/><path class="cls-4" d="M69.45,35.29a15.64,15.64,0,1,0-26.37,2l-.18.9a2.86,2.86,0,0,0,2.24,3.35l1.36.27v5.32a2,2,0,0,0,2,2h1.08a2,2,0,0,0,2-2V45.9h1.61v1.27a2,2,0,0,0,2,2h1.08a2,2,0,0,0,2-2V45.9a4,4,0,0,1,5.54,0v1.27c0,1.08.53,2,1.61,2h1.08A2,2,0,0,0,68.1,47L68,45.76a2.47,2.47,0,0,0,.65-1.13,18.86,18.86,0,0,0,0-3.51l.32-.06a2.08,2.08,0,0,0,1.4-2.58Z"/><circle class="cls-16" cx="51.93" cy="35.23" r="5.29"/><ellipse class="cls-16" cx="65.82" cy="35.23" rx="1.91" ry="3.6"/><path class="cls-16" d="M62.48,40.17c-.2-.65-.65-1.09-1-1l-.07,0a.61.61,0,0,0-.32-.36c-.46-.19-1.13.36-1.48,1.24s-.27,1.73.2,1.92,1.13-.36,1.48-1.24v0c.22.54.61.89.93.8S62.68,40.82,62.48,40.17Z"/><path class="cls-1" d="M150.1,93.13c1.85,1.24,4.42,1.75,4.6,3.2s-.1,2.52-1.18,2.51-3.1.14-4.15-.93S148,98,147,98.17s-3.86.57-3-1.93S147.54,91.4,150.1,93.13Z"/><path class="cls-2" d="M159.57,40a1.94,1.94,0,0,0-1.28-2.15c-1.08-.51-1.3,1-2.44.92h0a1.93,1.93,0,0,0-.58-.09,2.33,2.33,0,0,0-2.17,2.46,2.61,2.61,0,0,0,.7,1.81l0,.12a3.25,3.25,0,0,1,.89,2.38c0,1.54.41,7.14,0,8.32s.11,2.61.94,2.58,1.06-1.29,1.57-1.36,2.48-.22,2.3-1.63-1.11-1.34-1.7-3.14-.93-4.24,0-5.76c.2-.33.39-.61.55-.87a2.12,2.12,0,0,0,1.16-2C160.69,40.72,159.43,40.81,159.57,40Z"/><path class="cls-3" d="M157.62,52.62c3,2.31,3.42,4.74,4.2,8s1.26,5.39,2,6.58.17,3.69-1,2.8S160.15,58.4,159,57.39s-1.24,2.34-.74,4a47.58,47.58,0,0,0,1.93,5.49c.9,2,6.09,3.75,4,5.1s-3-.34-3.83-1.79-3.88-6.43-4.33-9.13S154.79,50.43,157.62,52.62Z"/><path class="cls-4" d="M162.91,67c-3.65-.09-1,3.79-1.53,5.15s-2.06,3-.77,5,.68-1.29,1.49-2.17,1.39.07,1.78,1.36-2.19,2.24-1.88,3.25,3.63-1.49,3.9-2.17a12.74,12.74,0,0,0,0-3.25,3.81,3.81,0,0,1,.95,1.9c.07.95-1.29,3.53-.54,3.76s1.49-1.73,1.49-1.73L169.33,76a7.27,7.27,0,0,0-.6-3.25c-.68-1.08-1.56-4.07-2.44-4.61S165.75,67.1,162.91,67Z"/><path class="cls-5" d="M142.58,69.82a1.57,1.57,0,0,1,.34-2c.69-.74,1.34.32,2.22-.11h0a1.73,1.73,0,0,1,.43-.26A1.94,1.94,0,0,1,148,68.55a2.07,2.07,0,0,1,0,1.59s0,.06,0,.1a2.6,2.6,0,0,0,0,2.09c.51,1.15,1.91,5.52,2.61,6.27s.73,2,.06,2.26-1.24-.62-1.67-.51-2,.65-2.33-.47.46-1.38.37-2.92-.59-3.5-1.8-4.34l-.71-.48A1.72,1.72,0,0,1,143.09,71C141.93,70.75,143,70.4,142.58,69.82Z"/><path class="cls-2" d="M150.79,78.93c1.56,2.91.86,4.86.08,7.58s-1.29,4.43-1.18,5.6-1.48,2.75-2.06,1.63,2.8-9.57,2.29-10.77-2.11,1.18-2.39,2.56a33.78,33.78,0,0,0-.76,4.78c-.12,1.85,3.61,5.25,1.2,5.35s-2.45-1.5-2.52-2.89-.52-6.27.29-8.41S149.32,76.17,150.79,78.93Z"/><path class="cls-5" d="M128.32,70.39a1.57,1.57,0,0,1,.34-2c.69-.74,1.34.32,2.22-.11h0a1.73,1.73,0,0,1,.43-.26,1.94,1.94,0,0,1,2.49,1.14,2.07,2.07,0,0,1,0,1.59s0,.06,0,.1a2.6,2.6,0,0,0,0,2.09c.51,1.15,1.91,5.52,2.61,6.27s.73,2,.06,2.26-1.24-.62-1.67-.51-2,.65-2.33-.47.46-1.38.37-2.92-.59-3.5-1.8-4.34l-.71-.48a1.72,1.72,0,0,1-1.53-1.09C127.67,71.33,128.69,71,128.32,70.39Z"/><path class="cls-2" d="M136.54,79.51c1.56,2.91.86,4.86.08,7.58s-1.29,4.43-1.18,5.6-1.48,2.75-2.06,1.63,2.8-9.57,2.29-10.77-2.11,1.18-2.39,2.56a33.78,33.78,0,0,0-.76,4.78c-.12,1.85,3.61,5.25,1.2,5.35s-2.45-1.5-2.52-2.89-.52-6.27.29-8.41S135.06,76.74,136.54,79.51Z"/><path class="cls-1" d="M134.93,93.45c2,1,4.61,1.17,5,2.58s.22,2.51-.85,2.64-3.06.54-4.23-.38-1.32.26-2.29.55-3.75,1.06-3.21-1.53S132.17,92.07,134.93,93.45Z"/><path class="cls-2" d="M134.24,64.71c-4.17,1.22-6.36,3.3-3.32,4.62s7,2.11,7.35,4.42,5.06-.93,4.58-2.85,2.21-3.77,2.15-4.47-3.61-2.56-4.82-2.64a45.28,45.28,0,0,0-5.94.91h0"/><path class="cls-17" d="M147.58,34.46l-1.52-1a2.31,2.31,0,0,0-2.74.18l-.57-.37a1.35,1.35,0,0,0-1.86.4l-.24.37a1.35,1.35,0,0,0,.4,1.86l.57.37a2.31,2.31,0,0,0,1,2.58l1.52,1a2.31,2.31,0,0,0,3.18-.68l1-1.52A2.31,2.31,0,0,0,147.58,34.46Z"/><path class="cls-18" d="M138.29,62l-1.79-.2a2.31,2.31,0,0,0-2.37,1.39l-.68-.07A1.35,1.35,0,0,0,132,64.32l0,.43a1.35,1.35,0,0,0,1.19,1.48l.68.07a2.31,2.31,0,0,0,2,1.88l1.79.2a2.31,2.31,0,0,0,2.54-2l.2-1.79A2.31,2.31,0,0,0,138.29,62Z"/><path class="cls-19" d="M138.29,58.72l-1.79-.2a2.31,2.31,0,0,0-2.37,1.39l-.68-.07A1.35,1.35,0,0,0,132,61l0,.43a1.35,1.35,0,0,0,1.19,1.48l.68.07a2.31,2.31,0,0,0,2,1.88l1.79.2a2.31,2.31,0,0,0,2.54-2l.2-1.79A2.31,2.31,0,0,0,138.29,58.72Z"/><path class="cls-20" d="M138.8,55.42l-1.79-.2a2.31,2.31,0,0,0-2.37,1.39l-.68-.07a1.35,1.35,0,0,0-1.48,1.19l0,.43a1.35,1.35,0,0,0,1.19,1.48l.68.07a2.31,2.31,0,0,0,2,1.88l1.79.2a2.31,2.31,0,0,0,2.54-2l.2-1.79A2.31,2.31,0,0,0,138.8,55.42Z"/><path class="cls-21" d="M140.08,52.85l-1.67-.69a2.31,2.31,0,0,0-2.66.68l-.63-.26a1.35,1.35,0,0,0-1.75.73l-.17.4a1.35,1.35,0,0,0,.73,1.75l.63.26A2.31,2.31,0,0,0,136,58.09l1.67.69a2.31,2.31,0,0,0,3-1.25l.69-1.67A2.31,2.31,0,0,0,140.08,52.85Z"/><path class="cls-22" d="M140.4,47.28l-1.67-.69a2.31,2.31,0,0,0-2.66.68l-.63-.26a1.35,1.35,0,0,0-1.75.73l-.17.4a1.35,1.35,0,0,0,.73,1.75l.63.26a2.31,2.31,0,0,0,1.41,2.36l1.67.69A2.31,2.31,0,0,0,141,52l.69-1.67A2.31,2.31,0,0,0,140.4,47.28Z"/><path class="cls-23" d="M141.65,43.9,140,43.21a2.31,2.31,0,0,0-2.66.68l-.63-.26a1.35,1.35,0,0,0-1.75.73l-.17.4a1.35,1.35,0,0,0,.73,1.75l.63.26a2.31,2.31,0,0,0,1.41,2.36l1.67.69a2.31,2.31,0,0,0,3-1.25l.69-1.67A2.31,2.31,0,0,0,141.65,43.9Z"/><path class="cls-24" d="M143.22,40.33l-1.67-.69a2.31,2.31,0,0,0-2.66.68l-.63-.26a1.35,1.35,0,0,0-1.75.73l-.17.4a1.35,1.35,0,0,0,.73,1.75l.63.26a2.31,2.31,0,0,0,1.41,2.36l1.67.69a2.31,2.31,0,0,0,3-1.25l.69-1.67A2.31,2.31,0,0,0,143.22,40.33Z"/><path class="cls-25" d="M145.22,37.36l-1.54-.94a2.31,2.31,0,0,0-2.74.25l-.58-.35a1.35,1.35,0,0,0-1.84.44l-.23.37a1.35,1.35,0,0,0,.44,1.84l.58.35a2.31,2.31,0,0,0,1,2.55l1.54.94a2.31,2.31,0,0,0,3.16-.76l.94-1.54A2.31,2.31,0,0,0,145.22,37.36Z"/><path class="cls-26" d="M144.41,32.56c-4.65-.2-8.77,3.28-11,7.36a9.78,9.78,0,0,0-1.45,5.45c.2,2.26,1.59,4.24,3.1,5.93a22.31,22.31,0,0,0,10.36,7c2.53.71,5.71.57,7.2-1.59,1.16-1.68.87-3.92.61-5.95s-.35-4.34,1.06-5.82a.91.91,0,0,1,.43-.29c.51-.12.85.51,1,1a14.43,14.43,0,0,1-.07,6.84,6.3,6.3,0,0,0-.35,2.23,1.67,1.67,0,0,0,1.38,1.57c.91.05,1.53-.88,1.89-1.72a21.17,21.17,0,0,0,0-16.67,6.85,6.85,0,0,0-1.81-2.66,3,3,0,0,0-3-.54c-1.9.89-2.36.19-4.22-.69A13.18,13.18,0,0,0,144.41,32.56Z"/><path class="cls-16" d="M134.58,44.06a2.54,2.54,0,0,1,2.24.6c.94.92,2.47,4.32,4,5.41a41.22,41.22,0,0,0,6.6,3.43c.82.24,1.44.79,1.43,1.36s-.38,1.67-1.1,1.56a39.31,39.31,0,0,1-7.82-3.63c-1.32-1.08-5.37-5-5.75-6.3A2.19,2.19,0,0,1,134.58,44.06Z"/><path class="cls-16" d="M136.58,39.92a2.38,2.38,0,0,1,1.89.71c.73.84,1.77,3.72,3,4.75a37.69,37.69,0,0,0,5.42,3.43c.69.28,1.18.78,1.12,1.24s-.47,1.3-1.08,1.14a36.19,36.19,0,0,1-6.46-3.72c-1.05-1-4.22-4.59-4.44-5.65A1.66,1.66,0,0,1,136.58,39.92Z"/><path class="cls-16" d="M140.44,36.83a1.87,1.87,0,0,1,1.66.67c.63.82,1.48,3.66,2.52,4.66a30.79,30.79,0,0,0,4.71,3.29c.6.26,1,.75,1,1.21s-.44,1.3-1,1.16a29.23,29.23,0,0,1-5.62-3.56c-.91-1-3.62-4.47-3.79-5.53A1.84,1.84,0,0,1,140.44,36.83Z"/><path class="cls-16" d="M159.34,51c-.2.67-.88,1.81-1.73,1.44a1.42,1.42,0,0,1-.46-1.9,5.7,5.7,0,0,1,1.67-1.24C159.93,48.52,159.54,50.31,159.34,51Z"/><path class="cls-16" d="M156.56,54.23a1.46,1.46,0,0,0-.2.54,4.69,4.69,0,0,0-.1.93.9.9,0,0,0,.19.65.63.63,0,0,0,.59.14,1.35,1.35,0,0,0,.55-.32c.52-.45,1.42-1.7,1.07-2.45S156.89,53.75,156.56,54.23Z"/><path class="cls-16" d="M158,46.85a2,2,0,0,0,1-.8,1.84,1.84,0,0,0,.14-.76c0-.7.3-2.08-.64-2a2.29,2.29,0,0,0-1.61,1,2.6,2.6,0,0,0-.16,1.5C156.83,46.71,156.86,47.38,158,46.85Z"/><path class="cls-3" d="M135.1,50.8c3.26,2.52,3.73,5.18,4.59,8.8s1.38,5.88,2.18,7.19.19,4-1,3.06-3-12.74-4.18-13.84-1.36,2.56-.81,4.32a52,52,0,0,0,2.11,6c1,2.23,6.65,4.09,4.36,5.57s-3.29-.38-4.19-2-4.24-7-4.73-10S132,48.4,135.1,50.8Z"/><path class="cls-4" d="M137.23,37a2.12,2.12,0,0,0-1.39-2.35c-1.18-.56-1.43,1.08-2.66,1h0a2.11,2.11,0,0,0-.63-.1,2.54,2.54,0,0,0-2.37,2.69,2.85,2.85,0,0,0,.76,2l0,.13a3.55,3.55,0,0,1,1,2.6c0,1.68.45,7.8,0,9.09s.12,2.85,1,2.82,1.15-1.41,1.72-1.49,2.71-.24,2.51-1.78-1.21-1.47-1.86-3.43-1-4.63,0-6.29c.22-.36.43-.67.6-1a2.32,2.32,0,0,0,1.27-2.13C138.45,37.79,137.08,37.89,137.23,37Z"/><path class="cls-4" d="M140.06,67.14c-4-.09-1.13,4.15-1.68,5.63s-2.25,3.33-.84,5.48.74-1.41,1.63-2.37,1.52.07,1.94,1.48-2.39,2.44-2.06,3.55,4-1.63,4.26-2.37a13.93,13.93,0,0,0,0-3.55,4.16,4.16,0,0,1,1,2.07c.07,1-1.41,3.85-.59,4.11s1.63-1.89,1.63-1.89l1.69-2.37a8,8,0,0,0-.65-3.55c-.74-1.18-1.7-4.44-2.67-5S143.17,67.22,140.06,67.14Z"/><path class="cls-4" d="M169.51,32.29a15.64,15.64,0,1,0-26.37,2l-.18.9a2.86,2.86,0,0,0,2.24,3.35l1.36.27v5.32a2,2,0,0,0,2,2h1.08a2,2,0,0,0,2-2V42.91h1.61v1.27a2,2,0,0,0,2,2h1.08a2,2,0,0,0,2-2V42.91a4,4,0,0,1,5.54,0v1.27c0,1.08.53,2,1.61,2h1.08A2,2,0,0,0,168.16,44l-.06-1.21a2.47,2.47,0,0,0,.65-1.13,18.86,18.86,0,0,0,0-3.51l.32-.06a2.08,2.08,0,0,0,1.4-2.58Z"/><circle class="cls-16" cx="151.99" cy="32.23" r="5.29"/><ellipse class="cls-16" cx="165.88" cy="32.23" rx="1.91" ry="3.6"/><path class="cls-16" d="M162.54,37.18c-.2-.65-.65-1.09-1-1l-.07,0a.61.61,0,0,0-.32-.36c-.46-.19-1.13.36-1.48,1.24s-.27,1.73.2,1.92,1.13-.36,1.48-1.24v0c.22.54.61.89.93.8S162.74,37.83,162.54,37.18Z"/><path class="cls-1" d="M250.1,93.12c1.85,1.24,4.42,1.75,4.6,3.2s-.1,2.52-1.18,2.51-3.1.14-4.15-.93S248,98,247,98.16s-3.86.57-3-1.93S247.54,91.4,250.1,93.12Z"/><path class="cls-2" d="M260.63,38.35a1.94,1.94,0,0,0-1.28-2.15c-1.08-.51-1.3,1-2.44.92h0a1.93,1.93,0,0,0-.58-.09,2.33,2.33,0,0,0-2.17,2.46,2.61,2.61,0,0,0,.7,1.81l0,.12a3.25,3.25,0,0,1,.89,2.38c0,1.54.41,7.14,0,8.32s.11,2.61.94,2.58,1.06-1.29,1.57-1.36,2.48-.22,2.3-1.63-1.11-1.34-1.7-3.14-.93-4.24,0-5.76c.2-.33.39-.61.55-.87a2.12,2.12,0,0,0,1.16-2C261.75,39.1,260.49,39.18,260.63,38.35Z"/><path class="cls-3" d="M258.62,50.61c3,2.31,3.42,4.74,4.2,8s1.26,5.39,2,6.58.17,3.69-1,2.8S261.15,56.39,260,55.38s-1.24,2.34-.74,4a47.58,47.58,0,0,0,1.93,5.49c.9,2,6.09,3.75,4,5.1s-3-.34-3.83-1.79-3.88-6.43-4.33-9.13S255.79,48.43,258.62,50.61Z"/><path class="cls-4" d="M263.91,65c-3.65-.09-1,3.79-1.53,5.15s-2.06,3-.77,5,.68-1.29,1.49-2.17,1.39.07,1.78,1.36-2.19,2.24-1.88,3.25,3.63-1.49,3.9-2.17a12.74,12.74,0,0,0,0-3.25,3.81,3.81,0,0,1,.95,1.9c.07.95-1.29,3.53-.54,3.76s1.49-1.73,1.49-1.73L270.33,74a7.27,7.27,0,0,0-.6-3.25c-.68-1.08-1.56-4.07-2.44-4.61S266.75,65.09,263.91,65Z"/><path class="cls-5" d="M242.58,69.81a1.57,1.57,0,0,1,.34-2c.69-.74,1.34.32,2.22-.11h0a1.73,1.73,0,0,1,.43-.26A1.94,1.94,0,0,1,248,68.54a2.07,2.07,0,0,1,0,1.59s0,.06,0,.1a2.6,2.6,0,0,0,0,2.09c.51,1.15,1.91,5.52,2.61,6.27s.73,2,.06,2.26-1.24-.62-1.67-.51-2,.65-2.33-.47.46-1.38.37-2.92-.59-3.5-1.8-4.34l-.71-.48A1.72,1.72,0,0,1,243.09,71C241.93,70.75,243,70.4,242.58,69.81Z"/><path class="cls-2" d="M250.79,78.93c1.56,2.91.86,4.86.08,7.58s-1.29,4.43-1.18,5.6-1.48,2.75-2.06,1.63,2.8-9.57,2.29-10.77-2.11,1.18-2.39,2.56a33.78,33.78,0,0,0-.76,4.78c-.12,1.85,3.61,5.25,1.2,5.35s-2.45-1.5-2.52-2.89-.52-6.27.29-8.41S249.32,76.16,250.79,78.93Z"/><path class="cls-5" d="M228.32,70.39a1.57,1.57,0,0,1,.34-2c.69-.74,1.34.32,2.22-.11h0a1.73,1.73,0,0,1,.43-.26,1.94,1.94,0,0,1,2.49,1.14,2.07,2.07,0,0,1,0,1.59s0,.06,0,.1a2.6,2.6,0,0,0,0,2.09c.51,1.15,1.91,5.52,2.61,6.27s.73,2,.06,2.26-1.24-.62-1.67-.51-2,.65-2.33-.47.46-1.38.37-2.92-.59-3.5-1.8-4.34l-.71-.48a1.72,1.72,0,0,1-1.53-1.09C227.67,71.32,228.69,71,228.32,70.39Z"/><path class="cls-2" d="M236.54,79.5c1.56,2.91.86,4.86.08,7.58s-1.29,4.43-1.18,5.6-1.48,2.75-2.06,1.63,2.8-9.57,2.29-10.77-2.11,1.18-2.39,2.56a33.78,33.78,0,0,0-.76,4.78c-.12,1.85,3.61,5.25,1.2,5.35s-2.45-1.5-2.52-2.89-.52-6.27.29-8.41S235.06,76.74,236.54,79.5Z"/><path class="cls-1" d="M234.93,93.44c2,1,4.61,1.17,5,2.58s.22,2.51-.85,2.64-3.06.54-4.23-.38-1.32.26-2.29.55-3.75,1.06-3.21-1.53S232.17,92.06,234.93,93.44Z"/><path class="cls-2" d="M234.24,64.7c-4.17,1.22-6.36,3.3-3.32,4.62s7,2.11,7.35,4.42,5.06-.93,4.58-2.85,2.21-3.77,2.15-4.47-3.61-2.56-4.82-2.64a45.28,45.28,0,0,0-5.94.91h0"/><path class="cls-27" d="M247.58,32.46l-1.52-1a2.31,2.31,0,0,0-2.74.18l-.57-.37a1.35,1.35,0,0,0-1.86.4l-.24.37a1.35,1.35,0,0,0,.4,1.86l.57.37a2.31,2.31,0,0,0,1,2.58l1.52,1a2.31,2.31,0,0,0,3.18-.68l1-1.52A2.31,2.31,0,0,0,247.58,32.46Z"/><path class="cls-28" d="M238.29,62l-1.79-.2a2.31,2.31,0,0,0-2.37,1.39l-.68-.07A1.35,1.35,0,0,0,232,64.31l0,.43a1.35,1.35,0,0,0,1.19,1.48l.68.07a2.31,2.31,0,0,0,2,1.88l1.79.2a2.31,2.31,0,0,0,2.54-2l.2-1.79A2.31,2.31,0,0,0,238.29,62Z"/><path class="cls-29" d="M238.29,58.71l-1.79-.2a2.31,2.31,0,0,0-2.37,1.39l-.68-.07A1.35,1.35,0,0,0,232,61l0,.43a1.35,1.35,0,0,0,1.19,1.48l.68.07a2.31,2.31,0,0,0,2,1.88l1.79.2a2.31,2.31,0,0,0,2.54-2l.2-1.79A2.31,2.31,0,0,0,238.29,58.71Z"/><path class="cls-30" d="M238.8,53.42l-1.79-.2a2.31,2.31,0,0,0-2.37,1.39l-.68-.07a1.35,1.35,0,0,0-1.48,1.19l0,.43a1.35,1.35,0,0,0,1.19,1.48l.68.07a2.31,2.31,0,0,0,2,1.88l1.79.2a2.31,2.31,0,0,0,2.54-2l.2-1.79A2.31,2.31,0,0,0,238.8,53.42Z"/><path class="cls-31" d="M240.08,50.84l-1.67-.69a2.31,2.31,0,0,0-2.66.68l-.63-.26a1.35,1.35,0,0,0-1.75.73l-.17.4a1.35,1.35,0,0,0,.73,1.75l.63.26A2.31,2.31,0,0,0,236,56.08l1.67.69a2.31,2.31,0,0,0,3-1.25l.69-1.67A2.31,2.31,0,0,0,240.08,50.84Z"/><path class="cls-32" d="M240.4,45.27l-1.67-.69a2.31,2.31,0,0,0-2.66.68l-.63-.26a1.35,1.35,0,0,0-1.75.73l-.17.4a1.35,1.35,0,0,0,.73,1.75l.63.26a2.31,2.31,0,0,0,1.41,2.36l1.67.69a2.31,2.31,0,0,0,3-1.25l.69-1.67A2.31,2.31,0,0,0,240.4,45.27Z"/><path class="cls-33" d="M241.65,41.89,240,41.2a2.31,2.31,0,0,0-2.66.68l-.63-.26a1.35,1.35,0,0,0-1.75.73l-.17.4a1.35,1.35,0,0,0,.73,1.75l.63.26a2.31,2.31,0,0,0,1.41,2.36l1.67.69a2.31,2.31,0,0,0,3-1.25l.69-1.67A2.31,2.31,0,0,0,241.65,41.89Z"/><path class="cls-34" d="M243.22,38.32l-1.67-.69a2.31,2.31,0,0,0-2.66.68l-.63-.26a1.35,1.35,0,0,0-1.75.73l-.17.4a1.35,1.35,0,0,0,.73,1.75l.63.26a2.31,2.31,0,0,0,1.41,2.36l1.67.69a2.31,2.31,0,0,0,3-1.25l.69-1.67A2.31,2.31,0,0,0,243.22,38.32Z"/><path class="cls-35" d="M245.22,35.35l-1.54-.94a2.31,2.31,0,0,0-2.74.25l-.58-.35a1.35,1.35,0,0,0-1.84.44l-.23.37a1.35,1.35,0,0,0,.44,1.84l.58.35a2.31,2.31,0,0,0,1,2.55l1.54.94a2.31,2.31,0,0,0,3.16-.76l.94-1.54A2.31,2.31,0,0,0,245.22,35.35Z"/><path class="cls-36" d="M244.41,30.55c-4.65-.2-8.77,3.28-11,7.36a9.78,9.78,0,0,0-1.45,5.45c.2,2.26,1.59,4.24,3.1,5.93a22.31,22.31,0,0,0,10.36,7c2.53.71,5.71.57,7.2-1.59,1.16-1.68.87-3.92.61-5.95s-.35-4.34,1.06-5.82a.91.91,0,0,1,.43-.29c.51-.12.85.51,1,1a14.43,14.43,0,0,1-.07,6.84,6.3,6.3,0,0,0-.35,2.23,1.67,1.67,0,0,0,1.38,1.57c.91.05,1.53-.88,1.89-1.72a21.17,21.17,0,0,0,0-16.67,6.85,6.85,0,0,0-1.81-2.66,3,3,0,0,0-3-.54c-1.9.89-2.36.19-4.22-.69A13.18,13.18,0,0,0,244.41,30.55Z"/><path class="cls-16" d="M234.58,42.05a2.54,2.54,0,0,1,2.24.6c.94.92,2.47,4.32,4,5.41a41.22,41.22,0,0,0,6.6,3.43c.82.24,1.44.79,1.43,1.36s-.38,1.67-1.1,1.56a39.31,39.31,0,0,1-7.82-3.63c-1.32-1.08-5.37-5-5.75-6.3A2.19,2.19,0,0,1,234.58,42.05Z"/><path class="cls-16" d="M236.58,37.92a2.38,2.38,0,0,1,1.89.71c.73.84,1.77,3.72,3,4.75a37.69,37.69,0,0,0,5.42,3.43c.69.28,1.18.78,1.12,1.24s-.47,1.3-1.08,1.14a36.19,36.19,0,0,1-6.46-3.72c-1.05-1-4.22-4.59-4.44-5.65A1.66,1.66,0,0,1,236.58,37.92Z"/><path class="cls-16" d="M240.44,34.82a1.87,1.87,0,0,1,1.66.67c.63.82,1.48,3.66,2.52,4.66a30.79,30.79,0,0,0,4.71,3.29c.6.26,1,.75,1,1.21s-.44,1.3-1,1.16a29.23,29.23,0,0,1-5.62-3.56c-.91-1-3.62-4.47-3.79-5.53A1.84,1.84,0,0,1,240.44,34.82Z"/><path class="cls-16" d="M259.34,49c-.2.67-.88,1.81-1.73,1.44a1.42,1.42,0,0,1-.46-1.9,5.7,5.7,0,0,1,1.67-1.24C259.93,46.52,259.54,48.3,259.34,49Z"/><path class="cls-16" d="M256.56,52.22a1.46,1.46,0,0,0-.2.54,4.69,4.69,0,0,0-.1.93.9.9,0,0,0,.19.65.63.63,0,0,0,.59.14,1.35,1.35,0,0,0,.55-.32c.52-.45,1.42-1.7,1.07-2.45S256.89,51.74,256.56,52.22Z"/><path class="cls-16" d="M258,44.84a2,2,0,0,0,1-.8,1.84,1.84,0,0,0,.14-.76c0-.7.3-2.08-.64-2a2.29,2.29,0,0,0-1.61,1,2.6,2.6,0,0,0-.16,1.5C256.83,44.7,256.86,45.37,258,44.84Z"/><path class="cls-3" d="M234.1,48.79c3.26,2.52,3.73,5.18,4.59,8.8s1.38,5.88,2.18,7.19.19,4-1,3.06-3-12.74-4.18-13.84-1.36,2.56-.81,4.32a52,52,0,0,0,2.11,6c1,2.23,6.65,4.09,4.36,5.57s-3.29-.38-4.19-2-4.24-7-4.73-10S231,46.4,234.1,48.79Z"/><path class="cls-4" d="M236.23,35a2.12,2.12,0,0,0-1.39-2.35c-1.18-.56-1.43,1.08-2.66,1h0a2.11,2.11,0,0,0-.63-.1,2.54,2.54,0,0,0-2.37,2.69,2.85,2.85,0,0,0,.76,2l0,.13a3.55,3.55,0,0,1,1,2.6c0,1.68.45,7.8,0,9.09s.12,2.85,1,2.82,1.15-1.41,1.72-1.49,2.71-.24,2.51-1.78-1.21-1.47-1.86-3.43-1-4.63,0-6.29c.22-.36.43-.67.6-1a2.32,2.32,0,0,0,1.27-2.13C237.45,35.79,236.08,35.88,236.23,35Z"/><path class="cls-4" d="M239.06,65.14c-4-.09-1.13,4.15-1.68,5.63s-2.25,3.33-.84,5.48.74-1.41,1.63-2.37,1.52.07,1.94,1.48-2.39,2.44-2.06,3.55,4-1.63,4.26-2.37a13.93,13.93,0,0,0,0-3.55,4.16,4.16,0,0,1,1,2.07c.07,1-1.41,3.85-.59,4.11s1.63-1.89,1.63-1.89l1.69-2.37a8,8,0,0,0-.65-3.55c-.74-1.18-1.7-4.44-2.67-5S242.17,65.21,239.06,65.14Z"/><path class="cls-4" d="M269.51,29.29a15.64,15.64,0,1,0-26.37,2l-.18.9a2.86,2.86,0,0,0,2.24,3.35l1.36.27v5.32a2,2,0,0,0,2,2h1.08a2,2,0,0,0,2-2V39.9h1.61v1.27a2,2,0,0,0,2,2h1.08a2,2,0,0,0,2-2V39.9a4,4,0,0,1,5.54,0v1.27c0,1.08.53,2,1.61,2h1.08A2,2,0,0,0,268.16,41l-.06-1.21a2.47,2.47,0,0,0,.65-1.13,18.86,18.86,0,0,0,0-3.51l.32-.06a2.08,2.08,0,0,0,1.4-2.58Z"/><circle class="cls-16" cx="251.99" cy="29.23" r="5.29"/><ellipse class="cls-16" cx="265.88" cy="29.23" rx="1.91" ry="3.6"/><path class="cls-16" d="M262.54,34.17c-.2-.65-.65-1.09-1-1l-.07,0a.61.61,0,0,0-.32-.36c-.46-.19-1.13.36-1.48,1.24s-.27,1.73.2,1.92,1.13-.36,1.48-1.24v0c.22.54.61.89.93.8S262.74,34.82,262.54,34.17Z"/><path class="cls-1" d="M350.1,93.11c1.85,1.24,4.42,1.75,4.6,3.2s-.1,2.52-1.18,2.51-3.1.14-4.15-.93S348,98,347,98.14s-3.86.57-3-1.93S347.54,91.38,350.1,93.11Z"/><path class="cls-2" d="M359.57,40a1.94,1.94,0,0,0-1.28-2.15c-1.08-.51-1.3,1-2.44.92h0a1.93,1.93,0,0,0-.58-.09,2.33,2.33,0,0,0-2.17,2.46,2.61,2.61,0,0,0,.7,1.81l0,.12a3.25,3.25,0,0,1,.89,2.38c0,1.54.41,7.14,0,8.32s.11,2.61.94,2.58,1.06-1.29,1.57-1.36,2.48-.22,2.3-1.63-1.11-1.34-1.7-3.14-.93-4.24,0-5.76c.2-.33.39-.61.55-.87a2.12,2.12,0,0,0,1.16-2C360.69,40.7,359.43,40.79,359.57,40Z"/><path class="cls-3" d="M357.62,52.6c3,2.31,3.42,4.74,4.2,8s1.26,5.39,2,6.58.17,3.69-1,2.8S360.15,58.38,359,57.37s-1.24,2.34-.74,4a47.58,47.58,0,0,0,1.93,5.49c.9,2,6.09,3.75,4,5.1s-3-.34-3.83-1.79-3.88-6.43-4.33-9.13S354.79,50.41,357.62,52.6Z"/><path class="cls-4" d="M362.91,67c-3.65-.09-1,3.79-1.53,5.15s-2.06,3-.77,5,.68-1.29,1.49-2.17,1.39.07,1.78,1.36-2.19,2.24-1.88,3.25,3.63-1.49,3.9-2.17a12.74,12.74,0,0,0,0-3.25,3.81,3.81,0,0,1,.95,1.9c.07.95-1.29,3.53-.54,3.76s1.49-1.73,1.49-1.73L369.33,76a7.27,7.27,0,0,0-.6-3.25c-.68-1.08-1.56-4.07-2.44-4.61S365.75,67.08,362.91,67Z"/><path class="cls-5" d="M342.58,69.8a1.57,1.57,0,0,1,.34-2c.69-.74,1.34.32,2.22-.11h0a1.73,1.73,0,0,1,.43-.26A1.94,1.94,0,0,1,348,68.53a2.07,2.07,0,0,1,0,1.59s0,.06,0,.1a2.6,2.6,0,0,0,0,2.09c.51,1.15,1.91,5.52,2.61,6.27s.73,2,.06,2.26-1.24-.62-1.67-.51-2,.65-2.33-.47.46-1.38.37-2.92-.59-3.5-1.8-4.34l-.71-.48A1.72,1.72,0,0,1,343.09,71C341.93,70.73,343,70.38,342.58,69.8Z"/><path class="cls-2" d="M350.79,78.91c1.56,2.91.86,4.86.08,7.58s-1.29,4.43-1.18,5.6-1.48,2.75-2.06,1.63,2.8-9.57,2.29-10.77-2.11,1.18-2.39,2.56a33.78,33.78,0,0,0-.76,4.78c-.12,1.85,3.61,5.25,1.2,5.35s-2.45-1.5-2.52-2.89-.52-6.27.29-8.41S349.32,76.15,350.79,78.91Z"/><path class="cls-5" d="M328.32,70.37a1.57,1.57,0,0,1,.34-2c.69-.74,1.34.32,2.22-.11h0a1.73,1.73,0,0,1,.43-.26,1.94,1.94,0,0,1,2.49,1.14,2.07,2.07,0,0,1,0,1.59s0,.06,0,.1a2.6,2.6,0,0,0,0,2.09c.51,1.15,1.91,5.52,2.61,6.27s.73,2,.06,2.26-1.24-.62-1.67-.51-2,.65-2.33-.47.46-1.38.37-2.92-.59-3.5-1.8-4.34l-.71-.48a1.72,1.72,0,0,1-1.53-1.09C327.67,71.3,328.69,71,328.32,70.37Z"/><path class="cls-2" d="M336.54,79.48c1.56,2.91.86,4.86.08,7.58s-1.29,4.43-1.18,5.6-1.48,2.75-2.06,1.63,2.8-9.57,2.29-10.77-2.11,1.18-2.39,2.56a33.78,33.78,0,0,0-.76,4.78c-.12,1.85,3.61,5.25,1.2,5.35s-2.45-1.5-2.52-2.89-.52-6.27.29-8.41S335.06,76.72,336.54,79.48Z"/><path class="cls-1" d="M334.93,93.43c2,1,4.61,1.17,5,2.58s.22,2.51-.85,2.64-3.06.54-4.23-.38-1.32.26-2.29.55-3.75,1.06-3.21-1.53S332.17,92,334.93,93.43Z"/><path class="cls-2" d="M334.24,64.69c-4.17,1.22-6.36,3.3-3.32,4.62s7,2.11,7.35,4.42,5.06-.93,4.58-2.85,2.21-3.77,2.15-4.47-3.61-2.56-4.82-2.64a45.28,45.28,0,0,0-5.94.91h0"/><path class="cls-37" d="M347.58,34.44l-1.52-1a2.31,2.31,0,0,0-2.74.18l-.57-.37a1.35,1.35,0,0,0-1.86.4l-.24.37a1.35,1.35,0,0,0,.4,1.86l.57.37a2.31,2.31,0,0,0,1,2.58l1.52,1a2.31,2.31,0,0,0,3.18-.68l1-1.52A2.31,2.31,0,0,0,347.58,34.44Z"/><path class="cls-38" d="M338.29,62l-1.79-.2a2.31,2.31,0,0,0-2.37,1.39l-.68-.07A1.35,1.35,0,0,0,332,64.3l0,.43a1.35,1.35,0,0,0,1.19,1.48l.68.07a2.31,2.31,0,0,0,2,1.88l1.79.2a2.31,2.31,0,0,0,2.54-2l.2-1.79A2.31,2.31,0,0,0,338.29,62Z"/><path class="cls-39" d="M338.29,58.7l-1.79-.2a2.31,2.31,0,0,0-2.37,1.39l-.68-.07A1.35,1.35,0,0,0,332,61l0,.43a1.35,1.35,0,0,0,1.19,1.48l.68.07a2.31,2.31,0,0,0,2,1.88l1.79.2a2.31,2.31,0,0,0,2.54-2l.2-1.79A2.31,2.31,0,0,0,338.29,58.7Z"/><path class="cls-40" d="M338.8,55.4,337,55.2a2.31,2.31,0,0,0-2.37,1.39l-.68-.07a1.35,1.35,0,0,0-1.48,1.19l0,.43a1.35,1.35,0,0,0,1.19,1.48l.68.07a2.31,2.31,0,0,0,2,1.88l1.79.2a2.31,2.31,0,0,0,2.54-2l.2-1.79A2.31,2.31,0,0,0,338.8,55.4Z"/><path class="cls-41" d="M340.08,52.83l-1.67-.69a2.31,2.31,0,0,0-2.66.68l-.63-.26a1.35,1.35,0,0,0-1.75.73l-.17.4a1.35,1.35,0,0,0,.73,1.75l.63.26A2.31,2.31,0,0,0,336,58.07l1.67.69a2.31,2.31,0,0,0,3-1.25l.69-1.67A2.31,2.31,0,0,0,340.08,52.83Z"/><path class="cls-42" d="M340.4,47.26l-1.67-.69a2.31,2.31,0,0,0-2.66.68l-.63-.26a1.35,1.35,0,0,0-1.75.73l-.17.4a1.35,1.35,0,0,0,.73,1.75l.63.26a2.31,2.31,0,0,0,1.41,2.36l1.67.69a2.31,2.31,0,0,0,3-1.25l.69-1.67A2.31,2.31,0,0,0,340.4,47.26Z"/><path class="cls-43" d="M341.65,43.87,340,43.19a2.31,2.31,0,0,0-2.66.68l-.63-.26a1.35,1.35,0,0,0-1.75.73l-.17.4a1.35,1.35,0,0,0,.73,1.75l.63.26a2.31,2.31,0,0,0,1.41,2.36l1.67.69a2.31,2.31,0,0,0,3-1.25l.69-1.67A2.31,2.31,0,0,0,341.65,43.87Z"/><path class="cls-44" d="M343.22,40.31l-1.67-.69a2.31,2.31,0,0,0-2.66.68l-.63-.26a1.35,1.35,0,0,0-1.75.73l-.17.4a1.35,1.35,0,0,0,.73,1.75l.63.26a2.31,2.31,0,0,0,1.41,2.36l1.67.69a2.31,2.31,0,0,0,3-1.25l.69-1.67A2.31,2.31,0,0,0,343.22,40.31Z"/><path class="cls-45" d="M345.22,37.34l-1.54-.94a2.31,2.31,0,0,0-2.74.25l-.58-.35a1.35,1.35,0,0,0-1.84.44l-.23.37a1.35,1.35,0,0,0,.44,1.84l.58.35a2.31,2.31,0,0,0,1,2.55l1.54.94A2.31,2.31,0,0,0,345,42L346,40.5A2.31,2.31,0,0,0,345.22,37.34Z"/><path class="cls-46" d="M344.41,32.54c-4.65-.2-8.77,3.28-11,7.36a9.78,9.78,0,0,0-1.45,5.45c.2,2.26,1.59,4.24,3.1,5.93a22.31,22.31,0,0,0,10.36,7c2.53.71,5.71.57,7.2-1.59,1.16-1.68.87-3.92.61-5.95s-.35-4.34,1.06-5.82a.91.91,0,0,1,.43-.29c.51-.12.85.51,1,1a14.43,14.43,0,0,1-.07,6.84,6.3,6.3,0,0,0-.35,2.23,1.67,1.67,0,0,0,1.38,1.57c.91.05,1.53-.88,1.89-1.72a21.17,21.17,0,0,0,0-16.67,6.85,6.85,0,0,0-1.81-2.66,3,3,0,0,0-3-.54c-1.9.89-2.36.19-4.22-.69A13.18,13.18,0,0,0,344.41,32.54Z"/><path class="cls-16" d="M334.58,44a2.54,2.54,0,0,1,2.24.6c.94.92,2.47,4.32,4,5.41a41.22,41.22,0,0,0,6.6,3.43c.82.24,1.44.79,1.43,1.36s-.38,1.67-1.1,1.56a39.31,39.31,0,0,1-7.82-3.63c-1.32-1.08-5.37-5-5.75-6.3A2.19,2.19,0,0,1,334.58,44Z"/><path class="cls-16" d="M336.58,39.9a2.38,2.38,0,0,1,1.89.71c.73.84,1.77,3.72,3,4.75a37.69,37.69,0,0,0,5.42,3.43c.69.28,1.18.78,1.12,1.24s-.47,1.3-1.08,1.14a36.19,36.19,0,0,1-6.46-3.72c-1.05-1-4.22-4.59-4.44-5.65A1.66,1.66,0,0,1,336.58,39.9Z"/><path class="cls-16" d="M340.44,36.8a1.87,1.87,0,0,1,1.66.67c.63.82,1.48,3.66,2.52,4.66a30.79,30.79,0,0,0,4.71,3.29c.6.26,1,.75,1,1.21s-.44,1.3-1,1.16a29.23,29.23,0,0,1-5.62-3.56c-.91-1-3.62-4.47-3.79-5.53A1.84,1.84,0,0,1,340.44,36.8Z"/><path class="cls-16" d="M359.34,51c-.2.67-.88,1.81-1.73,1.44a1.42,1.42,0,0,1-.46-1.9,5.7,5.7,0,0,1,1.67-1.24C359.93,48.5,359.54,50.29,359.34,51Z"/><path class="cls-16" d="M356.56,54.21a1.46,1.46,0,0,0-.2.54,4.69,4.69,0,0,0-.1.93.9.9,0,0,0,.19.65.63.63,0,0,0,.59.14,1.35,1.35,0,0,0,.55-.32c.52-.45,1.42-1.7,1.07-2.45S356.89,53.73,356.56,54.21Z"/><path class="cls-16" d="M358,46.83a2,2,0,0,0,1-.8,1.84,1.84,0,0,0,.14-.76c0-.7.3-2.08-.64-2a2.29,2.29,0,0,0-1.61,1,2.6,2.6,0,0,0-.16,1.5C356.83,46.69,356.86,47.36,358,46.83Z"/><path class="cls-3" d="M335.1,50.77c3.26,2.52,3.73,5.18,4.59,8.8s1.38,5.88,2.18,7.19.19,4-1,3.06-3-12.74-4.18-13.84-1.36,2.56-.81,4.32a52,52,0,0,0,2.11,6c1,2.23,6.65,4.09,4.36,5.57s-3.29-.38-4.19-2-4.24-7-4.73-10S332,48.38,335.1,50.77Z"/><path class="cls-4" d="M337.23,37a2.12,2.12,0,0,0-1.39-2.35c-1.18-.56-1.43,1.08-2.66,1h0a2.11,2.11,0,0,0-.63-.1,2.54,2.54,0,0,0-2.37,2.69,2.85,2.85,0,0,0,.76,2l0,.13a3.55,3.55,0,0,1,1,2.6c0,1.68.45,7.8,0,9.09s.12,2.85,1,2.82,1.15-1.41,1.72-1.49,2.71-.24,2.51-1.78-1.21-1.47-1.86-3.43-1-4.63,0-6.29c.22-.36.43-.67.6-1a2.32,2.32,0,0,0,1.27-2.13C338.45,37.77,337.08,37.86,337.23,37Z"/><path class="cls-4" d="M340.06,67.12c-4-.09-1.13,4.15-1.68,5.63s-2.25,3.33-.84,5.48.74-1.41,1.63-2.37,1.52.07,1.94,1.48-2.39,2.44-2.06,3.55,4-1.63,4.26-2.37a13.93,13.93,0,0,0,0-3.55,4.16,4.16,0,0,1,1,2.07c.07,1-1.41,3.85-.59,4.11s1.63-1.89,1.63-1.89l1.69-2.37a8,8,0,0,0-.65-3.55c-.74-1.18-1.7-4.44-2.67-5S343.17,67.19,340.06,67.12Z"/><path class="cls-4" d="M369.51,32.27a15.64,15.64,0,1,0-26.37,2l-.18.9a2.86,2.86,0,0,0,2.24,3.35l1.36.27v5.32a2,2,0,0,0,2,2h1.08a2,2,0,0,0,2-2V42.89h1.61v1.27a2,2,0,0,0,2,2h1.08a2,2,0,0,0,2-2V42.89a4,4,0,0,1,5.54,0v1.27c0,1.08.53,2,1.61,2h1.08A2,2,0,0,0,368.16,44l-.06-1.21a2.47,2.47,0,0,0,.65-1.13,18.86,18.86,0,0,0,0-3.51l.32-.06a2.08,2.08,0,0,0,1.4-2.58Z"/><circle class="cls-16" cx="351.99" cy="32.21" r="5.29"/><ellipse class="cls-16" cx="365.88" cy="32.21" rx="1.91" ry="3.6"/><path class="cls-16" d="M362.54,37.16c-.2-.65-.65-1.09-1-1l-.07,0a.61.61,0,0,0-.32-.36c-.46-.19-1.13.36-1.48,1.24s-.27,1.73.2,1.92,1.13-.36,1.48-1.24v0c.22.54.61.89.93.8S362.74,37.81,362.54,37.16Z"/><path class="cls-1" d="M450.1,93.6c1.85,1.24,4.42,1.75,4.6,3.2s-.1,2.52-1.18,2.51-3.1.14-4.15-.93-1.34.09-2.34.25-3.86.57-3-1.93S447.54,91.87,450.1,93.6Z"/><path class="cls-2" d="M458.57,43.44a1.94,1.94,0,0,0-1.28-2.15c-1.08-.51-1.3,1-2.44.92h0a1.93,1.93,0,0,0-.58-.09,2.33,2.33,0,0,0-2.17,2.46,2.61,2.61,0,0,0,.7,1.81l0,.12a3.25,3.25,0,0,1,.89,2.38c0,1.54.41,7.14,0,8.32s.11,2.61.94,2.58,1.06-1.29,1.57-1.36,2.48-.22,2.3-1.63-1.11-1.34-1.7-3.14-.93-4.24,0-5.76c.2-.33.39-.61.55-.87a2.12,2.12,0,0,0,1.16-2C459.69,44.19,458.43,44.28,458.57,43.44Z"/><path class="cls-3" d="M456.62,56.09c3,2.31,3.42,4.74,4.2,8s1.26,5.39,2,6.58.17,3.69-1,2.8S459.15,61.87,458,60.86s-1.24,2.34-.74,4a47.58,47.58,0,0,0,1.93,5.49c.9,2,6.09,3.75,4,5.1s-3-.34-3.83-1.79-3.88-6.43-4.33-9.13S453.79,53.9,456.62,56.09Z"/><path class="cls-4" d="M461.91,70.5c-3.65-.09-1,3.79-1.53,5.15s-2.06,3-.77,5,.68-1.29,1.49-2.17,1.39.07,1.78,1.36-2.19,2.24-1.88,3.25,3.63-1.49,3.9-2.17a12.74,12.74,0,0,0,0-3.25,3.81,3.81,0,0,1,.95,1.9c.07.95-1.29,3.53-.54,3.76s1.49-1.73,1.49-1.73l1.54-2.17a7.27,7.27,0,0,0-.6-3.25c-.68-1.08-1.56-4.07-2.44-4.61S464.75,70.57,461.91,70.5Z"/><path class="cls-5" d="M442.58,70.29a1.57,1.57,0,0,1,.34-2c.69-.74,1.34.32,2.22-.11h0a1.73,1.73,0,0,1,.43-.26A1.94,1.94,0,0,1,448,69a2.07,2.07,0,0,1,0,1.59s0,.06,0,.1a2.6,2.6,0,0,0,0,2.09c.51,1.15,1.91,5.52,2.61,6.27s.73,2,.06,2.26-1.24-.62-1.67-.51-2,.65-2.33-.47.46-1.38.37-2.92-.59-3.5-1.8-4.34l-.71-.48a1.72,1.72,0,0,1-1.53-1.09C441.93,71.22,443,70.87,442.58,70.29Z"/><path class="cls-2" d="M450.79,79.4c1.56,2.91.86,4.86.08,7.58s-1.29,4.43-1.18,5.6-1.48,2.75-2.06,1.63,2.8-9.57,2.29-10.77-2.11,1.18-2.39,2.56a33.78,33.78,0,0,0-.76,4.78c-.12,1.85,3.61,5.25,1.2,5.35s-2.45-1.5-2.52-2.89-.52-6.27.29-8.41S449.32,76.64,450.79,79.4Z"/><path class="cls-5" d="M428.32,70.86a1.57,1.57,0,0,1,.34-2c.69-.74,1.34.32,2.22-.11h0a1.73,1.73,0,0,1,.43-.26,1.94,1.94,0,0,1,2.49,1.14,2.07,2.07,0,0,1,0,1.59s0,.06,0,.1a2.6,2.6,0,0,0,0,2.09c.51,1.15,1.91,5.52,2.61,6.27s.73,2,.06,2.26-1.24-.62-1.67-.51-2,.65-2.33-.47.46-1.38.37-2.92-.59-3.5-1.8-4.34l-.71-.48a1.72,1.72,0,0,1-1.53-1.09C427.67,71.79,428.69,71.44,428.32,70.86Z"/><path class="cls-2" d="M436.54,80c1.56,2.91.86,4.86.08,7.58s-1.29,4.43-1.18,5.6-1.48,2.75-2.06,1.63,2.8-9.57,2.29-10.77-2.11,1.18-2.39,2.56a33.78,33.78,0,0,0-.76,4.78c-.12,1.85,3.61,5.25,1.2,5.35s-2.45-1.5-2.52-2.89-.52-6.27.29-8.41S435.06,77.21,436.54,80Z"/><path class="cls-1" d="M434.93,93.92c2,1,4.61,1.17,5,2.58s.22,2.51-.85,2.64-3.06.54-4.23-.38-1.32.26-2.29.55-3.75,1.06-3.21-1.53S432.17,92.54,434.93,93.92Z"/><path class="cls-2" d="M434.24,65.18c-4.17,1.22-6.36,3.3-3.32,4.62s7,2.11,7.35,4.42,5.06-.93,4.58-2.85,2.21-3.77,2.15-4.47-3.61-2.56-4.82-2.64a45.28,45.28,0,0,0-5.94.91h0"/><path class="cls-47" d="M447.58,36.93l-1.52-1a2.31,2.31,0,0,0-2.74.18l-.57-.37a1.35,1.35,0,0,0-1.86.4l-.24.37a1.35,1.35,0,0,0,.4,1.86l.57.37a2.31,2.31,0,0,0,1,2.58l1.52,1a2.31,2.31,0,0,0,3.18-.68l1-1.52A2.31,2.31,0,0,0,447.58,36.93Z"/><path class="cls-48" d="M438.29,62.49l-1.79-.2a2.31,2.31,0,0,0-2.37,1.39l-.68-.07A1.35,1.35,0,0,0,432,64.79l0,.43a1.35,1.35,0,0,0,1.19,1.48l.68.07a2.31,2.31,0,0,0,2,1.88l1.79.2a2.31,2.31,0,0,0,2.54-2l.2-1.79A2.31,2.31,0,0,0,438.29,62.49Z"/><path class="cls-49" d="M438.29,59.19,436.5,59a2.31,2.31,0,0,0-2.37,1.39l-.68-.07A1.35,1.35,0,0,0,432,61.49l0,.43a1.35,1.35,0,0,0,1.19,1.48l.68.07a2.31,2.31,0,0,0,2,1.88l1.79.2a2.31,2.31,0,0,0,2.54-2l.2-1.79A2.31,2.31,0,0,0,438.29,59.19Z"/><path class="cls-50" d="M438.8,55.89l-1.79-.2a2.31,2.31,0,0,0-2.37,1.39L434,57a1.35,1.35,0,0,0-1.48,1.19l0,.43a1.35,1.35,0,0,0,1.19,1.48l.68.07a2.31,2.31,0,0,0,2,1.88l1.79.2a2.31,2.31,0,0,0,2.54-2l.2-1.79A2.31,2.31,0,0,0,438.8,55.89Z"/><path class="cls-51" d="M440.08,53.32l-1.67-.69a2.31,2.31,0,0,0-2.66.68l-.63-.26a1.35,1.35,0,0,0-1.75.73l-.17.4a1.35,1.35,0,0,0,.73,1.75l.63.26A2.31,2.31,0,0,0,436,58.56l1.67.69a2.31,2.31,0,0,0,3-1.25l.69-1.67A2.31,2.31,0,0,0,440.08,53.32Z"/><path class="cls-52" d="M440.4,49.75l-1.67-.69a2.31,2.31,0,0,0-2.66.68l-.63-.26a1.35,1.35,0,0,0-1.75.73l-.17.4a1.35,1.35,0,0,0,.73,1.75l.63.26A2.31,2.31,0,0,0,436.29,55l1.67.69a2.31,2.31,0,0,0,3-1.25l.69-1.67A2.31,2.31,0,0,0,440.4,49.75Z"/><path class="cls-53" d="M441.65,46.36,440,45.68a2.31,2.31,0,0,0-2.66.68l-.63-.26a1.35,1.35,0,0,0-1.75.73l-.17.4A1.35,1.35,0,0,0,435.5,49l.63.26a2.31,2.31,0,0,0,1.41,2.36l1.67.69a2.31,2.31,0,0,0,3-1.25l.69-1.67A2.31,2.31,0,0,0,441.65,46.36Z"/><path class="cls-54" d="M443.22,42.8l-1.67-.69a2.31,2.31,0,0,0-2.66.68l-.63-.26a1.35,1.35,0,0,0-1.75.73l-.17.4a1.35,1.35,0,0,0,.73,1.75l.63.26A2.31,2.31,0,0,0,439.11,48l1.67.69a2.31,2.31,0,0,0,3-1.25l.69-1.67A2.31,2.31,0,0,0,443.22,42.8Z"/><path class="cls-55" d="M445.22,39.83l-1.54-.94a2.31,2.31,0,0,0-2.74.25l-.58-.35a1.35,1.35,0,0,0-1.84.44l-.23.37a1.35,1.35,0,0,0,.44,1.84l.58.35a2.31,2.31,0,0,0,1,2.55l1.54.94a2.31,2.31,0,0,0,3.16-.76L446,43A2.31,2.31,0,0,0,445.22,39.83Z"/><path class="cls-56" d="M444.41,35c-4.65-.2-8.77,3.28-11,7.36a9.78,9.78,0,0,0-1.45,5.45c.2,2.26,1.59,4.24,3.1,5.93a22.31,22.31,0,0,0,10.36,7c2.53.71,5.71.57,7.2-1.59,1.16-1.68.87-3.92.61-5.95s-.35-4.34,1.06-5.82a.91.91,0,0,1,.43-.29c.51-.12.85.51,1,1A14.43,14.43,0,0,1,455.6,55a6.3,6.3,0,0,0-.35,2.23,1.67,1.67,0,0,0,1.38,1.57c.91.05,1.53-.88,1.89-1.72a21.17,21.17,0,0,0,0-16.67,6.85,6.85,0,0,0-1.81-2.66,3,3,0,0,0-3-.54c-1.9.89-2.36.19-4.22-.69A13.18,13.18,0,0,0,444.41,35Z"/><path class="cls-16" d="M434.58,46.53a2.54,2.54,0,0,1,2.24.6c.94.92,2.47,4.32,4,5.41A41.22,41.22,0,0,0,447.4,56c.82.24,1.44.79,1.43,1.36s-.38,1.67-1.1,1.56a39.31,39.31,0,0,1-7.82-3.63c-1.32-1.08-5.37-5-5.75-6.3A2.19,2.19,0,0,1,434.58,46.53Z"/><path class="cls-16" d="M436.58,42.39a2.38,2.38,0,0,1,1.89.71c.73.84,1.77,3.72,3,4.75a37.69,37.69,0,0,0,5.42,3.43c.69.28,1.18.78,1.12,1.24s-.47,1.3-1.08,1.14a36.19,36.19,0,0,1-6.46-3.72c-1.05-1-4.22-4.59-4.44-5.65A1.66,1.66,0,0,1,436.58,42.39Z"/><path class="cls-16" d="M440.44,39.3a1.87,1.87,0,0,1,1.66.67c.63.82,1.48,3.66,2.52,4.66a30.79,30.79,0,0,0,4.71,3.29c.6.26,1,.75,1,1.21s-.44,1.3-1,1.16a29.23,29.23,0,0,1-5.62-3.56c-.91-1-3.62-4.47-3.79-5.53A1.84,1.84,0,0,1,440.44,39.3Z"/><path class="cls-16" d="M459.34,51.44c-.2.67-.88,1.81-1.73,1.44a1.42,1.42,0,0,1-.46-1.9,5.7,5.7,0,0,1,1.67-1.24C459.93,49,459.54,50.78,459.34,51.44Z"/><path class="cls-16" d="M456.56,54.7a1.46,1.46,0,0,0-.2.54,4.69,4.69,0,0,0-.1.93.9.9,0,0,0,.19.65A.63.63,0,0,0,457,57a1.35,1.35,0,0,0,.55-.32c.52-.45,1.42-1.7,1.07-2.45S456.89,54.22,456.56,54.7Z"/><path class="cls-16" d="M458,49.32a2,2,0,0,0,1-.8,1.84,1.84,0,0,0,.14-.76c0-.7.3-2.08-.64-2a2.29,2.29,0,0,0-1.61,1,2.6,2.6,0,0,0-.16,1.5C456.83,49.18,456.86,49.85,458,49.32Z"/><path class="cls-3" d="M436.1,54.26c3.26,2.52,3.73,5.18,4.59,8.8s1.38,5.88,2.18,7.19.19,4-1,3.06-3-12.74-4.18-13.84-1.36,2.56-.81,4.32a52,52,0,0,0,2.11,6c1,2.23,6.65,4.09,4.36,5.57s-3.29-.38-4.19-2-4.24-7-4.73-10S433,51.87,436.1,54.26Z"/><path class="cls-4" d="M438.23,40.44a2.12,2.12,0,0,0-1.39-2.35c-1.18-.56-1.43,1.08-2.66,1h0a2.11,2.11,0,0,0-.63-.1,2.54,2.54,0,0,0-2.37,2.69,2.85,2.85,0,0,0,.76,2l0,.13a3.55,3.55,0,0,1,1,2.6c0,1.68.45,7.8,0,9.09s.12,2.85,1,2.82,1.15-1.41,1.72-1.49,2.71-.24,2.51-1.78-1.21-1.47-1.86-3.43-1-4.63,0-6.29c.22-.36.43-.67.6-1a2.32,2.32,0,0,0,1.27-2.13C439.45,41.26,438.08,41.36,438.23,40.44Z"/><path class="cls-4" d="M441.06,70.61c-4-.09-1.13,4.15-1.68,5.63s-2.25,3.33-.84,5.48.74-1.41,1.63-2.37,1.52.07,1.94,1.48-2.39,2.44-2.06,3.55,4-1.63,4.26-2.37a13.93,13.93,0,0,0,0-3.55,4.16,4.16,0,0,1,1,2.07c.07,1-1.41,3.85-.59,4.11s1.63-1.89,1.63-1.89l1.69-2.37a8,8,0,0,0-.65-3.55c-.74-1.18-1.7-4.44-2.67-5S444.17,70.69,441.06,70.61Z"/><path class="cls-4" d="M469.51,35.76a15.64,15.64,0,1,0-26.37,2l-.18.9a2.86,2.86,0,0,0,2.24,3.35l1.36.27v5.32a2,2,0,0,0,2,2h1.08a2,2,0,0,0,2-2V46.38h1.61v1.27a2,2,0,0,0,2,2h1.08a2,2,0,0,0,2-2V46.38a4,4,0,0,1,5.54,0v1.27c0,1.08.53,2,1.61,2h1.08a2,2,0,0,0,1.75-2.17l-.06-1.21a2.47,2.47,0,0,0,.65-1.13,18.86,18.86,0,0,0,0-3.51l.32-.06a2.08,2.08,0,0,0,1.4-2.58Z"/><circle class="cls-16" cx="451.99" cy="35.7" r="5.29"/><ellipse class="cls-16" cx="465.88" cy="35.7" rx="1.91" ry="3.6"/><path class="cls-16" d="M462.54,40.65c-.2-.65-.65-1.09-1-1l-.07,0a.61.61,0,0,0-.32-.36c-.46-.19-1.13.36-1.48,1.24s-.27,1.73.2,1.92,1.13-.36,1.48-1.24v0c.22.54.61.89.93.8S462.74,41.3,462.54,40.65Z"/><path class="cls-1" d="M550.1,93.6c1.85,1.24,4.42,1.75,4.6,3.2s-.1,2.52-1.18,2.51-3.1.14-4.15-.93-1.34.09-2.34.25-3.86.57-3-1.93S547.54,91.87,550.1,93.6Z"/><path class="cls-2" d="M558.57,43.44a1.94,1.94,0,0,0-1.28-2.15c-1.08-.51-1.3,1-2.44.92h0a1.93,1.93,0,0,0-.58-.09,2.33,2.33,0,0,0-2.17,2.46,2.61,2.61,0,0,0,.7,1.81l0,.12a3.25,3.25,0,0,1,.89,2.38c0,1.54.41,7.14,0,8.32s.11,2.61.94,2.58,1.06-1.29,1.57-1.36,2.48-.22,2.3-1.63-1.11-1.34-1.7-3.14-.93-4.24,0-5.76c.2-.33.39-.61.55-.87a2.12,2.12,0,0,0,1.16-2C559.69,44.19,558.43,44.28,558.57,43.44Z"/><path class="cls-3" d="M556.62,56.09c3,2.31,3.42,4.74,4.2,8s1.26,5.39,2,6.58.17,3.69-1,2.8S559.15,61.87,558,60.86s-1.24,2.34-.74,4a47.58,47.58,0,0,0,1.93,5.49c.9,2,6.09,3.75,4,5.1s-3-.34-3.83-1.79-3.88-6.43-4.33-9.13S553.79,53.9,556.62,56.09Z"/><path class="cls-4" d="M561.91,70.5c-3.65-.09-1,3.79-1.53,5.15s-2.06,3-.77,5,.68-1.29,1.49-2.17,1.39.07,1.78,1.36-2.19,2.24-1.88,3.25,3.63-1.49,3.9-2.17a12.74,12.74,0,0,0,0-3.25,3.81,3.81,0,0,1,.95,1.9c.07.95-1.29,3.53-.54,3.76s1.49-1.73,1.49-1.73l1.54-2.17a7.27,7.27,0,0,0-.6-3.25c-.68-1.08-1.56-4.07-2.44-4.61S564.75,70.57,561.91,70.5Z"/><path class="cls-5" d="M542.58,70.29a1.57,1.57,0,0,1,.34-2c.69-.74,1.34.32,2.22-.11h0a1.73,1.73,0,0,1,.43-.26A1.94,1.94,0,0,1,548,69a2.07,2.07,0,0,1,0,1.59s0,.06,0,.1a2.6,2.6,0,0,0,0,2.09c.51,1.15,1.91,5.52,2.61,6.27s.73,2,.06,2.26-1.24-.62-1.67-.51-2,.65-2.33-.47.46-1.38.37-2.92-.59-3.5-1.8-4.34l-.71-.48a1.72,1.72,0,0,1-1.53-1.09C541.93,71.22,543,70.87,542.58,70.29Z"/><path class="cls-2" d="M550.79,79.4c1.56,2.91.86,4.86.08,7.58s-1.29,4.43-1.18,5.6-1.48,2.75-2.06,1.63,2.8-9.57,2.29-10.77-2.11,1.18-2.39,2.56a33.78,33.78,0,0,0-.76,4.78c-.12,1.85,3.61,5.25,1.2,5.35s-2.45-1.5-2.52-2.89-.52-6.27.29-8.41S549.32,76.64,550.79,79.4Z"/><path class="cls-5" d="M528.32,70.86a1.57,1.57,0,0,1,.34-2c.69-.74,1.34.32,2.22-.11h0a1.73,1.73,0,0,1,.43-.26,1.94,1.94,0,0,1,2.49,1.14,2.07,2.07,0,0,1,0,1.59s0,.06,0,.1a2.6,2.6,0,0,0,0,2.09c.51,1.15,1.91,5.52,2.61,6.27s.73,2,.06,2.26-1.24-.62-1.67-.51-2,.65-2.33-.47.46-1.38.37-2.92-.59-3.5-1.8-4.34l-.71-.48a1.72,1.72,0,0,1-1.53-1.09C527.67,71.79,528.69,71.44,528.32,70.86Z"/><path class="cls-2" d="M536.54,80c1.56,2.91.86,4.86.08,7.58s-1.29,4.43-1.18,5.6-1.48,2.75-2.06,1.63,2.8-9.57,2.29-10.77-2.11,1.18-2.39,2.56a33.78,33.78,0,0,0-.76,4.78c-.12,1.85,3.61,5.25,1.2,5.35s-2.45-1.5-2.52-2.89-.52-6.27.29-8.41S535.06,77.21,536.54,80Z"/><path class="cls-1" d="M534.93,93.92c2,1,4.61,1.17,5,2.58s.22,2.51-.85,2.64-3.06.54-4.23-.38-1.32.26-2.29.55-3.75,1.06-3.21-1.53S532.17,92.54,534.93,93.92Z"/><path class="cls-2" d="M534.24,65.18c-4.17,1.22-6.36,3.3-3.32,4.62s7,2.11,7.35,4.42,5.06-.93,4.58-2.85,2.21-3.77,2.15-4.47-3.61-2.56-4.82-2.64a45.28,45.28,0,0,0-5.94.91h0"/><path class="cls-57" d="M547.58,36.93l-1.52-1a2.31,2.31,0,0,0-2.74.18l-.57-.37a1.35,1.35,0,0,0-1.86.4l-.24.37a1.35,1.35,0,0,0,.4,1.86l.57.37a2.31,2.31,0,0,0,1,2.58l1.52,1a2.31,2.31,0,0,0,3.18-.68l1-1.52A2.31,2.31,0,0,0,547.58,36.93Z"/><path class="cls-58" d="M538.29,62.49l-1.79-.2a2.31,2.31,0,0,0-2.37,1.39l-.68-.07A1.35,1.35,0,0,0,532,64.79l0,.43a1.35,1.35,0,0,0,1.19,1.48l.68.07a2.31,2.31,0,0,0,2,1.88l1.79.2a2.31,2.31,0,0,0,2.54-2l.2-1.79A2.31,2.31,0,0,0,538.29,62.49Z"/><path class="cls-59" d="M538.29,59.19,536.5,59a2.31,2.31,0,0,0-2.37,1.39l-.68-.07A1.35,1.35,0,0,0,532,61.49l0,.43a1.35,1.35,0,0,0,1.19,1.48l.68.07a2.31,2.31,0,0,0,2,1.88l1.79.2a2.31,2.31,0,0,0,2.54-2l.2-1.79A2.31,2.31,0,0,0,538.29,59.19Z"/><path class="cls-60" d="M538.8,55.89l-1.79-.2a2.31,2.31,0,0,0-2.37,1.39L534,57a1.35,1.35,0,0,0-1.48,1.19l0,.43a1.35,1.35,0,0,0,1.19,1.48l.68.07a2.31,2.31,0,0,0,2,1.88l1.79.2a2.31,2.31,0,0,0,2.54-2l.2-1.79A2.31,2.31,0,0,0,538.8,55.89Z"/><path class="cls-61" d="M540.08,53.32l-1.67-.69a2.31,2.31,0,0,0-2.66.68l-.63-.26a1.35,1.35,0,0,0-1.75.73l-.17.4a1.35,1.35,0,0,0,.73,1.75l.63.26A2.31,2.31,0,0,0,536,58.56l1.67.69a2.31,2.31,0,0,0,3-1.25l.69-1.67A2.31,2.31,0,0,0,540.08,53.32Z"/><path class="cls-62" d="M540.4,49.75l-1.67-.69a2.31,2.31,0,0,0-2.66.68l-.63-.26a1.35,1.35,0,0,0-1.75.73l-.17.4a1.35,1.35,0,0,0,.73,1.75l.63.26A2.31,2.31,0,0,0,536.29,55l1.67.69a2.31,2.31,0,0,0,3-1.25l.69-1.67A2.31,2.31,0,0,0,540.4,49.75Z"/><path class="cls-63" d="M541.65,46.36,540,45.68a2.31,2.31,0,0,0-2.66.68l-.63-.26a1.35,1.35,0,0,0-1.75.73l-.17.4A1.35,1.35,0,0,0,535.5,49l.63.26a2.31,2.31,0,0,0,1.41,2.36l1.67.69a2.31,2.31,0,0,0,3-1.25l.69-1.67A2.31,2.31,0,0,0,541.65,46.36Z"/><path class="cls-64" d="M543.22,42.8l-1.67-.69a2.31,2.31,0,0,0-2.66.68l-.63-.26a1.35,1.35,0,0,0-1.75.73l-.17.4a1.35,1.35,0,0,0,.73,1.75l.63.26A2.31,2.31,0,0,0,539.11,48l1.67.69a2.31,2.31,0,0,0,3-1.25l.69-1.67A2.31,2.31,0,0,0,543.22,42.8Z"/><path class="cls-65" d="M545.22,39.83l-1.54-.94a2.31,2.31,0,0,0-2.74.25l-.58-.35a1.35,1.35,0,0,0-1.84.44l-.23.37a1.35,1.35,0,0,0,.44,1.84l.58.35a2.31,2.31,0,0,0,1,2.55l1.54.94a2.31,2.31,0,0,0,3.16-.76L546,43A2.31,2.31,0,0,0,545.22,39.83Z"/><path class="cls-66" d="M544.41,35c-4.65-.2-8.77,3.28-11,7.36a9.78,9.78,0,0,0-1.45,5.45c.2,2.26,1.59,4.24,3.1,5.93a22.31,22.31,0,0,0,10.36,7c2.53.71,5.71.57,7.2-1.59,1.16-1.68.87-3.92.61-5.95s-.35-4.34,1.06-5.82a.91.91,0,0,1,.43-.29c.51-.12.85.51,1,1A14.43,14.43,0,0,1,555.6,55a6.3,6.3,0,0,0-.35,2.23,1.67,1.67,0,0,0,1.38,1.57c.91.05,1.53-.88,1.89-1.72a21.17,21.17,0,0,0,0-16.67,6.85,6.85,0,0,0-1.81-2.66,3,3,0,0,0-3-.54c-1.9.89-2.36.19-4.22-.69A13.18,13.18,0,0,0,544.41,35Z"/><path class="cls-16" d="M534.58,46.53a2.54,2.54,0,0,1,2.24.6c.94.92,2.47,4.32,4,5.41A41.22,41.22,0,0,0,547.4,56c.82.24,1.44.79,1.43,1.36s-.38,1.67-1.1,1.56a39.31,39.31,0,0,1-7.82-3.63c-1.32-1.08-5.37-5-5.75-6.3A2.19,2.19,0,0,1,534.58,46.53Z"/><path class="cls-16" d="M536.58,42.39a2.38,2.38,0,0,1,1.89.71c.73.84,1.77,3.72,3,4.75a37.69,37.69,0,0,0,5.42,3.43c.69.28,1.18.78,1.12,1.24s-.47,1.3-1.08,1.14a36.19,36.19,0,0,1-6.46-3.72c-1.05-1-4.22-4.59-4.44-5.65A1.66,1.66,0,0,1,536.58,42.39Z"/><path class="cls-16" d="M540.44,39.3a1.87,1.87,0,0,1,1.66.67c.63.82,1.48,3.66,2.52,4.66a30.79,30.79,0,0,0,4.71,3.29c.6.26,1,.75,1,1.21s-.44,1.3-1,1.16a29.23,29.23,0,0,1-5.62-3.56c-.91-1-3.62-4.47-3.79-5.53A1.84,1.84,0,0,1,540.44,39.3Z"/><path class="cls-16" d="M559.34,51.44c-.2.67-.88,1.81-1.73,1.44a1.42,1.42,0,0,1-.46-1.9,5.7,5.7,0,0,1,1.67-1.24C559.93,49,559.54,50.78,559.34,51.44Z"/><path class="cls-16" d="M556.56,54.7a1.46,1.46,0,0,0-.2.54,4.69,4.69,0,0,0-.1.93.9.9,0,0,0,.19.65A.63.63,0,0,0,557,57a1.35,1.35,0,0,0,.55-.32c.52-.45,1.42-1.7,1.07-2.45S556.89,54.22,556.56,54.7Z"/><path class="cls-16" d="M558,49.32a2,2,0,0,0,1-.8,1.84,1.84,0,0,0,.14-.76c0-.7.3-2.08-.64-2a2.29,2.29,0,0,0-1.61,1,2.6,2.6,0,0,0-.16,1.5C556.83,49.18,556.86,49.85,558,49.32Z"/><path class="cls-3" d="M536.1,54.26c3.26,2.52,3.73,5.18,4.59,8.8s1.38,5.88,2.18,7.19.19,4-1,3.06-3-12.74-4.18-13.84-1.36,2.56-.81,4.32a52,52,0,0,0,2.11,6c1,2.23,6.65,4.09,4.36,5.57s-3.29-.38-4.19-2-4.24-7-4.73-10S533,51.87,536.1,54.26Z"/><path class="cls-4" d="M538.23,40.44a2.12,2.12,0,0,0-1.39-2.35c-1.18-.56-1.43,1.08-2.66,1h0a2.11,2.11,0,0,0-.63-.1,2.54,2.54,0,0,0-2.37,2.69,2.85,2.85,0,0,0,.76,2l0,.13a3.55,3.55,0,0,1,1,2.6c0,1.68.45,7.8,0,9.09s.12,2.85,1,2.82,1.15-1.41,1.72-1.49,2.71-.24,2.51-1.78-1.21-1.47-1.86-3.43-1-4.63,0-6.29c.22-.36.43-.67.6-1a2.32,2.32,0,0,0,1.27-2.13C539.45,41.26,538.08,41.36,538.23,40.44Z"/><path class="cls-4" d="M541.06,70.61c-4-.09-1.13,4.15-1.68,5.63s-2.25,3.33-.84,5.48.74-1.41,1.63-2.37,1.52.07,1.94,1.48-2.39,2.44-2.06,3.55,4-1.63,4.26-2.37a13.93,13.93,0,0,0,0-3.55,4.16,4.16,0,0,1,1,2.07c.07,1-1.41,3.85-.59,4.11s1.63-1.89,1.63-1.89l1.69-2.37a8,8,0,0,0-.65-3.55c-.74-1.18-1.7-4.44-2.67-5S544.17,70.69,541.06,70.61Z"/><path class="cls-4" d="M569.51,35.76a15.64,15.64,0,1,0-26.37,2l-.18.9a2.86,2.86,0,0,0,2.24,3.35l1.36.27v5.32a2,2,0,0,0,2,2h1.08a2,2,0,0,0,2-2V46.38h1.61v1.27a2,2,0,0,0,2,2h1.08a2,2,0,0,0,2-2V46.38a4,4,0,0,1,5.54,0v1.27c0,1.08.53,2,1.61,2h1.08a2,2,0,0,0,1.75-2.17l-.06-1.21a2.47,2.47,0,0,0,.65-1.13,18.86,18.86,0,0,0,0-3.51l.32-.06a2.08,2.08,0,0,0,1.4-2.58Z"/><circle class="cls-16" cx="551.99" cy="35.7" r="5.29"/><ellipse class="cls-16" cx="565.88" cy="35.7" rx="1.91" ry="3.6"/><path class="cls-16" d="M562.54,40.65c-.2-.65-.65-1.09-1-1l-.07,0a.61.61,0,0,0-.32-.36c-.46-.19-1.13.36-1.48,1.24s-.27,1.73.2,1.92,1.13-.36,1.48-1.24v0c.22.54.61.89.93.8S562.74,41.3,562.54,40.65Z"/></svg>