<svg xmlns="http://www.w3.org/2000/svg" viewBox="0 0 216.1 93.89"><defs><style>.cls-1{fill:#3a3547;}.cls-2{fill:#cec4d6;}</style></defs><title>sobat</title><g id="Layer_2" data-name="Layer 2"><g id="Layer_1-2" data-name="Layer 1"><path class="cls-1" d="M207.71,19H154.86V12a12,12,0,0,0-12-12H73A12,12,0,0,0,61,12v7H8.39C3.77,19,0,24.4,0,31V58.35c0,6.6,3.77,12,8.39,12H21.92c4.61,0,8.39-5.4,8.39-12V57.8H48.24c4.61,0,8.39-5.4,8.39-12v-9.4H61V81.89a12,12,0,0,0,12,12h69.89a12,12,0,0,0,12-12V36.41h4.61v9.4c0,6.6,3.77,12,8.39,12h17.93v.55c0,6.6,3.77,12,8.39,12h13.53c4.61,0,8.39-5.4,8.39-12V31C216.1,24.4,212.32,19,207.71,19Z"/><circle class="cls-2" cx="84.42" cy="28.05" r="11.45"/><circle class="cls-2" cx="131.06" cy="28.05" r="11.45"/></g></g></svg>