<svg xmlns="http://www.w3.org/2000/svg" xmlns:xlink="http://www.w3.org/1999/xlink" viewBox="0 0 109.75 109.75"><defs><style>.cls-1{fill:url(#radial-gradient);}.cls-2{fill:#ba4f4f;}</style><radialGradient id="radial-gradient" cx="54.88" cy="54.88" r="54.88" gradientUnits="userSpaceOnUse"><stop offset="0" stop-color="#fff"/><stop offset="0.33" stop-color="#ffeced"/><stop offset="0.47" stop-color="#ffe6e7"/><stop offset="1" stop-color="#ffbfc1"/></radialGradient></defs><title>socornea</title><g id="Layer_2" data-name="Layer 2"><g id="Layer_1-2" data-name="Layer 1"><rect class="cls-1" width="109.75" height="109.75" rx="12" ry="12"/><path class="cls-2" d="M91.59,107.61c.15-3.94-3.51-5.84-6.8-7.14C79,98.18,71.43,100.2,70.12,92c-.3-1.9-3.19-1.09-2.89.8a10.69,10.69,0,0,0,6.18,8.31c2.4,1.06,5.08.91,7.6,1.43,2.1.44,7.7,2.08,7.59,5.11-.07,1.93,2.93,1.93,3,0Z"/><path class="cls-2" d="M85.23,100.47c-4.23-3.82.76-6.8.65-11a6.29,6.29,0,0,0-5-5.89C79,83.14,78.18,86,80,86.51c5.42,1.4.49,6.51.34,9.86a7.88,7.88,0,0,0,2.72,6.22c1.43,1.29,3.56-.82,2.12-2.12Z"/><path class="cls-2" d="M89.27,103.88c-.49-1.51,1.94-2.89,3-3.52a1.5,1.5,0,0,0-1.51-2.59c-2.33,1.39-5.38,3.81-4.37,6.91.59,1.83,3.49,1,2.89-.8Z"/><path class="cls-2" d="M1.31,21.13c.44.17,1.83,4.44,1.93,4.72a36,36,0,0,0,2,5.34c1.57,2.89,4.36,5,7.77,4.58,1.89-.24,1.91-3.24,0-3-5.15.66-6-5.59-7.4-9.11-.89-2.17-1.17-4.51-3.51-5.43-1.8-.71-2.58,2.19-.8,2.89Z"/><path class="cls-2" d="M2,23c2.29,1.74,5.4,4.2,8.4,4.48a9.49,9.49,0,0,0,4-.93c1.07-.37,9.5-1.59,8.26,1.31-.75,1.76,1.84,3.29,2.59,1.51C26.52,26.46,24,23.84,21.2,23c-2.41-.76-4.5-.13-6.86.45s-3.71,1.31-5.9.2a32.27,32.27,0,0,1-4.91-3.16C2,19.29.49,21.89,2,23Z"/><path class="cls-2" d="M15.6,26.08c1.51.66.06,3.47,0,4.67a4.15,4.15,0,0,0,1.9,3.84C19.13,35.65,20.63,33.05,19,32c-1.15-.75.31-4,.23-5.22a3.78,3.78,0,0,0-2.13-3.29c-1.75-.76-3.28,1.82-1.51,2.59Z"/><path class="cls-2" d="M12.79,104.83a5.32,5.32,0,0,0,6.19-3.5c1.71-4.56-2.75-9.61,0-13.75,1.08-1.61-1.52-3.11-2.59-1.51a8.15,8.15,0,0,0-1.28,5.71c.2,1.81,3.57,11.09-1.54,10.16-1.89-.34-2.7,2.55-.8,2.89Z"/><path class="cls-2" d="M19.31,101.37a12,12,0,0,1,5.89-2.48c1.9-.28,1.09-3.17-.8-2.89a14.88,14.88,0,0,0-7.21,3.25c-1.5,1.21.63,3.32,2.12,2.12Z"/><path class="cls-2" d="M101.87,5.05c-.77,6.9-16,3.12-20.32,3.21a18.2,18.2,0,0,0-12.1,4.32c-1.46,1.27.67,3.38,2.12,2.12C79,8.27,88.36,13.18,96.9,11.88c4.38-.67,7.47-2.29,8-6.83.21-1.92-2.79-1.9-3,0Z"/><path class="cls-2" d="M83.76,8.88c-12.05,5.26-3,23.24-15.16,28.73-1.76.79-.23,3.38,1.51,2.59a14.81,14.81,0,0,0,8-9.57c2-6.38-.2-15.94,7.16-19.16,1.77-.77.24-3.36-1.51-2.59Z"/><path class="cls-2" d="M100.15,7.59a14.42,14.42,0,0,0-5.76,7.08c-1.75,4.57-.8,9.27-1.71,14-.37,1.89,2.53,2.69,2.89.8,1.33-6.86-.85-14.75,6.09-19.25,1.61-1,.11-3.65-1.51-2.59Z"/><path class="cls-2" d="M106.63,56.53a2.61,2.61,0,0,0-1,1.16,2.41,2.41,0,0,0-.16.72c0,.12-.11.43,0,.11l.39-.66.19-.1-.39.09a2.76,2.76,0,0,1-.53,0,2,2,0,0,1-1-.28,1.5,1.5,0,0,0-1.51,2.59,5.47,5.47,0,0,0,3.83.54A2.63,2.63,0,0,0,108,60a1.8,1.8,0,0,0,.43-.78q0-.26.06-.52,0-.51-.31.44a1.55,1.55,0,0,0,.54-2.05,1.51,1.51,0,0,0-2.05-.54Z"/></g></g></svg>