<svg xmlns="http://www.w3.org/2000/svg" viewBox="0 0 241.9 358.25"><defs><style>.cls-1{fill:#827964;}.cls-2{fill:#686256;}.cls-3{fill:#56524a;}.cls-4{fill:#fff;}.cls-5{fill:#606060;}.cls-6{fill:#3f3f3f;}.cls-7{fill:#898989;}.cls-8{fill:#e0e0e0;}</style></defs><title>sodoor</title><g id="Layer_5" data-name="Layer 5"><path class="cls-1" d="M508.85,242V484.9a12,12,0,0,1-12,12H482.11a11.93,11.93,0,0,1-8.11-3.18V354.25a7.74,7.74,0,0,0,9.8,7.46v25a9.07,9.07,0,0,0,18.13,0V342.81a5.74,5.74,0,0,0,2.45-4.7V302.59a5.76,5.76,0,0,0-11.52,0v19.72a8.89,8.89,0,0,0-3.38.66v-5.66a7.74,7.74,0,0,0-15.48,0V218.44a11.93,11.93,0,0,1,7.74-3.17v39.15a10.1,10.1,0,0,0,20.19,0V224.1A26.67,26.67,0,0,1,508.85,242ZM495.07,484.7v-50a5.56,5.56,0,0,0-1.66-4,5.62,5.62,0,0,0-9.61,4v50a5.64,5.64,0,0,0,11.27,0Z" transform="translate(-269.86 -168.82)"/><path class="cls-2" d="M504.38,302.59v35.52a5.74,5.74,0,0,1-2.45,4.7V331.37a9.08,9.08,0,0,0-9.07-9.06V302.59a5.76,5.76,0,0,1,11.52,0Z" transform="translate(-269.86 -168.82)"/><path class="cls-2" d="M501.93,342.81v43.92a9.07,9.07,0,0,1-18.13,0v-25a7.76,7.76,0,0,0,5.68-7.46V323a8.89,8.89,0,0,1,3.38-.66v15.8a5.77,5.77,0,0,0,5.76,5.76A5.68,5.68,0,0,0,501.93,342.81Z" transform="translate(-269.86 -168.82)"/><path class="cls-2" d="M501.93,331.37v11.44a5.68,5.68,0,0,1-3.31,1.06,5.77,5.77,0,0,1-5.76-5.76v-15.8a9.08,9.08,0,0,1,9.07,9.06Z" transform="translate(-269.86 -168.82)"/><path class="cls-2" d="M501.93,224.1v30.32a10.1,10.1,0,0,1-20.19,0V215.27h.37A26.68,26.68,0,0,1,501.93,224.1Z" transform="translate(-269.86 -168.82)"/><path class="cls-2" d="M495.07,434.73v50a5.64,5.64,0,0,1-11.27,0v-50a5.62,5.62,0,0,1,9.61-4A5.56,5.56,0,0,1,495.07,434.73Z" transform="translate(-269.86 -168.82)"/><path class="cls-2" d="M489.48,323v31.28a7.76,7.76,0,0,1-5.68,7.46V331.37A9.09,9.09,0,0,1,489.48,323Z" transform="translate(-269.86 -168.82)"/><path class="cls-2" d="M489.48,317.31V323a9.09,9.09,0,0,0-5.68,8.4v30.34a7.74,7.74,0,0,1-9.8-7.46V317.31a7.74,7.74,0,0,1,15.48,0Z" transform="translate(-269.86 -168.82)"/><path class="cls-3" d="M474,354.25V493.72a12,12,0,0,1-3.89-8.82V227.26a12,12,0,0,1,3.89-8.82V354.25Z" transform="translate(-269.86 -168.82)"/><path class="cls-1" d="M470.11,227.26V484.9a12,12,0,0,1-12,12H443.36a12,12,0,0,1-9.58-4.79V184.78a12.12,12.12,0,0,1,5.93-4.22V379.14a3.43,3.43,0,0,0,6.86,0V218.25a8.76,8.76,0,0,0,7.84.49v55.81a4.41,4.41,0,0,0,8.82,0V186.64A22.9,22.9,0,0,1,470.11,203Zm-3.45,251.07v-23a12,12,0,0,0-12-12h-.5a12,12,0,0,0-12,12v23a12,12,0,0,0,12,12h.5A12,12,0,0,0,466.66,478.33Zm-3.43-73.72V387a4.41,4.41,0,1,0-8.82,0v17.64a4.41,4.41,0,1,0,8.82,0Z" transform="translate(-269.86 -168.82)"/><rect class="cls-2" x="172.3" y="274.49" width="24.5" height="47.02" rx="12" ry="12"/><path class="cls-2" d="M463.23,387v17.64a4.41,4.41,0,1,1-8.82,0V387a4.41,4.41,0,0,1,8.82,0Z" transform="translate(-269.86 -168.82)"/><path class="cls-2" d="M463.23,186.64v87.91a4.41,4.41,0,0,1-8.82,0V218.74a8.86,8.86,0,0,0,5.39-8.12V183.84A23,23,0,0,1,463.23,186.64Z" transform="translate(-269.86 -168.82)"/><path class="cls-2" d="M459.8,183.84v26.78a8.86,8.86,0,0,1-5.39,8.12V181.19A22.89,22.89,0,0,1,459.8,183.84Z" transform="translate(-269.86 -168.82)"/><path class="cls-2" d="M454.41,181.19v37.55a8.76,8.76,0,0,1-7.84-.49V180h.54A22.62,22.62,0,0,1,454.41,181.19Z" transform="translate(-269.86 -168.82)"/><path class="cls-2" d="M446.57,218.25V379.14a3.43,3.43,0,0,1-6.86,0V180.56a12.39,12.39,0,0,1,2.45-.51v30.57A8.86,8.86,0,0,0,446.57,218.25Z" transform="translate(-269.86 -168.82)"/><path class="cls-2" d="M446.57,180v38.26a8.86,8.86,0,0,1-4.41-7.63V180.05a11.76,11.76,0,0,1,1.2-.06Z" transform="translate(-269.86 -168.82)"/><path class="cls-3" d="M433.78,184.78V492.11a11.92,11.92,0,0,1-2.42-7.21V192A11.92,11.92,0,0,1,433.78,184.78Z" transform="translate(-269.86 -168.82)"/><path class="cls-1" d="M424.42,170a6.35,6.35,0,0,1,.11,1.24v47.52a7.6,7.6,0,0,1-15.19,0V171.19a7.45,7.45,0,0,1,.38-2.37h-5.1a11.24,11.24,0,0,0-1.65.12V231.2c2.89.26,5.79.49,8.69.66,6,.35,15.89-1.63,16.94,6.59,1.26,9.89,1.32,19.63,1.26,29.56,0,6.45,1,13.9-1.84,19.94-3.17,6.66-12.1,7.82-18.65,8.36-2.11.17-4.25.3-6.39.4v40.73a3.48,3.48,0,1,1-7,0V493.23a12,12,0,0,0,8.62,3.67h14.74a12,12,0,0,0,12-12V180.82A12,12,0,0,0,424.42,170Zm-7.48,312.18a5.27,5.27,0,0,1-10.54,0V367.26a5.28,5.28,0,0,1,5.27-5.27,5.29,5.29,0,0,1,5.27,5.27Zm-2.7-162.76a4.91,4.91,0,0,1-4.9-4.9v-9.79a4.91,4.91,0,0,1,4.9-4.9,4.92,4.92,0,0,1,4.9,4.9v9.79A4.91,4.91,0,0,1,414.24,319.37ZM427,364.93a3.92,3.92,0,0,1-7.84,0v-33.8a3.92,3.92,0,0,1,7.84,0Z" transform="translate(-269.86 -168.82)"/><path class="cls-2" d="M427,331.13v33.8a3.92,3.92,0,0,1-7.84,0v-33.8a3.92,3.92,0,0,1,7.84,0Z" transform="translate(-269.86 -168.82)"/><path class="cls-2" d="M424.53,171.19v47.52a7.6,7.6,0,0,1-15.19,0V171.19a7.45,7.45,0,0,1,.38-2.37h9.64a11.76,11.76,0,0,1,5.06,1.13A6.36,6.36,0,0,1,424.53,171.19Z" transform="translate(-269.86 -168.82)"/><path class="cls-2" d="M419.14,304.68v9.79a4.9,4.9,0,1,1-9.8,0v-9.79a4.91,4.91,0,0,1,4.9-4.9,4.92,4.92,0,0,1,4.9,4.9Z" transform="translate(-269.86 -168.82)"/><path class="cls-2" d="M416.94,367.26V482.13a5.27,5.27,0,0,1-10.54,0V367.26a5.28,5.28,0,0,1,5.27-5.27,5.29,5.29,0,0,1,5.27,5.27Z" transform="translate(-269.86 -168.82)"/><path class="cls-2" d="M396,296.95v40.49a3.48,3.48,0,1,0,7,0V296.71Q399.5,296.88,396,296.95Z" transform="translate(-269.86 -168.82)"/><path class="cls-2" d="M403,231.2V168.94a12,12,0,0,0-7,3.55v58.06Z" transform="translate(-269.86 -168.82)"/><path class="cls-3" d="M392.62,297V484.9a12,12,0,0,0,3.38,8.33V296.95Z" transform="translate(-269.86 -168.82)"/><path class="cls-3" d="M396,230.55V172.49a12,12,0,0,0-3.38,8.33v49.41Z" transform="translate(-269.86 -168.82)"/><path class="cls-1" d="M375.75,296.87l-2.5,0v55a6.69,6.69,0,1,1-13.38,0V294.29a10.2,10.2,0,0,1-2.8-2.72c-4.38-6.3-2.72-15.69-1.89-22.77,1-8.64,1.8-17.19,3.16-25.77l-.85-.36A2.35,2.35,0,0,1,357,239a22.59,22.59,0,0,0,1.79-1.64,25.44,25.44,0,0,1,1.06-3.25V188.9a6.71,6.71,0,0,1,6.69-6.69,6.73,6.73,0,0,1,6.69,6.69V225h.12c6.22.26,12,2.84,17.82,5.14l1.43.13V180.82a12,12,0,0,0-12-12H365.87a12,12,0,0,0-12,12V484.9a12,12,0,0,0,12,12h14.75a12,12,0,0,0,12-12V297C387,297.05,381.3,297,375.75,296.87Zm10.57,178.52a12,12,0,0,1-12,12h-2.45a12,12,0,0,1-12-12V444.53a12,12,0,0,1,12-12h2.45a12,12,0,0,1,12,12Zm0-70.05a3.68,3.68,0,1,1-7.35,0V336.53a3.68,3.68,0,0,1,3.68-3.67,3.69,3.69,0,0,1,3.67,3.67Z" transform="translate(-269.86 -168.82)"/><rect class="cls-2" x="90.01" y="263.71" width="26.45" height="54.86" rx="12" ry="12"/><path class="cls-2" d="M386.32,336.53v68.81a3.68,3.68,0,1,1-7.35,0V336.53a3.68,3.68,0,0,1,3.68-3.67,3.69,3.69,0,0,1,3.67,3.67Z" transform="translate(-269.86 -168.82)"/><path class="cls-2" d="M359.87,294.29v57.58a6.69,6.69,0,1,0,13.38,0v-55C368.7,296.84,363.59,296.75,359.87,294.29Z" transform="translate(-269.86 -168.82)"/><path class="cls-2" d="M373.25,225V188.9a6.73,6.73,0,0,0-6.69-6.69,6.71,6.71,0,0,0-6.69,6.69v45.21C362.16,228.6,366.4,224.73,373.25,225Z" transform="translate(-269.86 -168.82)"/><path class="cls-3" d="M353.87,192V484.9a12,12,0,0,1-5.27,9.93V182.07A12,12,0,0,1,353.87,192Z" transform="translate(-269.86 -168.82)"/><path class="cls-1" d="M348.6,478.33v16.5a12,12,0,0,1-6.73,2.07H327.13a12,12,0,0,1-12-12V203a23.09,23.09,0,0,1,17.3-22.28V283.37a6.37,6.37,0,0,0,12.74,0V180.46a11.85,11.85,0,0,1,3.43,1.61V314a4.92,4.92,0,0,0-4.9-4.89,4.91,4.91,0,0,0-4.9,4.89v16.66a4.9,4.9,0,0,0,9.8,0V435.22a12,12,0,0,0-12-12h-2a12,12,0,0,0-12,12v43.11a12,12,0,0,0,12,12h2A12,12,0,0,0,348.6,478.33Zm-16.17-75.68V362.48a3.92,3.92,0,1,0-7.83,0v40.17a3.92,3.92,0,1,0,7.83,0Z" transform="translate(-269.86 -168.82)"/><rect class="cls-2" x="52.78" y="254.4" width="25.96" height="67.11" rx="12" ry="12"/><path class="cls-2" d="M348.6,314v16.66a4.9,4.9,0,0,1-9.8,0V314a4.91,4.91,0,0,1,4.9-4.89,4.92,4.92,0,0,1,4.9,4.89Z" transform="translate(-269.86 -168.82)"/><path class="cls-2" d="M345.17,180.46V283.37a6.37,6.37,0,0,1-12.74,0V180.71a22.77,22.77,0,0,1,5.7-.72h3.74A11.65,11.65,0,0,1,345.17,180.46Z" transform="translate(-269.86 -168.82)"/><path class="cls-2" d="M332.43,362.48v40.17a3.92,3.92,0,1,1-7.83,0V362.48a3.93,3.93,0,0,1,3.92-3.92,3.93,3.93,0,0,1,3.91,3.92Z" transform="translate(-269.86 -168.82)"/><path class="cls-3" d="M315.13,227.26V484.9a12,12,0,0,1-3.53,8.48V218.78A12,12,0,0,1,315.13,227.26Z" transform="translate(-269.86 -168.82)"/><path class="cls-1" d="M311.6,218.78v274.6a12,12,0,0,1-8.47,3.52H288.39a12,12,0,0,1-11.85-10.12,8.21,8.21,0,0,0,11.32-7.6V402.53a8.25,8.25,0,0,0-8.22-8.21,8.05,8.05,0,0,0-3.25.68V242a26.82,26.82,0,0,1,14.9-24V362A6.86,6.86,0,1,0,305,362V217.48a6.77,6.77,0,0,0-.34-2.12A11.94,11.94,0,0,1,311.6,218.78ZM308.92,483V431.55a4.41,4.41,0,0,0-8.82,0V483a4.41,4.41,0,0,0,8.82,0Zm-8.82-80.83V383.54a1,1,0,0,0-2,0v18.62a1,1,0,0,0,2,0Z" transform="translate(-269.86 -168.82)"/><path class="cls-2" d="M308.92,431.55V483a4.41,4.41,0,0,1-8.82,0V431.55a4.41,4.41,0,0,1,8.82,0Z" transform="translate(-269.86 -168.82)"/><path class="cls-2" d="M305,217.48V362a6.86,6.86,0,1,1-13.71,0V218.05a26.4,26.4,0,0,1,11.84-2.79,11,11,0,0,1,1.53.1A6.77,6.77,0,0,1,305,217.48Z" transform="translate(-269.86 -168.82)"/><path class="cls-2" d="M300.1,383.54v18.62a1,1,0,0,1-2,0V383.54a1,1,0,0,1,2,0Z" transform="translate(-269.86 -168.82)"/><path class="cls-2" d="M287.86,402.53v76.65a8.21,8.21,0,0,1-11.32,7.6,11.63,11.63,0,0,1-.15-1.88V395a8.05,8.05,0,0,1,3.25-.68,8.25,8.25,0,0,1,8.22,8.21Z" transform="translate(-269.86 -168.82)"/></g><g id="Layer_2" data-name="Layer 2"><g id="_Group_" data-name="&lt;Group&gt;"><path class="cls-2" d="M511.76,510.79v4.28a12,12,0,0,1-12,12H281.86a12,12,0,0,1-12-11.54h95.44a7.69,7.69,0,0,0,5.49-2.29,7.61,7.61,0,0,0,2.06-3.64H506.58A11.87,11.87,0,0,1,511.76,510.79Z" transform="translate(-269.86 -168.82)"/><path class="cls-1" d="M511.76,494.37v16.42a11.87,11.87,0,0,0-5.18-1.19H372.86a7.5,7.5,0,0,0,.23-1.85,7.8,7.8,0,0,0-7.78-7.78H318a9.78,9.78,0,0,0-.5-3.07H500a8.88,8.88,0,0,0,8.86-8.86,8.27,8.27,0,0,0-.16-1.66A11.91,11.91,0,0,1,511.76,494.37Z" transform="translate(-269.86 -168.82)"/><path class="cls-2" d="M508.69,486.38a8.27,8.27,0,0,1,.16,1.66A8.88,8.88,0,0,1,500,496.9H317.47a9.67,9.67,0,0,0-9.13-6.57H271.73a9,9,0,0,1-.29-1.89,12,12,0,0,1,10.42-6.07h217.9A12,12,0,0,1,508.69,486.38Z" transform="translate(-269.86 -168.82)"/><path class="cls-3" d="M508.69,486.38a12,12,0,0,0-8.93-4H281.86a12,12,0,0,0-10.42,6.07c0-.13,0-.26,0-.4a8.88,8.88,0,0,1,8.86-8.86H500A8.9,8.9,0,0,1,508.69,486.38Z" transform="translate(-269.86 -168.82)"/><path class="cls-2" d="M373.09,507.75a7.5,7.5,0,0,1-.23,1.85H308.34A9.66,9.66,0,0,0,318,500h47.34A7.8,7.8,0,0,1,373.09,507.75Z" transform="translate(-269.86 -168.82)"/><path class="cls-2" d="M308.34,509.6h64.52a7.61,7.61,0,0,1-2.06,3.64,7.69,7.69,0,0,1-5.49,2.29H269.87c0-.15,0-.31,0-.46V509.6Z" transform="translate(-269.86 -168.82)"/><path class="cls-2" d="M318,500H269.86v-5.6a11.75,11.75,0,0,1,.71-4h1.16a8.89,8.89,0,0,0,8.56,6.57h37.18A9.78,9.78,0,0,1,318,500Z" transform="translate(-269.86 -168.82)"/><path class="cls-2" d="M269.86,500H318a9.66,9.66,0,0,1-9.63,9.63H269.86Z" transform="translate(-269.86 -168.82)"/><path class="cls-2" d="M317.47,496.9H280.29a8.89,8.89,0,0,1-8.56-6.57h36.61A9.67,9.67,0,0,1,317.47,496.9Z" transform="translate(-269.86 -168.82)"/><path class="cls-4" d="M271.73,490.33h-1.16a10.79,10.79,0,0,1,.87-1.89A9,9,0,0,0,271.73,490.33Z" transform="translate(-269.86 -168.82)"/></g></g><g id="Layer_3" data-name="Layer 3"><path class="cls-5" d="M422.74,222.75H360.81a12,12,0,0,0-12,12v56a12,12,0,0,0,12,12h61.93a12,12,0,0,0,12-12v-56A12,12,0,0,0,422.74,222.75Zm2,60.85a9.15,9.15,0,0,1-9.12,9.12H367.93a9.15,9.15,0,0,1-9.12-9.12V241.87a9.15,9.15,0,0,1,9.12-9.12h47.69a9.15,9.15,0,0,1,9.12,9.12Z" transform="translate(-269.86 -168.82)"/><path class="cls-6" d="M415.62,229.75H367.93a12.14,12.14,0,0,0-12.12,12.12v41.73a12.14,12.14,0,0,0,12.12,12.12h47.69a12.14,12.14,0,0,0,12.12-12.12V241.87A12.14,12.14,0,0,0,415.62,229.75Zm9.12,53.85a9.15,9.15,0,0,1-9.12,9.12H367.93a9.15,9.15,0,0,1-9.12-9.12V241.87a9.15,9.15,0,0,1,9.12-9.12h47.69a9.15,9.15,0,0,1,9.12,9.12Z" transform="translate(-269.86 -168.82)"/><rect class="cls-6" x="295.76" y="324.54" width="47.34" height="79.97" rx="12" ry="12" transform="translate(368.99 560.24) rotate(180)"/><rect class="cls-5" x="302.2" y="328.8" width="34.45" height="58.86" rx="12" ry="12" transform="translate(368.99 547.64) rotate(180)"/><circle class="cls-7" cx="49.57" cy="179.1" r="15.08"/><circle class="cls-8" cx="54.74" cy="175.05" r="5.54"/></g></svg>