<svg xmlns="http://www.w3.org/2000/svg" viewBox="0 0 302.27 416.22"><defs><style>.cls-1{fill:#423f30;}.cls-2{fill:#476037;}.cls-3{fill:#394c2d;}.cls-4{fill:#4d663c;}.cls-5{fill:#577046;}.cls-6{fill:#6f895b;}.cls-7{fill:#5f774d;}.cls-8{fill:#375437;}.cls-9{fill:#2d3d2d;}</style></defs><title>sotree</title><g id="Layer_3" data-name="Layer 3"><rect class="cls-1" x="98.62" y="193.61" width="108.03" height="70.57" rx="12" ry="12"/><rect class="cls-1" x="122.71" y="236.68" width="61.67" height="179.54" rx="12" ry="12"/></g><g id="Layer_1" data-name="Layer 1"><rect class="cls-2" x="120.52" width="82.48" height="55.47" rx="12" ry="12"/><rect class="cls-3" x="1.54" y="100.73" width="107.3" height="107.3" rx="20.26" ry="20.26"/><rect class="cls-2" x="65.77" y="29.2" width="175.91" height="189.78" rx="12" ry="12"/><rect class="cls-4" x="192.05" y="100.73" width="110.22" height="70.8" rx="12" ry="12"/><rect class="cls-4" x="40.23" y="55.47" width="68.61" height="57.66" rx="12" ry="12"/><rect class="cls-5" x="45.34" y="171.53" width="91.24" height="61.31" rx="12" ry="12"/><rect class="cls-5" x="175.26" y="154.38" width="102.92" height="78.47" rx="12" ry="12"/><rect class="cls-6" x="206.65" y="164.23" width="60.58" height="15.33" rx="7.66" ry="7.66"/><rect class="cls-6" x="252.64" y="164.23" width="14.6" height="37.96" rx="7.3" ry="7.3"/><rect class="cls-6" x="85.48" y="179.56" width="43.8" height="14.05" rx="7.03" ry="7.03"/><rect class="cls-6" x="116.14" y="179.56" width="13.14" height="34.31" rx="6.57" ry="6.57"/><rect class="cls-6" x="69.42" y="63.5" width="29.2" height="10.95" rx="5.47" ry="5.47"/><rect class="cls-6" x="247.16" y="107.3" width="47.81" height="16.79" rx="8.39" ry="8.39"/><rect class="cls-5" x="161.76" y="6.57" width="30.29" height="9.49" rx="4.74" ry="4.74"/><rect class="cls-5" x="161.76" y="35.04" width="69.71" height="20.44" rx="10.22" ry="10.22"/><rect class="cls-7" x="75.85" y="108.08" width="121.45" height="92.59" rx="12" ry="12"/><rect class="cls-6" x="112.89" y="119.71" width="71.49" height="18.09" rx="7.66" ry="7.66"/><rect class="cls-6" x="167.15" y="119.71" width="17.23" height="44.79" rx="7.3" ry="7.3"/></g><g id="Layer_2" data-name="Layer 2"><path class="cls-8" d="M367,157.67c1.68,10.39,1.33,20.51.9,31-.34,8.41-.11,17,3.46,24.74,6.36,13.87,21.09,22.65,24.52,38,.42,1.88,3.31,1.09,2.89-.8-3.29-14.8-16.6-23.53-23.59-36.29-4.78-8.74-4.63-18.62-4.16-28.29a137.65,137.65,0,0,0-1.14-29.14c-.31-1.9-3.2-1.09-2.89.8Z" transform="translate(-232.29 -49.69)"/><path class="cls-8" d="M367.48,198.3c1,11.4,0,21.59-7,31-5.37,7.14-11.48,13.77-11.68,23.19,0,1.93,3,1.93,3,0,.24-11.54,10.43-18.39,15.33-27.92,4.18-8.13,4.18-17.37,3.4-26.26-.17-1.91-3.17-1.93-3,0Z" transform="translate(-232.29 -49.69)"/><path class="cls-8" d="M381.52,158.51c8,4.63,6.85,15.16,8,23,.84,5.55,3.5,13.21,10,14s11-5.24,12.38-10.93c2.12-8.87,1.25-18.69-.33-27.57-.34-1.9-3.23-1.09-2.89.8,1.41,7.89,2.06,16.44.65,24.39-.74,4.18-2.73,9.37-7.48,10.25-5.62,1-8.14-5.22-9.09-9.5-2.09-9.44,0-21.39-9.8-27.07a1.5,1.5,0,0,0-1.51,2.59Z" transform="translate(-232.29 -49.69)"/><path class="cls-8" d="M445.94,152c5.23,2.4,6.64,8.17,8.14,13.25s2.49,10.36,4.81,15c3.81,7.6,12.5,9.22,20.21,10,4.48.45,9.76,1.36,14-.45,3.29-1.39,5.63-4.32,7.46-7.28,5.95-9.58,9.83-20.83,12.56-31.71.47-1.87-2.42-2.67-2.89-.8a121.27,121.27,0,0,1-10.87,28.55c-2.65,4.86-5.6,9-11.61,9.21a62.16,62.16,0,0,1-14.17-1.29c-4.66-.93-9.28-2.68-11.78-7s-3.44-10.16-4.87-15c-1.72-5.84-3.54-12.3-9.52-15-1.74-.8-3.27,1.79-1.51,2.59Z" transform="translate(-232.29 -49.69)"/><path class="cls-8" d="M502.47,173.21c-5.19,8.37-.25,16.89,4,24.46A48.52,48.52,0,0,1,512.72,217c.55,5.56.46,11.16,1.06,16.71.39,3.62,2.11,18.83,9.37,14.57,2.79-1.64,2.89-6.39,3.15-9.21.58-6.13-.22-12.28-1-18.36-.24-1.89-3.25-1.91-3,0a115.26,115.26,0,0,1,1.19,12.87c0,2.53.45,15.28-4.9,9.14-2.15-2.47-1.91-9.55-2.12-12.52-.26-3.82-.32-7.64-.62-11.46a51,51,0,0,0-5.11-19.46c-3.78-7.5-11-16.06-5.69-24.62,1-1.64-1.57-3.15-2.59-1.51Z" transform="translate(-232.29 -49.69)"/><path class="cls-8" d="M515,241.59c2.32,8.05,3.44,15.09,2.38,23.44-.74,5.8-.11,11.36.78,17.1.29,1.9,3.19,1.09,2.89-.8-1.13-7.33-.7-13.6-.08-20.9.57-6.72-1.23-13.24-3.08-19.64a1.5,1.5,0,0,0-2.89.8Z" transform="translate(-232.29 -49.69)"/><path class="cls-8" d="M455.73,205c2.61,3.22,2.25,7.44,2.19,11.31s-.19,7.9-.35,11.85c-.3,7.57-.74,15.13-1.25,22.69s-1.1,15.11-1.71,22.66c-.4,5-.52,9.12-6.38,10.4a16.9,16.9,0,0,1-11.81-2l-1.51,2.59c11.26,5.78,11.79,22.06,12.34,33.12.1,1.92,3.1,1.93,3,0-.61-12.23-1.42-29.34-13.83-35.71-1.71-.88-3.22,1.65-1.51,2.59,5.75,3.16,14.39,4.21,19.93-.19,2.49-2,2.3-5,2.54-7.89q.68-8.37,1.31-16.75c.81-10.84,1.51-21.69,1.92-32.55.28-7.49,2.38-18-2.75-24.29-1.22-1.5-3.33.63-2.12,2.12Z" transform="translate(-232.29 -49.69)"/><path class="cls-8" d="M443,285.75a5.59,5.59,0,0,0-1.52,4.25,1.54,1.54,0,0,0,1.5,1.5,1.51,1.51,0,0,0,1.5-1.5,2.62,2.62,0,0,1,.64-2.13,1.53,1.53,0,0,0,0-2.12,1.52,1.52,0,0,0-2.12,0Z" transform="translate(-232.29 -49.69)"/><path class="cls-8" d="M446.23,285.13c-2,1.34-2.58,3.35-2.32,5.73.39,3.53,1.08,7.05,1.62,10.56.29,1.9,3.19,1.09,2.89-.8l-.89-5.74c-.28-1.78-1.62-6,.21-7.16,1.61-1.05.11-3.65-1.51-2.59Z" transform="translate(-232.29 -49.69)"/><path class="cls-8" d="M406.76,260.39c7.93,3.2,11.75,15.08,13.78,22.57a1.5,1.5,0,0,0,2.89-.8c-2.42-8.94-6.57-20.91-15.88-24.66-1.79-.72-2.57,2.18-.8,2.89Z" transform="translate(-232.29 -49.69)"/><path class="cls-8" d="M300.69,220.87c.88,9.89-3.38,18.68-9.94,25.85-4.76,5.21-11.6,9-15.39,15-1,1.64,1.56,3.14,2.59,1.51,2.43-3.85,6.39-6.31,9.74-9.29a63.22,63.22,0,0,0,8.51-9.08c5.24-7,8.28-15.21,7.5-24-.17-1.91-3.17-1.93-3,0Z" transform="translate(-232.29 -49.69)"/><path class="cls-8" d="M298.31,234.35c-4.63,13.27-8.34,29.81,3.67,40.41,4.16,3.68,5.73,5.94,6.07,11.89.25,4.48.27,9,.41,13.47l.88,28.87c.06,1.93,3.06,1.93,3,0l-.82-26.95c-.14-4.49-.26-9-.41-13.47-.1-3.1,0-6.46-1.22-9.39s-3.48-4.52-5.79-6.55a20.68,20.68,0,0,1-6.6-10.89c-2.17-9,.74-18.11,3.7-26.6.64-1.83-2.26-2.61-2.89-.8Z" transform="translate(-232.29 -49.69)"/><path class="cls-8" d="M318.5,282.28l.09,10.53a1.5,1.5,0,0,0,3,0l-.09-10.53a1.5,1.5,0,0,0-3,0Z" transform="translate(-232.29 -49.69)"/><path class="cls-8" d="M327,282.92l.78,3.85a1.5,1.5,0,1,0,2.89-.8l-.78-3.85a1.5,1.5,0,0,0-2.89.8Z" transform="translate(-232.29 -49.69)"/><path class="cls-8" d="M299,104.17c.22,7.41-3.31,17.23-6.74,23.7-4,7.58-11,13.67-20,13.41-1.93-.06-1.93,2.94,0,3,8.76.25,16.23-4.9,20.9-12.08a51.29,51.29,0,0,0,5.72-13c1.47-4.78,3.23-9.93,3.08-15-.06-1.93-3.06-1.93-3,0Z" transform="translate(-232.29 -49.69)"/><path class="cls-8" d="M294.76,124.07a41,41,0,0,0,4.86,39.39c1.12,1.55,3.73.05,2.59-1.51a38.29,38.29,0,0,1-4.56-37.08c.72-1.79-2.18-2.57-2.89-.8Z" transform="translate(-232.29 -49.69)"/><path class="cls-9" d="M256.55,151.14a62.87,62.87,0,0,1-23.63,59.47c-1.51,1.16,0,3.76,1.51,2.59a66,66,0,0,0,25-62.86c-.31-1.9-3.2-1.09-2.89.8Z" transform="translate(-232.29 -49.69)"/><path class="cls-9" d="M240.92,203.85a71.65,71.65,0,0,0,35.37,44.09c1.7.91,3.22-1.68,1.51-2.59a68.65,68.65,0,0,1-34-42.3,1.5,1.5,0,0,0-2.89.8Z" transform="translate(-232.29 -49.69)"/><rect class="cls-5" x="329.12" y="337.45" width="51.76" height="42.01" rx="12" ry="12" transform="translate(477.71 667.22) rotate(180)"/><rect class="cls-6" x="344.6" y="342.99" width="30.47" height="8.21" rx="4.1" ry="4.1" transform="translate(487.37 644.49) rotate(-180)"/><path class="cls-8" d="M355.44,337c-2.49,3.9-1.4,9.32-1.24,13.71.24,6.46.67,12.91,1.14,19.36.24,3.36-.64,8.42,2.3,10.71,2.7,2.11,6.8,1.17,9.5-.25l-.79-1.34c-6.3,3.9-6.62,12.39-7,19.09-.05,1,1.51,1,1.56,0,.31-6,.46-14.2,6.19-17.75a.78.78,0,0,0-.79-1.34q-4,3.11-6.45-1-3.16-1.21-2.71-4.21a28.25,28.25,0,0,1-.29-3.87c-.26-3.55-.5-7.09-.71-10.64-.19-3.23-.35-6.45-.46-9.68-.13-3.62-1-8.76,1.06-12,.54-.85-.81-1.63-1.34-.79Z" transform="translate(-232.29 -49.69)"/><path class="cls-8" d="M380.68,366.15c-4.66,2.1-6.65,8.54-7.81,13.11a.78.78,0,0,0,1.5.41c1-4.13,2.88-10.27,7.1-12.18.91-.41.12-1.75-.79-1.34Z" transform="translate(-232.29 -49.69)"/></g></svg>