<svg xmlns="http://www.w3.org/2000/svg" viewBox="0 0 22.75 76.79"><defs><style>.cls-1{fill:#5b5a5a;}.cls-2{fill:#ccc9ba;}.cls-3{fill:#b56262;}</style></defs><title>spookbook</title><g id="Layer_2" data-name="Layer 2"><g id="Layer_6" data-name="Layer 6"><rect class="cls-1" width="22.75" height="76.79" rx="5.26" ry="5.26"/><path class="cls-2" d="M5.14,7A6.92,6.92,0,0,0,2.8,10.66a12.57,12.57,0,0,0-1,4.72,4.68,4.68,0,0,0,2.3,4,1.47,1.47,0,0,1,.57.38,1.12,1.12,0,0,1,0,1.08,14,14,0,0,0-1.19,2.67,1.92,1.92,0,0,0,1.21,2.34c1,.17,1.77-.77,2.16-1.68a5.3,5.3,0,0,1,1.45-2.52,17.85,17.85,0,0,1,.2,4.1l2.08.25a1.36,1.36,0,0,0,.85-.08,1.25,1.25,0,0,0,.48-.71,7.78,7.78,0,0,0,.39-3.51A31.53,31.53,0,0,0,14.53,24a2.63,2.63,0,0,0,1.28.77c1.46.24,2.21-1.73,3.48-2.49-1.23-.72-2.55-1.55-3-2.9a6.35,6.35,0,0,1,.5-3.84,9.42,9.42,0,0,0,.62-3.32C17.24,7.37,8.89,4.52,5.14,7Z"/><path class="cls-1" d="M8.7,16.27a18,18,0,0,0-.43,1.94.86.86,0,0,0,.08.67.78.78,0,0,0,.49.23c1.11.2,2.54-.45,2.45-1.57L8.47,16.32"/><path class="cls-3" d="M6.68,13l-1,1.71a2.32,2.32,0,0,0,1.34.4l.25-1.47-1.24-.26"/><path class="cls-1" d="M12.34,11.55a3.92,3.92,0,0,0-3,1.63A1.71,1.71,0,0,0,9.06,15a2,2,0,0,0,1,.67,2.54,2.54,0,0,0,2.08.18A2.72,2.72,0,0,0,13.22,14a2.86,2.86,0,0,0,.06-1.77c-.23-.56-1-.91-1.46-.5"/><rect class="cls-1" x="4.69" y="13.04" width="3.23" height="3.23" rx="1.62" ry="1.62"/></g></g></svg>