<svg xmlns="http://www.w3.org/2000/svg" viewBox="0 0 151.59 212.96"><defs><style>.cls-1{fill:#7c7c7b;}.cls-2{fill:#757570;}.cls-3{fill:#5e5e5e;}.cls-4{fill:#565547;}.cls-5{fill:#6b6958;}.cls-6{fill:#878574;}</style></defs><title>tombstone_1</title><g id="Layer_2" data-name="Layer 2"><g id="Layer_2-2" data-name="Layer 2"><rect class="cls-1" x="17.41" y="20.15" width="121.93" height="121.93" rx="12" ry="12"/><rect class="cls-1" x="32.69" width="89.25" height="43.69" rx="12" ry="12"/><rect class="cls-2" x="4.27" y="131.97" width="147.33" height="43.4" rx="12" ry="12"/><rect class="cls-3" x="34.69" y="40.88" width="87.06" height="87.06" rx="12" ry="12"/><rect class="cls-1" x="43.52" y="49.1" width="21.31" height="21.31" rx="10.65" ry="10.65"/><rect class="cls-1" x="93.99" y="101.66" width="21.31" height="21.31" rx="10.65" ry="10.65"/><rect class="cls-1" x="69.72" y="74.59" width="21.31" height="21.31" rx="10.65" ry="10.65"/><rect class="cls-1" x="93.99" y="49.1" width="21.31" height="21.31" rx="10.65" ry="10.65"/><rect class="cls-1" x="43.52" y="101.66" width="21.31" height="21.31" rx="10.65" ry="10.65"/><rect class="cls-4" y="160.96" width="58.46" height="31.58" rx="12" ry="12"/><rect class="cls-4" x="38.67" y="153.67" width="76.63" height="43.12" rx="12" ry="12"/><rect class="cls-4" x="91.03" y="167.37" width="60.57" height="36.16" rx="12" ry="12"/><rect class="cls-4" x="109.35" y="153.35" width="28.17" height="28.17" rx="12" ry="12"/><rect class="cls-4" x="29.23" y="185.45" width="103.51" height="27.51" rx="12" ry="12"/><rect class="cls-5" x="13.07" y="181.53" width="50.56" height="22.01" rx="11" ry="11"/><rect class="cls-5" x="78.37" y="167.44" width="47.54" height="20.98" rx="10.49" ry="10.49"/><rect class="cls-5" x="22.18" y="171.91" width="66.4" height="20.61" rx="10.31" ry="10.31"/><rect class="cls-6" x="34.69" y="153.35" width="80.85" height="22.69" rx="11.34" ry="11.34"/></g></g></svg>