<svg xmlns="http://www.w3.org/2000/svg" xmlns:xlink="http://www.w3.org/1999/xlink" viewBox="0 0 740.58 309.73"><defs><style>.cls-1{fill:url(#linear-gradient);}.cls-2{fill:#757465;}.cls-3{fill:url(#linear-gradient-2);}.cls-4{fill:#54534b;}.cls-5{fill:#848274;}.cls-6{fill:#4c594e;}.cls-7{fill:#5e4d60;}.cls-8{fill:url(#linear-gradient-3);}.cls-9{fill:#a8a78a;}.cls-10{fill:#b2b19b;}.cls-11{fill:#5d7763;}.cls-12{fill:#8f7b91;}</style><linearGradient id="linear-gradient" x1="607.47" y1="55.74" x2="608.8" y2="250.41" gradientUnits="userSpaceOnUse"><stop offset="0" stop-color="#757465"/><stop offset="1" stop-color="#44433e"/></linearGradient><linearGradient id="linear-gradient-2" x1="164.85" y1="202.85" x2="166.18" y2="397.52" gradientTransform="matrix(-1, 0, 0, 1, 297.95, -143.83)" xlink:href="#linear-gradient"/><linearGradient id="linear-gradient-3" x1="290.37" y1="235.08" x2="534.27" y2="235.08" xlink:href="#linear-gradient"/></defs><title>Wallarch</title><g id="Layer_5" data-name="Layer 5"><polyline class="cls-1" points="478.95 119.57 478.95 303.39 738.16 303.39 738.16 126.1 693.49 126.82 688.63 138.16 528.42 138.16 478.95 119.57"/><rect class="cls-2" x="541.2" y="132.32" width="25.36" height="13.52" rx="6.76" ry="6.76"/><rect class="cls-2" x="656.58" y="132.32" width="22" height="11.77" rx="5.89" ry="5.89"/><rect class="cls-2" x="564.8" y="132.32" width="15.94" height="9.42" rx="4.71" ry="4.71"/><rect class="cls-2" x="572.64" y="138.56" width="9.7" height="9.7" rx="4.85" ry="4.85"/><rect class="cls-2" x="672.7" y="132.32" width="16.51" height="21.31" rx="8.25" ry="8.25"/></g><g id="Layer_6" data-name="Layer 6"><polyline class="cls-3" points="261.63 121.38 261.63 305.19 2.42 305.19 2.42 127.9 47.09 128.63 51.95 139.96 212.17 139.96 261.63 121.38"/><rect class="cls-2" x="210.2" y="277.96" width="25.36" height="13.52" rx="6.76" ry="6.76" transform="translate(409.58 425.6) rotate(180)"/><rect class="cls-2" x="98.17" y="277.96" width="22" height="11.77" rx="5.89" ry="5.89" transform="translate(182.17 423.86) rotate(180)"/><rect class="cls-2" x="196.02" y="277.96" width="15.94" height="9.42" rx="4.71" ry="4.71" transform="translate(371.8 421.5) rotate(180)"/><rect class="cls-2" x="194.42" y="284.19" width="9.7" height="9.7" rx="4.85" ry="4.85" transform="translate(362.36 434.25) rotate(180)"/><rect class="cls-2" x="87.55" y="277.96" width="16.51" height="21.31" rx="8.25" ry="8.25" transform="translate(155.44 433.39) rotate(180)"/><path class="cls-4" d="M36.18,278.24v5.41a10.25,10.25,0,0,0,10.25,10.24H78.09a10.25,10.25,0,0,0,10.25-10.24v-5.83c-2,3.1-4.77,5.88-8.06,6.12-7.64.56-35.67,0-35.67,0A15.31,15.31,0,0,1,36.18,278.24Z" transform="translate(-36.18 -143.83)"/><path class="cls-2" d="M36.18,265.61v12.63a15.31,15.31,0,0,0,8.43,5.7s28,.56,35.67,0c3.29-.24,6-3,8.06-6.12V265.61a10.25,10.25,0,0,0-10.25-10.25H46.43A10.25,10.25,0,0,0,36.18,265.61Z" transform="translate(-36.18 -143.83)"/><path class="cls-4" d="M108.94,436v5.42a10.25,10.25,0,0,0,10.25,10.25H148.1a10.25,10.25,0,0,0,10.25-10.25V435.6c-1.92,3.1-4.51,5.9-7.64,6.15-7.24.56-33.78,0-33.78,0A14.43,14.43,0,0,1,108.94,436Z" transform="translate(-36.18 -143.83)"/><path class="cls-2" d="M158.35,435.24V423.41a10.24,10.24,0,0,0-10.25-10.24H119.19a10.24,10.24,0,0,0-10.25,10.24V436a14.43,14.43,0,0,0,8,5.72s26.54.56,33.78,0c3.13-.25,5.72-3.05,7.64-6.15Z" transform="translate(-36.18 -143.83)"/><path class="cls-4" d="M125.41,319.21v5.42a10.25,10.25,0,0,0,10.25,10.24h44.77a10.25,10.25,0,0,0,10.25-10.24v-5.84c-2.55,3.1-6,5.89-10.09,6.13-9.56.56-44.63,0-44.63,0A20.34,20.34,0,0,1,125.41,319.21Z" transform="translate(-36.18 -143.83)"/><path class="cls-2" d="M125.41,306.59v12.62A20.34,20.34,0,0,0,136,324.92s35.07.56,44.63,0c4.13-.24,7.54-3,10.09-6.13v-12.2a10.25,10.25,0,0,0-7.53-9.88,10.62,10.62,0,0,1-2.72.36H135.66a10.62,10.62,0,0,1-2.72-.36A10.25,10.25,0,0,0,125.41,306.59Z" transform="translate(-36.18 -143.83)"/><path class="cls-4" d="M125.41,281.41v5.42a10.25,10.25,0,0,0,7.53,9.88,10.2,10.2,0,0,1,2.72-.37h44.77a10.2,10.2,0,0,1,2.72.37,10.25,10.25,0,0,0,7.53-9.88V281c-2.55,3.1-6,5.89-10.09,6.13-9.56.57-44.63,0-44.63,0A20.34,20.34,0,0,1,125.41,281.41Z" transform="translate(-36.18 -143.83)"/><path class="cls-2" d="M125.41,268.79v12.62A20.34,20.34,0,0,0,136,287.12s35.07.57,44.63,0c4.13-.24,7.54-3,10.09-6.13v-12.2a10.24,10.24,0,0,0-10.25-10.24H135.66A10.24,10.24,0,0,0,125.41,268.79Z" transform="translate(-36.18 -143.83)"/><path class="cls-4" d="M158.55,435.48v5.4a10.23,10.23,0,0,0,10.24,10.24h37A10.23,10.23,0,0,0,216,440.88v-5.82c-2.25,3.09-5.25,5.87-8.88,6.11-8.42.57-39.29,0-39.29,0A17.18,17.18,0,0,1,158.55,435.48Z" transform="translate(-36.18 -143.83)"/><path class="cls-2" d="M216,434.95V422.84a10.24,10.24,0,0,0-10.24-10.25h-37a10.24,10.24,0,0,0-10.24,10.25v12.64a17.18,17.18,0,0,0,9.28,5.69s30.87.57,39.29,0c3.63-.24,6.63-3,8.88-6.11Z" transform="translate(-36.18 -143.83)"/><path class="cls-4" d="M161.83,396.54v5.41a10.25,10.25,0,0,0,10.25,10.25h37a10.25,10.25,0,0,0,10.24-10.25v-5.84c-2.23,3.1-5.24,5.9-8.88,6.14-8.42.56-39.29,0-39.29,0A17.19,17.19,0,0,1,161.83,396.54Z" transform="translate(-36.18 -143.83)"/><path class="cls-2" d="M219.29,395.58V383.92A10.25,10.25,0,0,0,209,373.67h-37a10.25,10.25,0,0,0-10.25,10.25v12.62a17.19,17.19,0,0,0,9.29,5.71s30.87.56,39.29,0c3.64-.24,6.65-3,8.88-6.14Z" transform="translate(-36.18 -143.83)"/><path class="cls-4" d="M182.21,357.88v5.41a10.25,10.25,0,0,0,10.25,10.25h28.91a10.25,10.25,0,0,0,10.25-10.25v-5.66l-.06-.08c-1.93,3.06-4.49,5.8-7.58,6-7.24.56-33.78,0-33.78,0A14.38,14.38,0,0,1,182.21,357.88Z" transform="translate(-36.18 -143.83)"/><path class="cls-2" d="M231.56,357.55l.06-.09v-12.2A10.25,10.25,0,0,0,221.37,335H192.46a10.25,10.25,0,0,0-10.25,10.25v12.62a14.38,14.38,0,0,0,8,5.71s26.54.56,33.78,0C227.07,363.35,229.63,360.61,231.56,357.55Z" transform="translate(-36.18 -143.83)"/><path class="cls-4" d="M216,435.06v5.31a10.25,10.25,0,0,0,10.25,10.25h37a10.25,10.25,0,0,0,10.25-10.25v-5.84c-2.23,3.09-5.24,5.89-8.88,6.14-8.42.56-39.29,0-39.29,0A17.2,17.2,0,0,1,216,435Z" transform="translate(-36.18 -143.83)"/><path class="cls-2" d="M216,435a17.2,17.2,0,0,0,9.25,5.67s30.87.56,39.29,0c3.64-.25,6.65-3.05,8.88-6.14v-12.2a10.25,10.25,0,0,0-8.76-10.13H230.39a10.45,10.45,0,0,1-1.49-.11h-2.65A10.24,10.24,0,0,0,216,422.33v12.62Z" transform="translate(-36.18 -143.83)"/><path class="cls-4" d="M220.15,396.55v5.4a10.25,10.25,0,0,0,8.75,10.14h34.31a10.45,10.45,0,0,1,1.49.11h9.42a10.25,10.25,0,0,0,10.25-10.25v-5.84c-2.5,3.1-5.86,5.9-9.93,6.14-9.41.56-43.91,0-43.91,0A19.9,19.9,0,0,1,220.15,396.55Z" transform="translate(-36.18 -143.83)"/><path class="cls-2" d="M220.15,394.86v1.69a19.9,19.9,0,0,0,10.38,5.7s34.5.56,43.91,0c4.07-.24,7.43-3,9.93-6.14V383.92a10.25,10.25,0,0,0-10.25-10.25H230.39a10.25,10.25,0,0,0-10.24,10.25Z" transform="translate(-36.18 -143.83)"/><path class="cls-4" d="M223.58,319.49v5.41a10.25,10.25,0,0,0,10.25,10.25h6.56a10.17,10.17,0,0,1,1.67-.14h28.45a9.8,9.8,0,0,1,1.33.09h0A10.26,10.26,0,0,0,281,324.9v-5.84c-2.23,3.1-5.24,5.9-8.88,6.14-8.42.56-39.29,0-39.29,0A17.26,17.26,0,0,1,223.58,319.49Z" transform="translate(-36.18 -143.83)"/><path class="cls-2" d="M223.58,306.86v12.63a17.26,17.26,0,0,0,9.29,5.71s30.87.56,39.29,0c3.64-.24,6.65-3,8.88-6.14v-12.2a10.24,10.24,0,0,0-7.24-9.79H249.52a10.41,10.41,0,0,1-3-.45H233.83A10.24,10.24,0,0,0,223.58,306.86Z" transform="translate(-36.18 -143.83)"/><path class="cls-4" d="M231.81,357.89v5.4a10.25,10.25,0,0,0,10.25,10.25h28.45a10.25,10.25,0,0,0,10.25-10.25v-5.83c-1.91,3.09-4.46,5.89-7.56,6.13-7.18.56-33.48,0-33.48,0A14.26,14.26,0,0,1,231.81,357.89Z" transform="translate(-36.18 -143.83)"/><path class="cls-2" d="M231.81,357.14v.75a14.26,14.26,0,0,0,7.91,5.7s26.3.56,33.48,0c3.1-.24,5.65-3,7.56-6.13v-12.2a10.24,10.24,0,0,0-8.91-10.16h0c-.35,0-.7.05-1.05.05h-30.4a10.24,10.24,0,0,0-8.58,10.11Z" transform="translate(-36.18 -143.83)"/><path class="cls-4" d="M239.27,281.42v5.41a10.24,10.24,0,0,0,7.23,9.79h24.29a10.29,10.29,0,0,1,3,.45h12.68a10.24,10.24,0,0,0,10.25-10.24V281c-2.24,3.1-5.25,5.89-8.88,6.13-8.42.57-39.29,0-39.29,0A17.21,17.21,0,0,1,239.27,281.42Z" transform="translate(-36.18 -143.83)"/><path class="cls-2" d="M239.27,268.79v12.63a17.21,17.21,0,0,0,9.29,5.7s30.87.57,39.29,0c3.63-.24,6.64-3,8.88-6.13v-12.2a10.24,10.24,0,0,0-10.25-10.24h-37A10.24,10.24,0,0,0,239.27,268.79Z" transform="translate(-36.18 -143.83)"/><rect class="cls-5" x="229.37" y="299.41" width="23.83" height="10.43" rx="5.21" ry="5.21" transform="translate(446.39 465.41) rotate(-180)"/><rect class="cls-5" x="244.15" y="263.04" width="23.83" height="10.43" rx="5.21" ry="5.21" transform="translate(475.96 392.67) rotate(-180)"/><rect class="cls-5" x="130.79" y="263.04" width="23.83" height="10.43" rx="5.21" ry="5.21" transform="translate(249.24 392.67) rotate(-180)"/><rect class="cls-5" x="38.62" y="259.99" width="23.83" height="10.43" rx="5.21" ry="5.21" transform="translate(64.89 386.58) rotate(-180)"/><rect class="cls-5" x="130.79" y="299.26" width="23.83" height="10.43" rx="5.21" ry="5.21" transform="translate(249.24 465.13) rotate(-180)"/><rect class="cls-5" x="189.68" y="339.89" width="23.83" height="10.43" rx="5.21" ry="5.21" transform="translate(367.02 546.37) rotate(-180)"/><rect class="cls-5" x="239.52" y="338.99" width="23.83" height="10.43" rx="5.21" ry="5.21" transform="translate(466.69 544.58) rotate(-180)"/><rect class="cls-5" x="223.43" y="376.89" width="23.83" height="10.43" rx="5.21" ry="5.21" transform="translate(434.52 620.39) rotate(-180)"/><rect class="cls-5" x="166.89" y="376.89" width="23.83" height="10.43" rx="5.21" ry="5.21" transform="translate(321.45 620.39) rotate(-180)"/><rect class="cls-5" x="223.43" y="414.8" width="23.83" height="10.43" rx="5.21" ry="5.21" transform="translate(434.52 696.19) rotate(-180)"/><rect class="cls-5" x="163.23" y="415.4" width="23.83" height="10.43" rx="5.21" ry="5.21" transform="translate(314.11 697.39) rotate(-180)"/><rect class="cls-5" x="113.28" y="415.4" width="23.83" height="10.43" rx="5.21" ry="5.21" transform="translate(214.22 697.39) rotate(-180)"/><path class="cls-6" d="M254,451.13c-1.2-3.33,1.36-7.24-1.07-10.29-2.74-3.43-7.72-1.27-11.11-2.86-8.81-4.14,3.77-12.63,7.31-15.62,3.19-2.7,5.26-5.71,5.72-9.89.21-1.92-2.79-1.9-3,0-1.11,10-18.59,12.31-15.56,23.91a7.15,7.15,0,0,0,6,5.52c3.7.57,7.92-2,8.47,5,.14,1.85-.35,3.19.32,5.05s3.55,1,2.89-.8Z" transform="translate(-36.18 -143.83)"/><path class="cls-6" d="M238.62,434.12c.52-4,.87-8.31-1.23-11.95S226.93,415,229,410c.75-1.76-1.83-3.29-2.59-1.51-1.47,3.42-.47,6.58,2.08,9.26,1.59,1.67,3.77,2.74,5.25,4.52,2.84,3.43,2.36,7.79,1.83,11.85-.25,1.91,2.75,1.89,3,0Z" transform="translate(-36.18 -143.83)"/><path class="cls-6" d="M239.41,435.35a27.15,27.15,0,0,0-9.54-7.72,26.83,26.83,0,0,0-5.3-1.88c-1.71-.41-4-.18-5.59-.72-2-.66-2.61-2.67-3.84-4.09a13.81,13.81,0,0,0-4.29-3.3c-4.46-2.22-13.13-.2-15-5.9-.6-1.83-3.49-1-2.89.8,1.06,3.24,3.5,5.11,6.79,5.93,2.14.53,4.38.46,6.54.89,4.36.87,5.88,3,8.31,6.28,2.27,3.08,4.82,2.11,8.43,2.84a24.44,24.44,0,0,1,14.25,9c1.21,1.51,3.32-.63,2.12-2.12Z" transform="translate(-36.18 -143.83)"/><path class="cls-6" d="M194.46,415c7.1,7.74,1.39,16.87-4.42,23.15-3.44,3.72-6.4,8-4.32,13.18.71,1.77,3.61,1,2.89-.8-2.4-6,3.62-9.84,6.88-13.88a24.47,24.47,0,0,0,4.3-7.54,16,16,0,0,0-3.21-16.23c-1.31-1.43-3.43.7-2.12,2.12Z" transform="translate(-36.18 -143.83)"/><path class="cls-6" d="M198.08,423.9c-.2,4.36-.38,8.82.75,13.07a33,33,0,0,0,1.93,4.79,12.38,12.38,0,0,1,.07,10c-.69,1.81,2.21,2.59,2.89.8,1.53-4,2.12-7.29.22-11.23-2.81-5.82-3.15-11.05-2.86-17.42.09-1.93-2.91-1.93-3,0Z" transform="translate(-36.18 -143.83)"/><path class="cls-6" d="M188.6,444c1.06-5.59,2.1-11.94-1.49-16.89-4.26-5.88-16.36-4.57-14.78-14.23.31-1.89-2.58-2.7-2.89-.8-.8,4.88,1,9.26,5.5,11.6,3,1.54,6.7,1.85,9.09,4.37,3.8,4,2.58,10.35,1.67,15.15-.36,1.89,2.53,2.7,2.89.8Z" transform="translate(-36.18 -143.83)"/><path class="cls-6" d="M254.52,445.12c-.51-4.23,4.25-5.4,6.76-7.44a13.12,13.12,0,0,0,4.34-6.08c2-5.86.82-12.8.07-18.78-.24-1.89-3.24-1.91-3,0,.91,7.25,3,17.31-3.43,22.55-3.47,2.82-8.4,4.34-7.74,9.74.23,1.89,3.23,1.92,3,0Z" transform="translate(-36.18 -143.83)"/><path class="cls-6" d="M260.16,412.18c0-7.28.73-14.61-4.38-20.45-5.69-6.5-15.89-9.46-17.41-18.94-.31-1.9-3.2-1.09-2.89.8,1.09,6.79,6.33,10.78,11.53,14.63,3.65,2.7,7.69,5.54,9.3,10,1.52,4.23.84,9.52.86,14a1.5,1.5,0,0,0,3,0Z" transform="translate(-36.18 -143.83)"/><path class="cls-6" d="M258.81,397.33c-1.88-4.52-.61-11.21,1.73-15.36,1.68-3,3.48-5,3-8.59-.25-1.89-3.26-1.91-3,0,.43,3.22-1.64,5.2-3,7.75a20,20,0,0,0-1.9,6.12c-.63,3.68-1.19,7.37.28,10.89.73,1.76,3.64,1,2.89-.8Z" transform="translate(-36.18 -143.83)"/><path class="cls-6" d="M217.17,373.83c-1.16-9.09-10.37-9.06-16-14.24-4.7-4.33-3.75-9.83-1.74-15.15,1.36-3.61,1.9-7-.14-10.41a1.5,1.5,0,0,0-2.59,1.51c2.88,4.84-1.59,9.62-2.08,14.45a14.05,14.05,0,0,0,1.58,8.06,15.92,15.92,0,0,0,7,6.38c4.21,2.24,10.29,3.77,11,9.4.24,1.89,3.24,1.91,3,0Z" transform="translate(-36.18 -143.83)"/><path class="cls-6" d="M216.69,370a20.94,20.94,0,0,1-.55-21.11c2.43-4.58,5.45-8.23,4.89-13.7-.2-1.9-3.2-1.92-3,0,.74,7.25-6.1,12.89-7.25,20a24,24,0,0,0,3.32,16.36,1.5,1.5,0,0,0,2.59-1.51Z" transform="translate(-36.18 -143.83)"/><path class="cls-6" d="M247.2,374.39a20.62,20.62,0,0,0,.42-16.91c-3.22-7.41-9.26-14.21-3.9-22.39,1.06-1.62-1.54-3.12-2.59-1.51-3.06,4.67-3.15,10.14-1.26,15.32,1,2.88,2.77,5.37,4.17,8.07a17.69,17.69,0,0,1,.58,15.9c-.77,1.75,1.81,3.28,2.59,1.51Z" transform="translate(-36.18 -143.83)"/><path class="cls-6" d="M248.73,368.22a28,28,0,0,1,7.66-10.44c2.71-2.24,5.64-3.82,7.84-6.66a20.67,20.67,0,0,0,3.87-16c-.29-1.9-3.18-1.09-2.89.8,1.27,8.41-3.12,13.84-9.45,18.61a30.43,30.43,0,0,0-9.61,12.21c-.78,1.75,1.81,3.28,2.59,1.51Z" transform="translate(-36.18 -143.83)"/><path class="cls-6" d="M258.69,354.46a21.55,21.55,0,0,0-1.31-10.14c-1.41-3.58-5-6.34-6-9.92a1.5,1.5,0,0,0-2.89.8c.87,3.11,3.35,5,4.94,7.72a18.79,18.79,0,0,1,2.3,11.53c-.19,1.92,2.81,1.91,3,0Z" transform="translate(-36.18 -143.83)"/><path class="cls-6" d="M253.14,296.55a14.91,14.91,0,0,0-1.67-8.15c-2.35-4.31-5.87-6.57-5-12.07,1-6.52,5.72-12.32,1.44-18.68-1.07-1.59-3.67-.09-2.59,1.51,4.38,6.5-2.88,13.54-2.08,20.45.77,6.65,7.32,9.65,6.94,16.94-.1,1.93,2.9,1.92,3,0Z" transform="translate(-36.18 -143.83)"/><path class="cls-6" d="M246.8,281.44a35.1,35.1,0,0,0-6.53-11.21c-1.26-1.46-3.38.66-2.12,2.12a31.07,31.07,0,0,1,5.76,9.89c.65,1.8,3.54,1,2.89-.8Z" transform="translate(-36.18 -143.83)"/><path class="cls-6" d="M264.32,257.94c-1.23,4.23-3.86,9.48-3.3,14a30.46,30.46,0,0,0,5,12.14,1.49,1.49,0,0,0,1.46.39c6-1.29,5.46-8.66,6.47-13,1.11-4.78,6.89-8.88,3.1-13.94-1.14-1.53-3.75,0-2.59,1.51,2.53,3.39-1.74,7-2.87,10s-.18,7-2.17,9.67c-1.81,2.39-1.87,1.79-3-.76-1-2.33-2.14-4.42-2.21-7-.1-4,1.87-8.4,3-12.21a1.5,1.5,0,0,0-2.89-.8Z" transform="translate(-36.18 -143.83)"/><path class="cls-6" d="M165.92,335.78c.32-6.72-4.09-10.92-8.11-15.7-6-7.12-6.41-15.4-5.58-24.3.18-1.92-2.82-1.91-3,0-.62,6.55-.79,13.48,1.93,19.63,3.18,7.2,12.15,11.84,11.75,20.37-.09,1.93,2.91,1.93,3,0Z" transform="translate(-36.18 -143.83)"/><path class="cls-6" d="M164.73,328.94c-4.85-8,4.17-14.48,9-19.53,3.63-3.76,6.25-8,6-13.42-.1-1.92-3.1-1.93-3,0,.66,13-23.38,20-14.6,34.46,1,1.65,3.6.14,2.59-1.51Z" transform="translate(-36.18 -143.83)"/><path class="cls-6" d="M137.62,295c-2.31,3.37-2.16,7.25-3.21,11.07a23.58,23.58,0,0,1-3.51,7.41c-2.76,3.86-7.76,5.51-9-1-.83-4.46.53-9.14-.19-13.72-.8-5-1.92-10.05-2.9-15.07-.37-1.89-3.26-1.09-2.89.8,1.5,7.69,3.56,15.31,3,23.18-.33,4.53-.08,10.45,5.06,12.26,4,1.42,7.36-1.9,9.5-4.93a26.74,26.74,0,0,0,3.6-7.37c1.16-3.72.85-7.8,3.11-11.11,1.09-1.6-1.5-3.1-2.59-1.51Z" transform="translate(-36.18 -143.83)"/><path class="cls-6" d="M181.76,257.42c-9.48-3.81-16.67,2.54-19.66,11.16-1,2.87-1.77,5.87-3.54,8.39-3.3,4.69-9,5.16-12.13-.05-3.32-5.5-1.58-13-3.16-19.12-.48-1.87-3.38-1.08-2.89.8,1.91,7.41,0,28.73,14.17,25,4.63-1.21,7.37-5.73,9-9.91,1.39-3.67,2.16-8,4.87-11,3.24-3.6,8.26-4.17,12.59-2.43,1.79.72,2.57-2.18.8-2.89Z" transform="translate(-36.18 -143.83)"/><path class="cls-6" d="M60,295.41a25.71,25.71,0,0,0-5.49-17.12c-2.39-3-5.42-5.49-7.45-8.78a21.46,21.46,0,0,1-3-12.64c.1-1.93-2.9-1.92-3,0a24.21,24.21,0,0,0,5,16.38c2.37,3.06,5.42,5.55,7.52,8.83A22.86,22.86,0,0,1,57,295.41c-.06,1.93,2.94,1.93,3,0Z" transform="translate(-36.18 -143.83)"/><path class="cls-6" d="M54.19,281c6.37-2.92,14.3-5.29,19.68-9.89,4.34-3.71,6.27-9.14,7.54-14.54.44-1.88-2.45-2.68-2.89-.8-1.47,6.24-3.8,11.84-9.67,15.1-5.17,2.87-10.8,5.07-16.17,7.54-1.75.8-.23,3.39,1.51,2.59Z" transform="translate(-36.18 -143.83)"/><path class="cls-7" d="M268.26,287c5.79,0,5.8-9,0-9s-5.8,9,0,9Z" transform="translate(-36.18 -143.83)"/><path class="cls-7" d="M238.74,275.61c5.79,0,5.8-9,0-9s-5.8,9,0,9Z" transform="translate(-36.18 -143.83)"/><path class="cls-7" d="M245.55,361.91c5.79,0,5.8-9,0-9s-5.8,9,0,9Z" transform="translate(-36.18 -143.83)"/><path class="cls-7" d="M218.87,353.11c5.79,0,5.8-9,0-9s-5.8,9,0,9Z" transform="translate(-36.18 -143.83)"/><path class="cls-7" d="M195.31,420.67c5.79,0,5.8-9,0-9s-5.8,9,0,9Z" transform="translate(-36.18 -143.83)"/><path class="cls-7" d="M203.54,430c5.79,0,5.8-9,0-9s-5.8,9,0,9Z" transform="translate(-36.18 -143.83)"/><path class="cls-7" d="M152.16,317.91c5.79,0,5.8-9,0-9s-5.8,9,0,9Z" transform="translate(-36.18 -143.83)"/><path class="cls-7" d="M136.27,307.69c5.79,0,5.8-9,0-9s-5.8,9,0,9Z" transform="translate(-36.18 -143.83)"/><path class="cls-7" d="M149.32,281.29c5.79,0,5.8-9,0-9s-5.8,9,0,9Z" transform="translate(-36.18 -143.83)"/><path class="cls-7" d="M52.52,283.56c5.79,0,5.8-9,0-9s-5.8,9,0,9Z" transform="translate(-36.18 -143.83)"/><path class="cls-8" d="M532.51,308.19c-5.51-8.81-5.15-19.88-5.92-30.24-1.39-18.75-7-37-15.29-53.93a108.17,108.17,0,0,0-14.38-22.84,95,95,0,0,0-9.5-9.58c-22.24-19.67-52-31.12-81.68-29.49a105.06,105.06,0,0,0-33,7.28,130,130,0,0,0-20.16,10.32C334.24,191,318,206,306.61,224.37s-17.59,40.06-16,61.55a11.12,11.12,0,0,0,1.6,5.79c1.19,1.64,3.62,2.56,5.32,1.46,1.52-1,1.84-3,2.1-4.84,1.53-10.34,6.08-20,10.58-29.4,4.38-9.2,8.81-18.48,15.1-26.5,7.76-9.9,18-17.48,28.15-24.94a83.87,83.87,0,0,1,12.24-8c9.08-4.5,19.47-5.56,29.6-5.82,24.14-.61,49,3.14,69.84,15.34S502.2,242.89,503.61,267c.42,7.19-.43,14.5,1.18,21.52s6.59,14,13.73,14.92c5.61.73,10.94-2.37,15.75-5.35" transform="translate(-36.18 -143.83)"/></g><g id="Layer_3" data-name="Layer 3"><path class="cls-4" d="M776.76,276.43v5.41a10.25,10.25,0,0,1-10.25,10.24H734.85a10.25,10.25,0,0,1-10.25-10.24V276c2,3.1,4.77,5.88,8.06,6.12,7.64.56,35.67,0,35.67,0A15.31,15.31,0,0,0,776.76,276.43Z" transform="translate(-36.18 -143.83)"/><path class="cls-2" d="M776.76,263.8v12.63a15.31,15.31,0,0,1-8.43,5.7s-28,.56-35.67,0c-3.29-.24-6-3-8.06-6.12V263.8a10.25,10.25,0,0,1,10.25-10.25h31.66A10.25,10.25,0,0,1,776.76,263.8Z" transform="translate(-36.18 -143.83)"/><path class="cls-4" d="M704,434.22v5.42a10.25,10.25,0,0,1-10.25,10.25H664.84a10.25,10.25,0,0,1-10.25-10.25v-5.85c1.92,3.1,4.51,5.9,7.64,6.15,7.24.56,33.78,0,33.78,0A14.43,14.43,0,0,0,704,434.22Z" transform="translate(-36.18 -143.83)"/><path class="cls-2" d="M654.59,433.43V421.6a10.24,10.24,0,0,1,10.25-10.24h28.91A10.24,10.24,0,0,1,704,421.6v12.62a14.43,14.43,0,0,1-8,5.72s-26.54.56-33.78,0c-3.13-.25-5.72-3-7.64-6.15Z" transform="translate(-36.18 -143.83)"/><path class="cls-4" d="M687.53,317.4v5.42a10.25,10.25,0,0,1-10.25,10.24H632.51a10.25,10.25,0,0,1-10.25-10.24V317c2.55,3.1,6,5.89,10.09,6.13,9.56.56,44.63,0,44.63,0A20.34,20.34,0,0,0,687.53,317.4Z" transform="translate(-36.18 -143.83)"/><path class="cls-2" d="M687.53,304.78V317.4A20.34,20.34,0,0,1,677,323.11s-35.07.56-44.63,0c-4.13-.24-7.54-3-10.09-6.13v-12.2a10.25,10.25,0,0,1,7.53-9.88,10.62,10.62,0,0,0,2.72.36h44.77a10.62,10.62,0,0,0,2.72-.36A10.25,10.25,0,0,1,687.53,304.78Z" transform="translate(-36.18 -143.83)"/><path class="cls-4" d="M687.53,279.6V285A10.25,10.25,0,0,1,680,294.9a10.2,10.2,0,0,0-2.72-.37H632.51a10.2,10.2,0,0,0-2.72.37,10.25,10.25,0,0,1-7.53-9.88v-5.84c2.55,3.1,6,5.89,10.09,6.13,9.56.57,44.63,0,44.63,0A20.34,20.34,0,0,0,687.53,279.6Z" transform="translate(-36.18 -143.83)"/><path class="cls-2" d="M687.53,267V279.6A20.34,20.34,0,0,1,677,285.31s-35.07.57-44.63,0c-4.13-.24-7.54-3-10.09-6.13V267a10.24,10.24,0,0,1,10.25-10.24h44.77A10.24,10.24,0,0,1,687.53,267Z" transform="translate(-36.18 -143.83)"/><path class="cls-4" d="M654.39,433.67v5.4a10.23,10.23,0,0,1-10.24,10.24h-37a10.23,10.23,0,0,1-10.24-10.24v-5.82c2.25,3.09,5.25,5.87,8.88,6.11,8.42.57,39.29,0,39.29,0A17.18,17.18,0,0,0,654.39,433.67Z" transform="translate(-36.18 -143.83)"/><path class="cls-2" d="M654.39,433.46v.21a17.18,17.18,0,0,1-9.28,5.69s-30.87.57-39.29,0c-3.63-.24-6.63-3-8.88-6.11V421a10.24,10.24,0,0,1,10.24-10.25h37A10.24,10.24,0,0,1,654.39,421Z" transform="translate(-36.18 -143.83)"/><path class="cls-4" d="M651.11,394.73v5.41a10.25,10.25,0,0,1-10.25,10.25h-37a10.25,10.25,0,0,1-10.24-10.25V394.3c2.23,3.1,5.24,5.9,8.88,6.14,8.42.56,39.29,0,39.29,0A17.19,17.19,0,0,0,651.11,394.73Z" transform="translate(-36.18 -143.83)"/><path class="cls-2" d="M593.65,393.77V382.11a10.25,10.25,0,0,1,10.24-10.25h37a10.25,10.25,0,0,1,10.25,10.25v12.62a17.19,17.19,0,0,1-9.29,5.71s-30.87.56-39.29,0c-3.64-.24-6.65-3-8.88-6.14Z" transform="translate(-36.18 -143.83)"/><path class="cls-4" d="M630.73,356.07v5.41a10.25,10.25,0,0,1-10.25,10.25H591.57a10.25,10.25,0,0,1-10.25-10.25v-5.66l.06-.08c1.93,3.06,4.49,5.8,7.58,6,7.24.56,33.78,0,33.78,0A14.38,14.38,0,0,0,630.73,356.07Z" transform="translate(-36.18 -143.83)"/><path class="cls-2" d="M581.38,355.74l-.06-.09v-12.2a10.25,10.25,0,0,1,10.25-10.25h28.91a10.25,10.25,0,0,1,10.25,10.25v12.62a14.38,14.38,0,0,1-8,5.71s-26.54.56-33.78,0C585.87,361.54,583.31,358.8,581.38,355.74Z" transform="translate(-36.18 -143.83)"/><path class="cls-4" d="M596.94,433.25v5.31a10.25,10.25,0,0,1-10.25,10.25h-37a10.25,10.25,0,0,1-10.25-10.25v-5.84c2.23,3.09,5.24,5.89,8.88,6.14,8.42.56,39.29,0,39.29,0a17.2,17.2,0,0,0,9.25-5.67Z" transform="translate(-36.18 -143.83)"/><path class="cls-2" d="M596.9,433.19a17.2,17.2,0,0,1-9.25,5.67s-30.87.56-39.29,0c-3.64-.25-6.65-3.05-8.88-6.14v-12.2a10.25,10.25,0,0,1,8.76-10.13h34.31a10.45,10.45,0,0,0,1.49-.11h2.65a10.24,10.24,0,0,1,10.25,10.24v12.62Z" transform="translate(-36.18 -143.83)"/><path class="cls-4" d="M592.79,394.74v5.4A10.25,10.25,0,0,1,584,410.28H549.73a10.45,10.45,0,0,0-1.49.11h-9.42a10.25,10.25,0,0,1-10.25-10.25V394.3c2.5,3.1,5.86,5.9,9.93,6.14,9.41.56,43.91,0,43.91,0A19.9,19.9,0,0,0,592.79,394.74Z" transform="translate(-36.18 -143.83)"/><path class="cls-2" d="M592.79,393.05v1.69a19.9,19.9,0,0,1-10.38,5.7s-34.5.56-43.91,0c-4.07-.24-7.43-3-9.93-6.14V382.11a10.25,10.25,0,0,1,10.25-10.25h43.73a10.25,10.25,0,0,1,10.24,10.25Z" transform="translate(-36.18 -143.83)"/><path class="cls-4" d="M589.36,317.68v5.41a10.25,10.25,0,0,1-10.25,10.25h-6.56a10.17,10.17,0,0,0-1.67-.14H542.43a9.8,9.8,0,0,0-1.33.09h0a10.26,10.26,0,0,1-9.19-10.2v-5.84c2.23,3.1,5.24,5.9,8.88,6.14,8.42.56,39.29,0,39.29,0A17.26,17.26,0,0,0,589.36,317.68Z" transform="translate(-36.18 -143.83)"/><path class="cls-2" d="M589.36,305.05v12.63a17.26,17.26,0,0,1-9.29,5.71s-30.87.56-39.29,0c-3.64-.24-6.65-3-8.88-6.14v-12.2a10.24,10.24,0,0,1,7.24-9.79h24.28a10.41,10.41,0,0,0,3-.45h12.67A10.24,10.24,0,0,1,589.36,305.05Z" transform="translate(-36.18 -143.83)"/><path class="cls-4" d="M581.13,356.08v5.4a10.25,10.25,0,0,1-10.25,10.25H542.43a10.25,10.25,0,0,1-10.25-10.25v-5.83c1.91,3.09,4.46,5.89,7.56,6.13,7.18.56,33.48,0,33.48,0A14.26,14.26,0,0,0,581.13,356.08Z" transform="translate(-36.18 -143.83)"/><path class="cls-2" d="M581.13,355.33v.75a14.26,14.26,0,0,1-7.91,5.7s-26.3.56-33.48,0c-3.1-.24-5.65-3-7.56-6.13v-12.2a10.24,10.24,0,0,1,8.91-10.16h0c.35,0,.7.05,1,.05h30.4a10.24,10.24,0,0,1,8.58,10.11Z" transform="translate(-36.18 -143.83)"/><path class="cls-4" d="M573.67,279.61V285a10.24,10.24,0,0,1-7.23,9.79H542.15a10.29,10.29,0,0,0-3,.45H526.46A10.24,10.24,0,0,1,516.21,285v-5.84c2.24,3.1,5.25,5.89,8.88,6.13,8.42.57,39.29,0,39.29,0A17.21,17.21,0,0,0,573.67,279.61Z" transform="translate(-36.18 -143.83)"/><path class="cls-2" d="M573.67,267v12.63a17.21,17.21,0,0,1-9.29,5.7s-30.87.57-39.29,0c-3.63-.24-6.64-3-8.88-6.13V267a10.24,10.24,0,0,1,10.25-10.24h37A10.24,10.24,0,0,1,573.67,267Z" transform="translate(-36.18 -143.83)"/><rect class="cls-5" x="523.56" y="153.78" width="23.83" height="10.43" rx="5.21" ry="5.21"/><rect class="cls-5" x="508.77" y="117.4" width="23.83" height="10.43" rx="5.21" ry="5.21"/><rect class="cls-5" x="622.13" y="117.4" width="23.83" height="10.43" rx="5.21" ry="5.21"/><rect class="cls-5" x="714.31" y="114.36" width="23.83" height="10.43" rx="5.21" ry="5.21"/><rect class="cls-5" x="622.13" y="153.63" width="23.83" height="10.43" rx="5.21" ry="5.21"/><rect class="cls-5" x="563.24" y="194.25" width="23.83" height="10.43" rx="5.21" ry="5.21"/><rect class="cls-5" x="513.41" y="193.36" width="23.83" height="10.43" rx="5.21" ry="5.21"/><rect class="cls-5" x="529.49" y="231.26" width="23.83" height="10.43" rx="5.21" ry="5.21"/><rect class="cls-5" x="586.03" y="231.26" width="23.83" height="10.43" rx="5.21" ry="5.21"/><rect class="cls-5" x="529.49" y="269.16" width="23.83" height="10.43" rx="5.21" ry="5.21"/><rect class="cls-5" x="589.7" y="269.76" width="23.83" height="10.43" rx="5.21" ry="5.21"/><rect class="cls-5" x="639.64" y="269.76" width="23.83" height="10.43" rx="5.21" ry="5.21"/><path class="cls-6" d="M561.83,450.12c.59-1.64.23-2.72.41-4.41q-.85-2.32,1.88-3.54,1-2.92,3.48-2.13c.92-.09,1.88.18,2.81.08a7.14,7.14,0,0,0,6.23-5.55c3-11.58-14.45-13.95-15.56-23.91-.21-1.9-3.21-1.92-3,0,.46,4.16,2.54,7.2,5.72,9.89,3.49,2.95,16.16,11.45,7.31,15.62-3.43,1.61-8.34-.58-11.11,2.86-2.44,3,.12,7-1.07,10.29-.65,1.82,2.24,2.6,2.89.8Z" transform="translate(-36.18 -143.83)"/><path class="cls-6" d="M577.32,432.32c-.47-3.57-.88-7,.95-10.3,1.52-2.71,4-3.91,6.13-6.08,2.56-2.66,3.54-5.84,2.08-9.26-.76-1.77-3.34-.24-2.59,1.51,2.13,5-6.24,8.55-8.33,12.17s-1.76,7.94-1.23,11.95c.25,1.89,3.25,1.91,3,0Z" transform="translate(-36.18 -143.83)"/><path class="cls-6" d="M575.64,435.66a24.49,24.49,0,0,1,14.25-9c3.55-.73,6.18.21,8.43-2.84,2-2.68,3.51-5,6.93-6,2.57-.76,5.32-.48,7.91-1.13,3.3-.82,5.73-2.68,6.79-5.93.6-1.84-2.3-2.63-2.89-.8-1.82,5.57-10,3.68-14.34,5.58a13.76,13.76,0,0,0-4.44,3.1c-1.46,1.52-2.19,3.89-4.34,4.61-3.27,1.11-6.86.81-10.21,2.3a27.12,27.12,0,0,0-10.22,8c-1.2,1.49.91,3.63,2.12,2.12Z" transform="translate(-36.18 -143.83)"/><path class="cls-6" d="M616.36,411.06a16,16,0,0,0-3.21,16.23,24.55,24.55,0,0,0,4.3,7.54c3.26,4,9.29,7.9,6.88,13.88-.72,1.79,2.18,2.57,2.89.8,2.07-5.16-.88-9.47-4.32-13.18-5.82-6.27-11.54-15.39-4.42-23.15,1.3-1.42-.81-3.55-2.12-2.12Z" transform="translate(-36.18 -143.83)"/><path class="cls-6" d="M611.86,422.09c.29,6.36-.08,11.61-2.86,17.42-1.88,3.94-1.31,7.18.22,11.23.68,1.79,3.58,1,2.89-.8-1.2-3.16-1.58-6.24-.23-9.45a39.28,39.28,0,0,0,2.23-5.33c1.12-4.26.94-8.72.75-13.07-.09-1.92-3.09-1.93-3,0Z" transform="translate(-36.18 -143.83)"/><path class="cls-6" d="M627.23,441.41c-.91-4.8-2.14-11.13,1.67-15.15,2.38-2.52,6.14-2.83,9.09-4.37,4.48-2.34,6.3-6.73,5.5-11.6-.31-1.9-3.2-1.09-2.89.8,1.58,9.65-10.52,8.35-14.78,14.23-3.58,4.94-2.54,11.31-1.49,16.89.36,1.89,3.25,1.09,2.89-.8Z" transform="translate(-36.18 -143.83)"/><path class="cls-6" d="M561.42,443.31c.65-5.38-4.27-6.92-7.74-9.74-6.46-5.25-4.34-15.3-3.43-22.55.24-1.91-2.76-1.89-3,0-.75,6-2,12.91.07,18.78a12.86,12.86,0,0,0,3.73,5.56c2.56,2.27,7.89,3.6,7.37,8-.23,1.91,2.77,1.9,3,0Z" transform="translate(-36.18 -143.83)"/><path class="cls-6" d="M555.77,410.37c0-4.43-.67-9.73.86-14,1.61-4.46,5.66-7.32,9.3-10,5.2-3.84,10.44-7.85,11.53-14.63.3-1.89-2.59-2.7-2.89-.8-1.53,9.48-11.72,12.45-17.41,18.94-5.12,5.84-4.36,13.17-4.38,20.45a1.5,1.5,0,0,0,3,0Z" transform="translate(-36.18 -143.83)"/><path class="cls-6" d="M557,396.32c1.47-3.52.91-7.21.28-10.89a20.83,20.83,0,0,0-1.55-5.33c-1.36-2.93-3.85-4.89-3.36-8.53.26-1.91-2.75-1.89-3,0-.48,3.56,1.33,5.61,3,8.59,2.34,4.15,3.61,10.84,1.73,15.36-.74,1.78,2.16,2.56,2.89.8Z" transform="translate(-36.18 -143.83)"/><path class="cls-6" d="M598.77,372c.72-5.63,6.8-7.17,11-9.4a15.92,15.92,0,0,0,7-6.38,14.05,14.05,0,0,0,1.58-8.06c-.5-4.82-5-9.61-2.08-14.45a1.5,1.5,0,0,0-2.59-1.51c-1.89,3.17-1.61,6.3-.42,9.71,2,5.63,3.63,11.15-1.47,15.85-5.63,5.18-14.83,5.15-16,14.24-.24,1.91,2.76,1.89,3,0Z" transform="translate(-36.18 -143.83)"/><path class="cls-6" d="M598.84,369.66a24.08,24.08,0,0,0,3.32-16.36c-1.15-7.05-8-12.74-7.25-20,.2-1.92-2.8-1.9-3,0-.56,5.41,2.42,9.18,4.89,13.7a20.84,20.84,0,0,1-.55,21.11,1.5,1.5,0,0,0,2.59,1.51Z" transform="translate(-36.18 -143.83)"/><path class="cls-6" d="M568.33,371.07a17.25,17.25,0,0,1-.07-14.49c1.45-3.25,3.6-6.11,4.82-9.48,1.88-5.19,1.81-10.63-1.26-15.32-1.05-1.61-3.65-.11-2.59,1.51,5.34,8.16-.7,15-3.9,22.39a20.62,20.62,0,0,0,.42,16.91c.78,1.76,3.37.24,2.59-1.51Z" transform="translate(-36.18 -143.83)"/><path class="cls-6" d="M566.8,364.9a30.65,30.65,0,0,0-9.61-12.21c-6.33-4.82-10.74-10.12-9.45-18.61.29-1.89-2.6-2.7-2.89-.8a20.66,20.66,0,0,0,3.87,16c2.2,2.85,5.1,4.4,7.84,6.66a28,28,0,0,1,7.66,10.44c.78,1.76,3.37.24,2.59-1.51Z" transform="translate(-36.18 -143.83)"/><path class="cls-6" d="M557.25,352.66a18.77,18.77,0,0,1,2.3-11.53c1.59-2.72,4.06-4.62,4.94-7.72a1.5,1.5,0,0,0-2.89-.8c-1,3.57-4.64,6.35-6,9.92a21.55,21.55,0,0,0-1.31,10.14c.19,1.9,3.19,1.92,3,0Z" transform="translate(-36.18 -143.83)"/><path class="cls-6" d="M562.79,294.75c-.38-7.22,6.17-10.32,6.94-16.94.8-6.92-6.47-13.93-2.08-20.45,1.08-1.61-1.52-3.11-2.59-1.51-4.27,6.35.45,12.17,1.44,18.68.79,5.19-2.25,7.48-4.67,11.49a14.73,14.73,0,0,0-2,8.74c.1,1.92,3.1,1.93,3,0Z" transform="translate(-36.18 -143.83)"/><path class="cls-6" d="M569,280.43a31.07,31.07,0,0,1,5.76-9.89c1.25-1.46-.86-3.59-2.12-2.12a35.1,35.1,0,0,0-6.53,11.21c-.65,1.82,2.25,2.61,2.89.8Z" transform="translate(-36.18 -143.83)"/><path class="cls-6" d="M545.72,256.93c1,3.34,2.58,7,3,10.46.4,3.09-.79,5.24-1.91,7.92s-1.17,4.37-3.29,1.57c-2-2.58-1-6.46-2.09-9.49s-5.5-6.74-2.95-10.16c1.16-1.55-1.45-3-2.59-1.51-3.78,5.06,2,9.18,3.1,13.94,1,4.33.41,11.67,6.47,13a1.49,1.49,0,0,0,1.46-.39,30.83,30.83,0,0,0,5-12.14c.55-4.47-2.08-9.78-3.3-14a1.5,1.5,0,0,0-2.89.8Z" transform="translate(-36.18 -143.83)"/><path class="cls-6" d="M650,334c-.4-8.55,8.59-13.15,11.75-20.37,2.71-6.17,2.55-13.07,1.93-19.63-.18-1.91-3.18-1.92-3,0,.84,8.9.41,17.17-5.58,24.3-4,4.78-8.43,9-8.11,15.7.09,1.92,3.09,1.93,3,0Z" transform="translate(-36.18 -143.83)"/><path class="cls-6" d="M650.79,328.65c8.76-14.41-15.26-21.48-14.6-34.46.1-1.93-2.9-1.92-3,0-.27,5.37,2.35,9.66,6,13.42,4.88,5.06,13.89,11.55,9,19.53-1,1.65,1.59,3.16,2.59,1.51Z" transform="translate(-36.18 -143.83)"/><path class="cls-6" d="M672.73,294.74c2.26,3.3,2,7.39,3.11,11.11a26.62,26.62,0,0,0,3.6,7.37c2.13,3,5.47,6.35,9.5,4.93,5.15-1.82,5.36-7.72,5.06-12.26-.53-7.9,1.48-15.46,3-23.18.37-1.89-2.52-2.69-2.89-.8-.92,4.74-2,9.48-2.76,14.24a34.72,34.72,0,0,0-.61,6.2c0,2.73.92,5.66.27,8.35-1.19,4.93-5.05,5.64-8.18,2a22,22,0,0,1-4.08-7.62c-1.27-4-1-8.25-3.42-11.82-1.09-1.58-3.69-.08-2.59,1.51Z" transform="translate(-36.18 -143.83)"/><path class="cls-6" d="M632,258.51c4.33-1.74,9.32-1.2,12.59,2.43,2.56,2.85,3.32,6.77,4.6,10.25,1.63,4.42,4.29,9.33,9.22,10.62,14.14,3.7,12.27-17.64,14.17-25,.48-1.87-2.41-2.67-2.89-.8-1.53,5.92,0,13-2.81,18.52-3,5.71-9,5.54-12.47.65-1.77-2.5-2.55-5.53-3.54-8.39-3-8.62-10.18-15-19.66-11.16-1.77.71-1,3.61.8,2.89Z" transform="translate(-36.18 -143.83)"/><path class="cls-6" d="M756,293.61a22.86,22.86,0,0,1,3.42-13.33c2.1-3.28,5.15-5.77,7.52-8.83a24.23,24.23,0,0,0,5-16.38c-.1-1.92-3.1-1.93-3,0a21.46,21.46,0,0,1-3,12.64c-2,3.29-5.06,5.77-7.45,8.78A25.73,25.73,0,0,0,753,293.61c.06,1.93,3.06,1.93,3,0Z" transform="translate(-36.18 -143.83)"/><path class="cls-6" d="M760.26,276.57c-5.37-2.46-11-4.66-16.17-7.54-5.88-3.27-8.2-8.85-9.67-15.1-.44-1.88-3.34-1.08-2.89.8,1.27,5.4,3.2,10.83,7.54,14.54,5.38,4.6,13.32,7,19.68,9.89,1.74.8,3.27-1.79,1.51-2.59Z" transform="translate(-36.18 -143.83)"/><path class="cls-7" d="M544.67,285.16c5.79,0,5.8-9,0-9s-5.8,9,0,9Z" transform="translate(-36.18 -143.83)"/><path class="cls-7" d="M574.19,273.81c5.79,0,5.8-9,0-9s-5.8,9,0,9Z" transform="translate(-36.18 -143.83)"/><path class="cls-7" d="M567.38,360.1c5.79,0,5.8-9,0-9s-5.8,9,0,9Z" transform="translate(-36.18 -143.83)"/><path class="cls-7" d="M594.07,351.3c5.79,0,5.8-9,0-9s-5.8,9,0,9Z" transform="translate(-36.18 -143.83)"/><path class="cls-7" d="M617.63,418.86c5.79,0,5.8-9,0-9s-5.8,9,0,9Z" transform="translate(-36.18 -143.83)"/><path class="cls-7" d="M609.39,428.23c5.79,0,5.8-9,0-9s-5.8,9,0,9Z" transform="translate(-36.18 -143.83)"/><path class="cls-7" d="M660.77,316.1c5.79,0,5.8-9,0-9s-5.8,9,0,9Z" transform="translate(-36.18 -143.83)"/><path class="cls-7" d="M676.67,305.89c5.79,0,5.8-9,0-9s-5.8,9,0,9Z" transform="translate(-36.18 -143.83)"/><path class="cls-7" d="M663.61,279.49c5.79,0,5.8-9,0-9s-5.8,9,0,9Z" transform="translate(-36.18 -143.83)"/><path class="cls-7" d="M760.41,281.76c5.79,0,5.8-9,0-9s-5.8,9,0,9Z" transform="translate(-36.18 -143.83)"/></g><g id="Layer_2" data-name="Layer 2"><path class="cls-2" d="M548.38,322.34c.46,5.64-4,10.57-10,11l-30.81,2.22h-8a10.49,10.49,0,0,0-1.87.17,10.45,10.45,0,0,1-8.17-9.15l-.38-4.69c2.52,3,6,6.1,9.49,5.92,6.62-.33,37.27-2.24,37.27-2.24s8.14,1,12.28-6.06Z" transform="translate(-36.18 -143.83)"/><path class="cls-9" d="M546.92,304.36l1.23,15.15c-4.14,7-12.28,6.06-12.28,6.06s-30.65,1.91-37.27,2.24c-3.48.18-7-2.93-9.49-5.92L488,308.6a10.36,10.36,0,0,1,8.76-10.84,11.56,11.56,0,0,0,3.77.13l8.33-1.07,26.35-1.9C541.24,294.49,546.47,298.71,546.92,304.36Z" transform="translate(-36.18 -143.83)"/><path class="cls-2" d="M544.71,432.35v5.41A10.24,10.24,0,0,1,534.46,448h-37a10.24,10.24,0,0,1-10.25-10.24v-5.84c2.23,3.1,5.24,5.9,8.88,6.14,8.42.56,39.29,0,39.29,0A17.26,17.26,0,0,0,544.71,432.35Z" transform="translate(-36.18 -143.83)"/><path class="cls-9" d="M544.71,419.72v12.63a17.26,17.26,0,0,1-9.29,5.71s-30.87.56-39.29,0c-3.64-.24-6.65-3-8.88-6.14v-12.2a10.24,10.24,0,0,1,10.25-10.24h37A10.24,10.24,0,0,1,544.71,419.72Z" transform="translate(-36.18 -143.83)"/><path class="cls-2" d="M542.38,358.81v1.89A10.25,10.25,0,0,1,532.13,371h-32.6a10.25,10.25,0,0,1-10.25-10.25V354c1.84,4,4.85,8.91,8.65,9,6.51.23,36.37,0,36.37,0A13.5,13.5,0,0,0,542.38,358.81Z" transform="translate(-36.18 -143.83)"/><path class="cls-9" d="M542.38,345.81v13a13.5,13.5,0,0,1-8.08,4.25s-29.86.23-36.37,0c-3.8-.13-6.81-5-8.65-9v-8.21a10.25,10.25,0,0,1,8.38-10.08,11.36,11.36,0,0,0,3.51.29l6.38-.46h24.58A10.25,10.25,0,0,1,542.38,345.81Z" transform="translate(-36.18 -143.83)"/><path class="cls-2" d="M540.79,396.64v2.59a10.25,10.25,0,0,1-10.25,10.25H501.41a10.25,10.25,0,0,1-10.24-10.25v-2.46c2.44,2.71,5.48,5.26,8.33,5.36,6.17.23,32.78,0,32.78,0S536.89,401.84,540.79,396.64Z" transform="translate(-36.18 -143.83)"/><path class="cls-9" d="M540.79,381.19v15.45c-3.9,5.2-8.51,5.49-8.51,5.49s-26.61.23-32.78,0c-2.85-.1-5.89-2.65-8.33-5.36V381.19A10.24,10.24,0,0,1,501.41,371h29.13A10.24,10.24,0,0,1,540.79,381.19Z" transform="translate(-36.18 -143.83)"/><path class="cls-2" d="M537.47,282.8c.81,5.61-3.36,10.77-9.31,11.54l-19.27,2.48-10.84.78a10.33,10.33,0,0,0-1.26.16,10.52,10.52,0,0,1-8.49-8.63l-.85-5.85c2.21,2.57,5.64,6.15,7.78,6.37,3.37.33,34.58-3.37,34.58-3.37a13.27,13.27,0,0,0,7.26-6.26Z" transform="translate(-36.18 -143.83)"/><path class="cls-9" d="M533.37,254.58l3.7,25.44a13.27,13.27,0,0,1-7.26,6.26s-31.21,3.7-34.58,3.37c-2.14-.22-5.57-3.8-7.78-6.37l-1.95-13.45a16.58,16.58,0,0,1,7-15.86,9,9,0,0,0,6.3-1.22l7-2.69,18-2.32A8.41,8.41,0,0,1,533.37,254.58Z" transform="translate(-36.18 -143.83)"/><path class="cls-2" d="M526.94,231.71c1.9,4.73.63,8.95-3.39,11.5l-17.79,6.85-4.82.62a18.6,18.6,0,0,0-8.47,3.29,13.43,13.43,0,0,1-9-6.26l-11.76-18.54a14.42,14.42,0,0,1-2.1-5.47,11,11,0,0,0,5.42-1.76,10.65,10.65,0,0,0,.7,1.77c2.58,5.2,9.54,18.11,13.58,19.91s9.1.45,10.67,0,23.35-8.08,23.35-8.08A8.18,8.18,0,0,0,526.94,231.71Z" transform="translate(-36.18 -143.83)"/><path class="cls-9" d="M525.53,229a16.22,16.22,0,0,1,1.41,2.74,8.18,8.18,0,0,1-3.64,3.83s-21.78,7.63-23.35,8.08-6.63,1.8-10.67,0-11-14.71-13.58-19.91a10.65,10.65,0,0,1-.7-1.77,11.48,11.48,0,0,0,3.81-4l18.06-22.5a14,14,0,0,0,.94-2c3.52-.62,7,.74,9.63,4.85Z" transform="translate(-36.18 -143.83)"/><path class="cls-9" d="M508.89,296.82l-8.33,1.07a11.56,11.56,0,0,1-3.77-.13,10.33,10.33,0,0,1,1.26-.16Z" transform="translate(-36.18 -143.83)"/><path class="cls-9" d="M507.55,335.56l-6.38.46a11.36,11.36,0,0,1-3.51-.29,10.49,10.49,0,0,1,1.87-.17Z" transform="translate(-36.18 -143.83)"/><path class="cls-9" d="M505.76,250.06l-7,2.69a9,9,0,0,1-6.3,1.22,18.6,18.6,0,0,1,8.47-3.29Z" transform="translate(-36.18 -143.83)"/><path class="cls-2" d="M476.55,210.52s0,0,0,0l-2.9,2.62c-3.34,2.12-4.78,6.26-4.07,10.55a10.27,10.27,0,0,1-5.62-1.35L447.66,213a10.53,10.53,0,0,1-5.2-8.47,18.21,18.21,0,0,0,2.78-7.27l1.88-7,7.34-18c-2.21,5.61-10.53,27.64-6.07,30.33,5.13,3.09,13.07,7.92,13.07,7.92s4.22,4,7.94,0S494,186.22,494,186.22a7.26,7.26,0,0,1,3-1.5c1.8,2.44,2.07,5.51.79,8.75a12,12,0,0,0-4.35,1.74Z" transform="translate(-36.18 -143.83)"/><path class="cls-9" d="M497.81,193.47a14,14,0,0,1-.94,2l-18.06,22.5a11.48,11.48,0,0,1-3.81,4c-1.1-3.63,0-7.08,1.55-11.41,0,0,0,0,0,0l16.91-15.31A12,12,0,0,1,497.81,193.47Z" transform="translate(-36.18 -143.83)"/><path class="cls-9" d="M493.8,181.92a10.23,10.23,0,0,1,3.22,2.8,7.26,7.26,0,0,0-3,1.5s-20.9,20.3-24.61,24.32-7.94,0-7.94,0-7.94-4.83-13.07-7.92c-4.46-2.69,3.86-24.72,6.07-30.33q.1-.24.18-.45L455,171c3.08-5.37,7.92-8.25,13-5.32Z" transform="translate(-36.18 -143.83)"/><path class="cls-2" d="M473.65,213.15l2.9-2.62c-1.57,4.33-2.65,7.78-1.55,11.41a11,11,0,0,1-5.42,1.76C468.87,219.41,470.31,215.27,473.65,213.15Z" transform="translate(-36.18 -143.83)"/><path class="cls-9" d="M454.46,172.29l.18-.45Q454.56,172,454.46,172.29Z" transform="translate(-36.18 -143.83)"/><path class="cls-9" d="M448.81,153.89c3.55.59,5.34,4.17,5.1,9.46l-15.38,30.76s-3.08,6.38-9.66,5.58-5.93-8.85-5.93-8.85v-.28c0-3-.07-29.11,0-39.6a4.83,4.83,0,0,1,4.61-2Z" transform="translate(-36.18 -143.83)"/><path class="cls-2" d="M438.53,194.11l15.38-30.76a25.94,25.94,0,0,1-.32,2.9l-6.47,24L444,198a11.54,11.54,0,0,0-1.53,6.58c-1.87,2.75-4.36,4.31-6.81,3.9l-13.29-2.18c-2.54-.42-4.44-2.84-5.29-6.22a13.14,13.14,0,0,0,3.91-9.46h2v.28s-.65,8,5.93,8.85S438.53,194.11,438.53,194.11Z" transform="translate(-36.18 -143.83)"/><path class="cls-2" d="M447.12,190.27l-1.88,7a18.21,18.21,0,0,1-2.78,7.27A11.54,11.54,0,0,1,444,198Z" transform="translate(-36.18 -143.83)"/><path class="cls-2" d="M422.94,190.56h-2a14,14,0,0,0-.41-3.37l-1.75-20.06.54-6.9c.64-3.91,1.85-7.26,3.54-9.28C422.87,161.45,422.93,187.56,422.94,190.56Z" transform="translate(-36.18 -143.83)"/><path class="cls-2" d="M420.57,187.2a14,14,0,0,1,.41,3.37,13.14,13.14,0,0,1-3.91,9.46,18.53,18.53,0,0,1-.22-7.44l.15-1.91,1.82-23.54Z" transform="translate(-36.18 -143.83)"/><path class="cls-2" d="M417.62,153.3l1.2,13.84L417,190.68l-.43,0a15.68,15.68,0,0,0,0-2.18c-.37-6.55-1.19-32.2-1.46-40.69A14.79,14.79,0,0,1,417.62,153.3Z" transform="translate(-36.18 -143.83)"/><path class="cls-2" d="M417,190.68l-.15,1.91a18.53,18.53,0,0,0,.22,7.44,11.62,11.62,0,0,1-5.36,3l-21.14,5.16a12.36,12.36,0,0,1-12.76-4.84,11.29,11.29,0,0,0-.58-7.27l1.67-.72.77,1.78s3,7.1,9.24,5.19,23.71-6.23,23.71-6.23,3.54.22,3.95-5.42Z" transform="translate(-36.18 -143.83)"/><path class="cls-9" d="M416.58,188.47a15.68,15.68,0,0,1,0,2.18c-.41,5.64-3.95,5.42-3.95,5.42s-17.48,4.32-23.71,6.23-9.24-5.19-9.24-5.19l-.77-1.78L362.72,158a8.87,8.87,0,0,1,6.89-6.9l34.59-6.92c4.6-1.12,8.42.26,10.92,3.57C415.39,156.27,416.21,181.92,416.58,188.47Z" transform="translate(-36.18 -143.83)"/><path class="cls-2" d="M362.72,158l16.18,37.3-1.67.72a12,12,0,0,0-1.47-2.51l-7.64-14.07L363,166.25A17.51,17.51,0,0,1,362.72,158Z" transform="translate(-36.18 -143.83)"/><path class="cls-2" d="M377.23,196.05a11.29,11.29,0,0,1,.58,7.27,14,14,0,0,1-2.39-5.08l-7.3-18.77,7.64,14.07A12,12,0,0,1,377.23,196.05Z" transform="translate(-36.18 -143.83)"/><path class="cls-2" d="M375.42,198.24a14,14,0,0,0,2.39,5.08,10.26,10.26,0,0,1-3.71,5.62l-14.93,11.42a11,11,0,0,1-15.3-2.43L338,212.07l-14.72-14.69c-2.33-3-3.51-6.33-3-9.24l25.77,23.93s7.48,5.4,13.11,1.08,8.64-6.83,8.64-6.83,4.82-1.91,3.42-10c-1.06-6.15-7.85-22.48-11.11-30.12a14.71,14.71,0,0,1,1.87,2l6.13,11.29Z" transform="translate(-36.18 -143.83)"/><path class="cls-9" d="M371.23,196.27c1.4,8.14-3.42,10-3.42,10s-3,2.51-8.64,6.83-13.11-1.08-13.11-1.08l-25.77-23.93a7.83,7.83,0,0,1,3.11-4.85l25-17.49c3.95-3,8.25-2.75,11.77.35C363.38,173.79,370.17,190.12,371.23,196.27Z" transform="translate(-36.18 -143.83)"/><path class="cls-2" d="M342,217.54c4.71,3.14,5.43,10.33,1.61,16.06l-12.18,18.27A13.15,13.15,0,0,1,321.23,258a17,17,0,0,0-8-6.36l.84-1.68.59.3s8.09,5.3,13.46-1.68S342,229.44,342,229.44s2.43-5.3-1.9-13.82Z" transform="translate(-36.18 -143.83)"/><path class="cls-9" d="M340.07,215.62c4.33,8.52,1.9,13.82,1.9,13.82s-8.47,12.16-13.84,19.15-13.46,1.68-13.46,1.68l-.59-.3-27.27-13.75a11.79,11.79,0,0,1,1.91-4.54l20.69-29c3.82-5.73,9.11-7.1,13.82-4Z" transform="translate(-36.18 -143.83)"/><path class="cls-2" d="M325.83,435.39v2.87a10.25,10.25,0,0,1-10.25,10.25H282a10.25,10.25,0,0,1-10.25-10.25v-3.45c1.82,2.94,4.78,5.95,9.22,6,8.7.08,35.76,0,35.76,0A11.41,11.41,0,0,0,325.83,435.39Z" transform="translate(-36.18 -143.83)"/><path class="cls-9" d="M325.83,420.22v15.17a11.41,11.41,0,0,1-9.13,5.41s-27.06.08-35.76,0c-4.44,0-7.4-3.05-9.22-6V420.22A10.24,10.24,0,0,1,282,410h33.61A10.24,10.24,0,0,1,325.83,420.22Z" transform="translate(-36.18 -143.83)"/><path class="cls-9" d="M315.66,298.1a10.23,10.23,0,0,1,9.43,11l-1.28,16.79a12.5,12.5,0,0,1-9.4,4.22s-26.78-2.59-37.65-3.5a10.31,10.31,0,0,1-8.37-5.43l1.25-16.32a10.24,10.24,0,0,1,11-9.44l25.19,1.93,4,.54a9.71,9.71,0,0,0,2.9,0Z" transform="translate(-36.18 -143.83)"/><path class="cls-9" d="M321.23,258A16.94,16.94,0,0,1,324,269.83l-2.38,17.39a12.92,12.92,0,0,1-9.65,3.55s-20.83-3.11-29.11-4.27c-4-.56-6-5.24-6.95-9.93l3-22a8,8,0,0,1,9-6.84l11.84,1.62,16.23,7.2A8.83,8.83,0,0,0,321.23,258Z" transform="translate(-36.18 -143.83)"/><path class="cls-2" d="M323.91,359.05v2.15a10.24,10.24,0,0,1-10.24,10.25H284.16a10.25,10.25,0,0,1-10.24-10.25v-.27c2,2.37,4.61,4.28,8,4.25,8.78-.08,35.6,0,35.6,0S320.75,364.48,323.91,359.05Z" transform="translate(-36.18 -143.83)"/><path class="cls-9" d="M323.91,346.31v12.74c-3.16,5.43-6.42,6.13-6.42,6.13s-26.82-.08-35.6,0c-3.36,0-6-1.88-8-4.25V346.31a10.25,10.25,0,0,1,10.24-10.25h22.55l6,.46a9.84,9.84,0,0,0,3.08-.24A10.26,10.26,0,0,1,323.91,346.31Z" transform="translate(-36.18 -143.83)"/><path class="cls-2" d="M323.81,325.89l-.09,1.19a10.24,10.24,0,0,1-7.92,9.2,10.69,10.69,0,0,0-2.13-.22h-7l-29-2.22a10.25,10.25,0,0,1-9.44-11l.13-1.66a10.31,10.31,0,0,0,8.37,5.43c10.87.91,37.65,3.5,37.65,3.5A12.5,12.5,0,0,0,323.81,325.89Z" transform="translate(-36.18 -143.83)"/><path class="cls-2" d="M322.14,396.13v3.6A10.25,10.25,0,0,1,311.89,410H285.66a10.25,10.25,0,0,1-10.25-10.25v-2.4c2,2.25,4.7,4.37,7.91,4.55,7,.4,30.21,0,30.21,0A11.7,11.7,0,0,0,322.14,396.13Z" transform="translate(-36.18 -143.83)"/><path class="cls-9" d="M322.14,381.69v14.44a11.7,11.7,0,0,1-8.61,5.75s-23.25.4-30.21,0c-3.21-.18-5.92-2.3-7.91-4.55V381.69a10.25,10.25,0,0,1,10.25-10.24h26.23A10.25,10.25,0,0,1,322.14,381.69Z" transform="translate(-36.18 -143.83)"/><path class="cls-2" d="M321.6,287.22l-.26,1.91a10.26,10.26,0,0,1-8.64,8.74l-6.87-.52-22-3A10.25,10.25,0,0,1,275,282.8l.85-6.23c1,4.69,3,9.37,6.95,9.93,8.28,1.16,29.11,4.27,29.11,4.27A12.92,12.92,0,0,0,321.6,287.22Z" transform="translate(-36.18 -143.83)"/><path class="cls-2" d="M321.23,258a8.83,8.83,0,0,1-5.25-1.45l-16.23-7.2,9.68,1.32a16.92,16.92,0,0,1,11.8,7.33Z" transform="translate(-36.18 -143.83)"/><path class="cls-9" d="M313.67,336.06a10.69,10.69,0,0,1,2.13.22,9.84,9.84,0,0,1-3.08.24l-6-.46Z" transform="translate(-36.18 -143.83)"/><path class="cls-2" d="M314.08,250l-.84,1.68a17,17,0,0,0-3.81-1l-9.68-1.32-8.2-3.64c-3.42-2.28-5.38-5.63-4.74-9.5Z" transform="translate(-36.18 -143.83)"/><path class="cls-9" d="M305.83,297.35l6.87.52a9.71,9.71,0,0,1-2.9,0Z" transform="translate(-36.18 -143.83)"/><rect class="cls-10" x="483.55" y="268.98" width="21.06" height="10.43" rx="5.21" ry="5.21"/><rect class="cls-10" x="483.55" y="230.43" width="16.45" height="8.74" rx="4.37" ry="4.37"/><rect class="cls-10" x="486.63" y="195.23" width="16.43" height="8.48" rx="4.24" ry="4.24"/><rect class="cls-10" x="520.49" y="297.99" width="21.06" height="10.43" rx="5.21" ry="5.21" transform="translate(-55.69 -106.76) rotate(-3.93)"/><rect class="cls-10" x="509.08" y="252.24" width="21.06" height="10.43" rx="5.21" ry="5.21" transform="translate(-68.69 -63.69) rotate(-8.55)"/><rect class="cls-10" x="488.75" y="198.37" width="16.64" height="10.43" rx="5.21" ry="5.21" transform="translate(-52.77 216.85) rotate(-39.28)"/><rect class="cls-10" x="492.34" y="200.71" width="21.06" height="10.43" rx="5.21" ry="5.21" transform="translate(307.74 -457.54) rotate(50.72)"/><rect class="cls-10" x="457.64" y="170.79" width="24.74" height="10.43" rx="5.21" ry="5.21" transform="translate(114.8 -355.25) rotate(30)"/><rect class="cls-10" x="432.52" y="154.87" width="17.59" height="10.43" rx="5.21" ry="5.21" transform="translate(9.31 -236.15) rotate(12.59)"/><rect class="cls-10" x="386.57" y="148.57" width="25.07" height="10.43" rx="5.21" ry="5.21" transform="translate(-54.61 -82.76) rotate(-8.55)"/><rect class="cls-10" x="341.72" y="168.61" width="17.59" height="10.43" rx="5.21" ry="5.21" transform="translate(-74.46 73.7) rotate(-32.79)"/><rect class="cls-10" x="347.66" y="169.61" width="17.59" height="10.43" rx="5.21" ry="5.21" transform="matrix(0.58, 0.81, -0.81, 0.58, 254.8, -360.59)"/><rect class="cls-10" x="315.63" y="206.08" width="17.59" height="10.43" rx="5.21" ry="5.21" transform="matrix(0.73, 0.68, -0.68, 0.73, 195.02, -308.3)"/><rect class="cls-10" x="286.66" y="251.38" width="17.59" height="10.43" rx="5.21" ry="5.21" transform="translate(1.29 -181.48) rotate(7.78)"/><rect class="cls-10" x="299.8" y="300.1" width="20.76" height="10.43" rx="5.21" ry="5.21" transform="translate(-12 -166.59) rotate(4.37)"/><rect class="cls-10" x="263.62" y="195.4" width="20.76" height="10.43" rx="5.21" ry="5.21"/><rect class="cls-10" x="261.64" y="232.33" width="20.76" height="10.43" rx="5.21" ry="5.21"/><rect class="cls-10" x="261.64" y="270.86" width="23.83" height="10.43" rx="5.21" ry="5.21"/></g><g id="Layer_4" data-name="Layer 4"><path class="cls-11" d="M504.3,448.71a1.5,1.5,0,0,0,0-3,1.5,1.5,0,0,0,0,3Z" transform="translate(-36.18 -143.83)"/><path class="cls-11" d="M506,447.92c.75-4.11,1.81-7.65,5.66-10,2.24-1.34,4.79-2.06,7.14-3.15,4.53-2.09,7.31-5,8.59-9.87,1.12-4.29,1.87-11.65-.93-15.53s-10.89-2.73-14.71-2.36l1.3,2.26c1.71-3.77,3.42-7.61,4.1-11.73.83-5.08,0-10.38-.35-15.47-.21-2.85.34-7.22-1.42-9.68s-5.63-3.14-8.44-3.43c-1.92-.2-1.9,2.8,0,3,5.25.54,6.31,2.49,6.66,7.33.23,3.09.47,6.18.68,9.27.48,7.1-.88,12.73-3.81,19.19-.42.92,0,2.38,1.3,2.26a29.24,29.24,0,0,1,9,.08c4.24.95,4.49,4.1,4.46,8.27-.06,6.3-2.15,11.17-7.95,13.82-3.17,1.44-6.65,2.39-9.37,4.67-3.14,2.63-4.11,6.32-4.82,10.22-.34,1.89,2.55,2.7,2.89.8Z" transform="translate(-36.18 -143.83)"/><path class="cls-11" d="M517.82,395.87c2.14-6.14,8-8.78,14.15-6.66,3,1,5.37,2.5,8.6,2.63,1.93.08,1.93-2.92,0-3-6.2-.25-10.13-4.88-16.71-2.88-4.47,1.36-7.44,4.81-8.94,9.12-.64,1.83,2.26,2.61,2.89.8Z" transform="translate(-36.18 -143.83)"/><path class="cls-11" d="M526.94,388.49c5.28-1.29,10.52-2.79,14.44-6.77,1.36-1.38-.76-3.5-2.12-2.12-3.55,3.61-8.35,4.83-13.12,6-1.87.46-1.08,3.35.8,2.89Z" transform="translate(-36.18 -143.83)"/><path class="cls-11" d="M508.18,441.16A13.37,13.37,0,0,0,510.9,425a15.86,15.86,0,0,0-6.25-6.32c-4-2.24-10.27-2.54-11.39-7.86-.4-1.89-3.29-1.09-2.89.8,1,4.7,4.9,6.5,9,8.08,8,3,14.45,12,6.65,19.36-1.41,1.33.72,3.45,2.12,2.12Z" transform="translate(-36.18 -143.83)"/><path class="cls-11" d="M501.83,370.76c0-6,1.81-9.21,7.45-11.44,2.6-1,5.15-1.87,7.29-3.75,6-5.29,3-13.76,8.08-19.19,1.32-1.41-.8-3.54-2.12-2.12-2.48,2.65-3.25,5.57-3.8,9.08-1,6.66-3.1,10.37-9.61,12.85-7.43,2.84-10.25,6.4-10.29,14.57a1.5,1.5,0,0,0,3,0Z" transform="translate(-36.18 -143.83)"/><path class="cls-11" d="M502.39,365.13c2-4.36,2-8.09-.58-12.23-2.49-3.94-7.45-5.07-11.72-6-1.88-.4-2.69,2.49-.8,2.89,2.88.61,6.87,1.29,9,3.44,2.9,2.88,3.07,6.85,1.48,10.36-.79,1.75,1.79,3.27,2.59,1.51Z" transform="translate(-36.18 -143.83)"/><path class="cls-11" d="M513.95,336.53c7.18-5.44,7.75-14,6.9-22.34-.89-8.86-4.6-15.86-13.15-19.28-1.79-.72-2.57,2.18-.8,2.89,7.87,3.15,10.48,10.09,11.09,18.05.51,6.62.17,13.75-5.56,18.09-1.52,1.15,0,3.76,1.51,2.59Z" transform="translate(-36.18 -143.83)"/><path class="cls-11" d="M529.68,335.12c2.11-5.35,7.68-7,10-12.07a16.7,16.7,0,0,0,1.24-5.72c.25-3.52-1.63-12.56,5.74-10.75,1.87.46,2.67-2.43.8-2.89-6.35-1.56-9.55,3.24-9.52,9.05a28.51,28.51,0,0,1-.4,7.2c-.81,3.2-3,4.81-5.4,6.84a17.08,17.08,0,0,0-5.32,7.55c-.71,1.8,2.19,2.58,2.89.8Z" transform="translate(-36.18 -143.83)"/><path class="cls-11" d="M541,310.53c1.59-5.08,2.92-10.19,1.27-15.43-.58-1.84-3.47-1.05-2.89.8,1.48,4.72.15,9.28-1.27,13.84-.58,1.85,2.32,2.64,2.89.8Z" transform="translate(-36.18 -143.83)"/><path class="cls-11" d="M526,294.26c-1.74-7.44,1.6-16.33,10.29-16.61,1.93-.06,1.93-3.06,0-3-10.68.35-15.38,11-13.18,20.41.44,1.88,3.33,1.08,2.89-.8Z" transform="translate(-36.18 -143.83)"/><path class="cls-11" d="M297.43,447.33c-3.21-2.08-6-4.43-6.57-8.36-.42-3,.29-6.84.55-9.86a81.55,81.55,0,0,1,1.17-10c.94-4.41,3.35-6.8,7.67-8.07,1.85-.54,1.06-3.44-.8-2.89-9.47,2.79-10,10.16-10.86,19-.44,4.47-1.93,10.81-.39,15.09,1.19,3.32,4.88,5.85,7.71,7.68,1.62,1.06,3.13-1.54,1.51-2.59Z" transform="translate(-36.18 -143.83)"/><path class="cls-11" d="M291.91,422.79a10.41,10.41,0,0,0-2.44-10.06c-2.82-2.84-6.92-3.53-10.73-4-1.91-.22-1.9,2.78,0,3,2.74.32,5.86.77,8.06,2.59A7.32,7.32,0,0,1,289,422a1.5,1.5,0,0,0,2.89.8Z" transform="translate(-36.18 -143.83)"/><path class="cls-11" d="M290.85,433.29c.64-4.95.85-11.8-4.2-14.45s-10.55-1.52-15.36.69c-1.75.8-.23,3.39,1.51,2.59,3.62-1.66,8.62-2.87,12.34-.69s3.2,8.1,2.71,11.86c-.25,1.91,2.76,1.89,3,0Z" transform="translate(-36.18 -143.83)"/><path class="cls-11" d="M313,450c5.48-3,6.72-8.14,6.72-14,0-8.65-.51-17.34-.77-26-.06-1.93-3.06-1.93-3,0l.56,18.78c.19,6.47,1.77,15-5,18.62-1.7.92-.19,3.51,1.51,2.59Z" transform="translate(-36.18 -143.83)"/><path class="cls-11" d="M311.32,409.8c.82-8-3.29-27.72,10.33-26.75,1.93.14,1.92-2.86,0-3-16.1-1.14-12.34,20.18-13.33,29.75-.2,1.92,2.8,1.9,3,0Z" transform="translate(-36.18 -143.83)"/><path class="cls-11" d="M312,392.41c.66-2.9.32-5.76.39-8.71a59.6,59.6,0,0,1,1.55-11.9c.43-1.88-2.46-2.68-2.89-.8a64.82,64.82,0,0,0-1.5,9.6c-.27,3.63.38,7.46-.43,11-.43,1.88,2.46,2.68,2.89.8Z" transform="translate(-36.18 -143.83)"/><path class="cls-11" d="M275.12,397.53c11.88-.22,9.37-17.89,8.76-25.62-.15-1.91-3.15-1.93-3,0,.44,5.61,3,22.45-5.76,22.62-1.93,0-1.93,3,0,3Z" transform="translate(-36.18 -143.83)"/><path class="cls-11" d="M301.38,408.26c-5-5-2.75-13-2.75-19.38,0-5.95-.87-11.72-.46-17.7.13-1.93-2.87-1.92-3,0-.53,7.79.47,15.51.14,23.3-.27,6.2-.58,11.33,4,15.9a1.5,1.5,0,0,0,2.12-2.12Z" transform="translate(-36.18 -143.83)"/><path class="cls-11" d="M288.26,335c-4.17,5.63-3.52,14.41-3.2,21,.32,6.81,3.12,11.19,7.24,16.52,1.18,1.53,3.29-.61,2.12-2.12a53.55,53.55,0,0,1-4.5-6.53c-1.71-3.06-1.85-6.36-1.93-9.81-.13-5.68-.66-12.83,2.86-17.58,1.15-1.55-1.45-3.05-2.59-1.51Z" transform="translate(-36.18 -143.83)"/><path class="cls-11" d="M284.85,358a43.8,43.8,0,0,1,.16,12.91c-.26,1.89,2.63,2.7,2.89.8a48.74,48.74,0,0,0-.16-14.51c-.31-1.9-3.2-1.09-2.89.8Z" transform="translate(-36.18 -143.83)"/><path class="cls-11" d="M310.13,336c0,7.58,6.08,12.73,13.1,14.18,1.88.39,2.69-2.5.8-2.89-5.68-1.17-10.86-5-10.89-11.29a1.5,1.5,0,0,0-3,0Z" transform="translate(-36.18 -143.83)"/><path class="cls-11" d="M301.72,334.13c-6.56-2.42-4.46-12.28-5.2-17.93a16.79,16.79,0,0,0-5.43-10.25c-6.54-6-14.93-5.51-22.5-2-1.75.81-.23,3.39,1.51,2.59,5-2.3,10.51-3.34,15.63-.65,6,3.13,7.77,8.38,8,14.79.28,6.81,0,13.73,7.17,16.37,1.81.67,2.6-2.23.8-2.89Z" transform="translate(-36.18 -143.83)"/><path class="cls-11" d="M296.74,317.44c-.66-5.65-3.65-15.32,1-19.77,1.39-1.34-.73-3.46-2.12-2.12-5.67,5.48-2.64,15.06-1.84,21.89.22,1.89,3.22,1.92,3,0Z" transform="translate(-36.18 -143.83)"/><path class="cls-11" d="M288.31,295.36c5.27-10.38,1.58-26.12-11.15-28.91-1.88-.41-2.69,2.48-.8,2.89,10.77,2.36,13.78,15.78,9.35,24.5-.87,1.72,1.71,3.24,2.59,1.51Z" transform="translate(-36.18 -143.83)"/><path class="cls-11" d="M290.82,284.07c-1.73-6.34,3-17.47,8.2-21.31,3.84-2.84,7.29-2.93,11.81-3.72a9.41,9.41,0,0,0,5.61-2.6c1.4-1.34-.73-3.46-2.12-2.12-3,2.9-9.07,1.75-12.92,3.61-3.32,1.61-6.14,3.46-8.11,6.64-3.49,5.64-7.19,13.62-5.36,20.3a1.5,1.5,0,0,0,2.89-.8Z" transform="translate(-36.18 -143.83)"/><path class="cls-11" d="M315.2,256.42c6.49,1.2,15.49,1.69,18.5-5.54.74-1.78-2.16-2.56-2.89-.8-2.2,5.29-10.36,4.27-14.81,3.45-1.89-.35-2.7,2.54-.8,2.89Z" transform="translate(-36.18 -143.83)"/><path class="cls-11" d="M297.82,219.87c6.38-.47,13.72,1.25,13.39,9.06-.16,3.87-1.11,7.33,1.25,10.72,1.1,1.57,3.7.08,2.59-1.51-3.44-4.93,1.11-11.32-2.8-16.47-3.41-4.49-9.2-5.18-14.43-4.8-1.91.14-1.93,3.14,0,3Z" transform="translate(-36.18 -143.83)"/><path class="cls-11" d="M309.82,223.41a18,18,0,0,0,10.6,9.59c6.76,2.26,14.75-2.25,19.44,4.91,1.05,1.61,3.65.11,2.59-1.51a12.33,12.33,0,0,0-11.1-5.9c-3.74.07-7,.81-10.6-.6a15,15,0,0,1-8.33-8c-.83-1.74-3.41-.22-2.59,1.51Z" transform="translate(-36.18 -143.83)"/><path class="cls-11" d="M395.1,205.42c-7.28-.44-9.05-12.52-10-17.93s-1.07-10.87-2.57-16.1c-2.8-9.75-10.25-13.34-19.53-15.54-1.88-.45-2.68,2.45-.8,2.89,6.47,1.53,12.91,3.43,16.1,9.83,2.6,5.22,2.7,11.45,3.51,17.1,1.09,7.71,3.18,22.13,13.25,22.74,1.93.12,1.92-2.88,0-3Z" transform="translate(-36.18 -143.83)"/><path class="cls-11" d="M382.43,170.88A43.26,43.26,0,0,1,381,161c.07-3.57,1.36-10.67,5.56-11.85a1.5,1.5,0,0,0-.8-2.89c-4.12,1.15-6.16,5.78-7.15,9.65-1.34,5.23-.22,10.64.9,15.8.41,1.89,3.3,1.09,2.89-.8Z" transform="translate(-36.18 -143.83)"/><path class="cls-11" d="M455.48,214.65c-3.77-10.29,11.29-10.13,11-19.2-.26-7.74-12.61-7.38-17-11.16-1.46-1.25-3.59.86-2.12,2.12,2.5,2.14,5.19,3.12,8.31,4.07,1.48.45,3.94.91,5.13,1.82,6.24,4.77-.67,8.1-3.26,9.91-4.57,3.2-6.95,7.68-4.91,13.24.66,1.8,3.56,1,2.89-.8Z" transform="translate(-36.18 -143.83)"/><path class="cls-11" d="M465.47,199.58c5.47-10.66,22.31-11.67,32.4-7.66,1.79.71,2.57-2.19.8-2.89-11.4-4.53-29.66-2.9-35.78,9-.88,1.71,1.71,3.23,2.59,1.51Z" transform="translate(-36.18 -143.83)"/><path class="cls-12" d="M314.2,242.71c3.86,0,3.87-6,0-6s-3.87,6,0,6Z" transform="translate(-36.18 -143.83)"/><path class="cls-12" d="M289.73,287c3.86,0,3.87-6,0-6s-3.87,6,0,6Z" transform="translate(-36.18 -143.83)"/><path class="cls-12" d="M275.65,270.41c3.86,0,3.87-6,0-6s-3.87,6,0,6Z" transform="translate(-36.18 -143.83)"/><path class="cls-12" d="M268.26,308.27c3.86,0,3.87-6,0-6s-3.87,6,0,6Z" transform="translate(-36.18 -143.83)"/><path class="cls-12" d="M310.74,395.07c3.86,0,3.87-6,0-6s-3.87,6,0,6Z" transform="translate(-36.18 -143.83)"/><path class="cls-12" d="M513.65,396c3.86,0,3.87-6,0-6s-3.87,6,0,6Z" transform="translate(-36.18 -143.83)"/><path class="cls-12" d="M538.13,383.3c3.86,0,3.87-6,0-6s-3.87,6,0,6Z" transform="translate(-36.18 -143.83)"/><path class="cls-12" d="M526.12,283.11c3.86,0,3.87-6,0-6s-3.87,6,0,6Z" transform="translate(-36.18 -143.83)"/></g></svg>