<svg xmlns="http://www.w3.org/2000/svg" viewBox="0 0 336.63 115.8"><defs><style>.cls-1{fill:#685949;}.cls-2{fill:#594c3e;}.cls-3{fill:#9e9486;}.cls-4{fill:#b2a18b;}</style></defs><title>WoodTable</title><g id="Layer_2" data-name="Layer 2"><g id="Layer_4" data-name="Layer 4"><path class="cls-1" d="M63.79,115.8c3.62,0,6.58-1.82,6.58-4.05V41.06c0-2.23-3-4.05-6.58-4.05H51.36c-2.89,0-5.36,1.16-6.24,2.77a9.82,9.82,0,0,1,2.46-.31c3.5,0,6.37,1.76,6.37,3.92v6.23a5.28,5.28,0,0,1,1.84-.32c2,0,3.56,1,3.56,2.19V64.62c0,1.21-1.6,2.19-3.56,2.19a5.28,5.28,0,0,1-1.84-.32v8.21a5.28,5.28,0,0,1,1.84-.32c2,0,3.56,1,3.56,2.19v12.8a5.47,5.47,0,0,1,1.92-.34c2,0,3.69,1,3.69,2.27V112c0,1.25-1.66,2.27-3.69,2.27s-3.69-1-3.69-2.27v-4.54a5.46,5.46,0,0,1-3.63,0v4.4c0,1.75-1.9,3.25-4.49,3.75a10.35,10.35,0,0,0,1.9.18ZM65,80.21V60.81c0-.33.44-.6,1-.6s1,.27,1,.6V80.21c0,.33-.44.6-1,.6S65,80.54,65,80.21Z"/><path class="cls-2" d="M53.95,111.87v-4.4a5.46,5.46,0,0,0,3.63,0V112c0,1.25,1.66,2.27,3.69,2.27S65,113.28,65,112V91.33c0-1.25-1.66-2.27-3.69-2.27a5.47,5.47,0,0,0-1.92.34V76.58c0-1.21-1.6-2.19-3.56-2.19a5.28,5.28,0,0,0-1.84.32V66.5a5.28,5.28,0,0,0,1.84.32c2,0,3.56-1,3.56-2.19V51.5c0-1.21-1.6-2.19-3.56-2.19a5.28,5.28,0,0,0-1.84.32V43.4c0-2.16-2.87-3.92-6.37-3.92a9.82,9.82,0,0,0-2.46.31,2.66,2.66,0,0,0-.35,1.28v70.68c0,1.82,2,3.37,4.68,3.88C52.05,115.12,53.95,113.63,53.95,111.87Z"/><path class="cls-2" d="M65,60.81V80.21c0,.33.44.6,1,.6s1-.27,1-.6V60.81c0-.33-.44-.6-1-.6S65,60.48,65,60.81Z"/><rect class="cls-3" x="52.46" y="28.74" width="10.58" height="25.6" rx="5.29" ry="5.29" transform="translate(99.29 -16.2) rotate(90)"/><rect class="cls-4" x="46.59" y="36.53" width="22.31" height="8.55" rx="4.28" ry="4.28"/><path class="cls-1" d="M28.52,115.8c3.62,0,6.58-1.82,6.58-4.05V41.06c0-2.23-3-4.05-6.58-4.05H16.08c-2.89,0-5.36,1.16-6.24,2.77a9.82,9.82,0,0,1,2.46-.31c3.5,0,6.37,1.76,6.37,3.92v6.23a5.28,5.28,0,0,1,1.84-.32c2,0,3.56,1,3.56,2.19V64.62c0,1.21-1.6,2.19-3.56,2.19a5.28,5.28,0,0,1-1.84-.32v8.21a5.28,5.28,0,0,1,1.84-.32c2,0,3.56,1,3.56,2.19v12.8A5.47,5.47,0,0,1,26,89.05c2,0,3.69,1,3.69,2.27V112c0,1.25-1.66,2.27-3.69,2.27s-3.69-1-3.69-2.27v-4.54a5.46,5.46,0,0,1-3.63,0v4.4c0,1.75-1.9,3.25-4.49,3.75a10.35,10.35,0,0,0,1.9.18Zm1.17-35.58V60.81c0-.33.44-.6,1-.6s1,.27,1,.6V80.21c0,.33-.44.6-1,.6S29.69,80.54,29.69,80.21Z"/><path class="cls-2" d="M18.67,111.87v-4.4a5.46,5.46,0,0,0,3.63,0V112c0,1.25,1.66,2.27,3.69,2.27s3.69-1,3.69-2.27V91.33c0-1.25-1.66-2.27-3.69-2.27a5.47,5.47,0,0,0-1.92.34V76.58c0-1.21-1.6-2.19-3.56-2.19a5.28,5.28,0,0,0-1.84.32V66.5a5.28,5.28,0,0,0,1.84.32c2,0,3.56-1,3.56-2.19V51.5c0-1.21-1.6-2.19-3.56-2.19a5.28,5.28,0,0,0-1.84.32V43.4c0-2.16-2.87-3.92-6.37-3.92a9.82,9.82,0,0,0-2.46.31,2.66,2.66,0,0,0-.35,1.28v70.68c0,1.82,2,3.37,4.68,3.88C16.77,115.12,18.67,113.63,18.67,111.87Z"/><path class="cls-2" d="M29.69,60.81V80.21c0,.33.44.6,1,.6s1-.27,1-.6V60.81c0-.33-.44-.6-1-.6S29.69,60.48,29.69,60.81Z"/><rect class="cls-3" x="17.18" y="28.74" width="10.58" height="25.6" rx="5.29" ry="5.29" transform="translate(64.02 19.07) rotate(90)"/><rect class="cls-4" x="11.32" y="36.53" width="22.31" height="8.55" rx="4.28" ry="4.28"/><path class="cls-1" d="M320.85,115.8c3.62,0,6.58-1.82,6.58-4.05V41.06c0-2.23-3-4.05-6.58-4.05H308.41c-2.89,0-5.36,1.16-6.24,2.77a9.82,9.82,0,0,1,2.46-.31c3.5,0,6.37,1.76,6.37,3.92v6.23a5.28,5.28,0,0,1,1.84-.32c2,0,3.56,1,3.56,2.19V64.62c0,1.21-1.6,2.19-3.56,2.19A5.28,5.28,0,0,1,311,66.5v8.21a5.28,5.28,0,0,1,1.84-.32c2,0,3.56,1,3.56,2.19v12.8a5.47,5.47,0,0,1,1.92-.34c2,0,3.69,1,3.69,2.27V112c0,1.25-1.66,2.27-3.69,2.27s-3.69-1-3.69-2.27v-4.54a5.46,5.46,0,0,1-3.63,0v4.4c0,1.75-1.9,3.25-4.49,3.75a10.35,10.35,0,0,0,1.9.18ZM322,80.21V60.81c0-.33.44-.6,1-.6s1,.27,1,.6V80.21c0,.33-.44.6-1,.6S322,80.54,322,80.21Z"/><path class="cls-2" d="M311,111.87v-4.4a5.46,5.46,0,0,0,3.63,0V112c0,1.25,1.66,2.27,3.69,2.27s3.69-1,3.69-2.27V91.33c0-1.25-1.66-2.27-3.69-2.27a5.47,5.47,0,0,0-1.92.34V76.58c0-1.21-1.6-2.19-3.56-2.19a5.28,5.28,0,0,0-1.84.32V66.5a5.28,5.28,0,0,0,1.84.32c2,0,3.56-1,3.56-2.19V51.5c0-1.21-1.6-2.19-3.56-2.19a5.28,5.28,0,0,0-1.84.32V43.4c0-2.16-2.87-3.92-6.37-3.92a9.82,9.82,0,0,0-2.46.31,2.66,2.66,0,0,0-.35,1.28v70.68c0,1.82,2,3.37,4.68,3.88C309.11,115.12,311,113.63,311,111.87Z"/><path class="cls-2" d="M322,60.81V80.21c0,.33.44.6,1,.6s1-.27,1-.6V60.81c0-.33-.44-.6-1-.6S322,60.48,322,60.81Z"/><rect class="cls-3" x="309.51" y="28.74" width="10.58" height="25.6" rx="5.29" ry="5.29" transform="translate(356.35 -273.26) rotate(90)"/><rect class="cls-4" x="303.65" y="36.53" width="22.31" height="8.55" rx="4.28" ry="4.28"/><path class="cls-1" d="M285.57,115.8c3.62,0,6.58-1.82,6.58-4.05V41.06c0-2.23-3-4.05-6.58-4.05H273.14c-2.89,0-5.36,1.16-6.24,2.77a9.82,9.82,0,0,1,2.46-.31c3.5,0,6.37,1.76,6.37,3.92v6.23a5.28,5.28,0,0,1,1.84-.32c2,0,3.56,1,3.56,2.19V64.62c0,1.21-1.6,2.19-3.56,2.19a5.28,5.28,0,0,1-1.84-.32v8.21a5.28,5.28,0,0,1,1.84-.32c2,0,3.56,1,3.56,2.19v12.8a5.47,5.47,0,0,1,1.92-.34c2,0,3.69,1,3.69,2.27V112c0,1.25-1.66,2.27-3.69,2.27s-3.69-1-3.69-2.27v-4.54a5.46,5.46,0,0,1-3.63,0v4.4c0,1.75-1.9,3.25-4.49,3.75a10.35,10.35,0,0,0,1.9.18Zm1.17-35.58V60.81c0-.33.44-.6,1-.6s1,.27,1,.6V80.21c0,.33-.44.6-1,.6S286.74,80.54,286.74,80.21Z"/><path class="cls-2" d="M275.73,111.87v-4.4a5.46,5.46,0,0,0,3.63,0V112c0,1.25,1.66,2.27,3.69,2.27s3.69-1,3.69-2.27V91.33c0-1.25-1.66-2.27-3.69-2.27a5.47,5.47,0,0,0-1.92.34V76.58c0-1.21-1.6-2.19-3.56-2.19a5.28,5.28,0,0,0-1.84.32V66.5a5.28,5.28,0,0,0,1.84.32c2,0,3.56-1,3.56-2.19V51.5c0-1.21-1.6-2.19-3.56-2.19a5.28,5.28,0,0,0-1.84.32V43.4c0-2.16-2.87-3.92-6.37-3.92a9.82,9.82,0,0,0-2.46.31,2.66,2.66,0,0,0-.35,1.28v70.68c0,1.82,2,3.37,4.68,3.88C273.83,115.12,275.73,113.63,275.73,111.87Z"/><path class="cls-2" d="M286.74,60.81V80.21c0,.33.44.6,1,.6s1-.27,1-.6V60.81c0-.33-.44-.6-1-.6S286.74,60.48,286.74,60.81Z"/><rect class="cls-3" x="274.24" y="28.74" width="10.58" height="25.6" rx="5.29" ry="5.29" transform="translate(321.07 -237.98) rotate(90)"/><rect class="cls-4" x="268.37" y="36.53" width="22.31" height="8.55" rx="4.28" ry="4.28"/><path class="cls-1" d="M336.63,12.32c0-6.6-7.72-12-17.15-12H20.35c-9.43,0-17.15,5.4-17.15,12V35c0,5.27,4.93,9.77,11.72,11.37a8.63,8.63,0,0,1-1.29-4.48c0-6.39,7.47-11.61,16.59-11.61H56.6a5.1,5.1,0,0,1-1.35-3.35c0-3.57,4.18-6.5,9.28-6.5h55.52c5.1,0,9.28,2.92,9.28,6.5A5.1,5.1,0,0,1,128,30.26h34.76a5.1,5.1,0,0,1-1.35-3.35c0-3.57,4.18-6.5,9.28-6.5h54.19a5.3,5.3,0,0,1-1.43-3.5c0-3.7,4.33-6.73,9.62-6.73H320.7c5.29,0,9.62,3,9.62,6.73s-4.33,6.73-9.62,6.73H301.48a4.82,4.82,0,0,1-.07,6.61H320c7.43,0,13.75,3.46,15.85,8.19a8.66,8.66,0,0,0,.74-3.47ZM186,10.18H103.91c-1.39,0-2.53-.8-2.53-1.77s1.14-1.77,2.53-1.77H186c1.39,0,2.53.8,2.53,1.77S187.43,10.18,186,10.18Z"/><path class="cls-2" d="M320,30.26H301.41a4.82,4.82,0,0,0,.07-6.61H320.7c5.29,0,9.62-3,9.62-6.73s-4.33-6.73-9.62-6.73H233.07c-5.29,0-9.62,3-9.62,6.73a5.3,5.3,0,0,0,1.43,3.5H170.68c-5.1,0-9.28,2.92-9.28,6.5a5.1,5.1,0,0,0,1.35,3.35H128a5.1,5.1,0,0,0,1.35-3.35c0-3.57-4.18-6.5-9.28-6.5H64.54c-5.1,0-9.28,2.92-9.28,6.5a5.1,5.1,0,0,0,1.35,3.35H30.22c-9.13,0-16.59,5.23-16.59,11.61a8.63,8.63,0,0,0,1.29,4.48,23.67,23.67,0,0,0,5.43.63H319.48c7.71,0,14.27-3.61,16.41-8.53C333.79,33.72,327.46,30.26,320,30.26Z"/><path class="cls-2" d="M103.91,10.18H186c1.39,0,2.53-.8,2.53-1.77S187.43,6.64,186,6.64H103.91c-1.39,0-2.53.8-2.53,1.77S102.52,10.18,103.91,10.18Z"/><rect class="cls-3" width="44.77" height="46.67" rx="12" ry="12"/><rect class="cls-4" x="-1.06" y="5.23" width="40.67" height="36.2" rx="9" ry="9" transform="translate(-4.06 42.61) rotate(-90)"/></g></g></svg>